%TF.GenerationSoftware,KiCad,Pcbnew,5.99.0-unknown-r24380-aab3c936*%
%TF.CreationDate,2021-01-25T13:27:43+00:00*%
%TF.ProjectId,safeproject-panel-r1,73616665-7072-46f6-9a65-63742d70616e,rev?*%
%TF.SameCoordinates,Original*%
%TF.FileFunction,Profile,NP*%
%FSLAX46Y46*%
G04 Gerber Fmt 4.6, Leading zero omitted, Abs format (unit mm)*
G04 Created by KiCad (PCBNEW 5.99.0-unknown-r24380-aab3c936) date 2021-01-25 13:27:43*
%MOMM*%
%LPD*%
G01*
G04 APERTURE LIST*
%TA.AperFunction,Profile*%
%ADD10C,0.100000*%
%TD*%
G04 APERTURE END LIST*
D10*
X46650000Y7000000D02*
X52500000Y7000000D01*
X13000002Y61001402D02*
G75*
G02*
X13500000Y60501400I-2J-500000D01*
G01*
X27500000Y45900000D02*
X27500000Y46500000D01*
X39000000Y-26600000D02*
X31000000Y-26600000D01*
X-29502802Y46501402D02*
G75*
G02*
X-29002800Y47001400I500000J-2D01*
G01*
X27000004Y47000004D02*
G75*
G02*
X27500000Y46500000I-4J-500000D01*
G01*
X53499997Y7999997D02*
G75*
G02*
X52500000Y7000000I-999997J0D01*
G01*
X30000000Y52500000D02*
X30000000Y45900000D01*
X-15002802Y-61001402D02*
G75*
G02*
X-15502800Y-60501400I2J500000D01*
G01*
X51999997Y400003D02*
G75*
G03*
X51000000Y1400000I-999997J0D01*
G01*
X40000000Y-10100000D02*
X40000000Y-25600000D01*
X30000000Y-25400000D02*
X30000003Y-25600003D01*
X58999997Y35999997D02*
G75*
G02*
X58000000Y35000000I-999997J0D01*
G01*
X-15502800Y-60501400D02*
X-15502800Y-56501400D01*
X30000003Y-25600003D02*
G75*
G03*
X31000000Y-26600000I999997J0D01*
G01*
X13500000Y60501400D02*
X13500000Y56501400D01*
X58999997Y35999997D02*
X59000000Y52500000D01*
X22999997Y47001397D02*
G75*
G02*
X13500000Y56501400I3J9500000D01*
G01*
X27500000Y29750000D02*
X27500000Y40500000D01*
X30000000Y24350000D02*
X30000000Y23650000D01*
X42950000Y1400000D02*
X51000000Y1400000D01*
X31000000Y3900000D02*
X40450000Y3900000D01*
X27500002Y-46501402D02*
G75*
G02*
X27000000Y-47001400I-500000J2D01*
G01*
X-27301400Y-28394400D02*
X-18001400Y-29701400D01*
X30999997Y3899997D02*
G75*
G03*
X30000000Y2900000I0J-999997D01*
G01*
X27000000Y-47001400D02*
X23000000Y-47001400D01*
X23000000Y47001400D02*
X27000000Y47001400D01*
X-15502797Y56501397D02*
G75*
G02*
X-25002800Y47001400I-9500000J3D01*
G01*
X58000000Y53500000D02*
X31000000Y53500000D01*
X-27301400Y-1401410D02*
X-29601400Y-1401410D01*
X27500000Y-11450000D02*
X27500000Y-20000000D01*
X-25002797Y-47001397D02*
G75*
G02*
X-15502800Y-56501400I-3J-9500000D01*
G01*
X51000003Y-9099997D02*
G75*
G03*
X52000000Y-8100000I0J999997D01*
G01*
X30000000Y23650000D02*
X46650000Y7000000D01*
X40450000Y3900000D02*
X42950000Y1400000D01*
X-18001400Y14105600D02*
X-18001400Y2105620D01*
X-27301400Y798594D02*
X-18001400Y2105620D01*
X13000000Y-61001400D02*
X-15002800Y-61001400D01*
X27500000Y24350000D02*
X27500000Y-6050000D01*
X40999997Y-9100003D02*
G75*
G03*
X40000000Y-10100000I0J-999997D01*
G01*
X-29502800Y46501400D02*
X-29502800Y15722000D01*
X30000000Y40500000D02*
X30000000Y29750000D01*
X30000003Y52500003D02*
G75*
G02*
X31000000Y53500000I999997J0D01*
G01*
X-15502802Y60501402D02*
G75*
G02*
X-15002800Y61001400I500000J-2D01*
G01*
X51000000Y-9100000D02*
X41000000Y-9100000D01*
X-29601400Y-28394400D02*
X-27301400Y-28394400D01*
X-27301400Y-1401410D02*
X-27301400Y798594D01*
X13500002Y-60501402D02*
G75*
G02*
X13000000Y-61001400I-500000J2D01*
G01*
X-29601400Y-1401410D02*
X-29601400Y-28394400D01*
X30000000Y-6050000D02*
X30000000Y2900000D01*
X-18001400Y-39701400D02*
X-25002800Y-40685400D01*
X-15002800Y61001400D02*
X13000000Y61001400D01*
X30000000Y-11450000D02*
X30000000Y-20000000D01*
X-25002800Y-47001400D02*
X-25002800Y-40685400D01*
X53500000Y35000000D02*
X58000000Y35000000D01*
X-15502800Y56501400D02*
X-15502800Y60501400D01*
X58000003Y53499997D02*
G75*
G02*
X59000000Y52500000I0J-999997D01*
G01*
X-29502800Y15722000D02*
X-18001400Y14105600D01*
X27500000Y-25400000D02*
X27500000Y-46501400D01*
X52000000Y400000D02*
X52000000Y-8100000D01*
X-18001400Y-29701400D02*
X-18001400Y-39701400D01*
X13499997Y-56501397D02*
G75*
G02*
X23000000Y-47001400I9500000J-3D01*
G01*
X13500000Y-56501400D02*
X13500000Y-60501400D01*
X39000003Y-26599997D02*
G75*
G03*
X40000000Y-25600000I0J999997D01*
G01*
X53500000Y8000000D02*
X53500000Y35000000D01*
X-29002800Y47001400D02*
X-25002800Y47001400D01*
%TO.C,*%
X28800000Y25550000D02*
X28700000Y25550000D01*
X28700000Y28550000D02*
X28800000Y28550000D01*
X28800002Y25550002D02*
G75*
G02*
X30000000Y24350000I-2J-1200000D01*
G01*
X28800002Y28550002D02*
G75*
G03*
X30000000Y29750000I0J1199998D01*
G01*
X28699998Y25549998D02*
G75*
G03*
X27500000Y24350000I0J-1199998D01*
G01*
X28699998Y28549998D02*
G75*
G02*
X27500000Y29750000I2J1200000D01*
G01*
X28700000Y-21200000D02*
X28800000Y-21200000D01*
X28800000Y-24200000D02*
X28700000Y-24200000D01*
X28699998Y-24200002D02*
G75*
G03*
X27500000Y-25400000I0J-1199998D01*
G01*
X28800002Y-21199998D02*
G75*
G03*
X30000000Y-20000000I0J1199998D01*
G01*
X28699998Y-21200002D02*
G75*
G02*
X27500000Y-20000000I2J1200000D01*
G01*
X28800002Y-24199998D02*
G75*
G02*
X30000000Y-25400000I-2J-1200000D01*
G01*
X28700000Y44700000D02*
X28800000Y44700000D01*
X28800000Y41700000D02*
X28700000Y41700000D01*
X28800002Y41700002D02*
G75*
G02*
X30000000Y40500000I-2J-1200000D01*
G01*
X28699998Y44699998D02*
G75*
G02*
X27500000Y45900000I2J1200000D01*
G01*
X28699998Y41699998D02*
G75*
G03*
X27500000Y40500000I0J-1199998D01*
G01*
X28800002Y44700002D02*
G75*
G03*
X30000000Y45900000I0J1199998D01*
G01*
X28700000Y-7250000D02*
X28800000Y-7250000D01*
X28800000Y-10250000D02*
X28700000Y-10250000D01*
X28800002Y-10249998D02*
G75*
G02*
X30000000Y-11450000I-2J-1200000D01*
G01*
X28699998Y-10250002D02*
G75*
G03*
X27500000Y-11450000I0J-1199998D01*
G01*
X28800002Y-7249998D02*
G75*
G03*
X30000000Y-6050000I0J1199998D01*
G01*
X28699998Y-7250002D02*
G75*
G02*
X27500000Y-6050000I2J1200000D01*
G01*
%TD*%
M02*
