M48
; DRILL file {KiCad 5.99.0-unknown-r24380-aab3c936} date Mon Jan 25 13:27:57 2021
; FORMAT={-:-/ absolute / metric / decimal}
; #@! TF.CreationDate,2021-01-25T13:27:57+00:00
; #@! TF.GenerationSoftware,Kicad,Pcbnew,5.99.0-unknown-r24380-aab3c936
; #@! TF.FileFunction,Plated,1,2,PTH
FMAT,2
METRIC
T1C0.200
T2C0.300
T3C0.400
T4C1.000
%
G90
G05
T1
X35.325Y-0.925
X35.325Y-2.0
X35.325Y-3.075
X36.4Y-0.925
X36.4Y-2.0
X36.4Y-3.075
X37.475Y-0.925
X37.475Y-2.0
X37.475Y-3.075
T2
X30.65Y0.4
X30.95Y-4.65
X31.0Y2.95
X31.0Y-6.1
X31.4Y-16.9
X32.65Y1.15
X32.65Y-5.25
X32.7Y31.0
X33.0Y-2.65
X33.575Y39.05
X34.35Y0.45
X34.45Y40.05
X34.5Y41.25
X35.664Y3.075
X36.253Y2.534
X36.8Y1.95
X36.85Y-15.6
X37.425Y1.375
X37.45Y-15.6
X38.25Y-15.6
X38.4Y40.55
X38.405Y-14.15
X38.55Y-4.15
X38.65Y44.55
X38.7Y41.9
X39.05Y42.7
X39.1Y-5.6
X39.15Y-6.55
X39.4Y-1.95
X40.283Y0.933
X40.65Y-4.55
X42.674Y-4.144
X42.85Y-1.65
X43.875Y28.026
X44.1Y25.7
X44.35Y19.4
X45.7Y24.4
X45.7Y22.7
X47.2Y-3.4
X47.35Y19.75
X47.4Y21.0
X48.158Y-3.358
X48.9Y24.2
X48.9Y16.15
X48.9Y8.4
X48.95Y25.75
X49.0Y-3.4
X49.7Y-3.85
X50.3Y-3.85
T3
X-12.151Y-19.3
X-12.151Y-25.8
X-2.651Y53.5
X-2.651Y49.6
X11.149Y42.2
X11.149Y40.2
X11.149Y38.2
X11.149Y36.2
X11.749Y41.3
X11.749Y39.2
X11.749Y37.2
X32.95Y-13.7
X35.1Y43.525
X38.8Y0.25
X39.475Y43.775
X40.075Y23.825
X40.35Y0.0
T4
X-11.714Y57.0
X-11.714Y54.46
X-11.714Y51.92
X-11.714Y49.38
X-11.714Y46.84
X-11.714Y44.3
X-11.714Y41.76
X-11.714Y39.22
X-11.714Y36.68
X-11.714Y34.14
X-11.714Y31.6
X-11.714Y29.06
X-11.714Y26.52
X-11.714Y23.98
X-11.714Y21.44
X-11.714Y18.9
X-11.714Y16.36
X-11.714Y13.82
X-11.714Y11.28
X-11.714Y8.74
T0
M30
