%TF.GenerationSoftware,KiCad,Pcbnew,5.99.0-unknown-r24380-aab3c936*%
%TF.CreationDate,2021-01-25T13:27:41+00:00*%
%TF.ProjectId,safeproject-panel-r1,73616665-7072-46f6-9a65-63742d70616e,rev?*%
%TF.SameCoordinates,Original*%
%TF.FileFunction,Paste,Top*%
%TF.FilePolarity,Positive*%
%FSLAX46Y46*%
G04 Gerber Fmt 4.6, Leading zero omitted, Abs format (unit mm)*
G04 Created by KiCad (PCBNEW 5.99.0-unknown-r24380-aab3c936) date 2021-01-25 13:27:41*
%MOMM*%
%LPD*%
G01*
G04 APERTURE LIST*
G04 Aperture macros list*
%AMRoundRect*
0 Rectangle with rounded corners*
0 $1 Rounding radius*
0 $2 $3 $4 $5 $6 $7 $8 $9 X,Y pos of 4 corners*
0 Add a 4 corners polygon primitive as box body*
4,1,4,$2,$3,$4,$5,$6,$7,$8,$9,$2,$3,0*
0 Add four circle primitives for the rounded corners*
1,1,$1+$1,$2,$3,0*
1,1,$1+$1,$4,$5,0*
1,1,$1+$1,$6,$7,0*
1,1,$1+$1,$8,$9,0*
0 Add four rect primitives between the rounded corners*
20,1,$1+$1,$2,$3,$4,$5,0*
20,1,$1+$1,$4,$5,$6,$7,0*
20,1,$1+$1,$6,$7,$8,$9,0*
20,1,$1+$1,$8,$9,$2,$3,0*%
G04 Aperture macros list end*
%ADD10C,0.010000*%
%ADD11C,0.300000*%
%ADD12R,2.350000X1.000000*%
%ADD13RoundRect,0.250000X-0.325000X-0.325000X0.325000X-0.325000X0.325000X0.325000X-0.325000X0.325000X0*%
%ADD14RoundRect,0.075000X-0.350000X-0.075000X0.350000X-0.075000X0.350000X0.075000X-0.350000X0.075000X0*%
%ADD15RoundRect,0.075000X-0.075000X-0.350000X0.075000X-0.350000X0.075000X0.350000X-0.075000X0.350000X0*%
%ADD16RoundRect,0.225000X-0.225000X-0.250000X0.225000X-0.250000X0.225000X0.250000X-0.225000X0.250000X0*%
%ADD17RoundRect,0.140000X-0.140000X-0.170000X0.140000X-0.170000X0.140000X0.170000X-0.140000X0.170000X0*%
%ADD18R,1.500000X1.100000*%
%ADD19R,1.300000X0.300000*%
%ADD20R,2.200000X1.800000*%
%ADD21R,1.500000X0.600000*%
%ADD22R,1.800000X0.800000*%
%ADD23RoundRect,0.135000X-0.135000X-0.185000X0.135000X-0.185000X0.135000X0.185000X-0.135000X0.185000X0*%
%ADD24RoundRect,0.200000X-0.275000X0.200000X-0.275000X-0.200000X0.275000X-0.200000X0.275000X0.200000X0*%
%ADD25RoundRect,0.200000X-0.200000X-0.275000X0.200000X-0.275000X0.200000X0.275000X-0.200000X0.275000X0*%
%ADD26R,0.700000X0.640000*%
%ADD27R,0.550000X1.550000*%
%ADD28R,0.700000X0.700000*%
%ADD29R,1.450000X0.570000*%
%ADD30R,1.150000X0.520000*%
%ADD31R,1.850000X0.570000*%
%ADD32R,1.650000X0.520000*%
%ADD33R,0.820000X0.520000*%
%ADD34R,1.960000X0.570000*%
%ADD35R,1.700000X1.010000*%
%ADD36R,0.450000X1.300000*%
%ADD37RoundRect,0.225000X0.225000X0.250000X-0.225000X0.250000X-0.225000X-0.250000X0.225000X-0.250000X0*%
%ADD38R,0.700000X0.900000*%
%ADD39R,0.650000X1.200000*%
%ADD40R,0.600000X0.300000*%
%ADD41R,1.900000X0.450000*%
%ADD42R,2.900000X0.450000*%
%ADD43R,0.500000X1.400000*%
%ADD44R,2.400000X0.450000*%
%ADD45R,0.700000X0.750000*%
%ADD46R,0.522000X0.725000*%
%ADD47R,2.510000X1.000000*%
%ADD48RoundRect,0.140000X-0.170000X0.140000X-0.170000X-0.140000X0.170000X-0.140000X0.170000X0.140000X0*%
%ADD49R,1.000000X3.500000*%
G04 APERTURE END LIST*
D10*
%TO.C,REF\u002A\u002A*%
X35897396Y-6072629D02*
X36372399Y-6222629D01*
X36372399Y-6222629D02*
X36772399Y-6422629D01*
X36772399Y-6422629D02*
X37097399Y-6622629D01*
X37097399Y-6622629D02*
X37447396Y-6897629D01*
X37447396Y-6897629D02*
X37797396Y-7272632D01*
X37797396Y-7272632D02*
X38022396Y-7572629D01*
X38022396Y-7572629D02*
X38172396Y-7822629D01*
X38172396Y-7822629D02*
X38272396Y-7997629D01*
X38272396Y-7997629D02*
X38347396Y-8172629D01*
X38347396Y-8172629D02*
X38447396Y-8447629D01*
X38447396Y-8447629D02*
X38522396Y-8697629D01*
X38522396Y-8697629D02*
X38572396Y-8922629D01*
X38572396Y-8922629D02*
X38622396Y-9197629D01*
X38622396Y-9197629D02*
X37197396Y-9197629D01*
X37197396Y-9197629D02*
X37097396Y-8822629D01*
X37097396Y-8822629D02*
X36947396Y-8497629D01*
X36947396Y-8497629D02*
X36822396Y-8297629D01*
X36822396Y-8297629D02*
X36622396Y-8047629D01*
X36622396Y-8047629D02*
X36397396Y-7847626D01*
X36397396Y-7847626D02*
X36222396Y-7722626D01*
X36222396Y-7722626D02*
X36022396Y-7597626D01*
X36022396Y-7597626D02*
X35847396Y-7522626D01*
X35847396Y-7522626D02*
X35697396Y-7472626D01*
X35697396Y-7472626D02*
X35397396Y-7397629D01*
X35397396Y-7397629D02*
X35397396Y-5972629D01*
X35397396Y-5972629D02*
X35897396Y-6072629D01*
G36*
X35897396Y-6072629D02*
G01*
X36372399Y-6222629D01*
X36772399Y-6422629D01*
X37097399Y-6622629D01*
X37447396Y-6897629D01*
X37797396Y-7272632D01*
X38022396Y-7572629D01*
X38172396Y-7822629D01*
X38272396Y-7997629D01*
X38347396Y-8172629D01*
X38447396Y-8447629D01*
X38522396Y-8697629D01*
X38572396Y-8922629D01*
X38622396Y-9197629D01*
X37197396Y-9197629D01*
X37097396Y-8822629D01*
X36947396Y-8497629D01*
X36822396Y-8297629D01*
X36622396Y-8047629D01*
X36397396Y-7847626D01*
X36222396Y-7722626D01*
X36022396Y-7597626D01*
X35847396Y-7522626D01*
X35697396Y-7472626D01*
X35397396Y-7397629D01*
X35397396Y-5972629D01*
X35897396Y-6072629D01*
G37*
X35897396Y-6072629D02*
X36372399Y-6222629D01*
X36772399Y-6422629D01*
X37097399Y-6622629D01*
X37447396Y-6897629D01*
X37797396Y-7272632D01*
X38022396Y-7572629D01*
X38172396Y-7822629D01*
X38272396Y-7997629D01*
X38347396Y-8172629D01*
X38447396Y-8447629D01*
X38522396Y-8697629D01*
X38572396Y-8922629D01*
X38622396Y-9197629D01*
X37197396Y-9197629D01*
X37097396Y-8822629D01*
X36947396Y-8497629D01*
X36822396Y-8297629D01*
X36622396Y-8047629D01*
X36397396Y-7847626D01*
X36222396Y-7722626D01*
X36022396Y-7597626D01*
X35847396Y-7522626D01*
X35697396Y-7472626D01*
X35397396Y-7397629D01*
X35397396Y-5972629D01*
X35897396Y-6072629D01*
X38522396Y-10497629D02*
X38372396Y-10972635D01*
X38372396Y-10972635D02*
X38172396Y-11372635D01*
X38172396Y-11372635D02*
X37972396Y-11697632D01*
X37972396Y-11697632D02*
X37697396Y-12047629D01*
X37697396Y-12047629D02*
X37322390Y-12397629D01*
X37322390Y-12397629D02*
X37022393Y-12622629D01*
X37022393Y-12622629D02*
X36772396Y-12772629D01*
X36772396Y-12772629D02*
X36597396Y-12872629D01*
X36597396Y-12872629D02*
X36422396Y-12947629D01*
X36422396Y-12947629D02*
X36147396Y-13047629D01*
X36147396Y-13047629D02*
X35897396Y-13122629D01*
X35897396Y-13122629D02*
X35672396Y-13172629D01*
X35672396Y-13172629D02*
X35397396Y-13222629D01*
X35397396Y-13222629D02*
X35397396Y-11797626D01*
X35397396Y-11797626D02*
X35772396Y-11697626D01*
X35772396Y-11697626D02*
X36097396Y-11547629D01*
X36097396Y-11547629D02*
X36297396Y-11422629D01*
X36297396Y-11422629D02*
X36547396Y-11222629D01*
X36547396Y-11222629D02*
X36747402Y-10997629D01*
X36747402Y-10997629D02*
X36872402Y-10822629D01*
X36872402Y-10822629D02*
X36997399Y-10622629D01*
X36997399Y-10622629D02*
X37072399Y-10447629D01*
X37072399Y-10447629D02*
X37122399Y-10297629D01*
X37122399Y-10297629D02*
X37197396Y-9997629D01*
X37197396Y-9997629D02*
X38622396Y-9997629D01*
X38622396Y-9997629D02*
X38522396Y-10497629D01*
G36*
X38522396Y-10497629D02*
G01*
X38372396Y-10972635D01*
X38172396Y-11372635D01*
X37972396Y-11697632D01*
X37697396Y-12047629D01*
X37322390Y-12397629D01*
X37022393Y-12622629D01*
X36772396Y-12772629D01*
X36597396Y-12872629D01*
X36422396Y-12947629D01*
X36147396Y-13047629D01*
X35897396Y-13122629D01*
X35672396Y-13172629D01*
X35397396Y-13222629D01*
X35397396Y-11797626D01*
X35772396Y-11697626D01*
X36097396Y-11547629D01*
X36297396Y-11422629D01*
X36547396Y-11222629D01*
X36747402Y-10997629D01*
X36872402Y-10822629D01*
X36997399Y-10622629D01*
X37072399Y-10447629D01*
X37122399Y-10297629D01*
X37197396Y-9997629D01*
X38622396Y-9997629D01*
X38522396Y-10497629D01*
G37*
X38522396Y-10497629D02*
X38372396Y-10972635D01*
X38172396Y-11372635D01*
X37972396Y-11697632D01*
X37697396Y-12047629D01*
X37322390Y-12397629D01*
X37022393Y-12622629D01*
X36772396Y-12772629D01*
X36597396Y-12872629D01*
X36422396Y-12947629D01*
X36147396Y-13047629D01*
X35897396Y-13122629D01*
X35672396Y-13172629D01*
X35397396Y-13222629D01*
X35397396Y-11797626D01*
X35772396Y-11697626D01*
X36097396Y-11547629D01*
X36297396Y-11422629D01*
X36547396Y-11222629D01*
X36747402Y-10997629D01*
X36872402Y-10822629D01*
X36997399Y-10622629D01*
X37072399Y-10447629D01*
X37122399Y-10297629D01*
X37197396Y-9997629D01*
X38622396Y-9997629D01*
X38522396Y-10497629D01*
X31472396Y-8697629D02*
X31622396Y-8222629D01*
X31622396Y-8222629D02*
X31822396Y-7822629D01*
X31822396Y-7822629D02*
X32022396Y-7497629D01*
X32022396Y-7497629D02*
X32297396Y-7147629D01*
X32297396Y-7147629D02*
X32672396Y-6797629D01*
X32672396Y-6797629D02*
X32972396Y-6572629D01*
X32972396Y-6572629D02*
X33222396Y-6422629D01*
X33222396Y-6422629D02*
X33397396Y-6322629D01*
X33397396Y-6322629D02*
X33572396Y-6247629D01*
X33572396Y-6247629D02*
X33847396Y-6147629D01*
X33847396Y-6147629D02*
X34097396Y-6072629D01*
X34097396Y-6072629D02*
X34322396Y-6022629D01*
X34322396Y-6022629D02*
X34597396Y-5972629D01*
X34597396Y-5972629D02*
X34597396Y-7397629D01*
X34597396Y-7397629D02*
X34222396Y-7497629D01*
X34222396Y-7497629D02*
X33897396Y-7647629D01*
X33897396Y-7647629D02*
X33697396Y-7772629D01*
X33697396Y-7772629D02*
X33447396Y-7972629D01*
X33447396Y-7972629D02*
X33247396Y-8197629D01*
X33247396Y-8197629D02*
X33122396Y-8372629D01*
X33122396Y-8372629D02*
X32997396Y-8572629D01*
X32997396Y-8572629D02*
X32922396Y-8747629D01*
X32922396Y-8747629D02*
X32872396Y-8897629D01*
X32872396Y-8897629D02*
X32797396Y-9197629D01*
X32797396Y-9197629D02*
X31372396Y-9197629D01*
X31372396Y-9197629D02*
X31472396Y-8697629D01*
G36*
X34597396Y-7397629D02*
G01*
X34222396Y-7497629D01*
X33897396Y-7647629D01*
X33697396Y-7772629D01*
X33447396Y-7972629D01*
X33247396Y-8197629D01*
X33122396Y-8372629D01*
X32997396Y-8572629D01*
X32922396Y-8747629D01*
X32872396Y-8897629D01*
X32797396Y-9197629D01*
X31372396Y-9197629D01*
X31472396Y-8697629D01*
X31622396Y-8222629D01*
X31822396Y-7822629D01*
X32022396Y-7497629D01*
X32297396Y-7147629D01*
X32672396Y-6797629D01*
X32972396Y-6572629D01*
X33222396Y-6422629D01*
X33397396Y-6322629D01*
X33572396Y-6247629D01*
X33847396Y-6147629D01*
X34097396Y-6072629D01*
X34322396Y-6022629D01*
X34597396Y-5972629D01*
X34597396Y-7397629D01*
G37*
X34597396Y-7397629D02*
X34222396Y-7497629D01*
X33897396Y-7647629D01*
X33697396Y-7772629D01*
X33447396Y-7972629D01*
X33247396Y-8197629D01*
X33122396Y-8372629D01*
X32997396Y-8572629D01*
X32922396Y-8747629D01*
X32872396Y-8897629D01*
X32797396Y-9197629D01*
X31372396Y-9197629D01*
X31472396Y-8697629D01*
X31622396Y-8222629D01*
X31822396Y-7822629D01*
X32022396Y-7497629D01*
X32297396Y-7147629D01*
X32672396Y-6797629D01*
X32972396Y-6572629D01*
X33222396Y-6422629D01*
X33397396Y-6322629D01*
X33572396Y-6247629D01*
X33847396Y-6147629D01*
X34097396Y-6072629D01*
X34322396Y-6022629D01*
X34597396Y-5972629D01*
X34597396Y-7397629D01*
X34097396Y-13122629D02*
X33622387Y-12972629D01*
X33622387Y-12972629D02*
X33222390Y-12772629D01*
X33222390Y-12772629D02*
X32897393Y-12572629D01*
X32897393Y-12572629D02*
X32547396Y-12297626D01*
X32547396Y-12297626D02*
X32197396Y-11922623D01*
X32197396Y-11922623D02*
X31972396Y-11622626D01*
X31972396Y-11622626D02*
X31822396Y-11372629D01*
X31822396Y-11372629D02*
X31722396Y-11197629D01*
X31722396Y-11197629D02*
X31647396Y-11022629D01*
X31647396Y-11022629D02*
X31547396Y-10747629D01*
X31547396Y-10747629D02*
X31472396Y-10497629D01*
X31472396Y-10497629D02*
X31422396Y-10272629D01*
X31422396Y-10272629D02*
X31372399Y-9997629D01*
X31372399Y-9997629D02*
X32797402Y-9997629D01*
X32797402Y-9997629D02*
X32897402Y-10372629D01*
X32897402Y-10372629D02*
X33047399Y-10697629D01*
X33047399Y-10697629D02*
X33172399Y-10897629D01*
X33172399Y-10897629D02*
X33372396Y-11147629D01*
X33372396Y-11147629D02*
X33597396Y-11347635D01*
X33597396Y-11347635D02*
X33772396Y-11472635D01*
X33772396Y-11472635D02*
X33972396Y-11597632D01*
X33972396Y-11597632D02*
X34147396Y-11672635D01*
X34147396Y-11672635D02*
X34297396Y-11722635D01*
X34297396Y-11722635D02*
X34597396Y-11797632D01*
X34597396Y-11797632D02*
X34597396Y-13222629D01*
X34597396Y-13222629D02*
X34097396Y-13122629D01*
G36*
X32897402Y-10372629D02*
G01*
X33047399Y-10697629D01*
X33172399Y-10897629D01*
X33372396Y-11147629D01*
X33597396Y-11347635D01*
X33772396Y-11472635D01*
X33972396Y-11597632D01*
X34147396Y-11672635D01*
X34297396Y-11722635D01*
X34597396Y-11797632D01*
X34597396Y-13222629D01*
X34097396Y-13122629D01*
X33622387Y-12972629D01*
X33222390Y-12772629D01*
X32897393Y-12572629D01*
X32547396Y-12297626D01*
X32197396Y-11922623D01*
X31972396Y-11622626D01*
X31822396Y-11372629D01*
X31722396Y-11197629D01*
X31647396Y-11022629D01*
X31547396Y-10747629D01*
X31472396Y-10497629D01*
X31422396Y-10272629D01*
X31372399Y-9997629D01*
X32797402Y-9997629D01*
X32897402Y-10372629D01*
G37*
X32897402Y-10372629D02*
X33047399Y-10697629D01*
X33172399Y-10897629D01*
X33372396Y-11147629D01*
X33597396Y-11347635D01*
X33772396Y-11472635D01*
X33972396Y-11597632D01*
X34147396Y-11672635D01*
X34297396Y-11722635D01*
X34597396Y-11797632D01*
X34597396Y-13222629D01*
X34097396Y-13122629D01*
X33622387Y-12972629D01*
X33222390Y-12772629D01*
X32897393Y-12572629D01*
X32547396Y-12297626D01*
X32197396Y-11922623D01*
X31972396Y-11622626D01*
X31822396Y-11372629D01*
X31722396Y-11197629D01*
X31647396Y-11022629D01*
X31547396Y-10747629D01*
X31472396Y-10497629D01*
X31422396Y-10272629D01*
X31372399Y-9997629D01*
X32797402Y-9997629D01*
X32897402Y-10372629D01*
D11*
%TO.C,MK1*%
X34395989Y-15871239D02*
G75*
G03*
X34720000Y-16200000I604011J271239D01*
G01*
X35271239Y-16204011D02*
G75*
G03*
X35600000Y-15880000I-271239J604011D01*
G01*
X34728290Y-14996200D02*
G75*
G03*
X34400000Y-15320000I271710J-603800D01*
G01*
X35604011Y-15328761D02*
G75*
G03*
X35280000Y-15000000I-604011J-271239D01*
G01*
D10*
%TO.C,REF\u002A\u002A*%
X35897396Y-18072629D02*
X36372399Y-18222629D01*
X36372399Y-18222629D02*
X36772399Y-18422629D01*
X36772399Y-18422629D02*
X37097399Y-18622629D01*
X37097399Y-18622629D02*
X37447396Y-18897629D01*
X37447396Y-18897629D02*
X37797396Y-19272632D01*
X37797396Y-19272632D02*
X38022396Y-19572629D01*
X38022396Y-19572629D02*
X38172396Y-19822629D01*
X38172396Y-19822629D02*
X38272396Y-19997629D01*
X38272396Y-19997629D02*
X38347396Y-20172629D01*
X38347396Y-20172629D02*
X38447396Y-20447629D01*
X38447396Y-20447629D02*
X38522396Y-20697629D01*
X38522396Y-20697629D02*
X38572396Y-20922629D01*
X38572396Y-20922629D02*
X38622396Y-21197629D01*
X38622396Y-21197629D02*
X37197396Y-21197629D01*
X37197396Y-21197629D02*
X37097396Y-20822629D01*
X37097396Y-20822629D02*
X36947396Y-20497629D01*
X36947396Y-20497629D02*
X36822396Y-20297629D01*
X36822396Y-20297629D02*
X36622396Y-20047629D01*
X36622396Y-20047629D02*
X36397396Y-19847626D01*
X36397396Y-19847626D02*
X36222396Y-19722626D01*
X36222396Y-19722626D02*
X36022396Y-19597626D01*
X36022396Y-19597626D02*
X35847396Y-19522626D01*
X35847396Y-19522626D02*
X35697396Y-19472626D01*
X35697396Y-19472626D02*
X35397396Y-19397629D01*
X35397396Y-19397629D02*
X35397396Y-17972629D01*
X35397396Y-17972629D02*
X35897396Y-18072629D01*
G36*
X35897396Y-18072629D02*
G01*
X36372399Y-18222629D01*
X36772399Y-18422629D01*
X37097399Y-18622629D01*
X37447396Y-18897629D01*
X37797396Y-19272632D01*
X38022396Y-19572629D01*
X38172396Y-19822629D01*
X38272396Y-19997629D01*
X38347396Y-20172629D01*
X38447396Y-20447629D01*
X38522396Y-20697629D01*
X38572396Y-20922629D01*
X38622396Y-21197629D01*
X37197396Y-21197629D01*
X37097396Y-20822629D01*
X36947396Y-20497629D01*
X36822396Y-20297629D01*
X36622396Y-20047629D01*
X36397396Y-19847626D01*
X36222396Y-19722626D01*
X36022396Y-19597626D01*
X35847396Y-19522626D01*
X35697396Y-19472626D01*
X35397396Y-19397629D01*
X35397396Y-17972629D01*
X35897396Y-18072629D01*
G37*
X35897396Y-18072629D02*
X36372399Y-18222629D01*
X36772399Y-18422629D01*
X37097399Y-18622629D01*
X37447396Y-18897629D01*
X37797396Y-19272632D01*
X38022396Y-19572629D01*
X38172396Y-19822629D01*
X38272396Y-19997629D01*
X38347396Y-20172629D01*
X38447396Y-20447629D01*
X38522396Y-20697629D01*
X38572396Y-20922629D01*
X38622396Y-21197629D01*
X37197396Y-21197629D01*
X37097396Y-20822629D01*
X36947396Y-20497629D01*
X36822396Y-20297629D01*
X36622396Y-20047629D01*
X36397396Y-19847626D01*
X36222396Y-19722626D01*
X36022396Y-19597626D01*
X35847396Y-19522626D01*
X35697396Y-19472626D01*
X35397396Y-19397629D01*
X35397396Y-17972629D01*
X35897396Y-18072629D01*
X38522396Y-22497629D02*
X38372396Y-22972635D01*
X38372396Y-22972635D02*
X38172396Y-23372635D01*
X38172396Y-23372635D02*
X37972396Y-23697632D01*
X37972396Y-23697632D02*
X37697396Y-24047629D01*
X37697396Y-24047629D02*
X37322390Y-24397629D01*
X37322390Y-24397629D02*
X37022393Y-24622629D01*
X37022393Y-24622629D02*
X36772396Y-24772629D01*
X36772396Y-24772629D02*
X36597396Y-24872629D01*
X36597396Y-24872629D02*
X36422396Y-24947629D01*
X36422396Y-24947629D02*
X36147396Y-25047629D01*
X36147396Y-25047629D02*
X35897396Y-25122629D01*
X35897396Y-25122629D02*
X35672396Y-25172629D01*
X35672396Y-25172629D02*
X35397396Y-25222629D01*
X35397396Y-25222629D02*
X35397396Y-23797626D01*
X35397396Y-23797626D02*
X35772396Y-23697626D01*
X35772396Y-23697626D02*
X36097396Y-23547629D01*
X36097396Y-23547629D02*
X36297396Y-23422629D01*
X36297396Y-23422629D02*
X36547396Y-23222629D01*
X36547396Y-23222629D02*
X36747402Y-22997629D01*
X36747402Y-22997629D02*
X36872402Y-22822629D01*
X36872402Y-22822629D02*
X36997399Y-22622629D01*
X36997399Y-22622629D02*
X37072399Y-22447629D01*
X37072399Y-22447629D02*
X37122399Y-22297629D01*
X37122399Y-22297629D02*
X37197396Y-21997629D01*
X37197396Y-21997629D02*
X38622396Y-21997629D01*
X38622396Y-21997629D02*
X38522396Y-22497629D01*
G36*
X38522396Y-22497629D02*
G01*
X38372396Y-22972635D01*
X38172396Y-23372635D01*
X37972396Y-23697632D01*
X37697396Y-24047629D01*
X37322390Y-24397629D01*
X37022393Y-24622629D01*
X36772396Y-24772629D01*
X36597396Y-24872629D01*
X36422396Y-24947629D01*
X36147396Y-25047629D01*
X35897396Y-25122629D01*
X35672396Y-25172629D01*
X35397396Y-25222629D01*
X35397396Y-23797626D01*
X35772396Y-23697626D01*
X36097396Y-23547629D01*
X36297396Y-23422629D01*
X36547396Y-23222629D01*
X36747402Y-22997629D01*
X36872402Y-22822629D01*
X36997399Y-22622629D01*
X37072399Y-22447629D01*
X37122399Y-22297629D01*
X37197396Y-21997629D01*
X38622396Y-21997629D01*
X38522396Y-22497629D01*
G37*
X38522396Y-22497629D02*
X38372396Y-22972635D01*
X38172396Y-23372635D01*
X37972396Y-23697632D01*
X37697396Y-24047629D01*
X37322390Y-24397629D01*
X37022393Y-24622629D01*
X36772396Y-24772629D01*
X36597396Y-24872629D01*
X36422396Y-24947629D01*
X36147396Y-25047629D01*
X35897396Y-25122629D01*
X35672396Y-25172629D01*
X35397396Y-25222629D01*
X35397396Y-23797626D01*
X35772396Y-23697626D01*
X36097396Y-23547629D01*
X36297396Y-23422629D01*
X36547396Y-23222629D01*
X36747402Y-22997629D01*
X36872402Y-22822629D01*
X36997399Y-22622629D01*
X37072399Y-22447629D01*
X37122399Y-22297629D01*
X37197396Y-21997629D01*
X38622396Y-21997629D01*
X38522396Y-22497629D01*
X31472396Y-20697629D02*
X31622396Y-20222629D01*
X31622396Y-20222629D02*
X31822396Y-19822629D01*
X31822396Y-19822629D02*
X32022396Y-19497629D01*
X32022396Y-19497629D02*
X32297396Y-19147629D01*
X32297396Y-19147629D02*
X32672396Y-18797629D01*
X32672396Y-18797629D02*
X32972396Y-18572629D01*
X32972396Y-18572629D02*
X33222396Y-18422629D01*
X33222396Y-18422629D02*
X33397396Y-18322629D01*
X33397396Y-18322629D02*
X33572396Y-18247629D01*
X33572396Y-18247629D02*
X33847396Y-18147629D01*
X33847396Y-18147629D02*
X34097396Y-18072629D01*
X34097396Y-18072629D02*
X34322396Y-18022629D01*
X34322396Y-18022629D02*
X34597396Y-17972629D01*
X34597396Y-17972629D02*
X34597396Y-19397629D01*
X34597396Y-19397629D02*
X34222396Y-19497629D01*
X34222396Y-19497629D02*
X33897396Y-19647629D01*
X33897396Y-19647629D02*
X33697396Y-19772629D01*
X33697396Y-19772629D02*
X33447396Y-19972629D01*
X33447396Y-19972629D02*
X33247396Y-20197629D01*
X33247396Y-20197629D02*
X33122396Y-20372629D01*
X33122396Y-20372629D02*
X32997396Y-20572629D01*
X32997396Y-20572629D02*
X32922396Y-20747629D01*
X32922396Y-20747629D02*
X32872396Y-20897629D01*
X32872396Y-20897629D02*
X32797396Y-21197629D01*
X32797396Y-21197629D02*
X31372396Y-21197629D01*
X31372396Y-21197629D02*
X31472396Y-20697629D01*
G36*
X34597396Y-19397629D02*
G01*
X34222396Y-19497629D01*
X33897396Y-19647629D01*
X33697396Y-19772629D01*
X33447396Y-19972629D01*
X33247396Y-20197629D01*
X33122396Y-20372629D01*
X32997396Y-20572629D01*
X32922396Y-20747629D01*
X32872396Y-20897629D01*
X32797396Y-21197629D01*
X31372396Y-21197629D01*
X31472396Y-20697629D01*
X31622396Y-20222629D01*
X31822396Y-19822629D01*
X32022396Y-19497629D01*
X32297396Y-19147629D01*
X32672396Y-18797629D01*
X32972396Y-18572629D01*
X33222396Y-18422629D01*
X33397396Y-18322629D01*
X33572396Y-18247629D01*
X33847396Y-18147629D01*
X34097396Y-18072629D01*
X34322396Y-18022629D01*
X34597396Y-17972629D01*
X34597396Y-19397629D01*
G37*
X34597396Y-19397629D02*
X34222396Y-19497629D01*
X33897396Y-19647629D01*
X33697396Y-19772629D01*
X33447396Y-19972629D01*
X33247396Y-20197629D01*
X33122396Y-20372629D01*
X32997396Y-20572629D01*
X32922396Y-20747629D01*
X32872396Y-20897629D01*
X32797396Y-21197629D01*
X31372396Y-21197629D01*
X31472396Y-20697629D01*
X31622396Y-20222629D01*
X31822396Y-19822629D01*
X32022396Y-19497629D01*
X32297396Y-19147629D01*
X32672396Y-18797629D01*
X32972396Y-18572629D01*
X33222396Y-18422629D01*
X33397396Y-18322629D01*
X33572396Y-18247629D01*
X33847396Y-18147629D01*
X34097396Y-18072629D01*
X34322396Y-18022629D01*
X34597396Y-17972629D01*
X34597396Y-19397629D01*
X34097396Y-25122629D02*
X33622387Y-24972629D01*
X33622387Y-24972629D02*
X33222390Y-24772629D01*
X33222390Y-24772629D02*
X32897393Y-24572629D01*
X32897393Y-24572629D02*
X32547396Y-24297626D01*
X32547396Y-24297626D02*
X32197396Y-23922623D01*
X32197396Y-23922623D02*
X31972396Y-23622626D01*
X31972396Y-23622626D02*
X31822396Y-23372629D01*
X31822396Y-23372629D02*
X31722396Y-23197629D01*
X31722396Y-23197629D02*
X31647396Y-23022629D01*
X31647396Y-23022629D02*
X31547396Y-22747629D01*
X31547396Y-22747629D02*
X31472396Y-22497629D01*
X31472396Y-22497629D02*
X31422396Y-22272629D01*
X31422396Y-22272629D02*
X31372399Y-21997629D01*
X31372399Y-21997629D02*
X32797402Y-21997629D01*
X32797402Y-21997629D02*
X32897402Y-22372629D01*
X32897402Y-22372629D02*
X33047399Y-22697629D01*
X33047399Y-22697629D02*
X33172399Y-22897629D01*
X33172399Y-22897629D02*
X33372396Y-23147629D01*
X33372396Y-23147629D02*
X33597396Y-23347635D01*
X33597396Y-23347635D02*
X33772396Y-23472635D01*
X33772396Y-23472635D02*
X33972396Y-23597632D01*
X33972396Y-23597632D02*
X34147396Y-23672635D01*
X34147396Y-23672635D02*
X34297396Y-23722635D01*
X34297396Y-23722635D02*
X34597396Y-23797632D01*
X34597396Y-23797632D02*
X34597396Y-25222629D01*
X34597396Y-25222629D02*
X34097396Y-25122629D01*
G36*
X32897402Y-22372629D02*
G01*
X33047399Y-22697629D01*
X33172399Y-22897629D01*
X33372396Y-23147629D01*
X33597396Y-23347635D01*
X33772396Y-23472635D01*
X33972396Y-23597632D01*
X34147396Y-23672635D01*
X34297396Y-23722635D01*
X34597396Y-23797632D01*
X34597396Y-25222629D01*
X34097396Y-25122629D01*
X33622387Y-24972629D01*
X33222390Y-24772629D01*
X32897393Y-24572629D01*
X32547396Y-24297626D01*
X32197396Y-23922623D01*
X31972396Y-23622626D01*
X31822396Y-23372629D01*
X31722396Y-23197629D01*
X31647396Y-23022629D01*
X31547396Y-22747629D01*
X31472396Y-22497629D01*
X31422396Y-22272629D01*
X31372399Y-21997629D01*
X32797402Y-21997629D01*
X32897402Y-22372629D01*
G37*
X32897402Y-22372629D02*
X33047399Y-22697629D01*
X33172399Y-22897629D01*
X33372396Y-23147629D01*
X33597396Y-23347635D01*
X33772396Y-23472635D01*
X33972396Y-23597632D01*
X34147396Y-23672635D01*
X34297396Y-23722635D01*
X34597396Y-23797632D01*
X34597396Y-25222629D01*
X34097396Y-25122629D01*
X33622387Y-24972629D01*
X33222390Y-24772629D01*
X32897393Y-24572629D01*
X32547396Y-24297626D01*
X32197396Y-23922623D01*
X31972396Y-23622626D01*
X31822396Y-23372629D01*
X31722396Y-23197629D01*
X31647396Y-23022629D01*
X31547396Y-22747629D01*
X31472396Y-22497629D01*
X31422396Y-22272629D01*
X31372399Y-21997629D01*
X32797402Y-21997629D01*
X32897402Y-22372629D01*
%TD*%
D12*
%TO.C,J1*%
X39675000Y31000000D03*
X34325000Y31000000D03*
X39675000Y29000000D03*
X34325000Y29000000D03*
X39675000Y27000000D03*
X34325000Y27000000D03*
X39675000Y25000000D03*
X34325000Y25000000D03*
%TD*%
D13*
%TO.C,U1*%
X35740000Y-2660000D03*
X37060000Y-2660000D03*
X35740000Y-1340000D03*
X37060000Y-1340000D03*
D14*
X34450000Y-750000D03*
X34450000Y-1250000D03*
X34450000Y-1750000D03*
X34450000Y-2250000D03*
X34450000Y-2750000D03*
X34450000Y-3250000D03*
D15*
X35150000Y-3950000D03*
X35650000Y-3950000D03*
X36150000Y-3950000D03*
X36650000Y-3950000D03*
X37150000Y-3950000D03*
X37650000Y-3950000D03*
D14*
X38350000Y-3250000D03*
X38350000Y-2750000D03*
X38350000Y-2250000D03*
X38350000Y-1750000D03*
X38350000Y-1250000D03*
X38350000Y-750000D03*
D15*
X37650000Y-50000D03*
X37150000Y-50000D03*
X36650000Y-50000D03*
X36150000Y-50000D03*
X35650000Y-50000D03*
X35150000Y-50000D03*
%TD*%
D16*
%TO.C,C8*%
X33100000Y2700000D03*
X34650000Y2700000D03*
%TD*%
D17*
%TO.C,C3*%
X30920000Y-2800000D03*
X31880000Y-2800000D03*
%TD*%
D18*
%TO.C,LED3*%
X50500000Y8250000D03*
X47500000Y8250000D03*
X47500000Y9750000D03*
X50500000Y9750000D03*
%TD*%
D19*
%TO.C,J2*%
X36850000Y44750000D03*
X36850000Y44250000D03*
X36850000Y43750000D03*
X36850000Y43250000D03*
X36850000Y42750000D03*
X36850000Y42250000D03*
X36850000Y41750000D03*
X36850000Y41250000D03*
X36850000Y40750000D03*
X36850000Y40250000D03*
X36850000Y39750000D03*
X36850000Y39250000D03*
X36850000Y38750000D03*
X36850000Y38250000D03*
X36850000Y37750000D03*
X36850000Y37250000D03*
X36850000Y36750000D03*
X36850000Y36250000D03*
X36850000Y35750000D03*
X36850000Y35250000D03*
D20*
X33600000Y33350000D03*
X33600000Y46650000D03*
%TD*%
D21*
%TO.C,J2*%
X6348600Y44750000D03*
X9348600Y44250000D03*
X6348600Y43750000D03*
X9348600Y43250000D03*
X6348600Y42750000D03*
X9348600Y42250000D03*
X6348600Y41750000D03*
X9348600Y41250000D03*
X6348600Y40750000D03*
X9348600Y40250000D03*
X6348600Y39750000D03*
X9348600Y39250000D03*
X6348600Y38750000D03*
X9348600Y38250000D03*
X6348600Y37750000D03*
X9348600Y37250000D03*
X6348600Y36750000D03*
X9348600Y36250000D03*
X6348600Y35750000D03*
X9348600Y35250000D03*
D22*
X9198600Y45750000D03*
X9198600Y34250000D03*
X6498600Y34250000D03*
X6498600Y45750000D03*
%TD*%
D23*
%TO.C,R2*%
X36890000Y-14650000D03*
X37910000Y-14650000D03*
%TD*%
D24*
%TO.C,R1*%
X45450000Y27425000D03*
X45450000Y25775000D03*
%TD*%
D17*
%TO.C,C9*%
X33695000Y1500000D03*
X34655000Y1500000D03*
%TD*%
D25*
%TO.C,R6*%
X48825000Y11600000D03*
X50475000Y11600000D03*
%TD*%
D26*
%TO.C,J3*%
X-21301400Y-11070000D03*
X-21301400Y-9970000D03*
X-21301400Y-8870000D03*
X-21301400Y-7770000D03*
X-21301400Y-6670000D03*
X-21301400Y-5570000D03*
X-21301400Y-4470000D03*
X-21301400Y-3370000D03*
D27*
X-14476400Y-3475000D03*
D28*
X-15101400Y-5370000D03*
D29*
X-28526400Y-15385000D03*
D30*
X-20371400Y-2050000D03*
D31*
X-14801400Y-2050000D03*
D32*
X-21571400Y-15385000D03*
D33*
X-18161400Y-2050000D03*
D34*
X-14931400Y-15385000D03*
D35*
X-28401400Y-2235000D03*
D36*
X-14646400Y-14100000D03*
%TD*%
D25*
%TO.C,R5*%
X48825000Y19500000D03*
X50475000Y19500000D03*
%TD*%
D16*
%TO.C,C10*%
X38075000Y2800000D03*
X39625000Y2800000D03*
%TD*%
D25*
%TO.C,R7*%
X48825000Y22550000D03*
X50475000Y22550000D03*
%TD*%
%TO.C,R8*%
X48825000Y21000000D03*
X50475000Y21000000D03*
%TD*%
D37*
%TO.C,C12*%
X41375000Y-3131255D03*
X39825000Y-3131255D03*
%TD*%
D24*
%TO.C,R4*%
X44550000Y24375000D03*
X44550000Y22725000D03*
%TD*%
D38*
%TO.C,J1*%
X-26711400Y-23640000D03*
X-26711400Y-21100000D03*
X-26711400Y-18560000D03*
X-23541400Y-23640000D03*
X-23541400Y-21100000D03*
X-23541400Y-18560000D03*
D28*
X-20211400Y-16830000D03*
D39*
X-16536400Y-20550000D03*
D40*
X-28561400Y-22320000D03*
D41*
X-22561400Y-27655000D03*
D42*
X-27411400Y-16505000D03*
D43*
X-15461400Y-18880000D03*
D40*
X-28561400Y-19880000D03*
D42*
X-27411400Y-27655000D03*
D43*
X-15461400Y-23300000D03*
D44*
X-17411400Y-27655000D03*
D45*
X-18411400Y-17005000D03*
D41*
X-22561400Y-16505000D03*
%TD*%
D18*
%TO.C,LED2*%
X50500000Y16250000D03*
X47500000Y16250000D03*
X47500000Y17750000D03*
X50500000Y17750000D03*
%TD*%
D17*
%TO.C,C5*%
X30920000Y-1675000D03*
X31880000Y-1675000D03*
%TD*%
D24*
%TO.C,R3*%
X45550000Y11525000D03*
X45550000Y9875000D03*
%TD*%
D46*
%TO.C,MK1*%
X32926000Y-16437500D03*
X33748000Y-16437500D03*
X33748000Y-14762500D03*
X32926000Y-14762500D03*
%TD*%
D17*
%TO.C,C2*%
X30920000Y-3900000D03*
X31880000Y-3900000D03*
%TD*%
D47*
%TO.C,J4*%
X-3677817Y57130000D03*
X-6987817Y54590000D03*
X-3677817Y52050000D03*
X-6987817Y49510000D03*
X-3677817Y46970000D03*
X-6987817Y44430000D03*
X-3677817Y41890000D03*
X-6987817Y39350000D03*
X-3677817Y36810000D03*
X-6987817Y34270000D03*
X-3677817Y31730000D03*
X-6987817Y29190000D03*
X-3677817Y26650000D03*
X-6987817Y24110000D03*
X-3677817Y21570000D03*
X-6987817Y19030000D03*
X-3677817Y16490000D03*
X-6987817Y13950000D03*
X-3677817Y11410000D03*
X-6987817Y8870000D03*
%TD*%
D48*
%TO.C,C1*%
X31400000Y-15120000D03*
X31400000Y-16080000D03*
%TD*%
D17*
%TO.C,C7*%
X30935000Y1160000D03*
X31895000Y1160000D03*
%TD*%
D24*
%TO.C,R2*%
X45650000Y19425000D03*
X45650000Y17775000D03*
%TD*%
D23*
%TO.C,R1*%
X36890000Y-16700000D03*
X37910000Y-16700000D03*
%TD*%
D25*
%TO.C,R3*%
X39775000Y-4700000D03*
X41425000Y-4700000D03*
%TD*%
D16*
%TO.C,C4*%
X31165000Y-440000D03*
X32715000Y-440000D03*
%TD*%
D18*
%TO.C,LED1*%
X50500000Y24250000D03*
X47500000Y24250000D03*
X47500000Y25750000D03*
X50500000Y25750000D03*
%TD*%
D17*
%TO.C,C6*%
X30935000Y2100000D03*
X31895000Y2100000D03*
%TD*%
D49*
%TO.C,J1*%
X44000000Y-6100000D03*
X44000000Y-1100000D03*
X46000000Y-6100000D03*
X46000000Y-1100000D03*
X48000000Y-6100000D03*
X48000000Y-1100000D03*
X50000000Y-6100000D03*
X50000000Y-1100000D03*
%TD*%
D25*
%TO.C,R9*%
X48825000Y13200000D03*
X50475000Y13200000D03*
%TD*%
D17*
%TO.C,C11*%
X38420000Y1450000D03*
X39380000Y1450000D03*
%TD*%
M02*
