M48
; DRILL file {KiCad 5.99.0-unknown-r24380-aab3c936} date Mon Jan 25 13:27:57 2021
; FORMAT={-:-/ absolute / metric / decimal}
; #@! TF.CreationDate,2021-01-25T13:27:57+00:00
; #@! TF.GenerationSoftware,Kicad,Pcbnew,5.99.0-unknown-r24380-aab3c936
; #@! TF.FileFunction,NonPlated,1,2,NPTH
FMAT,2
METRIC
T1C0.500
T2C0.800
T3C0.850
T4C3.200
T5C4.400
%
G90
G05
T1
X35.0Y-15.6
T2
X27.0Y45.2
X27.0Y44.2
X27.0Y43.2
X27.0Y42.2
X27.0Y41.2
X27.0Y29.05
X27.0Y28.05
X27.0Y27.05
X27.0Y26.05
X27.0Y25.05
X27.0Y-6.75
X27.0Y-7.75
X27.0Y-8.75
X27.0Y-9.75
X27.0Y-10.75
X27.0Y-20.7
X27.0Y-21.7
X27.0Y-22.7
X27.0Y-23.7
X27.0Y-24.7
X30.5Y45.2
X30.5Y44.2
X30.5Y43.2
X30.5Y42.2
X30.5Y41.2
X30.5Y29.05
X30.5Y28.05
X30.5Y27.05
X30.5Y26.05
X30.5Y25.05
X30.5Y-6.75
X30.5Y-7.75
X30.5Y-8.75
X30.5Y-9.75
X30.5Y-10.75
X30.5Y-20.7
X30.5Y-21.7
X30.5Y-22.7
X30.5Y-23.7
X30.5Y-24.7
T3
X36.0Y31.0
X36.0Y29.0
X36.0Y27.0
X36.0Y25.0
X38.0Y31.0
X38.0Y29.0
X38.0Y27.0
X38.0Y25.0
T4
X-22.001Y40.0
X19.999Y40.0
X19.999Y-40.0
X43.0Y40.0
X49.0Y49.0
X49.0Y31.0
X55.0Y40.0
T5
X35.0Y-9.6
X35.0Y-21.6
T0
M30
