%TF.GenerationSoftware,KiCad,Pcbnew,5.99.0-1.20210329git38c849b.fc33*%
%TF.CreationDate,2021-04-01T23:54:56+01:00*%
%TF.ProjectId,safeproject-panel-r2,73616665-7072-46f6-9a65-63742d70616e,rev?*%
%TF.SameCoordinates,Original*%
%TF.FileFunction,Legend,Top*%
%TF.FilePolarity,Positive*%
%FSLAX46Y46*%
G04 Gerber Fmt 4.6, Leading zero omitted, Abs format (unit mm)*
G04 Created by KiCad (PCBNEW 5.99.0-1.20210329git38c849b.fc33) date 2021-04-01 23:54:56*
%MOMM*%
%LPD*%
G01*
G04 APERTURE LIST*
%ADD10C,0.200000*%
%ADD11C,0.150000*%
%ADD12C,0.010000*%
%ADD13C,0.120000*%
%ADD14C,0.100000*%
%ADD15C,0.127000*%
%ADD16C,0.508000*%
G04 APERTURE END LIST*
D10*
X93550000Y-113250000D02*
G75*
G03*
X93550000Y-113250000I-100000J0D01*
G01*
X111050000Y-109400000D02*
G75*
G03*
X111050000Y-109400000I-100000J0D01*
G01*
X75700000Y-85350000D02*
G75*
G03*
X75700000Y-85350000I-100000J0D01*
G01*
X78800000Y-85350000D02*
G75*
G03*
X78800000Y-85350000I-100000J0D01*
G01*
X82100000Y-107150000D02*
G75*
G03*
X82100000Y-107150000I-100000J0D01*
G01*
X116250000Y-55800000D02*
G75*
G03*
X116250000Y-55800000I-100000J0D01*
G01*
X101900000Y-113250000D02*
G75*
G03*
X101900000Y-113250000I-100000J0D01*
G01*
X109291904Y-131092857D02*
X109291904Y-132064285D01*
X109344285Y-132178571D01*
X109396666Y-132235714D01*
X109501428Y-132292857D01*
X109710952Y-132292857D01*
X109815714Y-132235714D01*
X109868095Y-132178571D01*
X109920476Y-132064285D01*
X109920476Y-131092857D01*
X110391904Y-132235714D02*
X110496666Y-132292857D01*
X110706190Y-132292857D01*
X110810952Y-132235714D01*
X110863333Y-132121428D01*
X110863333Y-132064285D01*
X110810952Y-131950000D01*
X110706190Y-131892857D01*
X110549047Y-131892857D01*
X110444285Y-131835714D01*
X110391904Y-131721428D01*
X110391904Y-131664285D01*
X110444285Y-131550000D01*
X110549047Y-131492857D01*
X110706190Y-131492857D01*
X110810952Y-131550000D01*
X111753809Y-132235714D02*
X111649047Y-132292857D01*
X111439523Y-132292857D01*
X111334761Y-132235714D01*
X111282380Y-132121428D01*
X111282380Y-131664285D01*
X111334761Y-131550000D01*
X111439523Y-131492857D01*
X111649047Y-131492857D01*
X111753809Y-131550000D01*
X111806190Y-131664285D01*
X111806190Y-131778571D01*
X111282380Y-131892857D01*
X112277619Y-132292857D02*
X112277619Y-131492857D01*
X112277619Y-131721428D02*
X112330000Y-131607142D01*
X112382380Y-131550000D01*
X112487142Y-131492857D01*
X112591904Y-131492857D01*
X85239523Y-131950000D02*
X85763333Y-131950000D01*
X85134761Y-132292857D02*
X85501428Y-131092857D01*
X85868095Y-132292857D01*
X86706190Y-132235714D02*
X86601428Y-132292857D01*
X86391904Y-132292857D01*
X86287142Y-132235714D01*
X86234761Y-132178571D01*
X86182380Y-132064285D01*
X86182380Y-131721428D01*
X86234761Y-131607142D01*
X86287142Y-131550000D01*
X86391904Y-131492857D01*
X86601428Y-131492857D01*
X86706190Y-131550000D01*
X87020476Y-131492857D02*
X87439523Y-131492857D01*
X87177619Y-131092857D02*
X87177619Y-132121428D01*
X87230000Y-132235714D01*
X87334761Y-132292857D01*
X87439523Y-132292857D01*
X87806190Y-132292857D02*
X87806190Y-131492857D01*
X87806190Y-131092857D02*
X87753809Y-131150000D01*
X87806190Y-131207142D01*
X87858571Y-131150000D01*
X87806190Y-131092857D01*
X87806190Y-131207142D01*
X88225238Y-131492857D02*
X88487142Y-132292857D01*
X88749047Y-131492857D01*
X89168095Y-132292857D02*
X89168095Y-131492857D01*
X89168095Y-131092857D02*
X89115714Y-131150000D01*
X89168095Y-131207142D01*
X89220476Y-131150000D01*
X89168095Y-131092857D01*
X89168095Y-131207142D01*
X89534761Y-131492857D02*
X89953809Y-131492857D01*
X89691904Y-131092857D02*
X89691904Y-132121428D01*
X89744285Y-132235714D01*
X89849047Y-132292857D01*
X89953809Y-132292857D01*
X90215714Y-131492857D02*
X90477619Y-132292857D01*
X90739523Y-131492857D02*
X90477619Y-132292857D01*
X90372857Y-132578571D01*
X90320476Y-132635714D01*
X90215714Y-132692857D01*
D11*
X101153333Y-57719504D02*
X101153333Y-58290933D01*
X101115238Y-58405219D01*
X101039047Y-58481409D01*
X100924761Y-58519504D01*
X100848571Y-58519504D01*
X101572380Y-58519504D02*
X101724761Y-58519504D01*
X101800952Y-58481409D01*
X101839047Y-58443314D01*
X101915238Y-58329028D01*
X101953333Y-58176647D01*
X101953333Y-57871885D01*
X101915238Y-57795695D01*
X101877142Y-57757600D01*
X101800952Y-57719504D01*
X101648571Y-57719504D01*
X101572380Y-57757600D01*
X101534285Y-57795695D01*
X101496190Y-57871885D01*
X101496190Y-58062361D01*
X101534285Y-58138552D01*
X101572380Y-58176647D01*
X101648571Y-58214742D01*
X101800952Y-58214742D01*
X101877142Y-58176647D01*
X101915238Y-58138552D01*
X101953333Y-58062361D01*
X88300933Y-57719504D02*
X88300933Y-58290933D01*
X88262838Y-58405219D01*
X88186647Y-58481409D01*
X88072361Y-58519504D01*
X87996171Y-58519504D01*
X89100933Y-58519504D02*
X88643790Y-58519504D01*
X88872361Y-58519504D02*
X88872361Y-57719504D01*
X88796171Y-57833790D01*
X88719980Y-57909980D01*
X88643790Y-57948076D01*
D10*
X97134761Y-131092857D02*
X97763333Y-131092857D01*
X97449047Y-132292857D02*
X97449047Y-131092857D01*
X98130000Y-132292857D02*
X98130000Y-131492857D01*
X98130000Y-131721428D02*
X98182380Y-131607142D01*
X98234761Y-131550000D01*
X98339523Y-131492857D01*
X98444285Y-131492857D01*
X99282380Y-132292857D02*
X99282380Y-131664285D01*
X99230000Y-131550000D01*
X99125238Y-131492857D01*
X98915714Y-131492857D01*
X98810952Y-131550000D01*
X99282380Y-132235714D02*
X99177619Y-132292857D01*
X98915714Y-132292857D01*
X98810952Y-132235714D01*
X98758571Y-132121428D01*
X98758571Y-132007142D01*
X98810952Y-131892857D01*
X98915714Y-131835714D01*
X99177619Y-131835714D01*
X99282380Y-131778571D01*
X99806190Y-131492857D02*
X99806190Y-132292857D01*
X99806190Y-131607142D02*
X99858571Y-131550000D01*
X99963333Y-131492857D01*
X100120476Y-131492857D01*
X100225238Y-131550000D01*
X100277619Y-131664285D01*
X100277619Y-132292857D01*
X100749047Y-132235714D02*
X100853809Y-132292857D01*
X101063333Y-132292857D01*
X101168095Y-132235714D01*
X101220476Y-132121428D01*
X101220476Y-132064285D01*
X101168095Y-131950000D01*
X101063333Y-131892857D01*
X100906190Y-131892857D01*
X100801428Y-131835714D01*
X100749047Y-131721428D01*
X100749047Y-131664285D01*
X100801428Y-131550000D01*
X100906190Y-131492857D01*
X101063333Y-131492857D01*
X101168095Y-131550000D01*
X101691904Y-132292857D02*
X101691904Y-131492857D01*
X101691904Y-131607142D02*
X101744285Y-131550000D01*
X101849047Y-131492857D01*
X102006190Y-131492857D01*
X102110952Y-131550000D01*
X102163333Y-131664285D01*
X102163333Y-132292857D01*
X102163333Y-131664285D02*
X102215714Y-131550000D01*
X102320476Y-131492857D01*
X102477619Y-131492857D01*
X102582380Y-131550000D01*
X102634761Y-131664285D01*
X102634761Y-132292857D01*
X103158571Y-132292857D02*
X103158571Y-131492857D01*
X103158571Y-131092857D02*
X103106190Y-131150000D01*
X103158571Y-131207142D01*
X103210952Y-131150000D01*
X103158571Y-131092857D01*
X103158571Y-131207142D01*
X103525238Y-131492857D02*
X103944285Y-131492857D01*
X103682380Y-131092857D02*
X103682380Y-132121428D01*
X103734761Y-132235714D01*
X103839523Y-132292857D01*
X103944285Y-132292857D01*
X73291904Y-132292857D02*
X73291904Y-131092857D01*
X73710952Y-131092857D01*
X73815714Y-131150000D01*
X73868095Y-131207142D01*
X73920476Y-131321428D01*
X73920476Y-131492857D01*
X73868095Y-131607142D01*
X73815714Y-131664285D01*
X73710952Y-131721428D01*
X73291904Y-131721428D01*
X74549047Y-132292857D02*
X74444285Y-132235714D01*
X74391904Y-132178571D01*
X74339523Y-132064285D01*
X74339523Y-131721428D01*
X74391904Y-131607142D01*
X74444285Y-131550000D01*
X74549047Y-131492857D01*
X74706190Y-131492857D01*
X74810952Y-131550000D01*
X74863333Y-131607142D01*
X74915714Y-131721428D01*
X74915714Y-132064285D01*
X74863333Y-132178571D01*
X74810952Y-132235714D01*
X74706190Y-132292857D01*
X74549047Y-132292857D01*
X75282380Y-131492857D02*
X75491904Y-132292857D01*
X75701428Y-131721428D01*
X75910952Y-132292857D01*
X76120476Y-131492857D01*
X76958571Y-132235714D02*
X76853809Y-132292857D01*
X76644285Y-132292857D01*
X76539523Y-132235714D01*
X76487142Y-132121428D01*
X76487142Y-131664285D01*
X76539523Y-131550000D01*
X76644285Y-131492857D01*
X76853809Y-131492857D01*
X76958571Y-131550000D01*
X77010952Y-131664285D01*
X77010952Y-131778571D01*
X76487142Y-131892857D01*
X77482380Y-132292857D02*
X77482380Y-131492857D01*
X77482380Y-131721428D02*
X77534761Y-131607142D01*
X77587142Y-131550000D01*
X77691904Y-131492857D01*
X77796666Y-131492857D01*
D11*
X67551790Y-38239880D02*
X67513695Y-38316071D01*
X67513695Y-38468452D01*
X67551790Y-38544642D01*
X67627980Y-38582738D01*
X67666076Y-38582738D01*
X67742266Y-38544642D01*
X67780361Y-38468452D01*
X67780361Y-38354166D01*
X67818457Y-38277976D01*
X67894647Y-38239880D01*
X67932742Y-38239880D01*
X68008933Y-38277976D01*
X68047028Y-38354166D01*
X68047028Y-38468452D01*
X68008933Y-38544642D01*
X67513695Y-39268452D02*
X67932742Y-39268452D01*
X68008933Y-39230357D01*
X68047028Y-39154166D01*
X68047028Y-39001785D01*
X68008933Y-38925595D01*
X67551790Y-39268452D02*
X67513695Y-39192261D01*
X67513695Y-39001785D01*
X67551790Y-38925595D01*
X67627980Y-38887500D01*
X67704171Y-38887500D01*
X67780361Y-38925595D01*
X67818457Y-39001785D01*
X67818457Y-39192261D01*
X67856552Y-39268452D01*
X68047028Y-39535119D02*
X68047028Y-39839880D01*
X67513695Y-39649404D02*
X68199409Y-39649404D01*
X68275600Y-39687500D01*
X68313695Y-39763690D01*
X68313695Y-39839880D01*
X67551790Y-40411309D02*
X67513695Y-40335119D01*
X67513695Y-40182738D01*
X67551790Y-40106547D01*
X67627980Y-40068452D01*
X67932742Y-40068452D01*
X68008933Y-40106547D01*
X68047028Y-40182738D01*
X68047028Y-40335119D01*
X68008933Y-40411309D01*
X67932742Y-40449404D01*
X67856552Y-40449404D01*
X67780361Y-40068452D01*
X67513695Y-41135119D02*
X67932742Y-41135119D01*
X68008933Y-41097023D01*
X68047028Y-41020833D01*
X68047028Y-40868452D01*
X68008933Y-40792261D01*
X67551790Y-41135119D02*
X67513695Y-41058928D01*
X67513695Y-40868452D01*
X67551790Y-40792261D01*
X67627980Y-40754166D01*
X67704171Y-40754166D01*
X67780361Y-40792261D01*
X67818457Y-40868452D01*
X67818457Y-41058928D01*
X67856552Y-41135119D01*
X67551790Y-41858928D02*
X67513695Y-41782738D01*
X67513695Y-41630357D01*
X67551790Y-41554166D01*
X67589885Y-41516071D01*
X67666076Y-41477976D01*
X67894647Y-41477976D01*
X67970838Y-41516071D01*
X68008933Y-41554166D01*
X68047028Y-41630357D01*
X68047028Y-41782738D01*
X68008933Y-41858928D01*
X67513695Y-42316071D02*
X67551790Y-42239880D01*
X67589885Y-42201785D01*
X67666076Y-42163690D01*
X67894647Y-42163690D01*
X67970838Y-42201785D01*
X68008933Y-42239880D01*
X68047028Y-42316071D01*
X68047028Y-42430357D01*
X68008933Y-42506547D01*
X67970838Y-42544642D01*
X67894647Y-42582738D01*
X67666076Y-42582738D01*
X67589885Y-42544642D01*
X67551790Y-42506547D01*
X67513695Y-42430357D01*
X67513695Y-42316071D01*
X68047028Y-43268452D02*
X67513695Y-43268452D01*
X68047028Y-42925595D02*
X67627980Y-42925595D01*
X67551790Y-42963690D01*
X67513695Y-43039880D01*
X67513695Y-43154166D01*
X67551790Y-43230357D01*
X67589885Y-43268452D01*
X67551790Y-43611309D02*
X67513695Y-43687500D01*
X67513695Y-43839880D01*
X67551790Y-43916071D01*
X67627980Y-43954166D01*
X67666076Y-43954166D01*
X67742266Y-43916071D01*
X67780361Y-43839880D01*
X67780361Y-43725595D01*
X67818457Y-43649404D01*
X67894647Y-43611309D01*
X67932742Y-43611309D01*
X68008933Y-43649404D01*
X68047028Y-43725595D01*
X68047028Y-43839880D01*
X68008933Y-43916071D01*
X68047028Y-44182738D02*
X68047028Y-44487500D01*
X68313695Y-44297023D02*
X67627980Y-44297023D01*
X67551790Y-44335119D01*
X67513695Y-44411309D01*
X67513695Y-44487500D01*
X67513695Y-44754166D02*
X68047028Y-44754166D01*
X68313695Y-44754166D02*
X68275600Y-44716071D01*
X68237504Y-44754166D01*
X68275600Y-44792261D01*
X68313695Y-44754166D01*
X68237504Y-44754166D01*
X67551790Y-45477976D02*
X67513695Y-45401785D01*
X67513695Y-45249404D01*
X67551790Y-45173214D01*
X67589885Y-45135119D01*
X67666076Y-45097023D01*
X67894647Y-45097023D01*
X67970838Y-45135119D01*
X68008933Y-45173214D01*
X68047028Y-45249404D01*
X68047028Y-45401785D01*
X68008933Y-45477976D01*
X67551790Y-45782738D02*
X67513695Y-45858928D01*
X67513695Y-46011309D01*
X67551790Y-46087500D01*
X67627980Y-46125595D01*
X67666076Y-46125595D01*
X67742266Y-46087500D01*
X67780361Y-46011309D01*
X67780361Y-45897023D01*
X67818457Y-45820833D01*
X67894647Y-45782738D01*
X67932742Y-45782738D01*
X68008933Y-45820833D01*
X68047028Y-45897023D01*
X68047028Y-46011309D01*
X68008933Y-46087500D01*
X67818457Y-46468452D02*
X67818457Y-47077976D01*
X67513695Y-47458928D02*
X68047028Y-47458928D01*
X67970838Y-47458928D02*
X68008933Y-47497023D01*
X68047028Y-47573214D01*
X68047028Y-47687500D01*
X68008933Y-47763690D01*
X67932742Y-47801785D01*
X67513695Y-47801785D01*
X67932742Y-47801785D02*
X68008933Y-47839880D01*
X68047028Y-47916071D01*
X68047028Y-48030357D01*
X68008933Y-48106547D01*
X67932742Y-48144642D01*
X67513695Y-48144642D01*
X67513695Y-48868452D02*
X67932742Y-48868452D01*
X68008933Y-48830357D01*
X68047028Y-48754166D01*
X68047028Y-48601785D01*
X68008933Y-48525595D01*
X67551790Y-48868452D02*
X67513695Y-48792261D01*
X67513695Y-48601785D01*
X67551790Y-48525595D01*
X67627980Y-48487500D01*
X67704171Y-48487500D01*
X67780361Y-48525595D01*
X67818457Y-48601785D01*
X67818457Y-48792261D01*
X67856552Y-48868452D01*
X67513695Y-49249404D02*
X68047028Y-49249404D01*
X68313695Y-49249404D02*
X68275600Y-49211309D01*
X68237504Y-49249404D01*
X68275600Y-49287500D01*
X68313695Y-49249404D01*
X68237504Y-49249404D01*
X68047028Y-49630357D02*
X67513695Y-49630357D01*
X67970838Y-49630357D02*
X68008933Y-49668452D01*
X68047028Y-49744642D01*
X68047028Y-49858928D01*
X68008933Y-49935119D01*
X67932742Y-49973214D01*
X67513695Y-49973214D01*
X67818457Y-50354166D02*
X67818457Y-50963690D01*
X67513695Y-51344642D02*
X68047028Y-51344642D01*
X67894647Y-51344642D02*
X67970838Y-51382738D01*
X68008933Y-51420833D01*
X68047028Y-51497023D01*
X68047028Y-51573214D01*
X68237504Y-51801785D02*
X68275600Y-51839880D01*
X68313695Y-51916071D01*
X68313695Y-52106547D01*
X68275600Y-52182738D01*
X68237504Y-52220833D01*
X68161314Y-52258928D01*
X68085123Y-52258928D01*
X67970838Y-52220833D01*
X67513695Y-51763690D01*
X67513695Y-52258928D01*
X66225695Y-38277976D02*
X67025695Y-38277976D01*
X66454266Y-38544642D01*
X67025695Y-38811309D01*
X66225695Y-38811309D01*
X66225695Y-39306547D02*
X66263790Y-39230357D01*
X66301885Y-39192261D01*
X66378076Y-39154166D01*
X66606647Y-39154166D01*
X66682838Y-39192261D01*
X66720933Y-39230357D01*
X66759028Y-39306547D01*
X66759028Y-39420833D01*
X66720933Y-39497023D01*
X66682838Y-39535119D01*
X66606647Y-39573214D01*
X66378076Y-39573214D01*
X66301885Y-39535119D01*
X66263790Y-39497023D01*
X66225695Y-39420833D01*
X66225695Y-39306547D01*
X66759028Y-39916071D02*
X66225695Y-39916071D01*
X66682838Y-39916071D02*
X66720933Y-39954166D01*
X66759028Y-40030357D01*
X66759028Y-40144642D01*
X66720933Y-40220833D01*
X66644742Y-40258928D01*
X66225695Y-40258928D01*
X66225695Y-40982738D02*
X66644742Y-40982738D01*
X66720933Y-40944642D01*
X66759028Y-40868452D01*
X66759028Y-40716071D01*
X66720933Y-40639880D01*
X66263790Y-40982738D02*
X66225695Y-40906547D01*
X66225695Y-40716071D01*
X66263790Y-40639880D01*
X66339980Y-40601785D01*
X66416171Y-40601785D01*
X66492361Y-40639880D01*
X66530457Y-40716071D01*
X66530457Y-40906547D01*
X66568552Y-40982738D01*
X66225695Y-41706547D02*
X67025695Y-41706547D01*
X66263790Y-41706547D02*
X66225695Y-41630357D01*
X66225695Y-41477976D01*
X66263790Y-41401785D01*
X66301885Y-41363690D01*
X66378076Y-41325595D01*
X66606647Y-41325595D01*
X66682838Y-41363690D01*
X66720933Y-41401785D01*
X66759028Y-41477976D01*
X66759028Y-41630357D01*
X66720933Y-41706547D01*
X66949504Y-42658928D02*
X66987600Y-42697023D01*
X67025695Y-42773214D01*
X67025695Y-42963690D01*
X66987600Y-43039880D01*
X66949504Y-43077976D01*
X66873314Y-43116071D01*
X66797123Y-43116071D01*
X66682838Y-43077976D01*
X66225695Y-42620833D01*
X66225695Y-43116071D01*
X67025695Y-43611309D02*
X67025695Y-43687500D01*
X66987600Y-43763690D01*
X66949504Y-43801785D01*
X66873314Y-43839880D01*
X66720933Y-43877976D01*
X66530457Y-43877976D01*
X66378076Y-43839880D01*
X66301885Y-43801785D01*
X66263790Y-43763690D01*
X66225695Y-43687500D01*
X66225695Y-43611309D01*
X66263790Y-43535119D01*
X66301885Y-43497023D01*
X66378076Y-43458928D01*
X66530457Y-43420833D01*
X66720933Y-43420833D01*
X66873314Y-43458928D01*
X66949504Y-43497023D01*
X66987600Y-43535119D01*
X67025695Y-43611309D01*
X66949504Y-44182738D02*
X66987600Y-44220833D01*
X67025695Y-44297023D01*
X67025695Y-44487500D01*
X66987600Y-44563690D01*
X66949504Y-44601785D01*
X66873314Y-44639880D01*
X66797123Y-44639880D01*
X66682838Y-44601785D01*
X66225695Y-44144642D01*
X66225695Y-44639880D01*
X66225695Y-45401785D02*
X66225695Y-44944642D01*
X66225695Y-45173214D02*
X67025695Y-45173214D01*
X66911409Y-45097023D01*
X66835219Y-45020833D01*
X66797123Y-44944642D01*
X54078571Y-111961904D02*
X53621428Y-111961904D01*
X53850000Y-111961904D02*
X53850000Y-111161904D01*
X53773809Y-111276190D01*
X53697619Y-111352380D01*
X53621428Y-111390476D01*
X50583333Y-90161904D02*
X51116666Y-90161904D01*
X50773809Y-90961904D01*
X45735595Y-116699761D02*
X45826071Y-116747380D01*
X46007023Y-116747380D01*
X46097500Y-116699761D01*
X46142738Y-116604523D01*
X46142738Y-116556904D01*
X46097500Y-116461666D01*
X46007023Y-116414047D01*
X45871309Y-116414047D01*
X45780833Y-116366428D01*
X45735595Y-116271190D01*
X45735595Y-116223571D01*
X45780833Y-116128333D01*
X45871309Y-116080714D01*
X46007023Y-116080714D01*
X46097500Y-116128333D01*
X46957023Y-116747380D02*
X46957023Y-116223571D01*
X46911785Y-116128333D01*
X46821309Y-116080714D01*
X46640357Y-116080714D01*
X46549881Y-116128333D01*
X46957023Y-116699761D02*
X46866547Y-116747380D01*
X46640357Y-116747380D01*
X46549881Y-116699761D01*
X46504643Y-116604523D01*
X46504643Y-116509285D01*
X46549881Y-116414047D01*
X46640357Y-116366428D01*
X46866547Y-116366428D01*
X46957023Y-116318809D01*
X47273690Y-116080714D02*
X47635595Y-116080714D01*
X47409404Y-116747380D02*
X47409404Y-115890238D01*
X47454643Y-115795000D01*
X47545119Y-115747380D01*
X47635595Y-115747380D01*
X48314166Y-116699761D02*
X48223690Y-116747380D01*
X48042738Y-116747380D01*
X47952262Y-116699761D01*
X47907023Y-116604523D01*
X47907023Y-116223571D01*
X47952262Y-116128333D01*
X48042738Y-116080714D01*
X48223690Y-116080714D01*
X48314166Y-116128333D01*
X48359404Y-116223571D01*
X48359404Y-116318809D01*
X47907023Y-116414047D01*
X49173690Y-116747380D02*
X49173690Y-116223571D01*
X49128452Y-116128333D01*
X49037976Y-116080714D01*
X48857023Y-116080714D01*
X48766547Y-116128333D01*
X49173690Y-116699761D02*
X49083214Y-116747380D01*
X48857023Y-116747380D01*
X48766547Y-116699761D01*
X48721309Y-116604523D01*
X48721309Y-116509285D01*
X48766547Y-116414047D01*
X48857023Y-116366428D01*
X49083214Y-116366428D01*
X49173690Y-116318809D01*
X50033214Y-116699761D02*
X49942738Y-116747380D01*
X49761785Y-116747380D01*
X49671309Y-116699761D01*
X49626071Y-116652142D01*
X49580833Y-116556904D01*
X49580833Y-116271190D01*
X49626071Y-116175952D01*
X49671309Y-116128333D01*
X49761785Y-116080714D01*
X49942738Y-116080714D01*
X50033214Y-116128333D01*
X50576071Y-116747380D02*
X50485595Y-116699761D01*
X50440357Y-116652142D01*
X50395119Y-116556904D01*
X50395119Y-116271190D01*
X50440357Y-116175952D01*
X50485595Y-116128333D01*
X50576071Y-116080714D01*
X50711785Y-116080714D01*
X50802262Y-116128333D01*
X50847500Y-116175952D01*
X50892738Y-116271190D01*
X50892738Y-116556904D01*
X50847500Y-116652142D01*
X50802262Y-116699761D01*
X50711785Y-116747380D01*
X50576071Y-116747380D01*
X51707023Y-116080714D02*
X51707023Y-116747380D01*
X51299881Y-116080714D02*
X51299881Y-116604523D01*
X51345119Y-116699761D01*
X51435595Y-116747380D01*
X51571309Y-116747380D01*
X51661785Y-116699761D01*
X51707023Y-116652142D01*
X52114166Y-116699761D02*
X52204643Y-116747380D01*
X52385595Y-116747380D01*
X52476071Y-116699761D01*
X52521309Y-116604523D01*
X52521309Y-116556904D01*
X52476071Y-116461666D01*
X52385595Y-116414047D01*
X52249881Y-116414047D01*
X52159404Y-116366428D01*
X52114166Y-116271190D01*
X52114166Y-116223571D01*
X52159404Y-116128333D01*
X52249881Y-116080714D01*
X52385595Y-116080714D01*
X52476071Y-116128333D01*
X52792738Y-116080714D02*
X53154643Y-116080714D01*
X52928452Y-115747380D02*
X52928452Y-116604523D01*
X52973690Y-116699761D01*
X53064166Y-116747380D01*
X53154643Y-116747380D01*
X53471309Y-116747380D02*
X53471309Y-116080714D01*
X53471309Y-115747380D02*
X53426071Y-115795000D01*
X53471309Y-115842619D01*
X53516547Y-115795000D01*
X53471309Y-115747380D01*
X53471309Y-115842619D01*
X54330833Y-116699761D02*
X54240357Y-116747380D01*
X54059404Y-116747380D01*
X53968928Y-116699761D01*
X53923690Y-116652142D01*
X53878452Y-116556904D01*
X53878452Y-116271190D01*
X53923690Y-116175952D01*
X53968928Y-116128333D01*
X54059404Y-116080714D01*
X54240357Y-116080714D01*
X54330833Y-116128333D01*
X54692738Y-116699761D02*
X54783214Y-116747380D01*
X54964166Y-116747380D01*
X55054643Y-116699761D01*
X55099881Y-116604523D01*
X55099881Y-116556904D01*
X55054643Y-116461666D01*
X54964166Y-116414047D01*
X54828452Y-116414047D01*
X54737976Y-116366428D01*
X54692738Y-116271190D01*
X54692738Y-116223571D01*
X54737976Y-116128333D01*
X54828452Y-116080714D01*
X54964166Y-116080714D01*
X55054643Y-116128333D01*
X55507023Y-116366428D02*
X56230833Y-116366428D01*
X56818928Y-116747380D02*
X56728452Y-116699761D01*
X56683214Y-116604523D01*
X56683214Y-115747380D01*
X57542738Y-116699761D02*
X57452262Y-116747380D01*
X57271309Y-116747380D01*
X57180833Y-116699761D01*
X57135595Y-116604523D01*
X57135595Y-116223571D01*
X57180833Y-116128333D01*
X57271309Y-116080714D01*
X57452262Y-116080714D01*
X57542738Y-116128333D01*
X57587976Y-116223571D01*
X57587976Y-116318809D01*
X57135595Y-116414047D01*
X58402262Y-116747380D02*
X58402262Y-115747380D01*
X58402262Y-116699761D02*
X58311785Y-116747380D01*
X58130833Y-116747380D01*
X58040357Y-116699761D01*
X57995119Y-116652142D01*
X57949881Y-116556904D01*
X57949881Y-116271190D01*
X57995119Y-116175952D01*
X58040357Y-116128333D01*
X58130833Y-116080714D01*
X58311785Y-116080714D01*
X58402262Y-116128333D01*
X58854643Y-116366428D02*
X59578452Y-116366428D01*
X60030833Y-116747380D02*
X60030833Y-116080714D01*
X60030833Y-116271190D02*
X60076071Y-116175952D01*
X60121309Y-116128333D01*
X60211785Y-116080714D01*
X60302262Y-116080714D01*
X60573690Y-115842619D02*
X60618928Y-115795000D01*
X60709404Y-115747380D01*
X60935595Y-115747380D01*
X61026071Y-115795000D01*
X61071309Y-115842619D01*
X61116547Y-115937857D01*
X61116547Y-116033095D01*
X61071309Y-116175952D01*
X60528452Y-116747380D01*
X61116547Y-116747380D01*
X45780833Y-118357380D02*
X45780833Y-117357380D01*
X46097500Y-118071666D01*
X46414166Y-117357380D01*
X46414166Y-118357380D01*
X47002262Y-118357380D02*
X46911785Y-118309761D01*
X46866547Y-118262142D01*
X46821309Y-118166904D01*
X46821309Y-117881190D01*
X46866547Y-117785952D01*
X46911785Y-117738333D01*
X47002262Y-117690714D01*
X47137976Y-117690714D01*
X47228452Y-117738333D01*
X47273690Y-117785952D01*
X47318928Y-117881190D01*
X47318928Y-118166904D01*
X47273690Y-118262142D01*
X47228452Y-118309761D01*
X47137976Y-118357380D01*
X47002262Y-118357380D01*
X47726071Y-117690714D02*
X47726071Y-118357380D01*
X47726071Y-117785952D02*
X47771309Y-117738333D01*
X47861785Y-117690714D01*
X47997500Y-117690714D01*
X48087976Y-117738333D01*
X48133214Y-117833571D01*
X48133214Y-118357380D01*
X48992738Y-118357380D02*
X48992738Y-117833571D01*
X48947500Y-117738333D01*
X48857023Y-117690714D01*
X48676071Y-117690714D01*
X48585595Y-117738333D01*
X48992738Y-118309761D02*
X48902262Y-118357380D01*
X48676071Y-118357380D01*
X48585595Y-118309761D01*
X48540357Y-118214523D01*
X48540357Y-118119285D01*
X48585595Y-118024047D01*
X48676071Y-117976428D01*
X48902262Y-117976428D01*
X48992738Y-117928809D01*
X49852262Y-118357380D02*
X49852262Y-117357380D01*
X49852262Y-118309761D02*
X49761785Y-118357380D01*
X49580833Y-118357380D01*
X49490357Y-118309761D01*
X49445119Y-118262142D01*
X49399881Y-118166904D01*
X49399881Y-117881190D01*
X49445119Y-117785952D01*
X49490357Y-117738333D01*
X49580833Y-117690714D01*
X49761785Y-117690714D01*
X49852262Y-117738333D01*
X50983214Y-117452619D02*
X51028452Y-117405000D01*
X51118928Y-117357380D01*
X51345119Y-117357380D01*
X51435595Y-117405000D01*
X51480833Y-117452619D01*
X51526071Y-117547857D01*
X51526071Y-117643095D01*
X51480833Y-117785952D01*
X50937976Y-118357380D01*
X51526071Y-118357380D01*
X52114166Y-117357380D02*
X52204643Y-117357380D01*
X52295119Y-117405000D01*
X52340357Y-117452619D01*
X52385595Y-117547857D01*
X52430833Y-117738333D01*
X52430833Y-117976428D01*
X52385595Y-118166904D01*
X52340357Y-118262142D01*
X52295119Y-118309761D01*
X52204643Y-118357380D01*
X52114166Y-118357380D01*
X52023690Y-118309761D01*
X51978452Y-118262142D01*
X51933214Y-118166904D01*
X51887976Y-117976428D01*
X51887976Y-117738333D01*
X51933214Y-117547857D01*
X51978452Y-117452619D01*
X52023690Y-117405000D01*
X52114166Y-117357380D01*
X52792738Y-117452619D02*
X52837976Y-117405000D01*
X52928452Y-117357380D01*
X53154643Y-117357380D01*
X53245119Y-117405000D01*
X53290357Y-117452619D01*
X53335595Y-117547857D01*
X53335595Y-117643095D01*
X53290357Y-117785952D01*
X52747500Y-118357380D01*
X53335595Y-118357380D01*
X54240357Y-118357380D02*
X53697500Y-118357380D01*
X53968928Y-118357380D02*
X53968928Y-117357380D01*
X53878452Y-117500238D01*
X53787976Y-117595476D01*
X53697500Y-117643095D01*
X50583333Y-94161904D02*
X51078571Y-94161904D01*
X50811904Y-94466666D01*
X50926190Y-94466666D01*
X51002380Y-94504761D01*
X51040476Y-94542857D01*
X51078571Y-94619047D01*
X51078571Y-94809523D01*
X51040476Y-94885714D01*
X51002380Y-94923809D01*
X50926190Y-94961904D01*
X50697619Y-94961904D01*
X50621428Y-94923809D01*
X50583333Y-94885714D01*
X51078571Y-96961904D02*
X50621428Y-96961904D01*
X50850000Y-96961904D02*
X50850000Y-96161904D01*
X50773809Y-96276190D01*
X50697619Y-96352380D01*
X50621428Y-96390476D01*
X51040476Y-92161904D02*
X50659523Y-92161904D01*
X50621428Y-92542857D01*
X50659523Y-92504761D01*
X50735714Y-92466666D01*
X50926190Y-92466666D01*
X51002380Y-92504761D01*
X51040476Y-92542857D01*
X51078571Y-92619047D01*
X51078571Y-92809523D01*
X51040476Y-92885714D01*
X51002380Y-92923809D01*
X50926190Y-92961904D01*
X50735714Y-92961904D01*
X50659523Y-92923809D01*
X50621428Y-92885714D01*
X45238095Y-55790476D02*
X45238095Y-55409523D01*
X44857142Y-55371428D01*
X44895238Y-55409523D01*
X44933333Y-55485714D01*
X44933333Y-55676190D01*
X44895238Y-55752380D01*
X44857142Y-55790476D01*
X44780952Y-55828571D01*
X44590476Y-55828571D01*
X44514285Y-55790476D01*
X44476190Y-55752380D01*
X44438095Y-55676190D01*
X44438095Y-55485714D01*
X44476190Y-55409523D01*
X44514285Y-55371428D01*
X43238095Y-55333333D02*
X43238095Y-55866666D01*
X42438095Y-55523809D01*
X53226190Y-37971428D02*
X53188095Y-38047619D01*
X53188095Y-38200000D01*
X53226190Y-38276190D01*
X53302380Y-38314285D01*
X53340476Y-38314285D01*
X53416666Y-38276190D01*
X53454761Y-38200000D01*
X53454761Y-38085714D01*
X53492857Y-38009523D01*
X53569047Y-37971428D01*
X53607142Y-37971428D01*
X53683333Y-38009523D01*
X53721428Y-38085714D01*
X53721428Y-38200000D01*
X53683333Y-38276190D01*
X53188095Y-39000000D02*
X53607142Y-39000000D01*
X53683333Y-38961904D01*
X53721428Y-38885714D01*
X53721428Y-38733333D01*
X53683333Y-38657142D01*
X53226190Y-39000000D02*
X53188095Y-38923809D01*
X53188095Y-38733333D01*
X53226190Y-38657142D01*
X53302380Y-38619047D01*
X53378571Y-38619047D01*
X53454761Y-38657142D01*
X53492857Y-38733333D01*
X53492857Y-38923809D01*
X53530952Y-39000000D01*
X53721428Y-39266666D02*
X53721428Y-39571428D01*
X53188095Y-39380952D02*
X53873809Y-39380952D01*
X53950000Y-39419047D01*
X53988095Y-39495238D01*
X53988095Y-39571428D01*
X53226190Y-40142857D02*
X53188095Y-40066666D01*
X53188095Y-39914285D01*
X53226190Y-39838095D01*
X53302380Y-39800000D01*
X53607142Y-39800000D01*
X53683333Y-39838095D01*
X53721428Y-39914285D01*
X53721428Y-40066666D01*
X53683333Y-40142857D01*
X53607142Y-40180952D01*
X53530952Y-40180952D01*
X53454761Y-39800000D01*
X53188095Y-40866666D02*
X53607142Y-40866666D01*
X53683333Y-40828571D01*
X53721428Y-40752380D01*
X53721428Y-40600000D01*
X53683333Y-40523809D01*
X53226190Y-40866666D02*
X53188095Y-40790476D01*
X53188095Y-40600000D01*
X53226190Y-40523809D01*
X53302380Y-40485714D01*
X53378571Y-40485714D01*
X53454761Y-40523809D01*
X53492857Y-40600000D01*
X53492857Y-40790476D01*
X53530952Y-40866666D01*
X53226190Y-41590476D02*
X53188095Y-41514285D01*
X53188095Y-41361904D01*
X53226190Y-41285714D01*
X53264285Y-41247619D01*
X53340476Y-41209523D01*
X53569047Y-41209523D01*
X53645238Y-41247619D01*
X53683333Y-41285714D01*
X53721428Y-41361904D01*
X53721428Y-41514285D01*
X53683333Y-41590476D01*
X53188095Y-42047619D02*
X53226190Y-41971428D01*
X53264285Y-41933333D01*
X53340476Y-41895238D01*
X53569047Y-41895238D01*
X53645238Y-41933333D01*
X53683333Y-41971428D01*
X53721428Y-42047619D01*
X53721428Y-42161904D01*
X53683333Y-42238095D01*
X53645238Y-42276190D01*
X53569047Y-42314285D01*
X53340476Y-42314285D01*
X53264285Y-42276190D01*
X53226190Y-42238095D01*
X53188095Y-42161904D01*
X53188095Y-42047619D01*
X53721428Y-43000000D02*
X53188095Y-43000000D01*
X53721428Y-42657142D02*
X53302380Y-42657142D01*
X53226190Y-42695238D01*
X53188095Y-42771428D01*
X53188095Y-42885714D01*
X53226190Y-42961904D01*
X53264285Y-43000000D01*
X53226190Y-43342857D02*
X53188095Y-43419047D01*
X53188095Y-43571428D01*
X53226190Y-43647619D01*
X53302380Y-43685714D01*
X53340476Y-43685714D01*
X53416666Y-43647619D01*
X53454761Y-43571428D01*
X53454761Y-43457142D01*
X53492857Y-43380952D01*
X53569047Y-43342857D01*
X53607142Y-43342857D01*
X53683333Y-43380952D01*
X53721428Y-43457142D01*
X53721428Y-43571428D01*
X53683333Y-43647619D01*
X53721428Y-43914285D02*
X53721428Y-44219047D01*
X53988095Y-44028571D02*
X53302380Y-44028571D01*
X53226190Y-44066666D01*
X53188095Y-44142857D01*
X53188095Y-44219047D01*
X53188095Y-44485714D02*
X53721428Y-44485714D01*
X53988095Y-44485714D02*
X53950000Y-44447619D01*
X53911904Y-44485714D01*
X53950000Y-44523809D01*
X53988095Y-44485714D01*
X53911904Y-44485714D01*
X53226190Y-45209523D02*
X53188095Y-45133333D01*
X53188095Y-44980952D01*
X53226190Y-44904761D01*
X53264285Y-44866666D01*
X53340476Y-44828571D01*
X53569047Y-44828571D01*
X53645238Y-44866666D01*
X53683333Y-44904761D01*
X53721428Y-44980952D01*
X53721428Y-45133333D01*
X53683333Y-45209523D01*
X53226190Y-45514285D02*
X53188095Y-45590476D01*
X53188095Y-45742857D01*
X53226190Y-45819047D01*
X53302380Y-45857142D01*
X53340476Y-45857142D01*
X53416666Y-45819047D01*
X53454761Y-45742857D01*
X53454761Y-45628571D01*
X53492857Y-45552380D01*
X53569047Y-45514285D01*
X53607142Y-45514285D01*
X53683333Y-45552380D01*
X53721428Y-45628571D01*
X53721428Y-45742857D01*
X53683333Y-45819047D01*
X53492857Y-46200000D02*
X53492857Y-46809523D01*
X53188095Y-47190476D02*
X53721428Y-47190476D01*
X53645238Y-47190476D02*
X53683333Y-47228571D01*
X53721428Y-47304761D01*
X53721428Y-47419047D01*
X53683333Y-47495238D01*
X53607142Y-47533333D01*
X53188095Y-47533333D01*
X53607142Y-47533333D02*
X53683333Y-47571428D01*
X53721428Y-47647619D01*
X53721428Y-47761904D01*
X53683333Y-47838095D01*
X53607142Y-47876190D01*
X53188095Y-47876190D01*
X53188095Y-48257142D02*
X53721428Y-48257142D01*
X53988095Y-48257142D02*
X53950000Y-48219047D01*
X53911904Y-48257142D01*
X53950000Y-48295238D01*
X53988095Y-48257142D01*
X53911904Y-48257142D01*
X53226190Y-48980952D02*
X53188095Y-48904761D01*
X53188095Y-48752380D01*
X53226190Y-48676190D01*
X53264285Y-48638095D01*
X53340476Y-48600000D01*
X53569047Y-48600000D01*
X53645238Y-48638095D01*
X53683333Y-48676190D01*
X53721428Y-48752380D01*
X53721428Y-48904761D01*
X53683333Y-48980952D01*
X53492857Y-49323809D02*
X53492857Y-49933333D01*
X53188095Y-50314285D02*
X53721428Y-50314285D01*
X53569047Y-50314285D02*
X53645238Y-50352380D01*
X53683333Y-50390476D01*
X53721428Y-50466666D01*
X53721428Y-50542857D01*
X53911904Y-50771428D02*
X53950000Y-50809523D01*
X53988095Y-50885714D01*
X53988095Y-51076190D01*
X53950000Y-51152380D01*
X53911904Y-51190476D01*
X53835714Y-51228571D01*
X53759523Y-51228571D01*
X53645238Y-51190476D01*
X53188095Y-50733333D01*
X53188095Y-51228571D01*
X47238095Y-55283333D02*
X47238095Y-55778571D01*
X46933333Y-55511904D01*
X46933333Y-55626190D01*
X46895238Y-55702380D01*
X46857142Y-55740476D01*
X46780952Y-55778571D01*
X46590476Y-55778571D01*
X46514285Y-55740476D01*
X46476190Y-55702380D01*
X46438095Y-55626190D01*
X46438095Y-55397619D01*
X46476190Y-55321428D01*
X46514285Y-55283333D01*
X48438095Y-55778571D02*
X48438095Y-55321428D01*
X48438095Y-55550000D02*
X49238095Y-55550000D01*
X49123809Y-55473809D01*
X49047619Y-55397619D01*
X49009523Y-55321428D01*
%TO.C,REF\u002A\u002A*%
X60597619Y-58279165D02*
X61073809Y-57945832D01*
X60597619Y-57707737D02*
X61597619Y-57707737D01*
X61597619Y-58088689D01*
X61550000Y-58183927D01*
X61502380Y-58231546D01*
X61407142Y-58279165D01*
X61264285Y-58279165D01*
X61169047Y-58231546D01*
X61121428Y-58183927D01*
X61073809Y-58088689D01*
X61073809Y-57707737D01*
X61121428Y-58707737D02*
X61121428Y-59041070D01*
X60597619Y-59183927D02*
X60597619Y-58707737D01*
X61597619Y-58707737D01*
X61597619Y-59183927D01*
X61121428Y-59945832D02*
X61121428Y-59612499D01*
X60597619Y-59612499D02*
X61597619Y-59612499D01*
X61597619Y-60088689D01*
X61597619Y-60612499D02*
X61359523Y-60612499D01*
X61454761Y-60374403D02*
X61359523Y-60612499D01*
X61454761Y-60850594D01*
X61169047Y-60469641D02*
X61359523Y-60612499D01*
X61169047Y-60755356D01*
X61597619Y-61374403D02*
X61359523Y-61374403D01*
X61454761Y-61136308D02*
X61359523Y-61374403D01*
X61454761Y-61612499D01*
X61169047Y-61231546D02*
X61359523Y-61374403D01*
X61169047Y-61517260D01*
X60597619Y-39854165D02*
X61073809Y-39520832D01*
X60597619Y-39282737D02*
X61597619Y-39282737D01*
X61597619Y-39663689D01*
X61550000Y-39758927D01*
X61502380Y-39806546D01*
X61407142Y-39854165D01*
X61264285Y-39854165D01*
X61169047Y-39806546D01*
X61121428Y-39758927D01*
X61073809Y-39663689D01*
X61073809Y-39282737D01*
X61121428Y-40282737D02*
X61121428Y-40616070D01*
X60597619Y-40758927D02*
X60597619Y-40282737D01*
X61597619Y-40282737D01*
X61597619Y-40758927D01*
X61121428Y-41520832D02*
X61121428Y-41187499D01*
X60597619Y-41187499D02*
X61597619Y-41187499D01*
X61597619Y-41663689D01*
X61597619Y-42187499D02*
X61359523Y-42187499D01*
X61454761Y-41949403D02*
X61359523Y-42187499D01*
X61454761Y-42425594D01*
X61169047Y-42044641D02*
X61359523Y-42187499D01*
X61169047Y-42330356D01*
X61597619Y-42949403D02*
X61359523Y-42949403D01*
X61454761Y-42711308D02*
X61359523Y-42949403D01*
X61454761Y-43187499D01*
X61169047Y-42806546D02*
X61359523Y-42949403D01*
X61169047Y-43092260D01*
%TO.C,T10*%
X109675123Y-45603504D02*
X110132266Y-45603504D01*
X109903695Y-46403504D02*
X109903695Y-45603504D01*
X110817980Y-46403504D02*
X110360838Y-46403504D01*
X110589409Y-46403504D02*
X110589409Y-45603504D01*
X110513219Y-45717790D01*
X110437028Y-45793980D01*
X110360838Y-45832076D01*
X111313219Y-45603504D02*
X111389409Y-45603504D01*
X111465600Y-45641600D01*
X111503695Y-45679695D01*
X111541790Y-45755885D01*
X111579885Y-45908266D01*
X111579885Y-46098742D01*
X111541790Y-46251123D01*
X111503695Y-46327314D01*
X111465600Y-46365409D01*
X111389409Y-46403504D01*
X111313219Y-46403504D01*
X111237028Y-46365409D01*
X111198933Y-46327314D01*
X111160838Y-46251123D01*
X111122742Y-46098742D01*
X111122742Y-45908266D01*
X111160838Y-45755885D01*
X111198933Y-45679695D01*
X111237028Y-45641600D01*
X111313219Y-45603504D01*
%TO.C,T7*%
X79434476Y-82306704D02*
X79891619Y-82306704D01*
X79663047Y-83106704D02*
X79663047Y-82306704D01*
X80082095Y-82306704D02*
X80615428Y-82306704D01*
X80272571Y-83106704D01*
%TO.C,T4*%
X70190476Y-115606504D02*
X70647619Y-115606504D01*
X70419047Y-116406504D02*
X70419047Y-115606504D01*
X71257142Y-115873171D02*
X71257142Y-116406504D01*
X71066666Y-115568409D02*
X70876190Y-116139838D01*
X71371428Y-116139838D01*
%TO.C,T1*%
X76934476Y-82306704D02*
X77391619Y-82306704D01*
X77163047Y-83106704D02*
X77163047Y-82306704D01*
X78077333Y-83106704D02*
X77620190Y-83106704D01*
X77848761Y-83106704D02*
X77848761Y-82306704D01*
X77772571Y-82420990D01*
X77696380Y-82497180D01*
X77620190Y-82535276D01*
%TO.C,T6*%
X74165476Y-115631504D02*
X74622619Y-115631504D01*
X74394047Y-116431504D02*
X74394047Y-115631504D01*
X75232142Y-115631504D02*
X75079761Y-115631504D01*
X75003571Y-115669600D01*
X74965476Y-115707695D01*
X74889285Y-115821980D01*
X74851190Y-115974361D01*
X74851190Y-116279123D01*
X74889285Y-116355314D01*
X74927380Y-116393409D01*
X75003571Y-116431504D01*
X75155952Y-116431504D01*
X75232142Y-116393409D01*
X75270238Y-116355314D01*
X75308333Y-116279123D01*
X75308333Y-116088647D01*
X75270238Y-116012457D01*
X75232142Y-115974361D01*
X75155952Y-115936266D01*
X75003571Y-115936266D01*
X74927380Y-115974361D01*
X74889285Y-116012457D01*
X74851190Y-116088647D01*
%TO.C,T5*%
X72190476Y-115581504D02*
X72647619Y-115581504D01*
X72419047Y-116381504D02*
X72419047Y-115581504D01*
X73295238Y-115581504D02*
X72914285Y-115581504D01*
X72876190Y-115962457D01*
X72914285Y-115924361D01*
X72990476Y-115886266D01*
X73180952Y-115886266D01*
X73257142Y-115924361D01*
X73295238Y-115962457D01*
X73333333Y-116038647D01*
X73333333Y-116229123D01*
X73295238Y-116305314D01*
X73257142Y-116343409D01*
X73180952Y-116381504D01*
X72990476Y-116381504D01*
X72914285Y-116343409D01*
X72876190Y-116305314D01*
%TO.C,T8*%
X84706876Y-51801104D02*
X85164019Y-51801104D01*
X84935447Y-52601104D02*
X84935447Y-51801104D01*
X85544971Y-52143961D02*
X85468780Y-52105866D01*
X85430685Y-52067771D01*
X85392590Y-51991580D01*
X85392590Y-51953485D01*
X85430685Y-51877295D01*
X85468780Y-51839200D01*
X85544971Y-51801104D01*
X85697352Y-51801104D01*
X85773542Y-51839200D01*
X85811638Y-51877295D01*
X85849733Y-51953485D01*
X85849733Y-51991580D01*
X85811638Y-52067771D01*
X85773542Y-52105866D01*
X85697352Y-52143961D01*
X85544971Y-52143961D01*
X85468780Y-52182057D01*
X85430685Y-52220152D01*
X85392590Y-52296342D01*
X85392590Y-52448723D01*
X85430685Y-52524914D01*
X85468780Y-52563009D01*
X85544971Y-52601104D01*
X85697352Y-52601104D01*
X85773542Y-52563009D01*
X85811638Y-52524914D01*
X85849733Y-52448723D01*
X85849733Y-52296342D01*
X85811638Y-52220152D01*
X85773542Y-52182057D01*
X85697352Y-52143961D01*
%TO.C,T9*%
X84706876Y-54849104D02*
X85164019Y-54849104D01*
X84935447Y-55649104D02*
X84935447Y-54849104D01*
X85468780Y-55649104D02*
X85621161Y-55649104D01*
X85697352Y-55611009D01*
X85735447Y-55572914D01*
X85811638Y-55458628D01*
X85849733Y-55306247D01*
X85849733Y-55001485D01*
X85811638Y-54925295D01*
X85773542Y-54887200D01*
X85697352Y-54849104D01*
X85544971Y-54849104D01*
X85468780Y-54887200D01*
X85430685Y-54925295D01*
X85392590Y-55001485D01*
X85392590Y-55191961D01*
X85430685Y-55268152D01*
X85468780Y-55306247D01*
X85544971Y-55344342D01*
X85697352Y-55344342D01*
X85773542Y-55306247D01*
X85811638Y-55268152D01*
X85849733Y-55191961D01*
%TO.C,T3*%
X68190476Y-115631504D02*
X68647619Y-115631504D01*
X68419047Y-116431504D02*
X68419047Y-115631504D01*
X68838095Y-115631504D02*
X69333333Y-115631504D01*
X69066666Y-115936266D01*
X69180952Y-115936266D01*
X69257142Y-115974361D01*
X69295238Y-116012457D01*
X69333333Y-116088647D01*
X69333333Y-116279123D01*
X69295238Y-116355314D01*
X69257142Y-116393409D01*
X69180952Y-116431504D01*
X68952380Y-116431504D01*
X68876190Y-116393409D01*
X68838095Y-116355314D01*
%TO.C,T11*%
X109675123Y-42403104D02*
X110132266Y-42403104D01*
X109903695Y-43203104D02*
X109903695Y-42403104D01*
X110817980Y-43203104D02*
X110360838Y-43203104D01*
X110589409Y-43203104D02*
X110589409Y-42403104D01*
X110513219Y-42517390D01*
X110437028Y-42593580D01*
X110360838Y-42631676D01*
X111579885Y-43203104D02*
X111122742Y-43203104D01*
X111351314Y-43203104D02*
X111351314Y-42403104D01*
X111275123Y-42517390D01*
X111198933Y-42593580D01*
X111122742Y-42631676D01*
%TO.C,LED3*%
X40802380Y-76019047D02*
X40802380Y-76495238D01*
X39802380Y-76495238D01*
X40278571Y-75685714D02*
X40278571Y-75352380D01*
X40802380Y-75209523D02*
X40802380Y-75685714D01*
X39802380Y-75685714D01*
X39802380Y-75209523D01*
X40802380Y-74780952D02*
X39802380Y-74780952D01*
X39802380Y-74542857D01*
X39850000Y-74400000D01*
X39945238Y-74304761D01*
X40040476Y-74257142D01*
X40230952Y-74209523D01*
X40373809Y-74209523D01*
X40564285Y-74257142D01*
X40659523Y-74304761D01*
X40754761Y-74400000D01*
X40802380Y-74542857D01*
X40802380Y-74780952D01*
X39802380Y-73876190D02*
X39802380Y-73257142D01*
X40183333Y-73590476D01*
X40183333Y-73447619D01*
X40230952Y-73352380D01*
X40278571Y-73304761D01*
X40373809Y-73257142D01*
X40611904Y-73257142D01*
X40707142Y-73304761D01*
X40754761Y-73352380D01*
X40802380Y-73447619D01*
X40802380Y-73733333D01*
X40754761Y-73828571D01*
X40707142Y-73876190D01*
%TO.C,LED2*%
X40802380Y-83719047D02*
X40802380Y-84195238D01*
X39802380Y-84195238D01*
X40278571Y-83385714D02*
X40278571Y-83052380D01*
X40802380Y-82909523D02*
X40802380Y-83385714D01*
X39802380Y-83385714D01*
X39802380Y-82909523D01*
X40802380Y-82480952D02*
X39802380Y-82480952D01*
X39802380Y-82242857D01*
X39850000Y-82100000D01*
X39945238Y-82004761D01*
X40040476Y-81957142D01*
X40230952Y-81909523D01*
X40373809Y-81909523D01*
X40564285Y-81957142D01*
X40659523Y-82004761D01*
X40754761Y-82100000D01*
X40802380Y-82242857D01*
X40802380Y-82480952D01*
X39897619Y-81528571D02*
X39850000Y-81480952D01*
X39802380Y-81385714D01*
X39802380Y-81147619D01*
X39850000Y-81052380D01*
X39897619Y-81004761D01*
X39992857Y-80957142D01*
X40088095Y-80957142D01*
X40230952Y-81004761D01*
X40802380Y-81576190D01*
X40802380Y-80957142D01*
%TO.C,LED1*%
X40802380Y-91719047D02*
X40802380Y-92195238D01*
X39802380Y-92195238D01*
X40278571Y-91385714D02*
X40278571Y-91052380D01*
X40802380Y-90909523D02*
X40802380Y-91385714D01*
X39802380Y-91385714D01*
X39802380Y-90909523D01*
X40802380Y-90480952D02*
X39802380Y-90480952D01*
X39802380Y-90242857D01*
X39850000Y-90100000D01*
X39945238Y-90004761D01*
X40040476Y-89957142D01*
X40230952Y-89909523D01*
X40373809Y-89909523D01*
X40564285Y-89957142D01*
X40659523Y-90004761D01*
X40754761Y-90100000D01*
X40802380Y-90242857D01*
X40802380Y-90480952D01*
X40802380Y-88957142D02*
X40802380Y-89528571D01*
X40802380Y-89242857D02*
X39802380Y-89242857D01*
X39945238Y-89338095D01*
X40040476Y-89433333D01*
X40088095Y-89528571D01*
%TO.C,TP1*%
X50876527Y-63969807D02*
X50876527Y-63512664D01*
X51676527Y-63741236D02*
X50876527Y-63741236D01*
X51676527Y-63245998D02*
X50876527Y-63245998D01*
X50876527Y-62941236D01*
X50914623Y-62865045D01*
X50952718Y-62826950D01*
X51028908Y-62788855D01*
X51143194Y-62788855D01*
X51219384Y-62826950D01*
X51257480Y-62865045D01*
X51295575Y-62941236D01*
X51295575Y-63245998D01*
X51676527Y-62026950D02*
X51676527Y-62484093D01*
X51676527Y-62255522D02*
X50876527Y-62255522D01*
X50990813Y-62331712D01*
X51067003Y-62407903D01*
X51105099Y-62484093D01*
%TO.C,TP3*%
X50290476Y-57186904D02*
X50747619Y-57186904D01*
X50519047Y-57986904D02*
X50519047Y-57186904D01*
X51014285Y-57986904D02*
X51014285Y-57186904D01*
X51319047Y-57186904D01*
X51395238Y-57225000D01*
X51433333Y-57263095D01*
X51471428Y-57339285D01*
X51471428Y-57453571D01*
X51433333Y-57529761D01*
X51395238Y-57567857D01*
X51319047Y-57605952D01*
X51014285Y-57605952D01*
X51738095Y-57186904D02*
X52233333Y-57186904D01*
X51966666Y-57491666D01*
X52080952Y-57491666D01*
X52157142Y-57529761D01*
X52195238Y-57567857D01*
X52233333Y-57644047D01*
X52233333Y-57834523D01*
X52195238Y-57910714D01*
X52157142Y-57948809D01*
X52080952Y-57986904D01*
X51852380Y-57986904D01*
X51776190Y-57948809D01*
X51738095Y-57910714D01*
%TO.C,TP2*%
X53015476Y-57161904D02*
X53472619Y-57161904D01*
X53244047Y-57961904D02*
X53244047Y-57161904D01*
X53739285Y-57961904D02*
X53739285Y-57161904D01*
X54044047Y-57161904D01*
X54120238Y-57200000D01*
X54158333Y-57238095D01*
X54196428Y-57314285D01*
X54196428Y-57428571D01*
X54158333Y-57504761D01*
X54120238Y-57542857D01*
X54044047Y-57580952D01*
X53739285Y-57580952D01*
X54501190Y-57238095D02*
X54539285Y-57200000D01*
X54615476Y-57161904D01*
X54805952Y-57161904D01*
X54882142Y-57200000D01*
X54920238Y-57238095D01*
X54958333Y-57314285D01*
X54958333Y-57390476D01*
X54920238Y-57504761D01*
X54463095Y-57961904D01*
X54958333Y-57961904D01*
D12*
%TO.C,REF\u002A\u002A*%
X65300000Y-40800000D02*
X65300000Y-70800000D01*
X65000000Y-96275000D02*
X65000000Y-126275000D01*
X65300000Y-26800000D02*
X65300000Y-56800000D01*
X65000000Y-77850000D02*
X65000000Y-107850000D01*
D13*
%TO.C,J15*%
X117740000Y-57810000D02*
X117740000Y-57390000D01*
X122090000Y-57810000D02*
X121690000Y-57810000D01*
X119720000Y-50290000D02*
X117740000Y-50290000D01*
X117740000Y-50290000D02*
X117740000Y-50710000D01*
X117060000Y-55360000D02*
X117060000Y-55810000D01*
X121690000Y-50290000D02*
X122090000Y-50290000D01*
X119720000Y-57810000D02*
X117740000Y-57810000D01*
X117510000Y-55810000D02*
X117060000Y-55810000D01*
%TO.C,Q3*%
X118270600Y-125262200D02*
X118605600Y-125262200D01*
X121205600Y-128532200D02*
X121540600Y-128532200D01*
X118270600Y-128767200D02*
X118270600Y-125262200D01*
X121205600Y-125262200D02*
X121540600Y-125262200D01*
X121540600Y-128532200D02*
X121540600Y-125262200D01*
%TO.C,D1*%
X80900000Y-132710000D02*
X82542500Y-132710000D01*
X82542500Y-130790000D02*
X80900000Y-130790000D01*
X80900000Y-130790000D02*
X80900000Y-132710000D01*
%TO.C,T10*%
X111365600Y-47489600D02*
G75*
G03*
X111365600Y-47489600I-700000J0D01*
G01*
%TO.C,Q1*%
X90240000Y-106865000D02*
X90575000Y-106865000D01*
X93175000Y-106865000D02*
X93510000Y-106865000D01*
X93175000Y-110135000D02*
X93510000Y-110135000D01*
X90240000Y-110370000D02*
X90240000Y-106865000D01*
X93510000Y-110135000D02*
X93510000Y-106865000D01*
%TO.C,J10*%
X109940000Y-119210000D02*
X109940000Y-121600000D01*
X121785000Y-118360000D02*
X121785000Y-119210000D01*
X107615000Y-114840000D02*
X107615000Y-113990000D01*
X121785000Y-113990000D02*
X121785000Y-114840000D01*
X107615000Y-118360000D02*
X107615000Y-119210000D01*
X107615000Y-119210000D02*
X109940000Y-119210000D01*
X107615000Y-113990000D02*
X121785000Y-113990000D01*
X121785000Y-119210000D02*
X119460000Y-119210000D01*
%TO.C,T7*%
X80675000Y-81150000D02*
G75*
G03*
X80675000Y-81150000I-700000J0D01*
G01*
D11*
%TO.C,U5*%
X85550000Y-121350000D02*
X85550000Y-121600000D01*
X85550000Y-121350000D02*
X85750000Y-121150000D01*
X87750000Y-124550000D02*
X87750000Y-124300000D01*
X87500000Y-124550000D02*
X87750000Y-124550000D01*
X87750000Y-121350000D02*
X87500000Y-121350000D01*
X85550000Y-124300000D02*
X85550000Y-124550000D01*
X85550000Y-121350000D02*
X85350000Y-121550000D01*
X85550000Y-124550000D02*
X85800000Y-124550000D01*
X87750000Y-121600000D02*
X87750000Y-121350000D01*
X85800000Y-121350000D02*
X85550000Y-121350000D01*
D13*
%TO.C,C36*%
X79090000Y-75240580D02*
X79090000Y-74959420D01*
X80110000Y-75240580D02*
X80110000Y-74959420D01*
%TO.C,C23*%
X85935000Y-48888748D02*
X85935000Y-49411252D01*
X84465000Y-48888748D02*
X84465000Y-49411252D01*
%TO.C,T4*%
X71500000Y-117250000D02*
G75*
G03*
X71500000Y-117250000I-700000J0D01*
G01*
%TO.C,R7*%
X94962742Y-112122500D02*
X95437258Y-112122500D01*
X94962742Y-111077500D02*
X95437258Y-111077500D01*
%TO.C,D4*%
X122000000Y-122300000D02*
X118100000Y-122300000D01*
X122000000Y-124300000D02*
X118100000Y-124300000D01*
X122000000Y-124300000D02*
X122000000Y-122300000D01*
%TO.C,R8*%
X103337742Y-112122500D02*
X103812258Y-112122500D01*
X103337742Y-111077500D02*
X103812258Y-111077500D01*
%TO.C,U13*%
X81210000Y-69650000D02*
X81210000Y-71600000D01*
X76090000Y-69650000D02*
X76090000Y-73100000D01*
X76090000Y-69650000D02*
X76090000Y-67700000D01*
X81210000Y-69650000D02*
X81210000Y-67700000D01*
%TO.C,C43*%
X109188000Y-127651948D02*
X109188000Y-129074452D01*
X107368000Y-127651948D02*
X107368000Y-129074452D01*
%TO.C,C42*%
X83940000Y-121490580D02*
X83940000Y-121209420D01*
X84960000Y-121490580D02*
X84960000Y-121209420D01*
%TO.C,U9*%
X95150000Y-89135000D02*
X98750000Y-89135000D01*
X95150000Y-89135000D02*
X92950000Y-89135000D01*
X95150000Y-82365000D02*
X97350000Y-82365000D01*
X95150000Y-82365000D02*
X92950000Y-82365000D01*
%TO.C,C13*%
X89740000Y-116038748D02*
X89740000Y-117461252D01*
X91560000Y-116038748D02*
X91560000Y-117461252D01*
%TO.C,Q4*%
X115810000Y-58430000D02*
X115810000Y-56400000D01*
X115810000Y-58430000D02*
X115150000Y-58430000D01*
X113490000Y-57020000D02*
X113490000Y-58430000D01*
X114150000Y-58430000D02*
X113490000Y-58430000D01*
%TO.C,U8*%
X80346000Y-104357200D02*
X81346000Y-104357200D01*
X80346000Y-107157200D02*
X81646000Y-107157200D01*
%TO.C,U11*%
X75500000Y-85700000D02*
X75500000Y-87000000D01*
X78300000Y-85700000D02*
X78300000Y-86700000D01*
%TO.C,R26*%
X117196311Y-104185238D02*
X116860778Y-103849705D01*
X117935238Y-103446311D02*
X117599705Y-103110778D01*
%TO.C,R20*%
X92120000Y-32251359D02*
X92120000Y-32558641D01*
X92880000Y-32251359D02*
X92880000Y-32558641D01*
%TO.C,T1*%
X78175000Y-81150000D02*
G75*
G03*
X78175000Y-81150000I-700000J0D01*
G01*
D14*
%TO.C,J12*%
X90900000Y-28905000D02*
X91400000Y-28905000D01*
X90900000Y-28905000D02*
X90900000Y-28405000D01*
X90900000Y-25605000D02*
X90900000Y-26105000D01*
X94100000Y-28905000D02*
X94100000Y-28405000D01*
X94100000Y-28905000D02*
X93600000Y-28905000D01*
X90900000Y-25605000D02*
X91400000Y-25605000D01*
X94100000Y-25605000D02*
X94100000Y-26105000D01*
X94100000Y-25605000D02*
X93600000Y-25605000D01*
D13*
%TO.C,R35*%
X94577500Y-120187258D02*
X94577500Y-119712742D01*
X95622500Y-120187258D02*
X95622500Y-119712742D01*
%TO.C,R22*%
X78612742Y-117227500D02*
X79087258Y-117227500D01*
X78612742Y-118272500D02*
X79087258Y-118272500D01*
%TO.C,C28*%
X80959420Y-111060000D02*
X81240580Y-111060000D01*
X80959420Y-110040000D02*
X81240580Y-110040000D01*
%TO.C,R15*%
X88587258Y-125127500D02*
X88112742Y-125127500D01*
X88587258Y-126172500D02*
X88112742Y-126172500D01*
%TO.C,R23*%
X83987258Y-102927500D02*
X83512742Y-102927500D01*
X83987258Y-103972500D02*
X83512742Y-103972500D01*
%TO.C,J5*%
X95700000Y-56650000D02*
G75*
G03*
X95700000Y-56650000I-700000J0D01*
G01*
D15*
%TO.C,U7*%
X86300000Y-55450000D02*
X109300000Y-55450000D01*
X109300000Y-55450000D02*
X109300000Y-33450000D01*
X86300000Y-33450000D02*
X86300000Y-55450000D01*
X109300000Y-33450000D02*
X86300000Y-33450000D01*
D16*
X89874000Y-52730000D02*
G75*
G03*
X89874000Y-52730000I-254000J0D01*
G01*
D11*
%TO.C,U15*%
X109775000Y-56625000D02*
X109775000Y-53275000D01*
X109775000Y-56625000D02*
X110000000Y-56625000D01*
X113125000Y-53275000D02*
X112825000Y-53275000D01*
X109775000Y-53275000D02*
X110075000Y-53275000D01*
X113125000Y-56625000D02*
X112825000Y-56625000D01*
X110000000Y-56625000D02*
X110000000Y-57850000D01*
X113125000Y-56625000D02*
X113125000Y-53275000D01*
D13*
%TO.C,R6*%
X102172500Y-88737742D02*
X102172500Y-89212258D01*
X101127500Y-88737742D02*
X101127500Y-89212258D01*
%TO.C,R16*%
X105447700Y-126132742D02*
X105447700Y-126607258D01*
X104402700Y-126132742D02*
X104402700Y-126607258D01*
%TO.C,J8*%
X100500000Y-57650000D02*
G75*
G03*
X100500000Y-57650000I-700000J0D01*
G01*
%TO.C,C45*%
X111474000Y-127651948D02*
X111474000Y-129074452D01*
X109654000Y-127651948D02*
X109654000Y-129074452D01*
%TO.C,T6*%
X75475000Y-117275000D02*
G75*
G03*
X75475000Y-117275000I-700000J0D01*
G01*
%TO.C,U10*%
X81350000Y-85700000D02*
X81350000Y-86700000D01*
X78550000Y-85700000D02*
X78550000Y-87000000D01*
%TO.C,C16*%
X96130000Y-116018748D02*
X96130000Y-117441252D01*
X97950000Y-116018748D02*
X97950000Y-117441252D01*
%TO.C,C18*%
X104990580Y-112590000D02*
X104709420Y-112590000D01*
X104990580Y-113610000D02*
X104709420Y-113610000D01*
%TO.C,C17*%
X92040000Y-116309420D02*
X92040000Y-116590580D01*
X93060000Y-116309420D02*
X93060000Y-116590580D01*
D11*
%TO.C,U6*%
X102350000Y-124550000D02*
X102350000Y-124300000D01*
X100150000Y-121350000D02*
X100350000Y-121150000D01*
X100150000Y-121350000D02*
X100150000Y-121600000D01*
X100150000Y-121350000D02*
X99950000Y-121550000D01*
X100150000Y-124300000D02*
X100150000Y-124550000D01*
X100400000Y-121350000D02*
X100150000Y-121350000D01*
X102350000Y-121350000D02*
X102100000Y-121350000D01*
X102350000Y-121600000D02*
X102350000Y-121350000D01*
X102100000Y-124550000D02*
X102350000Y-124550000D01*
X100150000Y-124550000D02*
X100400000Y-124550000D01*
D13*
%TO.C,C38*%
X87690580Y-26590000D02*
X87409420Y-26590000D01*
X87690580Y-27610000D02*
X87409420Y-27610000D01*
%TO.C,C6*%
X81540000Y-121611252D02*
X81540000Y-120188748D01*
X83360000Y-121611252D02*
X83360000Y-120188748D01*
%TO.C,C25*%
X98940580Y-81960000D02*
X98659420Y-81960000D01*
X98940580Y-80940000D02*
X98659420Y-80940000D01*
%TO.C,R13*%
X105887258Y-123577500D02*
X105412742Y-123577500D01*
X105887258Y-124622500D02*
X105412742Y-124622500D01*
%TO.C,U12*%
X111050000Y-100066009D02*
X111385876Y-100401885D01*
X111050000Y-106033991D02*
X110714124Y-105698115D01*
X110714124Y-100401885D02*
X111050000Y-100066009D01*
X108401885Y-102714124D02*
X108066009Y-103050000D01*
X113698115Y-103385876D02*
X114033991Y-103050000D01*
X111385876Y-105698115D02*
X111050000Y-106033991D01*
X114033991Y-103050000D02*
X113698115Y-102714124D01*
%TO.C,J11*%
X96995000Y-30290000D02*
X96995000Y-28410000D01*
X103705000Y-30290000D02*
X103705000Y-28410000D01*
%TO.C,C20*%
X91157836Y-32545000D02*
X90942164Y-32545000D01*
X91157836Y-33265000D02*
X90942164Y-33265000D01*
%TO.C,C12*%
X105888400Y-126241420D02*
X105888400Y-126522580D01*
X106908400Y-126241420D02*
X106908400Y-126522580D01*
%TO.C,R2*%
X91362742Y-68877500D02*
X91837258Y-68877500D01*
X91362742Y-69922500D02*
X91837258Y-69922500D01*
%TO.C,R5*%
X76227500Y-125262742D02*
X76227500Y-125737258D01*
X77272500Y-125262742D02*
X77272500Y-125737258D01*
%TO.C,Module1*%
X118800000Y-58750000D02*
X85800000Y-58750000D01*
X85800000Y-113750000D02*
X118800000Y-113750000D01*
X83450000Y-100150000D02*
X83450000Y-99150000D01*
X117370000Y-100150000D02*
X117370000Y-99150000D01*
X83450000Y-100150000D02*
X87230000Y-100150000D01*
X117370000Y-100150000D02*
X121150000Y-100150000D01*
X121150000Y-100150000D02*
X121150000Y-99150000D01*
X82300000Y-62250000D02*
X82300000Y-110250000D01*
X83450000Y-77350000D02*
X87230000Y-77350000D01*
X121150000Y-77350000D02*
X121150000Y-78350000D01*
X117370000Y-77350000D02*
X117370000Y-78350000D01*
X122300000Y-110250000D02*
X122300000Y-62250000D01*
X117370000Y-77350000D02*
X121150000Y-77350000D01*
X87230000Y-100150000D02*
X87230000Y-99150000D01*
X122300000Y-110250000D02*
G75*
G02*
X118800000Y-113750000I-3500000J0D01*
G01*
X82300000Y-62250000D02*
G75*
G02*
X85800000Y-58750000I3500000J0D01*
G01*
X118800000Y-58750000D02*
G75*
G02*
X122300000Y-62250000I0J-3500000D01*
G01*
X85800000Y-113750000D02*
G75*
G02*
X82300000Y-110250000I0J3500000D01*
G01*
%TO.C,R4*%
X85587258Y-127677500D02*
X85112742Y-127677500D01*
X85587258Y-128722500D02*
X85112742Y-128722500D01*
%TO.C,C15*%
X81540000Y-115563748D02*
X81540000Y-116986252D01*
X83360000Y-115563748D02*
X83360000Y-116986252D01*
%TO.C,C5*%
X96140000Y-122111252D02*
X96140000Y-120688748D01*
X97960000Y-122111252D02*
X97960000Y-120688748D01*
%TO.C,R21*%
X78612742Y-115727500D02*
X79087258Y-115727500D01*
X78612742Y-116772500D02*
X79087258Y-116772500D01*
%TO.C,R3*%
X87927500Y-81487258D02*
X87927500Y-81012742D01*
X88972500Y-81487258D02*
X88972500Y-81012742D01*
%TO.C,C30*%
X69940580Y-88610000D02*
X69659420Y-88610000D01*
X69940580Y-87590000D02*
X69659420Y-87590000D01*
%TO.C,C41*%
X103910000Y-121490580D02*
X103910000Y-121209420D01*
X102890000Y-121490580D02*
X102890000Y-121209420D01*
%TO.C,J4*%
X94100000Y-57650000D02*
G75*
G03*
X94100000Y-57650000I-700000J0D01*
G01*
%TO.C,C21*%
X85460000Y-46090580D02*
X85460000Y-45809420D01*
X84440000Y-46090580D02*
X84440000Y-45809420D01*
%TO.C,C4*%
X88440000Y-121490580D02*
X88440000Y-121209420D01*
X89460000Y-121490580D02*
X89460000Y-121209420D01*
%TO.C,R27*%
X115837230Y-101348303D02*
X115501697Y-101012770D01*
X115098303Y-102087230D02*
X114762770Y-101751697D01*
%TO.C,C10*%
X98431600Y-124469980D02*
X98431600Y-124188820D01*
X99451600Y-124469980D02*
X99451600Y-124188820D01*
%TO.C,C32*%
X107437022Y-105634227D02*
X107238211Y-105833038D01*
X106715773Y-104912978D02*
X106516962Y-105111789D01*
%TO.C,FB1*%
X109794400Y-124357252D02*
X109794400Y-123834748D01*
X107574400Y-124357252D02*
X107574400Y-123834748D01*
%TO.C,U14*%
X77040000Y-77500000D02*
X77040000Y-79400000D01*
X79360000Y-78900000D02*
X79360000Y-77500000D01*
%TO.C,Q2*%
X101550000Y-106865000D02*
X101885000Y-106865000D01*
X98615000Y-110370000D02*
X98615000Y-106865000D01*
X98615000Y-106865000D02*
X98950000Y-106865000D01*
X101550000Y-110135000D02*
X101885000Y-110135000D01*
X101885000Y-110135000D02*
X101885000Y-106865000D01*
%TO.C,C35*%
X75210000Y-73565580D02*
X75210000Y-73284420D01*
X74190000Y-73565580D02*
X74190000Y-73284420D01*
%TO.C,R36*%
X111340500Y-123909542D02*
X111340500Y-124384058D01*
X110295500Y-123909542D02*
X110295500Y-124384058D01*
%TO.C,R14*%
X90077500Y-126182742D02*
X90077500Y-126657258D01*
X91122500Y-126182742D02*
X91122500Y-126657258D01*
%TO.C,R34*%
X103747500Y-88737742D02*
X103747500Y-89212258D01*
X102702500Y-88737742D02*
X102702500Y-89212258D01*
%TO.C,C9*%
X83940000Y-124209420D02*
X83940000Y-124490580D01*
X84960000Y-124209420D02*
X84960000Y-124490580D01*
%TO.C,C11*%
X91590000Y-126279420D02*
X91590000Y-126560580D01*
X92610000Y-126279420D02*
X92610000Y-126560580D01*
%TO.C,C33*%
X111689970Y-109161219D02*
X111888781Y-109360030D01*
X112411219Y-108439970D02*
X112610030Y-108638781D01*
%TO.C,C19*%
X90942164Y-32315000D02*
X91157836Y-32315000D01*
X90942164Y-31595000D02*
X91157836Y-31595000D01*
D14*
%TO.C,D6*%
X79510000Y-107800000D02*
G75*
G03*
X79510000Y-107800000I-50000J0D01*
G01*
D13*
%TO.C,D7*%
X104900000Y-132710000D02*
X106542500Y-132710000D01*
X104900000Y-130790000D02*
X104900000Y-132710000D01*
X106542500Y-130790000D02*
X104900000Y-130790000D01*
%TO.C,R12*%
X91437258Y-124622500D02*
X90962742Y-124622500D01*
X91437258Y-123577500D02*
X90962742Y-123577500D01*
%TO.C,R28*%
X116885238Y-104496311D02*
X116549705Y-104160778D01*
X116146311Y-105235238D02*
X115810778Y-104899705D01*
%TO.C,C22*%
X84465000Y-43011252D02*
X84465000Y-42488748D01*
X85935000Y-43011252D02*
X85935000Y-42488748D01*
%TO.C,J16*%
X78340000Y-38100000D02*
X76600000Y-38100000D01*
X76600000Y-51400000D02*
X78340000Y-51400000D01*
X82400000Y-38100000D02*
X81060000Y-38100000D01*
X82400000Y-39590000D02*
X82400000Y-38100000D01*
X82400000Y-39590000D02*
X83600000Y-39590000D01*
X82400000Y-49910000D02*
X82400000Y-51400000D01*
X82400000Y-51400000D02*
X81060000Y-51400000D01*
X76600000Y-38100000D02*
X76600000Y-51400000D01*
%TO.C,J1*%
X89300000Y-56650000D02*
G75*
G03*
X89300000Y-56650000I-700000J0D01*
G01*
%TO.C,T5*%
X73500000Y-117225000D02*
G75*
G03*
X73500000Y-117225000I-700000J0D01*
G01*
%TO.C,R24*%
X77578058Y-83644700D02*
X77103542Y-83644700D01*
X77578058Y-84689700D02*
X77103542Y-84689700D01*
%TO.C,D5*%
X117350000Y-129250000D02*
X121200000Y-129250000D01*
X117350000Y-131250000D02*
X121200000Y-131250000D01*
X117350000Y-129250000D02*
X117350000Y-131250000D01*
%TO.C,C40*%
X113459227Y-107387978D02*
X113658038Y-107586789D01*
X112737978Y-108109227D02*
X112936789Y-108308038D01*
%TO.C,J9*%
X102100000Y-56650000D02*
G75*
G03*
X102100000Y-56650000I-700000J0D01*
G01*
%TO.C,T8*%
X86016400Y-53687200D02*
G75*
G03*
X86016400Y-53687200I-700000J0D01*
G01*
%TO.C,R31*%
X113712742Y-60722500D02*
X114187258Y-60722500D01*
X113712742Y-59677500D02*
X114187258Y-59677500D01*
%TO.C,C39*%
X114511219Y-106339970D02*
X114710030Y-106538781D01*
X113789970Y-107061219D02*
X113988781Y-107260030D01*
%TO.C,C2*%
X94713748Y-125640000D02*
X96136252Y-125640000D01*
X94713748Y-127460000D02*
X96136252Y-127460000D01*
%TO.C,R17*%
X102927258Y-125097500D02*
X102452742Y-125097500D01*
X102927258Y-126142500D02*
X102452742Y-126142500D01*
%TO.C,L1*%
X89344000Y-114156000D02*
X89344000Y-119744000D01*
X83756000Y-119744000D02*
X83756000Y-114156000D01*
%TO.C,C7*%
X85490580Y-127110000D02*
X85209420Y-127110000D01*
X85490580Y-126090000D02*
X85209420Y-126090000D01*
%TO.C,U17*%
X79840000Y-26565000D02*
X79840000Y-26840000D01*
X79840000Y-36485000D02*
X79840000Y-36210000D01*
X82150000Y-26565000D02*
X79840000Y-26565000D01*
X84460000Y-36485000D02*
X84460000Y-36210000D01*
X82150000Y-36485000D02*
X84460000Y-36485000D01*
X82150000Y-36485000D02*
X79840000Y-36485000D01*
X82150000Y-26565000D02*
X84460000Y-26565000D01*
X84460000Y-26565000D02*
X84460000Y-26840000D01*
X79840000Y-26840000D02*
X78550000Y-26840000D01*
%TO.C,C27*%
X93064580Y-89854800D02*
X92783420Y-89854800D01*
X93064580Y-90874800D02*
X92783420Y-90874800D01*
%TO.C,T9*%
X86016400Y-56735200D02*
G75*
G03*
X86016400Y-56735200I-700000J0D01*
G01*
%TO.C,J2*%
X90900000Y-57650000D02*
G75*
G03*
X90900000Y-57650000I-700000J0D01*
G01*
%TO.C,R11*%
X120388458Y-131722700D02*
X119913942Y-131722700D01*
X120388458Y-132767700D02*
X119913942Y-132767700D01*
%TO.C,R19*%
X92880000Y-30351359D02*
X92880000Y-30658641D01*
X92120000Y-30351359D02*
X92120000Y-30658641D01*
%TO.C,C29*%
X72738748Y-88585000D02*
X73261252Y-88585000D01*
X72738748Y-87115000D02*
X73261252Y-87115000D01*
%TO.C,T3*%
X69500000Y-117275000D02*
G75*
G03*
X69500000Y-117275000I-700000J0D01*
G01*
%TO.C,J13*%
X78875000Y-103624000D02*
X78875000Y-105402000D01*
X75321000Y-115244500D02*
X72675000Y-115244500D01*
X72675000Y-103624000D02*
X78875000Y-103624000D01*
X65097500Y-115244500D02*
X64589500Y-115244500D01*
X78875000Y-111498000D02*
X78875000Y-112450500D01*
X78877000Y-107053000D02*
X78875000Y-109847000D01*
X79321500Y-115244500D02*
X78051500Y-115244500D01*
X64589500Y-103630000D02*
X65097500Y-103630000D01*
X79321500Y-112450500D02*
X79321500Y-115244500D01*
X68336000Y-103624000D02*
X70431500Y-103624000D01*
X70431500Y-115244500D02*
X68336000Y-115244500D01*
X79321500Y-112450500D02*
X78877000Y-112450500D01*
X64589500Y-103630000D02*
X64589500Y-115244500D01*
%TO.C,U2*%
X110313604Y-112393503D02*
X109606497Y-111686396D01*
X112293503Y-110413604D02*
X111374264Y-109494365D01*
%TO.C,C31*%
X105665773Y-103862978D02*
X105466962Y-104061789D01*
X106387022Y-104584227D02*
X106188211Y-104783038D01*
%TO.C,U3*%
X92575000Y-110940000D02*
X91175000Y-110940000D01*
X91175000Y-113260000D02*
X93075000Y-113260000D01*
%TO.C,C3*%
X98440000Y-121490580D02*
X98440000Y-121209420D01*
X99460000Y-121490580D02*
X99460000Y-121209420D01*
%TO.C,C8*%
X99815580Y-127160000D02*
X99534420Y-127160000D01*
X99815580Y-126140000D02*
X99534420Y-126140000D01*
%TO.C,R10*%
X103337742Y-110622500D02*
X103812258Y-110622500D01*
X103337742Y-109577500D02*
X103812258Y-109577500D01*
%TO.C,R30*%
X77112742Y-75327500D02*
X77587258Y-75327500D01*
X77112742Y-76372500D02*
X77587258Y-76372500D01*
%TO.C,R29*%
X77112742Y-74872500D02*
X77587258Y-74872500D01*
X77112742Y-73827500D02*
X77587258Y-73827500D01*
%TO.C,J6*%
X97300000Y-57650000D02*
G75*
G03*
X97300000Y-57650000I-700000J0D01*
G01*
%TO.C,C14*%
X106160000Y-116038748D02*
X106160000Y-117461252D01*
X104340000Y-116038748D02*
X104340000Y-117461252D01*
%TO.C,C26*%
X80959420Y-109560000D02*
X81240580Y-109560000D01*
X80959420Y-108540000D02*
X81240580Y-108540000D01*
%TO.C,R25*%
X115835238Y-105546311D02*
X115499705Y-105210778D01*
X115096311Y-106285238D02*
X114760778Y-105949705D01*
D14*
%TO.C,D9*%
X90010000Y-31005000D02*
G75*
G03*
X90010000Y-31005000I-50000J0D01*
G01*
D13*
%TO.C,R1*%
X91362742Y-73072500D02*
X91837258Y-73072500D01*
X91362742Y-72027500D02*
X91837258Y-72027500D01*
%TO.C,R18*%
X93153641Y-31385000D02*
X92846359Y-31385000D01*
X93153641Y-30625000D02*
X92846359Y-30625000D01*
%TO.C,R32*%
X113712742Y-62222500D02*
X114187258Y-62222500D01*
X113712742Y-61177500D02*
X114187258Y-61177500D01*
%TO.C,D2*%
X68900000Y-132710000D02*
X70542500Y-132710000D01*
X70542500Y-130790000D02*
X68900000Y-130790000D01*
X68900000Y-130790000D02*
X68900000Y-132710000D01*
%TO.C,C34*%
X74190000Y-67609420D02*
X74190000Y-67890580D01*
X75210000Y-67609420D02*
X75210000Y-67890580D01*
%TO.C,J7*%
X98900000Y-56650000D02*
G75*
G03*
X98900000Y-56650000I-700000J0D01*
G01*
%TO.C,R9*%
X94962742Y-110622500D02*
X95437258Y-110622500D01*
X94962742Y-109577500D02*
X95437258Y-109577500D01*
%TO.C,D3*%
X92900000Y-130790000D02*
X92900000Y-132710000D01*
X92900000Y-132710000D02*
X94542500Y-132710000D01*
X94542500Y-130790000D02*
X92900000Y-130790000D01*
%TO.C,R33*%
X86377500Y-30837258D02*
X86377500Y-30362742D01*
X87422500Y-30837258D02*
X87422500Y-30362742D01*
%TO.C,J3*%
X92500000Y-56650000D02*
G75*
G03*
X92500000Y-56650000I-700000J0D01*
G01*
%TO.C,C44*%
X92711252Y-121160000D02*
X91288748Y-121160000D01*
X92711252Y-119340000D02*
X91288748Y-119340000D01*
%TO.C,U1*%
X76840000Y-120550000D02*
X76840000Y-121950000D01*
X79160000Y-121950000D02*
X79160000Y-120050000D01*
%TO.C,L2*%
X98356000Y-119744000D02*
X98356000Y-114156000D01*
X103944000Y-114156000D02*
X103944000Y-119744000D01*
%TO.C,U4*%
X99575000Y-113285000D02*
X101475000Y-113285000D01*
X100975000Y-110965000D02*
X99575000Y-110965000D01*
%TO.C,FB2*%
X95610000Y-123661252D02*
X95610000Y-123138748D01*
X93390000Y-123661252D02*
X93390000Y-123138748D01*
%TO.C,T11*%
X111365600Y-44289200D02*
G75*
G03*
X111365600Y-44289200I-700000J0D01*
G01*
%TO.C,C37*%
X108910000Y-56459420D02*
X108910000Y-56740580D01*
X107890000Y-56459420D02*
X107890000Y-56740580D01*
%TO.C,C1*%
X97115000Y-110709420D02*
X97115000Y-110990580D01*
X98135000Y-110709420D02*
X98135000Y-110990580D01*
%TO.C,C24*%
X81038748Y-113685000D02*
X81561252Y-113685000D01*
X81038748Y-112215000D02*
X81561252Y-112215000D01*
%TO.C,U16*%
X114400000Y-53000000D02*
X115400000Y-53000000D01*
X114400000Y-55800000D02*
X115700000Y-55800000D01*
%TO.C,R6*%
X43087258Y-77822500D02*
X42612742Y-77822500D01*
X43087258Y-76777500D02*
X42612742Y-76777500D01*
%TO.C,R3*%
X46427500Y-76637258D02*
X46427500Y-76162742D01*
X47472500Y-76637258D02*
X47472500Y-76162742D01*
%TO.C,R9*%
X43087258Y-78377500D02*
X42612742Y-78377500D01*
X43087258Y-79422500D02*
X42612742Y-79422500D01*
%TO.C,LED3*%
X40999956Y-73200000D02*
X45450000Y-73200000D01*
X41000000Y-74000000D02*
X41000000Y-73200000D01*
X41550000Y-76200000D02*
X45450000Y-76200000D01*
%TO.C,J1*%
X57560000Y-93940000D02*
X57560000Y-93460000D01*
X57560000Y-95940000D02*
X57560000Y-95460000D01*
X53440000Y-89940000D02*
X53440000Y-89640000D01*
X57560000Y-97760000D02*
X57560000Y-97460000D01*
X57560000Y-89940000D02*
X57560000Y-89640000D01*
X53440000Y-97460000D02*
X51060000Y-97460000D01*
X53440000Y-97760000D02*
X53440000Y-97460000D01*
X57560000Y-91940000D02*
X57560000Y-91460000D01*
X53440000Y-93940000D02*
X53440000Y-93460000D01*
X57560000Y-97760000D02*
X53440000Y-97760000D01*
X57560000Y-89640000D02*
X53440000Y-89640000D01*
X53440000Y-95940000D02*
X53440000Y-95460000D01*
X53440000Y-91940000D02*
X53440000Y-91460000D01*
%TO.C,R1*%
X46527500Y-92537258D02*
X46527500Y-92062742D01*
X47572500Y-92537258D02*
X47572500Y-92062742D01*
%TO.C,LED2*%
X40999956Y-81200000D02*
X45450000Y-81200000D01*
X41550000Y-84200000D02*
X45450000Y-84200000D01*
X41000000Y-82000000D02*
X41000000Y-81200000D01*
%TO.C,R5*%
X43087258Y-84677500D02*
X42612742Y-84677500D01*
X43087258Y-85722500D02*
X42612742Y-85722500D01*
%TO.C,R2*%
X46327500Y-84537258D02*
X46327500Y-84062742D01*
X47372500Y-84537258D02*
X47372500Y-84062742D01*
%TO.C,LED1*%
X41000000Y-90000000D02*
X41000000Y-89200000D01*
X41550000Y-92200000D02*
X45450000Y-92200000D01*
X40999956Y-89200000D02*
X45450000Y-89200000D01*
%TO.C,R8*%
X43087258Y-86177500D02*
X42612742Y-86177500D01*
X43087258Y-87222500D02*
X42612742Y-87222500D01*
%TO.C,R4*%
X48472500Y-89487258D02*
X48472500Y-89012742D01*
X47427500Y-89487258D02*
X47427500Y-89012742D01*
%TO.C,R7*%
X43087258Y-88772500D02*
X42612742Y-88772500D01*
X43087258Y-87727500D02*
X42612742Y-87727500D01*
%TO.C,J2*%
X62000000Y-99050000D02*
X60260000Y-99050000D01*
X56200000Y-110860000D02*
X56200000Y-112350000D01*
X56200000Y-100540000D02*
X56200000Y-99050000D01*
X56200000Y-110860000D02*
X55000000Y-110860000D01*
X60260000Y-112350000D02*
X62000000Y-112350000D01*
X56200000Y-99050000D02*
X57540000Y-99050000D01*
X56200000Y-112350000D02*
X57540000Y-112350000D01*
X62000000Y-112350000D02*
X62000000Y-99050000D01*
%TO.C,C3*%
X61507836Y-61460000D02*
X61292164Y-61460000D01*
X61507836Y-60740000D02*
X61292164Y-60740000D01*
%TO.C,C9*%
X58732836Y-65760000D02*
X58517164Y-65760000D01*
X58732836Y-65040000D02*
X58517164Y-65040000D01*
%TO.C,TP1*%
X52014623Y-64960284D02*
G75*
G03*
X52014623Y-64960284I-700000J0D01*
G01*
%TO.C,C4*%
X61000580Y-62950000D02*
X60719420Y-62950000D01*
X61000580Y-63970000D02*
X60719420Y-63970000D01*
%TO.C,C11*%
X54007836Y-65710000D02*
X53792164Y-65710000D01*
X54007836Y-64990000D02*
X53792164Y-64990000D01*
%TO.C,TP3*%
X52050000Y-56075000D02*
G75*
G03*
X52050000Y-56075000I-700000J0D01*
G01*
%TO.C,C10*%
X54090580Y-67210000D02*
X53809420Y-67210000D01*
X54090580Y-66190000D02*
X53809420Y-66190000D01*
%TO.C,C12*%
X52059420Y-60258745D02*
X52340580Y-60258745D01*
X52059420Y-61278745D02*
X52340580Y-61278745D01*
%TO.C,C7*%
X61492836Y-64700000D02*
X61277164Y-64700000D01*
X61492836Y-65420000D02*
X61277164Y-65420000D01*
%TO.C,R2*%
X55553641Y-49320000D02*
X55246359Y-49320000D01*
X55553641Y-50080000D02*
X55246359Y-50080000D01*
%TO.C,J1*%
X49860000Y-58240000D02*
X49560000Y-58240000D01*
X48040000Y-58240000D02*
X47560000Y-58240000D01*
X44040000Y-58240000D02*
X43560000Y-58240000D01*
X41740000Y-58240000D02*
X41740000Y-62360000D01*
X48040000Y-62360000D02*
X47560000Y-62360000D01*
X42040000Y-58240000D02*
X41740000Y-58240000D01*
X49560000Y-56985000D02*
X49560000Y-58240000D01*
X49860000Y-58240000D02*
X49860000Y-62360000D01*
X44040000Y-62360000D02*
X43560000Y-62360000D01*
X46040000Y-62360000D02*
X45560000Y-62360000D01*
X46040000Y-58240000D02*
X45560000Y-58240000D01*
X49860000Y-62360000D02*
X49560000Y-62360000D01*
X42040000Y-62360000D02*
X41740000Y-62360000D01*
%TO.C,R1*%
X55553641Y-47330000D02*
X55246359Y-47330000D01*
X55553641Y-46570000D02*
X55246359Y-46570000D01*
%TO.C,U1*%
X54740000Y-59790000D02*
X54290000Y-59790000D01*
X54740000Y-64010000D02*
X54290000Y-64010000D01*
X58060000Y-64010000D02*
X58510000Y-64010000D01*
X54290000Y-64010000D02*
X54290000Y-63560000D01*
X58510000Y-59790000D02*
X58510000Y-60240000D01*
X58060000Y-59790000D02*
X58510000Y-59790000D01*
X54290000Y-59790000D02*
X54290000Y-60240000D01*
%TO.C,C6*%
X61492836Y-65640000D02*
X61277164Y-65640000D01*
X61492836Y-66360000D02*
X61277164Y-66360000D01*
%TO.C,C2*%
X61507836Y-59640000D02*
X61292164Y-59640000D01*
X61507836Y-60360000D02*
X61292164Y-60360000D01*
%TO.C,MIC1*%
X60430000Y-47360000D02*
X60430000Y-46860000D01*
X57210000Y-49740000D02*
X56710000Y-49740000D01*
X60430000Y-49740000D02*
X59930000Y-49740000D01*
X56710000Y-49740000D02*
X56710000Y-49240000D01*
X56710000Y-47360000D02*
X56710000Y-46860000D01*
X57210000Y-46860000D02*
X56710000Y-46860000D01*
X60430000Y-49740000D02*
X60430000Y-49240000D01*
%TO.C,R3*%
X52437258Y-58677500D02*
X51962742Y-58677500D01*
X52437258Y-59722500D02*
X51962742Y-59722500D01*
%TO.C,TP2*%
X54075000Y-56050000D02*
G75*
G03*
X54075000Y-56050000I-700000J0D01*
G01*
%TO.C,C8*%
X59065580Y-66090000D02*
X58784420Y-66090000D01*
X59065580Y-67110000D02*
X58784420Y-67110000D01*
%TO.C,C5*%
X61507836Y-61865000D02*
X61292164Y-61865000D01*
X61507836Y-62585000D02*
X61292164Y-62585000D01*
%TO.C,C1*%
X61040000Y-48407836D02*
X61040000Y-48192164D01*
X61760000Y-48407836D02*
X61760000Y-48192164D01*
%TD*%
M02*
