M48
; DRILL file {KiCad 5.99.0-1.20210329git38c849b.fc33} date Thu Apr  1 23:55:01 2021
; FORMAT={-:-/ absolute / metric / decimal}
; #@! TF.CreationDate,2021-04-01T23:55:01+01:00
; #@! TF.GenerationSoftware,Kicad,Pcbnew,5.99.0-1.20210329git38c849b.fc33
; #@! TF.FileFunction,Plated,1,4,PTH
FMAT,2
METRIC
; #@! TA.AperFunction,ViaDrill
T1C0.200
; #@! TA.AperFunction,ComponentDrill,Plated,PTH
T2C0.200
; #@! TA.AperFunction,ViaDrill
T3C0.300
; #@! TA.AperFunction,ViaDrill
T4C0.400
; #@! TA.AperFunction,ViaDrill
T5C0.500
; #@! TA.AperFunction,ComponentDrill,Plated,PTH
T6C0.500
; #@! TA.AperFunction,ComponentDrill,Plated,PTH
T7C0.550
%
G90
G05
T1
X69.822Y-116.019
X70.788Y-116.019
X73.836Y-116.07
X78.0Y-119.3
X78.4Y-82.775
X80.375Y-84.025
X81.825Y-84.85
X84.65Y-82.05
X84.7Y-97.9
X86.028Y-97.223
X86.028Y-97.883
X86.078Y-96.562
X88.25Y-42.05
X88.7Y-44.0
X88.7Y-44.95
X90.0Y-55.85
X90.55Y-56.3
X90.803Y-53.484
X91.95Y-53.5
X93.05Y-56.2
X93.19Y-53.484
X93.75Y-56.45
X94.1Y-55.75
X94.2Y-36.0
X94.362Y-53.5
X94.4Y-52.439
X95.0Y-36.6
X97.4Y-36.4
X97.65Y-52.15
X98.0Y-55.5
X98.009Y-53.45
X98.7Y-52.05
X99.25Y-53.5
X99.45Y-86.65
X99.45Y-87.35
X99.5Y-89.1
X99.8Y-82.5
X99.8Y-83.2
X99.8Y-84.0
X99.8Y-84.7
X99.8Y-85.45
X99.863Y-55.785
X100.4Y-56.45
X101.4Y-55.5
X117.15Y-42.05
T2
X55.325Y-60.825
X55.325Y-61.9
X55.325Y-62.975
X56.4Y-60.825
X56.4Y-61.9
X56.4Y-62.975
X57.475Y-60.825
X57.475Y-61.9
X57.475Y-62.975
T3
X42.5Y-60.05
X43.1Y-60.05
X43.55Y-91.45
X43.6Y-74.1
X43.6Y-81.85
X43.6Y-89.9
X43.8Y-60.5
X44.642Y-60.542
X45.1Y-86.7
X45.15Y-85.45
X45.6Y-60.5
X46.8Y-88.4
X46.8Y-90.1
X48.15Y-85.1
X48.4Y-91.4
X48.625Y-93.726
X49.95Y-62.25
X50.126Y-59.756
X52.15Y-59.95
X52.517Y-64.833
X53.4Y-61.95
X53.45Y-108.4
X53.65Y-57.35
X53.7Y-58.3
X53.8Y-107.6
X53.85Y-110.25
X54.1Y-106.25
X54.25Y-59.75
X54.35Y-47.7
X54.35Y-48.8
X54.85Y-45.95
X54.9Y-50.8
X55.375Y-65.275
X56.0Y-65.85
X56.547Y-66.434
X57.136Y-66.975
X58.0Y-106.95
X58.125Y-105.75
X58.45Y-64.35
X58.925Y-104.75
X59.8Y-61.25
X59.9Y-96.7
X60.15Y-58.65
X60.15Y-65.05
X61.8Y-66.85
X61.85Y-59.25
X61.9Y-45.25
X62.15Y-64.3
X66.0Y-46.125
X66.0Y-52.3
X66.0Y-59.85
X66.0Y-62.85
X66.0Y-66.05
X66.0Y-69.25
X68.0Y-72.45
X68.0Y-75.45
X68.1Y-131.9
X68.15Y-128.85
X68.349Y-105.91
X68.349Y-108.45
X68.349Y-110.99
X68.806Y-87.164
X69.314Y-87.164
X70.4Y-38.05
X70.6Y-86.65
X71.55Y-105.91
X72.15Y-90.9
X72.2Y-92.0
X72.3Y-97.5
X72.32Y-94.22
X72.35Y-96.45
X72.35Y-98.6
X73.05Y-87.0
X73.6Y-75.85
X74.3Y-69.65
X74.4Y-36.65
X74.6Y-128.25
X75.079Y-87.414
X75.15Y-69.65
X75.4Y-118.65
X75.65Y-90.1
X75.875Y-87.804
X75.95Y-123.45
X76.274Y-116.171
X76.375Y-83.025
X76.4Y-88.5
X76.475Y-121.775
X76.63Y-107.891
X76.8Y-34.25
X76.875Y-87.25
X77.0Y-40.75
X77.05Y-79.95
X77.075Y-78.175
X77.15Y-115.8
X77.2Y-116.95
X77.5Y-41.4
X77.65Y-46.15
X78.15Y-41.95
X78.4Y-26.25
X78.4Y-90.15
X78.55Y-92.25
X78.75Y-42.5
X78.8Y-78.3
X78.8Y-79.825
X79.05Y-90.125
X79.119Y-93.667
X79.35Y-44.35
X79.35Y-45.15
X79.4Y-43.05
X79.4Y-109.05
X79.425Y-82.8
X79.436Y-83.705
X79.474Y-104.589
X79.474Y-105.351
X79.474Y-106.164
X79.474Y-106.926
X79.6Y-49.05
X79.6Y-84.475
X79.627Y-93.667
X79.75Y-47.05
X79.75Y-47.85
X79.9Y-53.23
X79.9Y-55.05
X79.9Y-57.45
X79.9Y-60.15
X79.9Y-62.55
X79.95Y-87.25
X80.05Y-43.6
X80.175Y-65.15
X80.175Y-79.85
X80.25Y-77.2
X80.25Y-78.05
X80.275Y-131.75
X80.3Y-75.05
X80.55Y-83.25
X80.55Y-121.95
X80.55Y-122.55
X80.6Y-84.875
X80.753Y-117.036
X80.753Y-118.002
X80.753Y-119.068
X80.753Y-120.186
X80.95Y-44.95
X81.1Y-92.25
X81.15Y-121.95
X81.15Y-122.55
X81.185Y-47.475
X81.4Y-111.6
X81.5Y-36.85
X81.6Y-30.2
X81.6Y-31.1
X81.6Y-32.0
X81.6Y-32.85
X81.6Y-33.7
X81.6Y-34.6
X81.6Y-35.65
X81.65Y-37.65
X81.65Y-82.6
X81.8Y-91.45
X81.85Y-85.575
X81.85Y-107.8
X81.875Y-87.225
X81.9Y-86.4
X81.96Y-90.64
X82.05Y-111.6
X82.075Y-104.4
X82.1Y-88.43
X82.275Y-83.85
X82.353Y-107.171
X82.429Y-117.036
X82.45Y-81.7
X82.525Y-29.0
X82.55Y-94.3
X82.6Y-25.85
X82.65Y-105.65
X82.726Y-86.929
X82.75Y-78.05
X82.8Y-27.975
X82.89Y-88.43
X82.9Y-50.25
X82.9Y-83.425
X83.044Y-85.212
X83.1Y-78.95
X83.1Y-80.15
X83.1Y-81.35
X83.125Y-90.568
X83.3Y-65.15
X83.4Y-68.05
X83.4Y-70.1
X83.4Y-72.65
X83.4Y-74.95
X83.4Y-77.35
X83.445Y-117.036
X83.55Y-50.9
X83.65Y-56.1
X83.65Y-57.243
X83.691Y-53.535
X83.691Y-54.348
X83.725Y-27.3
X83.75Y-52.3
X83.85Y-104.75
X83.975Y-129.15
X84.1Y-44.55
X84.1Y-45.25
X84.1Y-45.95
X84.41Y-117.036
X84.5Y-99.1
X84.575Y-86.6
X84.6Y-92.9
X84.65Y-91.55
X84.7Y-84.95
X84.7Y-96.35
X84.75Y-83.35
X84.75Y-84.1
X84.75Y-105.8
X84.85Y-85.75
X84.9Y-38.75
X85.0Y-87.825
X85.3Y-88.5
X85.426Y-117.036
X85.45Y-68.05
X85.45Y-70.1
X85.55Y-82.5
X86.0Y-99.85
X86.043Y-98.61
X86.05Y-91.2
X86.096Y-89.854
X86.1Y-81.95
X86.1Y-84.95
X86.1Y-87.2
X86.15Y-55.5
X86.25Y-125.35
X86.25Y-125.85
X86.4Y-25.85
X86.55Y-33.4
X86.55Y-117.036
X86.65Y-122.425
X86.65Y-122.95
X86.65Y-123.475
X86.8Y-99.775
X86.8Y-125.35
X86.8Y-125.85
X87.15Y-126.5
X87.15Y-127.0
X87.225Y-128.175
X87.3Y-33.4
X87.4Y-68.05
X87.4Y-70.1
X87.6Y-78.95
X87.6Y-80.15
X87.6Y-81.35
X87.6Y-98.15
X87.602Y-93.35
X87.611Y-117.036
X87.65Y-126.5
X87.65Y-127.0
X87.713Y-88.913
X87.8Y-92.1
X87.806Y-88.079
X87.875Y-83.0
X87.9Y-91.0
X87.9Y-95.35
X87.9Y-96.55
X87.951Y-87.369
X88.05Y-30.45
X88.175Y-85.5
X88.35Y-46.05
X88.35Y-46.6
X88.35Y-47.15
X88.35Y-47.7
X88.4Y-49.5
X88.4Y-50.55
X88.517Y-51.604
X88.517Y-52.671
X88.55Y-37.6
X88.575Y-87.775
X88.627Y-117.036
X88.725Y-96.95
X88.8Y-91.6
X88.85Y-36.65
X88.9Y-85.475
X88.9Y-88.95
X89.0Y-83.6
X89.1Y-90.7
X89.125Y-92.725
X89.175Y-87.3
X89.2Y-53.25
X89.35Y-84.8
X89.425Y-103.123
X89.694Y-117.036
X89.8Y-25.95
X89.8Y-27.25
X89.8Y-28.7
X89.8Y-29.85
X89.8Y-31.0
X89.8Y-31.95
X89.8Y-32.9
X89.8Y-80.45
X89.8Y-84.125
X89.89Y-86.1
X89.9Y-36.65
X90.024Y-88.02
X90.05Y-121.95
X90.05Y-122.55
X90.1Y-89.3
X90.447Y-71.416
X90.6Y-41.5
X90.6Y-95.65
X90.65Y-121.95
X90.65Y-122.55
X90.7Y-90.95
X90.71Y-117.036
X90.9Y-89.75
X91.006Y-70.756
X91.025Y-101.523
X91.235Y-90.492
X91.25Y-29.55
X91.4Y-35.55
X91.5Y-94.85
X91.575Y-78.325
X91.65Y-119.961
X91.65Y-120.52
X91.8Y-36.6
X92.268Y-118.284
X92.268Y-118.843
X92.268Y-119.402
X92.268Y-119.961
X92.268Y-120.52
X92.35Y-43.0
X92.35Y-44.45
X92.35Y-45.95
X92.35Y-47.4
X92.55Y-114.65
X92.581Y-63.45
X92.581Y-71.019
X92.6Y-99.95
X92.8Y-93.55
X92.8Y-124.1
X93.081Y-128.495
X93.55Y-35.55
X93.698Y-63.2
X93.698Y-65.65
X93.698Y-68.65
X93.698Y-71.95
X93.698Y-75.35
X93.698Y-78.0
X93.698Y-81.15
X93.698Y-84.05
X93.698Y-86.7
X93.724Y-91.406
X93.75Y-99.85
X93.8Y-29.5
X93.8Y-31.95
X93.8Y-32.9
X93.8Y-33.6
X93.8Y-92.35
X93.825Y-98.7
X93.945Y-117.036
X93.945Y-118.002
X94.125Y-61.775
X94.15Y-41.5
X94.15Y-45.95
X94.15Y-47.4
X94.2Y-44.45
X94.7Y-114.55
X94.7Y-115.25
X94.859Y-129.968
X94.95Y-117.036
X94.95Y-118.002
X95.05Y-25.9
X95.05Y-27.15
X95.05Y-28.55
X95.05Y-30.85
X95.3Y-114.55
X95.3Y-115.25
X95.85Y-130.475
X95.95Y-40.0
X96.0Y-41.5
X96.0Y-43.0
X96.225Y-106.775
X96.35Y-25.9
X96.35Y-27.15
X96.35Y-28.55
X96.35Y-30.15
X96.725Y-110.85
X96.825Y-109.1
X96.85Y-95.65
X96.859Y-101.575
X97.01Y-124.136
X97.01Y-124.736
X97.029Y-117.036
X97.275Y-105.9
X97.61Y-124.136
X97.61Y-124.736
X97.704Y-129.968
X97.8Y-40.0
X97.8Y-41.5
X97.85Y-43.0
X97.85Y-47.35
X97.85Y-48.85
X97.85Y-61.55
X97.85Y-63.2
X97.85Y-65.65
X97.85Y-68.65
X97.85Y-71.95
X97.85Y-75.35
X97.85Y-78.0
X97.95Y-125.85
X97.95Y-126.35
X97.95Y-126.85
X97.95Y-127.35
X98.0Y-92.3
X98.025Y-102.375
X98.35Y-90.625
X98.45Y-109.55
X98.45Y-110.15
X98.45Y-117.036
X98.475Y-110.9
X99.5Y-88.05
X99.6Y-40.0
X99.6Y-48.85
X99.6Y-52.1
X99.65Y-41.5
X99.65Y-42.95
X99.65Y-45.95
X99.65Y-47.4
X100.026Y-117.036
X100.3Y-129.973
X100.325Y-112.625
X100.6Y-36.45
X100.65Y-80.75
X100.7Y-52.1
X100.7Y-125.95
X100.709Y-125.4
X101.05Y-34.5
X101.15Y-117.036
X101.25Y-122.425
X101.25Y-122.95
X101.25Y-123.475
X101.25Y-125.375
X101.25Y-125.95
X101.45Y-40.0
X101.45Y-41.5
X101.45Y-42.95
X101.45Y-45.9
X101.45Y-47.4
X101.45Y-48.85
X101.5Y-126.625
X101.5Y-127.125
X101.55Y-52.2
X101.65Y-90.925
X101.8Y-34.5
X102.025Y-126.6
X102.05Y-127.125
X102.15Y-104.9
X102.211Y-117.036
X102.3Y-52.155
X103.0Y-53.05
X103.0Y-60.55
X103.0Y-112.65
X103.0Y-113.35
X103.2Y-90.775
X103.227Y-117.036
X103.25Y-39.95
X103.25Y-41.5
X103.25Y-42.95
X103.3Y-45.9
X103.3Y-47.35
X103.3Y-48.85
X103.775Y-129.725
X104.054Y-123.263
X104.3Y-109.2
X104.45Y-25.9
X104.45Y-27.05
X104.45Y-28.35
X104.45Y-29.65
X104.45Y-31.1
X104.45Y-32.65
X104.65Y-121.95
X104.65Y-122.55
X104.95Y-45.85
X104.95Y-47.35
X105.0Y-39.95
X105.025Y-117.025
X105.05Y-41.5
X105.05Y-43.0
X105.25Y-110.25
X105.25Y-110.9
X105.25Y-121.95
X105.25Y-122.55
X105.6Y-36.5
X105.6Y-111.55
X105.75Y-124.8
X105.75Y-130.475
X106.086Y-119.808
X106.086Y-120.367
X106.125Y-117.025
X106.25Y-36.5
X106.45Y-104.9
X106.594Y-118.132
X106.594Y-118.691
X106.594Y-119.25
X106.594Y-119.808
X106.594Y-120.367
X106.696Y-129.968
X106.8Y-25.85
X107.0Y-42.05
X107.0Y-43.65
X107.007Y-44.457
X107.025Y-42.838
X107.16Y-48.048
X107.2Y-52.35
X107.2Y-53.0
X107.25Y-39.65
X107.25Y-41.1
X107.262Y-46.169
X107.35Y-55.5
X107.35Y-56.15
X107.75Y-128.2
X108.4Y-128.2
X108.45Y-40.4
X108.55Y-101.05
X109.0Y-128.2
X109.37Y-106.75
X109.4Y-28.05
X109.4Y-53.9
X109.45Y-100.2
X109.45Y-109.8
X109.497Y-45.102
X109.6Y-32.45
X109.6Y-34.15
X109.6Y-34.9
X109.6Y-48.75
X109.65Y-50.75
X109.7Y-52.25
X109.7Y-52.95
X109.7Y-128.2
X109.8Y-47.55
X109.9Y-114.85
X109.9Y-115.6
X110.11Y-106.21
X110.65Y-75.8
X110.7Y-60.7
X110.7Y-61.9
X110.7Y-63.55
X110.7Y-65.25
X110.7Y-67.15
X110.7Y-69.1
X110.7Y-71.1
X110.7Y-72.7
X110.75Y-48.85
X110.8Y-50.75
X111.15Y-58.75
X111.25Y-130.75
X111.428Y-125.823
X111.56Y-106.73
X111.8Y-51.2
X111.885Y-124.452
X111.9Y-77.1
X112.1Y-48.85
X112.15Y-112.57
X112.2Y-36.05
X112.25Y-58.75
X112.6Y-51.2
X112.7Y-63.55
X112.7Y-65.2
X112.7Y-67.1
X112.7Y-69.05
X112.7Y-71.05
X112.7Y-72.65
X112.7Y-74.5
X112.9Y-130.95
X112.975Y-49.525
X113.15Y-62.8
X113.2Y-78.5
X113.25Y-75.45
X113.5Y-110.275
X113.55Y-55.6
X113.725Y-54.3
X113.798Y-107.348
X113.8Y-50.4
X114.3Y-79.6
X114.481Y-63.318
X114.6Y-76.8
X115.4Y-100.3
X115.6Y-77.8
X115.8Y-100.75
X115.95Y-130.95
X116.4Y-133.45
X116.548Y-79.178
X116.548Y-79.978
X116.55Y-78.1
X116.925Y-80.625
X116.925Y-81.725
X117.0Y-82.55
X117.0Y-83.75
X117.0Y-84.95
X117.0Y-86.15
X117.0Y-89.75
X117.0Y-90.95
X117.0Y-92.15
X117.0Y-93.35
X117.0Y-94.55
X117.0Y-95.75
X117.0Y-96.95
X117.0Y-98.15
X119.15Y-54.8
X119.2Y-38.45
X120.2Y-133.45
X121.4Y-41.25
X121.4Y-45.25
X121.4Y-49.05
X121.4Y-65.45
X121.4Y-70.25
X121.4Y-75.25
X121.4Y-102.65
X121.4Y-107.05
X121.4Y-120.65
X121.55Y-80.15
X121.55Y-81.35
X121.55Y-82.55
X121.55Y-83.75
X121.55Y-84.95
X121.55Y-86.15
X121.55Y-87.35
X121.55Y-88.55
X121.55Y-89.75
X121.55Y-90.95
X121.55Y-92.15
X121.55Y-93.35
X121.55Y-94.55
X121.55Y-95.75
X121.55Y-96.95
X121.55Y-98.15
T4
X52.425Y-89.525
X52.45Y-63.9
X53.025Y-109.475
X54.0Y-64.15
X55.7Y-99.3
X57.4Y-109.225
X60.9Y-51.25
T5
X71.25Y-95.35
X71.9Y-133.05
X72.15Y-95.35
X76.125Y-50.05
X76.2Y-69.65
X83.9Y-133.35
X107.0Y-114.5
X107.4Y-108.65
X107.9Y-133.05
X117.598Y-105.948
T6
G00X120.375Y-50.55
M15
G01X121.025Y-50.55
M16
G05
G00X120.375Y-57.55
M15
G01X121.025Y-57.55
M16
G05
T7
G00X118.0Y-51.7
M15
G01X118.0Y-51.4
M16
G05
G00X118.0Y-56.7
M15
G01X118.0Y-56.4
M16
G05
T0
M30
