%TF.GenerationSoftware,KiCad,Pcbnew,5.99.0-1.20210329git38c849b.fc33*%
%TF.CreationDate,2021-04-01T23:54:57+01:00*%
%TF.ProjectId,safeproject-panel-r2,73616665-7072-46f6-9a65-63742d70616e,rev?*%
%TF.SameCoordinates,Original*%
%TF.FileFunction,Profile,NP*%
%FSLAX46Y46*%
G04 Gerber Fmt 4.6, Leading zero omitted, Abs format (unit mm)*
G04 Created by KiCad (PCBNEW 5.99.0-1.20210329git38c849b.fc33) date 2021-04-01 23:54:57*
%MOMM*%
%LPD*%
G01*
G04 APERTURE LIST*
%TA.AperFunction,Profile*%
%ADD10C,0.100000*%
%TD*%
G04 APERTURE END LIST*
D10*
X65000000Y-113875000D02*
X65000000Y-115500000D01*
X62500000Y-113875000D02*
X62500000Y-118200000D01*
X65000000Y-108475000D02*
X65000000Y-95450000D01*
X62500000Y-95450000D02*
X62500000Y-108475000D01*
X65000000Y-89000000D02*
X65000000Y-90050000D01*
X62500118Y-89640566D02*
X62500000Y-90050000D01*
X62800000Y-58400000D02*
X62800000Y-66800000D01*
X65300000Y-58400000D02*
X65300000Y-70250000D01*
X65300000Y-44375000D02*
X65300000Y-53000000D01*
X65300000Y-38750000D02*
X65300000Y-39000000D01*
X62800000Y-44400000D02*
X62800000Y-53025000D01*
X62799997Y-38299997D02*
X62800000Y-39000000D01*
X65800000Y-70250000D02*
G75*
G02*
X67300000Y-71750000I0J-1500000D01*
G01*
X74352000Y-76870000D02*
X67300000Y-76500000D01*
X67300000Y-118500000D02*
X67300000Y-116500000D01*
X67300000Y-132750000D02*
X67300000Y-128000000D01*
X65000000Y-89000000D02*
X66300000Y-89000000D01*
X120800000Y-37250000D02*
G75*
G02*
X122300000Y-38750000I0J-1500000D01*
G01*
X117800000Y-37250000D02*
G75*
G02*
X110300000Y-29750000I0J7500000D01*
G01*
X122300000Y-132750000D02*
G75*
G02*
X120800000Y-134250000I-1500000J0D01*
G01*
X77300000Y-26750000D02*
G75*
G02*
X78800000Y-25250000I1500000J0D01*
G01*
X108800000Y-25250000D02*
X78800000Y-25250000D01*
X122300000Y-38750000D02*
X122300000Y-132750000D01*
X77300000Y-29750000D02*
G75*
G02*
X69800000Y-37250000I-7500000J0D01*
G01*
X117800000Y-37250000D02*
X120800000Y-37250000D01*
X67300000Y-88000000D02*
G75*
G02*
X66300000Y-89000000I-1000000J0D01*
G01*
X75300000Y-84632000D02*
X75300000Y-77868000D01*
X75300000Y-126632000D02*
X75300000Y-119868000D01*
X120800000Y-134250000D02*
X68800000Y-134250000D01*
X67300000Y-88000000D02*
X67300000Y-86000000D01*
X67300000Y-86000000D02*
X74352000Y-85630000D01*
X74352336Y-76869370D02*
G75*
G02*
X75300000Y-77868000I-52336J-998630D01*
G01*
X67300000Y-76500000D02*
X67300000Y-71750000D01*
X75299354Y-126632303D02*
G75*
G02*
X74352000Y-127630000I-999354J303D01*
G01*
X66300000Y-115500000D02*
G75*
G02*
X67300000Y-116500000I0J-1000000D01*
G01*
X65300000Y-38750000D02*
G75*
G02*
X66800000Y-37250000I1500000J0D01*
G01*
X74352336Y-118869370D02*
G75*
G02*
X75300000Y-119868000I-52336J-998630D01*
G01*
X74352000Y-118870000D02*
X67300000Y-118500000D01*
X67300000Y-128000000D02*
X74352000Y-127630000D01*
X110300000Y-29750000D02*
X110300000Y-26750000D01*
X77300000Y-29750000D02*
X77300000Y-26750000D01*
X65800000Y-70250000D02*
X65300000Y-70250000D01*
X75299354Y-84632303D02*
G75*
G02*
X74352000Y-85630000I-999354J303D01*
G01*
X68800000Y-134250000D02*
G75*
G02*
X67300000Y-132750000I0J1500000D01*
G01*
X69800000Y-37250000D02*
X66800000Y-37250000D01*
X108800000Y-25250000D02*
G75*
G02*
X110300000Y-26750000I0J-1500000D01*
G01*
X66300000Y-115500000D02*
X65000000Y-115500000D01*
X62500118Y-89640566D02*
G75*
G03*
X62319000Y-89067000I-1000118J-434D01*
G01*
X47656152Y-68126424D02*
G75*
G03*
X46837000Y-67700000I-819152J-573576D01*
G01*
X39000000Y-68700000D02*
X39000000Y-99700000D01*
X61499315Y-119200000D02*
G75*
G03*
X62500000Y-118200000I1685J999000D01*
G01*
X38500000Y-119200000D02*
X61500000Y-119200000D01*
X33500062Y-112487861D02*
G75*
G03*
X33681000Y-113062000I1000938J-139D01*
G01*
X33681000Y-113062000D02*
X37680000Y-118773000D01*
X46837000Y-67700000D02*
X40000000Y-67700000D01*
X40000000Y-67700000D02*
G75*
G03*
X39000000Y-68700000I0J-1000000D01*
G01*
X38000000Y-100700000D02*
X34500000Y-100700000D01*
X34500253Y-100700000D02*
G75*
G03*
X33500000Y-101700000I747J-1001000D01*
G01*
X37680029Y-118773150D02*
G75*
G03*
X38500000Y-119200000I819971J574150D01*
G01*
X62319000Y-89067000D02*
X47656000Y-68126000D01*
X38000000Y-100700000D02*
G75*
G03*
X39000000Y-99700000I0J1000000D01*
G01*
X33500000Y-101700000D02*
X33500000Y-112488000D01*
X62799997Y-38299997D02*
G75*
G03*
X61800000Y-37300000I-999997J0D01*
G01*
X52800000Y-53800000D02*
X52800000Y-38300000D01*
X41799997Y-54800003D02*
G75*
G03*
X40800000Y-55800000I0J-999997D01*
G01*
X40800003Y-64300003D02*
G75*
G03*
X41800000Y-65300000I999997J0D01*
G01*
X52350000Y-67800000D02*
X49850000Y-65300000D01*
X49850000Y-65300000D02*
X41800000Y-65300000D01*
X51800003Y-54799997D02*
G75*
G03*
X52800000Y-53800000I0J999997D01*
G01*
X41800000Y-54800000D02*
X51800000Y-54800000D01*
X40800000Y-64300000D02*
X40800000Y-55800000D01*
X61800003Y-67799997D02*
G75*
G03*
X62800000Y-66800000I0J999997D01*
G01*
X53799997Y-37300003D02*
G75*
G03*
X52800000Y-38300000I0J-999997D01*
G01*
X61800000Y-67800000D02*
X52350000Y-67800000D01*
X53800000Y-37300000D02*
X61800000Y-37300000D01*
%TO.C,REF\u002A\u002A*%
X64000000Y-54200000D02*
X64100000Y-54200000D01*
X64100000Y-57200000D02*
X64000000Y-57200000D01*
X64100002Y-54199998D02*
G75*
G03*
X65300000Y-53000000I0J1199998D01*
G01*
X64100002Y-57199998D02*
G75*
G02*
X65300000Y-58400000I-2J-1200000D01*
G01*
X63999998Y-57200002D02*
G75*
G03*
X62800000Y-58400000I0J-1199998D01*
G01*
X63999998Y-54200002D02*
G75*
G02*
X62800000Y-53000000I2J1200000D01*
G01*
X63800000Y-112675000D02*
X63700000Y-112675000D01*
X63700000Y-109675000D02*
X63800000Y-109675000D01*
X63800002Y-112674998D02*
G75*
G02*
X65000000Y-113875000I-2J-1200000D01*
G01*
X63800002Y-109674998D02*
G75*
G03*
X65000000Y-108475000I0J1199998D01*
G01*
X63699998Y-112675002D02*
G75*
G03*
X62500000Y-113875000I0J-1199998D01*
G01*
X63699998Y-109675002D02*
G75*
G02*
X62500000Y-108475000I2J1200000D01*
G01*
X64000000Y-40200000D02*
X64100000Y-40200000D01*
X64100000Y-43200000D02*
X64000000Y-43200000D01*
X63999998Y-40200002D02*
G75*
G02*
X62800000Y-39000000I2J1200000D01*
G01*
X64100002Y-43199998D02*
G75*
G02*
X65300000Y-44400000I-2J-1200000D01*
G01*
X63999998Y-43200002D02*
G75*
G03*
X62800000Y-44400000I0J-1199998D01*
G01*
X64100002Y-40199998D02*
G75*
G03*
X65300000Y-39000000I0J1199998D01*
G01*
X63700000Y-91250000D02*
X63800000Y-91250000D01*
X63800000Y-94250000D02*
X63700000Y-94250000D01*
X63699998Y-91250002D02*
G75*
G02*
X62500000Y-90050000I2J1200000D01*
G01*
X63800002Y-94249998D02*
G75*
G02*
X65000000Y-95450000I-2J-1200000D01*
G01*
X63699998Y-94250002D02*
G75*
G03*
X62500000Y-95450000I0J-1199998D01*
G01*
X63800002Y-91249998D02*
G75*
G03*
X65000000Y-90050000I0J1199998D01*
G01*
%TD*%
M02*
