%TF.GenerationSoftware,KiCad,Pcbnew,5.99.0-1.20210329git38c849b.fc33*%
%TF.CreationDate,2021-04-01T23:54:56+01:00*%
%TF.ProjectId,safeproject-panel-r2,73616665-7072-46f6-9a65-63742d70616e,rev?*%
%TF.SameCoordinates,Original*%
%TF.FileFunction,Soldermask,Top*%
%TF.FilePolarity,Negative*%
%FSLAX46Y46*%
G04 Gerber Fmt 4.6, Leading zero omitted, Abs format (unit mm)*
G04 Created by KiCad (PCBNEW 5.99.0-1.20210329git38c849b.fc33) date 2021-04-01 23:54:56*
%MOMM*%
%LPD*%
G01*
G04 APERTURE LIST*
G04 Aperture macros list*
%AMRoundRect*
0 Rectangle with rounded corners*
0 $1 Rounding radius*
0 $2 $3 $4 $5 $6 $7 $8 $9 X,Y pos of 4 corners*
0 Add a 4 corners polygon primitive as box body*
4,1,4,$2,$3,$4,$5,$6,$7,$8,$9,$2,$3,0*
0 Add four circle primitives for the rounded corners*
1,1,$1+$1,$2,$3*
1,1,$1+$1,$4,$5*
1,1,$1+$1,$6,$7*
1,1,$1+$1,$8,$9*
0 Add four rect primitives between the rounded corners*
20,1,$1+$1,$2,$3,$4,$5,0*
20,1,$1+$1,$4,$5,$6,$7,0*
20,1,$1+$1,$6,$7,$8,$9,0*
20,1,$1+$1,$8,$9,$2,$3,0*%
%AMRotRect*
0 Rectangle, with rotation*
0 The origin of the aperture is its center*
0 $1 length*
0 $2 width*
0 $3 Rotation angle, in degrees counterclockwise*
0 Add horizontal line*
21,1,$1,$2,0,0,$3*%
%AMFreePoly0*
4,1,21,1.372500,0.787500,0.862500,0.787500,0.862500,0.532500,1.372500,0.532500,1.372500,0.127500,0.862500,0.127500,0.862500,-0.127500,1.372500,-0.127500,1.372500,-0.532500,0.862500,-0.532500,0.862500,-0.787500,1.372500,-0.787500,1.372500,-1.195000,0.612500,-1.195000,0.612500,-1.117500,-0.862500,-1.117500,-0.862500,1.117500,0.612500,1.117500,0.612500,1.195000,1.372500,1.195000,
1.372500,0.787500,1.372500,0.787500,$1*%
%AMFreePoly1*
4,1,25,-1.500000,1.420000,-1.360000,1.280000,-1.205000,1.155000,-1.035000,1.045000,-0.860000,0.950000,-0.675000,0.875000,-0.480000,0.820000,-0.280000,0.780000,-0.085000,0.765000,0.085000,0.765000,0.280000,0.780000,0.480000,0.820000,0.675000,0.875000,0.860000,0.950000,1.035000,1.045000,1.205000,1.155000,1.360000,1.280000,1.500000,1.420000,1.645000,1.595000,3.555000,1.595000,
3.555000,-0.755000,-3.555000,-0.755000,-3.555000,1.595000,-1.645000,1.595000,-1.500000,1.420000,-1.500000,1.420000,$1*%
%AMFreePoly2*
4,1,59,0.185535,1.453533,0.356177,1.392770,0.509116,1.295712,0.636751,1.167183,0.732739,1.013570,0.792309,0.842508,0.812500,0.662500,0.812183,0.639814,0.786974,0.460439,0.722651,0.291108,0.622411,0.140235,0.491237,0.015319,0.335647,-0.077430,0.163376,-0.133405,0.009760,-0.147385,0.000000,-0.150000,-0.004810,-0.148711,-0.017016,-0.149822,-0.196562,-0.125865,-0.366338,-0.062726,
-0.517907,0.036458,-0.643735,0.166757,-0.737569,0.321695,-0.794745,0.493572,-0.811923,0.668761,-0.512462,0.668761,-0.493621,0.524679,-0.435098,0.391675,-0.341598,0.280444,-0.220637,0.199925,-0.081939,0.156593,0.063346,0.153930,0.203538,0.192151,0.327369,0.268183,0.424882,0.375914,0.488239,0.506683,0.512347,0.649979,0.512500,0.662500,0.491900,0.806342,0.431757,0.938620,
0.336905,1.048701,0.214969,1.127736,0.075752,1.169371,-0.069554,1.170258,-0.209269,1.130328,-0.332161,1.052788,-0.428351,0.943874,-0.490106,0.812340,-0.512462,0.668761,-0.811923,0.668761,-0.812421,0.673844,-0.789718,0.853553,-0.727766,1.023766,-0.629642,1.176024,-0.500225,1.302759,-0.345946,1.397672,-0.174472,1.456046,0.005672,1.474980,0.185535,1.453533,0.185535,1.453533,
$1*%
G04 Aperture macros list end*
%ADD10C,0.600000*%
%ADD11R,1.350000X0.400000*%
%ADD12O,0.950000X1.250000*%
%ADD13R,1.550000X1.500000*%
%ADD14O,1.550000X0.890000*%
%ADD15R,1.550000X1.200000*%
%ADD16R,0.405000X0.990000*%
%ADD17FreePoly0,90.000000*%
%ADD18R,1.200000X1.200000*%
%ADD19C,1.000000*%
%ADD20RoundRect,0.250000X-0.250000X-2.500000X0.250000X-2.500000X0.250000X2.500000X-0.250000X2.500000X0*%
%ADD21RoundRect,0.250000X-0.550000X-1.250000X0.550000X-1.250000X0.550000X1.250000X-0.550000X1.250000X0*%
%ADD22RoundRect,0.050000X-0.287500X-0.075000X0.287500X-0.075000X0.287500X0.075000X-0.287500X0.075000X0*%
%ADD23RoundRect,0.050000X0.075000X-0.287500X0.075000X0.287500X-0.075000X0.287500X-0.075000X-0.287500X0*%
%ADD24RoundRect,0.050000X-0.275000X-0.075000X0.275000X-0.075000X0.275000X0.075000X-0.275000X0.075000X0*%
%ADD25RoundRect,0.050050X0.124950X0.274950X-0.124950X0.274950X-0.124950X-0.274950X0.124950X-0.274950X0*%
%ADD26RoundRect,0.049950X-0.175050X-0.675050X0.175050X-0.675050X0.175050X0.675050X-0.175050X0.675050X0*%
%ADD27RoundRect,0.225000X0.250000X-0.225000X0.250000X0.225000X-0.250000X0.225000X-0.250000X-0.225000X0*%
%ADD28RoundRect,0.250000X-0.475000X0.250000X-0.475000X-0.250000X0.475000X-0.250000X0.475000X0.250000X0*%
%ADD29RoundRect,0.200000X-0.200000X-0.275000X0.200000X-0.275000X0.200000X0.275000X-0.200000X0.275000X0*%
%ADD30R,0.900000X1.200000*%
%ADD31RoundRect,0.150000X0.150000X-0.825000X0.150000X0.825000X-0.150000X0.825000X-0.150000X-0.825000X0*%
%ADD32RoundRect,0.250000X-0.650000X0.325000X-0.650000X-0.325000X0.650000X-0.325000X0.650000X0.325000X0*%
%ADD33RoundRect,0.100000X0.637500X0.100000X-0.637500X0.100000X-0.637500X-0.100000X0.637500X-0.100000X0*%
%ADD34R,0.450000X0.700000*%
%ADD35R,0.550000X0.300000*%
%ADD36R,0.550000X0.400000*%
%ADD37R,0.300000X0.550000*%
%ADD38R,0.400000X0.550000*%
%ADD39RoundRect,0.200000X0.335876X0.053033X0.053033X0.335876X-0.335876X-0.053033X-0.053033X-0.335876X0*%
%ADD40RoundRect,0.135000X-0.185000X0.135000X-0.185000X-0.135000X0.185000X-0.135000X0.185000X0.135000X0*%
%ADD41R,1.050000X2.200000*%
%ADD42R,1.000000X1.050000*%
%ADD43RoundRect,0.200000X0.275000X-0.200000X0.275000X0.200000X-0.275000X0.200000X-0.275000X-0.200000X0*%
%ADD44RoundRect,0.225000X-0.225000X-0.250000X0.225000X-0.250000X0.225000X0.250000X-0.225000X0.250000X0*%
%ADD45RoundRect,0.200000X0.200000X0.275000X-0.200000X0.275000X-0.200000X-0.275000X0.200000X-0.275000X0*%
%ADD46R,0.500000X1.000000*%
%ADD47R,1.000000X0.500000*%
%ADD48R,1.000000X1.000000*%
%ADD49R,0.900000X1.000000*%
%ADD50C,0.800000*%
%ADD51R,0.300000X1.400000*%
%ADD52RoundRect,0.200000X-0.275000X0.200000X-0.275000X-0.200000X0.275000X-0.200000X0.275000X0.200000X0*%
%ADD53RoundRect,0.225000X0.225000X0.250000X-0.225000X0.250000X-0.225000X-0.250000X0.225000X-0.250000X0*%
%ADD54C,6.000000*%
%ADD55RoundRect,0.225000X-0.250000X0.225000X-0.250000X-0.225000X0.250000X-0.225000X0.250000X0.225000X0*%
%ADD56RoundRect,0.250000X0.650000X-0.325000X0.650000X0.325000X-0.650000X0.325000X-0.650000X-0.325000X0*%
%ADD57RoundRect,0.062500X-0.203293X-0.291682X0.291682X0.203293X0.203293X0.291682X-0.291682X-0.203293X0*%
%ADD58RoundRect,0.062500X0.203293X-0.291682X0.291682X-0.203293X-0.203293X0.291682X-0.291682X0.203293X0*%
%ADD59RotRect,2.600000X2.600000X45.000000*%
%ADD60C,1.730000*%
%ADD61FreePoly1,0.000000*%
%ADD62FreePoly1,180.000000*%
%ADD63RoundRect,0.140000X0.140000X0.170000X-0.140000X0.170000X-0.140000X-0.170000X0.140000X-0.170000X0*%
%ADD64R,0.700000X0.200000*%
%ADD65C,5.500000*%
%ADD66RoundRect,0.225000X-0.017678X0.335876X-0.335876X0.017678X0.017678X-0.335876X0.335876X-0.017678X0*%
%ADD67RoundRect,0.250000X0.850000X-0.375000X0.850000X0.375000X-0.850000X0.375000X-0.850000X-0.375000X0*%
%ADD68R,0.400000X0.650000*%
%ADD69RoundRect,0.225000X-0.335876X-0.017678X-0.017678X-0.335876X0.335876X0.017678X0.017678X0.335876X0*%
%ADD70RoundRect,0.140000X-0.140000X-0.170000X0.140000X-0.170000X0.140000X0.170000X-0.140000X0.170000X0*%
%ADD71RoundRect,0.147500X-0.147500X-0.172500X0.147500X-0.172500X0.147500X0.172500X-0.147500X0.172500X0*%
%ADD72RoundRect,0.250000X0.475000X-0.250000X0.475000X0.250000X-0.475000X0.250000X-0.475000X-0.250000X0*%
%ADD73R,1.300000X0.300000*%
%ADD74R,2.200000X1.800000*%
%ADD75R,1.100000X1.100000*%
%ADD76RoundRect,0.250000X-0.325000X-0.650000X0.325000X-0.650000X0.325000X0.650000X-0.325000X0.650000X0*%
%ADD77R,4.700000X1.200000*%
%ADD78RoundRect,0.100000X-0.637500X-0.100000X0.637500X-0.100000X0.637500X0.100000X-0.637500X0.100000X0*%
%ADD79RoundRect,0.250000X-0.250000X-0.475000X0.250000X-0.475000X0.250000X0.475000X-0.250000X0.475000X0*%
%ADD80R,0.700000X0.900000*%
%ADD81R,0.700000X0.700000*%
%ADD82R,0.650000X1.200000*%
%ADD83R,0.600000X0.300000*%
%ADD84R,0.500000X1.400000*%
%ADD85R,1.900000X0.450000*%
%ADD86R,2.900000X0.450000*%
%ADD87R,0.700000X0.750000*%
%ADD88R,2.400000X0.450000*%
%ADD89RotRect,0.300000X0.550000X225.000000*%
%ADD90RotRect,0.400000X0.550000X225.000000*%
%ADD91R,0.650000X0.400000*%
%ADD92R,3.200000X3.200000*%
%ADD93C,8.000000*%
%ADD94RoundRect,0.135000X0.135000X0.185000X-0.135000X0.185000X-0.135000X-0.185000X0.135000X-0.185000X0*%
%ADD95R,0.700000X0.640000*%
%ADD96R,0.550000X1.550000*%
%ADD97R,1.150000X0.520000*%
%ADD98R,1.450000X0.570000*%
%ADD99R,0.450000X1.300000*%
%ADD100R,1.700000X1.010000*%
%ADD101R,1.960000X0.570000*%
%ADD102R,1.650000X0.520000*%
%ADD103R,1.850000X0.570000*%
%ADD104R,0.820000X0.520000*%
%ADD105RoundRect,0.250000X0.325000X0.650000X-0.325000X0.650000X-0.325000X-0.650000X0.325000X-0.650000X0*%
%ADD106C,2.000000*%
%ADD107R,1.500000X1.100000*%
%ADD108C,0.850000*%
%ADD109R,2.350000X1.000000*%
%ADD110C,7.400000*%
%ADD111R,1.000000X3.500000*%
%ADD112RoundRect,0.075000X0.350000X0.075000X-0.350000X0.075000X-0.350000X-0.075000X0.350000X-0.075000X0*%
%ADD113RoundRect,0.075000X0.075000X0.350000X-0.075000X0.350000X-0.075000X-0.350000X0.075000X-0.350000X0*%
%ADD114R,2.650000X2.650000*%
%ADD115R,0.522000X0.725000*%
%ADD116FreePoly2,270.000000*%
%ADD117RoundRect,0.140000X0.170000X-0.140000X0.170000X0.140000X-0.170000X0.140000X-0.170000X-0.140000X0*%
G04 APERTURE END LIST*
D10*
%TO.C,REF\u002A\u002A*%
X62300000Y-55700000D03*
X65800000Y-55700000D03*
X65800000Y-54700000D03*
X62300000Y-53700000D03*
X65800000Y-53700000D03*
X62300000Y-54700000D03*
X65800000Y-57700000D03*
X62300000Y-56700000D03*
X65800000Y-56700000D03*
X62300000Y-57700000D03*
%TD*%
%TO.C,REF\u002A\u002A*%
X62000000Y-111175000D03*
X65500000Y-111175000D03*
X62000000Y-110175000D03*
X65500000Y-109175000D03*
X65500000Y-113175000D03*
X62000000Y-109175000D03*
X65500000Y-110175000D03*
X62000000Y-113175000D03*
X65500000Y-112175000D03*
X62000000Y-112175000D03*
%TD*%
%TO.C,REF\u002A\u002A*%
X65800000Y-40700000D03*
X65800000Y-41700000D03*
X65800000Y-43700000D03*
X62300000Y-40700000D03*
X62300000Y-43700000D03*
X62300000Y-42700000D03*
X62300000Y-39700000D03*
X65800000Y-42700000D03*
X62300000Y-41700000D03*
X65800000Y-39700000D03*
%TD*%
%TO.C,REF\u002A\u002A*%
X62000000Y-93750000D03*
X65500000Y-94750000D03*
X65500000Y-93750000D03*
X65500000Y-92750000D03*
X65500000Y-91750000D03*
X62000000Y-92750000D03*
X62000000Y-90750000D03*
X62000000Y-91750000D03*
X65500000Y-90750000D03*
X62000000Y-94750000D03*
%TD*%
D11*
%TO.C,J15*%
X118000000Y-55350000D03*
X118000000Y-54700000D03*
X118000000Y-54050000D03*
X118000000Y-53400000D03*
X118000000Y-52750000D03*
D12*
X118000000Y-56550000D03*
D13*
X120700000Y-53050000D03*
D14*
X120700000Y-57550000D03*
X120700000Y-50550000D03*
D12*
X118000000Y-51550000D03*
D13*
X120700000Y-55050000D03*
D15*
X120700000Y-51150000D03*
X120700000Y-56950000D03*
%TD*%
D16*
%TO.C,Q3*%
X118915600Y-128332200D03*
X119575600Y-128332200D03*
X120235600Y-128332200D03*
X120895600Y-128332200D03*
D17*
X119905600Y-126339700D03*
%TD*%
D18*
%TO.C,D1*%
X81750000Y-131750000D03*
X83850000Y-131750000D03*
%TD*%
D19*
%TO.C,T10*%
X110665600Y-47489600D03*
%TD*%
D16*
%TO.C,Q1*%
X90885000Y-109935000D03*
X91545000Y-109935000D03*
X92205000Y-109935000D03*
X92865000Y-109935000D03*
D17*
X91875000Y-107942500D03*
%TD*%
D20*
%TO.C,J10*%
X110700000Y-118850000D03*
X112700000Y-118850000D03*
X114700000Y-118850000D03*
X116700000Y-118850000D03*
X118700000Y-118850000D03*
D21*
X108300000Y-116600000D03*
X121100000Y-116600000D03*
%TD*%
D19*
%TO.C,T7*%
X79975000Y-81150000D03*
%TD*%
D22*
%TO.C,U5*%
X85787500Y-121800000D03*
D23*
X86000000Y-121587500D03*
D24*
X85775000Y-122450000D03*
X85775000Y-122950000D03*
X85775000Y-123450000D03*
D23*
X86000000Y-124312500D03*
D22*
X85787500Y-124100000D03*
D25*
X86650000Y-124325000D03*
D22*
X87512500Y-124100000D03*
D23*
X87300000Y-124312500D03*
D24*
X87525000Y-123450000D03*
X87525000Y-122950000D03*
X87525000Y-122450000D03*
D22*
X87512500Y-121800000D03*
D23*
X87300000Y-121587500D03*
D25*
X86650000Y-121575000D03*
D26*
X86650000Y-122950000D03*
%TD*%
D27*
%TO.C,C36*%
X79600000Y-75875000D03*
X79600000Y-74325000D03*
%TD*%
D28*
%TO.C,C23*%
X85200000Y-48200000D03*
X85200000Y-50100000D03*
%TD*%
D19*
%TO.C,T4*%
X70800000Y-117250000D03*
%TD*%
D29*
%TO.C,R7*%
X94375000Y-111600000D03*
X96025000Y-111600000D03*
%TD*%
D30*
%TO.C,D4*%
X121400000Y-123300000D03*
X118100000Y-123300000D03*
%TD*%
D29*
%TO.C,R8*%
X102750000Y-111600000D03*
X104400000Y-111600000D03*
%TD*%
D31*
%TO.C,U13*%
X76745000Y-72125000D03*
X78015000Y-72125000D03*
X79285000Y-72125000D03*
X80555000Y-72125000D03*
X80555000Y-67175000D03*
X79285000Y-67175000D03*
X78015000Y-67175000D03*
X76745000Y-67175000D03*
%TD*%
D32*
%TO.C,C43*%
X108278000Y-126888200D03*
X108278000Y-129838200D03*
%TD*%
D27*
%TO.C,C42*%
X84450000Y-122125000D03*
X84450000Y-120575000D03*
%TD*%
D33*
%TO.C,U9*%
X98012500Y-88675000D03*
X98012500Y-88025000D03*
X98012500Y-87375000D03*
X98012500Y-86725000D03*
X98012500Y-86075000D03*
X98012500Y-85425000D03*
X98012500Y-84775000D03*
X98012500Y-84125000D03*
X98012500Y-83475000D03*
X98012500Y-82825000D03*
X92287500Y-82825000D03*
X92287500Y-83475000D03*
X92287500Y-84125000D03*
X92287500Y-84775000D03*
X92287500Y-85425000D03*
X92287500Y-86075000D03*
X92287500Y-86725000D03*
X92287500Y-87375000D03*
X92287500Y-88025000D03*
X92287500Y-88675000D03*
%TD*%
D32*
%TO.C,C13*%
X90650000Y-115275000D03*
X90650000Y-118225000D03*
%TD*%
D34*
%TO.C,Q4*%
X115300000Y-56700000D03*
X114000000Y-56700000D03*
X114650000Y-58700000D03*
%TD*%
D35*
%TO.C,U8*%
X80461000Y-106757200D03*
X81231000Y-106757200D03*
X81231000Y-106257200D03*
X80461000Y-106257200D03*
D36*
X81231000Y-105757200D03*
X80461000Y-105757200D03*
D35*
X80461000Y-105257200D03*
X81231000Y-105257200D03*
X81231000Y-104757200D03*
X80461000Y-104757200D03*
%TD*%
D37*
%TO.C,U11*%
X75900000Y-86585000D03*
X75900000Y-85815000D03*
X76400000Y-85815000D03*
X76400000Y-86585000D03*
D38*
X76900000Y-85815000D03*
X76900000Y-86585000D03*
D37*
X77400000Y-85815000D03*
X77400000Y-86585000D03*
X77900000Y-86585000D03*
X77900000Y-85815000D03*
%TD*%
D39*
%TO.C,R26*%
X117981371Y-104231371D03*
X116814645Y-103064645D03*
%TD*%
D40*
%TO.C,R20*%
X92500000Y-31895000D03*
X92500000Y-32915000D03*
%TD*%
D19*
%TO.C,T1*%
X77475000Y-81150000D03*
%TD*%
D41*
%TO.C,J12*%
X93975000Y-27255000D03*
X91025000Y-27255000D03*
D42*
X92500000Y-28755000D03*
%TD*%
D43*
%TO.C,R35*%
X95100000Y-120775000D03*
X95100000Y-119125000D03*
%TD*%
D29*
%TO.C,R22*%
X78025000Y-117750000D03*
X79675000Y-117750000D03*
%TD*%
D44*
%TO.C,C28*%
X80325000Y-110550000D03*
X81875000Y-110550000D03*
%TD*%
D45*
%TO.C,R15*%
X89175000Y-125650000D03*
X87525000Y-125650000D03*
%TD*%
%TO.C,R23*%
X84575000Y-103450000D03*
X82925000Y-103450000D03*
%TD*%
D19*
%TO.C,J5*%
X95000000Y-56650000D03*
%TD*%
D46*
%TO.C,U7*%
X91000000Y-51230000D03*
X91800000Y-51230000D03*
X92600000Y-51230000D03*
X93400000Y-51230000D03*
X94200000Y-51230000D03*
X95000000Y-51230000D03*
X95800000Y-51230000D03*
X96600000Y-51230000D03*
X97400000Y-51230000D03*
X98200000Y-51230000D03*
X99000000Y-51230000D03*
X99800000Y-51230000D03*
X100600000Y-51230000D03*
X101400000Y-51230000D03*
X102200000Y-51230000D03*
X103000000Y-51230000D03*
X103800000Y-51230000D03*
X104600000Y-51230000D03*
D47*
X105980000Y-50050000D03*
X105980000Y-49250000D03*
X105980000Y-48450000D03*
X105980000Y-47650000D03*
X105980000Y-46850000D03*
X105980000Y-46050000D03*
X105980000Y-45250000D03*
X105980000Y-44450000D03*
X105980000Y-43650000D03*
X105980000Y-42850000D03*
X105980000Y-42050000D03*
X105980000Y-41250000D03*
X105980000Y-40450000D03*
X105980000Y-39650000D03*
X105980000Y-38850000D03*
D46*
X104600000Y-37670000D03*
X103800000Y-37670000D03*
X103000000Y-37670000D03*
X102200000Y-37670000D03*
X101400000Y-37670000D03*
X100600000Y-37670000D03*
X99800000Y-37670000D03*
X99000000Y-37670000D03*
X98200000Y-37670000D03*
X97400000Y-37670000D03*
X96600000Y-37670000D03*
X95800000Y-37670000D03*
X95000000Y-37670000D03*
X94200000Y-37670000D03*
X93400000Y-37670000D03*
X92600000Y-37670000D03*
X91800000Y-37670000D03*
X91000000Y-37670000D03*
D47*
X89620000Y-38850000D03*
X89620000Y-39650000D03*
X89620000Y-40450000D03*
X89620000Y-41250000D03*
X89620000Y-42050000D03*
X89620000Y-42850000D03*
X89620000Y-43650000D03*
X89620000Y-44450000D03*
X89620000Y-45250000D03*
X89620000Y-46050000D03*
X89620000Y-46850000D03*
X89620000Y-47650000D03*
X89620000Y-48450000D03*
X89620000Y-49250000D03*
X89620000Y-50050000D03*
D48*
X89620000Y-51230000D03*
X105980000Y-51230000D03*
X105980000Y-37670000D03*
X89620000Y-37670000D03*
D46*
X88200000Y-54400000D03*
X89000000Y-54400000D03*
X89800000Y-54400000D03*
X90600000Y-54400000D03*
X91400000Y-54400000D03*
X92200000Y-54400000D03*
X93000000Y-54400000D03*
X93800000Y-54400000D03*
X94600000Y-54400000D03*
X95400000Y-54400000D03*
X96200000Y-54400000D03*
X97000000Y-54400000D03*
X97800000Y-54400000D03*
X98600000Y-54400000D03*
X99400000Y-54400000D03*
X100200000Y-54400000D03*
X101000000Y-54400000D03*
X101800000Y-54400000D03*
X102600000Y-54400000D03*
X103400000Y-54400000D03*
X104200000Y-54400000D03*
X105000000Y-54400000D03*
X105800000Y-54400000D03*
X106600000Y-54400000D03*
X107400000Y-54400000D03*
D47*
X108450000Y-53250000D03*
X108450000Y-52450000D03*
X108450000Y-51650000D03*
X108450000Y-50850000D03*
X108450000Y-50050000D03*
X108450000Y-49250000D03*
X108450000Y-48450000D03*
X108450000Y-47650000D03*
X108450000Y-46850000D03*
X108450000Y-46050000D03*
X108450000Y-45250000D03*
X108450000Y-44450000D03*
X108450000Y-43650000D03*
X108450000Y-42850000D03*
X108450000Y-42050000D03*
X108450000Y-41250000D03*
X108450000Y-39650000D03*
X108450000Y-38850000D03*
X108450000Y-38050000D03*
X108450000Y-37250000D03*
X108450000Y-36450000D03*
X108450000Y-35650000D03*
D46*
X107400000Y-34500000D03*
X106600000Y-34500000D03*
X105800000Y-34500000D03*
X105000000Y-34500000D03*
X104200000Y-34500000D03*
X103400000Y-34500000D03*
X102600000Y-34500000D03*
X100200000Y-34500000D03*
X99400000Y-34500000D03*
X98600000Y-34500000D03*
X97800000Y-34500000D03*
X97000000Y-34500000D03*
X96200000Y-34500000D03*
X95400000Y-34500000D03*
X94600000Y-34500000D03*
X93800000Y-34500000D03*
X91400000Y-34500000D03*
X90600000Y-34500000D03*
X89800000Y-34500000D03*
X89000000Y-34500000D03*
X88200000Y-34500000D03*
D47*
X87150000Y-35650000D03*
X87150000Y-36450000D03*
X87150000Y-37250000D03*
X87150000Y-38050000D03*
X87150000Y-38850000D03*
X87150000Y-39650000D03*
X87150000Y-40450000D03*
X87150000Y-41250000D03*
X87150000Y-42050000D03*
X87150000Y-42850000D03*
X87150000Y-43650000D03*
X87150000Y-44450000D03*
X87150000Y-45250000D03*
X87150000Y-46050000D03*
X87150000Y-46050000D03*
X87150000Y-46850000D03*
X87150000Y-47650000D03*
X87150000Y-48450000D03*
X87150000Y-49250000D03*
X87150000Y-50050000D03*
X87150000Y-50850000D03*
X87150000Y-51650000D03*
X87150000Y-52450000D03*
X87150000Y-53250000D03*
D49*
X87100000Y-54400000D03*
X108500000Y-54400000D03*
X108500000Y-34500000D03*
X87100000Y-34500000D03*
D48*
X91430000Y-49595000D03*
X91430000Y-48125000D03*
X91430000Y-46655000D03*
X91430000Y-45185000D03*
X91430000Y-43715000D03*
X91430000Y-42245000D03*
X91430000Y-40775000D03*
X91430000Y-39305000D03*
X93250000Y-39305000D03*
X95070000Y-39305000D03*
X96890000Y-39305000D03*
X98710000Y-39305000D03*
X100530000Y-39305000D03*
X102350000Y-39305000D03*
X104170000Y-39305000D03*
X104170000Y-40775000D03*
X104170000Y-42245000D03*
X104170000Y-43715000D03*
X104170000Y-45185000D03*
X104170000Y-46655000D03*
X104170000Y-48125000D03*
X104170000Y-49595000D03*
X102350000Y-49595000D03*
X100530000Y-49595000D03*
X98710000Y-49595000D03*
X96890000Y-49595000D03*
X95070000Y-49595000D03*
X93250000Y-49595000D03*
X93250000Y-48125000D03*
X93250000Y-46655000D03*
X93250000Y-45185000D03*
X93250000Y-43715000D03*
X93250000Y-42245000D03*
X93250000Y-40775000D03*
X95070000Y-40775000D03*
X96890000Y-40775000D03*
X98710000Y-40775000D03*
X100530000Y-40775000D03*
X102350000Y-40775000D03*
X102350000Y-42245000D03*
X102350000Y-43715000D03*
X102350000Y-45185000D03*
X102350000Y-46655000D03*
X102350000Y-48125000D03*
X100530000Y-48125000D03*
X98710000Y-48125000D03*
X96890000Y-48125000D03*
X95070000Y-48125000D03*
X95070000Y-46655000D03*
X95070000Y-45185000D03*
X95070000Y-43715000D03*
X95070000Y-42245000D03*
X96890000Y-42245000D03*
X98710000Y-42245000D03*
X100530000Y-42245000D03*
X100530000Y-43715000D03*
X100530000Y-45185000D03*
X100530000Y-46655000D03*
X98710000Y-46655000D03*
X96890000Y-46655000D03*
X96890000Y-45185000D03*
X96890000Y-43715000D03*
X98710000Y-43715000D03*
X98710000Y-45185000D03*
D50*
X91400000Y-52930000D03*
X92600000Y-52930000D03*
X93800000Y-52930000D03*
X95000000Y-52930000D03*
X96200000Y-52930000D03*
X97400000Y-52930000D03*
X98600000Y-52930000D03*
X99800000Y-52930000D03*
X101000000Y-52930000D03*
%TD*%
D51*
%TO.C,U15*%
X110450000Y-57150000D03*
X110950000Y-57150000D03*
X111450000Y-57150000D03*
X111950000Y-57150000D03*
X112450000Y-57150000D03*
X112450000Y-52750000D03*
X111950000Y-52750000D03*
X111450000Y-52750000D03*
X110950000Y-52750000D03*
X110450000Y-52750000D03*
%TD*%
D52*
%TO.C,R6*%
X101650000Y-88150000D03*
X101650000Y-89800000D03*
%TD*%
%TO.C,R16*%
X104925200Y-125545000D03*
X104925200Y-127195000D03*
%TD*%
D19*
%TO.C,J8*%
X99800000Y-57650000D03*
%TD*%
D32*
%TO.C,C45*%
X110564000Y-126888200D03*
X110564000Y-129838200D03*
%TD*%
D19*
%TO.C,T6*%
X74775000Y-117275000D03*
%TD*%
D37*
%TO.C,U10*%
X78950000Y-86585000D03*
X78950000Y-85815000D03*
X79450000Y-86585000D03*
X79450000Y-85815000D03*
D38*
X79950000Y-85815000D03*
X79950000Y-86585000D03*
D37*
X80450000Y-86585000D03*
X80450000Y-85815000D03*
X80950000Y-85815000D03*
X80950000Y-86585000D03*
%TD*%
D32*
%TO.C,C16*%
X97040000Y-115255000D03*
X97040000Y-118205000D03*
%TD*%
D53*
%TO.C,C18*%
X105625000Y-113100000D03*
X104075000Y-113100000D03*
%TD*%
D54*
%TO.C,REF\u002A\u002A*%
X118800000Y-110250000D03*
%TD*%
D55*
%TO.C,C17*%
X92550000Y-115675000D03*
X92550000Y-117225000D03*
%TD*%
D23*
%TO.C,U6*%
X100600000Y-121587500D03*
D22*
X100387500Y-121800000D03*
D24*
X100375000Y-122450000D03*
X100375000Y-122950000D03*
X100375000Y-123450000D03*
D23*
X100600000Y-124312500D03*
D22*
X100387500Y-124100000D03*
D25*
X101250000Y-124325000D03*
D22*
X102112500Y-124100000D03*
D23*
X101900000Y-124312500D03*
D24*
X102125000Y-123450000D03*
X102125000Y-122950000D03*
X102125000Y-122450000D03*
D22*
X102112500Y-121800000D03*
D23*
X101900000Y-121587500D03*
D25*
X101250000Y-121575000D03*
D26*
X101250000Y-122950000D03*
%TD*%
D53*
%TO.C,C38*%
X88325000Y-27100000D03*
X86775000Y-27100000D03*
%TD*%
D56*
%TO.C,C6*%
X82450000Y-122375000D03*
X82450000Y-119425000D03*
%TD*%
D53*
%TO.C,C25*%
X99575000Y-81450000D03*
X98025000Y-81450000D03*
%TD*%
D45*
%TO.C,R13*%
X106475000Y-124100000D03*
X104825000Y-124100000D03*
%TD*%
D57*
%TO.C,U12*%
X108796097Y-103536136D03*
X109149651Y-103889689D03*
X109503204Y-104243243D03*
X109856757Y-104596796D03*
X110210311Y-104950349D03*
X110563864Y-105303903D03*
D58*
X111536136Y-105303903D03*
X111889689Y-104950349D03*
X112243243Y-104596796D03*
X112596796Y-104243243D03*
X112950349Y-103889689D03*
X113303903Y-103536136D03*
D57*
X113303903Y-102563864D03*
X112950349Y-102210311D03*
X112596796Y-101856757D03*
X112243243Y-101503204D03*
X111889689Y-101149651D03*
X111536136Y-100796097D03*
D58*
X110563864Y-100796097D03*
X110210311Y-101149651D03*
X109856757Y-101503204D03*
X109503204Y-101856757D03*
X109149651Y-102210311D03*
X108796097Y-102563864D03*
D59*
X111050000Y-103050000D03*
%TD*%
D60*
%TO.C,J11*%
X100350000Y-29350000D03*
D61*
X100350000Y-32150000D03*
D62*
X100350000Y-26550000D03*
%TD*%
D63*
%TO.C,C20*%
X91530000Y-32905000D03*
X90570000Y-32905000D03*
%TD*%
D55*
%TO.C,C12*%
X106398400Y-125607000D03*
X106398400Y-127157000D03*
%TD*%
D29*
%TO.C,R2*%
X90775000Y-69400000D03*
X92425000Y-69400000D03*
%TD*%
D52*
%TO.C,R5*%
X76750000Y-124675000D03*
X76750000Y-126325000D03*
%TD*%
D64*
%TO.C,Module1*%
X83800000Y-78950000D03*
X86880000Y-78950000D03*
X83800000Y-79350000D03*
X86880000Y-79350000D03*
X83800000Y-79750000D03*
X86880000Y-79750000D03*
X83800000Y-80150000D03*
X86880000Y-80150000D03*
X83800000Y-80550000D03*
X86880000Y-80550000D03*
X83800000Y-80950000D03*
X86880000Y-80950000D03*
X83800000Y-81350000D03*
X86880000Y-81350000D03*
X83800000Y-81750000D03*
X86880000Y-81750000D03*
X83800000Y-82150000D03*
X86880000Y-82150000D03*
X83800000Y-82550000D03*
X86880000Y-82550000D03*
X83800000Y-82950000D03*
X86880000Y-82950000D03*
X83800000Y-83350000D03*
X86880000Y-83350000D03*
X83800000Y-83750000D03*
X86880000Y-83750000D03*
X83800000Y-84150000D03*
X86880000Y-84150000D03*
X83800000Y-84550000D03*
X86880000Y-84550000D03*
X83800000Y-84950000D03*
X86880000Y-84950000D03*
X83800000Y-85350000D03*
X86880000Y-85350000D03*
X83800000Y-85750000D03*
X86880000Y-85750000D03*
X83800000Y-86150000D03*
X86880000Y-86150000D03*
X83800000Y-86550000D03*
X86880000Y-86550000D03*
X83800000Y-86950000D03*
X86880000Y-86950000D03*
X83800000Y-87350000D03*
X86880000Y-87350000D03*
X83800000Y-87750000D03*
X86880000Y-87750000D03*
X83800000Y-88150000D03*
X86880000Y-88150000D03*
X83800000Y-88550000D03*
X86880000Y-88550000D03*
X83800000Y-88950000D03*
X86880000Y-88950000D03*
X83800000Y-89350000D03*
X86880000Y-89350000D03*
X83800000Y-89750000D03*
X86880000Y-89750000D03*
X83800000Y-90150000D03*
X86880000Y-90150000D03*
X83800000Y-90550000D03*
X86880000Y-90550000D03*
X83800000Y-90950000D03*
X86880000Y-90950000D03*
X83800000Y-91350000D03*
X86880000Y-91350000D03*
X83800000Y-91750000D03*
X86880000Y-91750000D03*
X83800000Y-92150000D03*
X86880000Y-92150000D03*
X83800000Y-92550000D03*
X86880000Y-92550000D03*
X83800000Y-92950000D03*
X86880000Y-92950000D03*
X83800000Y-93350000D03*
X86880000Y-93350000D03*
X83800000Y-93750000D03*
X86880000Y-93750000D03*
X83800000Y-94150000D03*
X86880000Y-94150000D03*
X83800000Y-94550000D03*
X86880000Y-94550000D03*
X83800000Y-94950000D03*
X86880000Y-94950000D03*
X83800000Y-95350000D03*
X86880000Y-95350000D03*
X83800000Y-95750000D03*
X86880000Y-95750000D03*
X83800000Y-96150000D03*
X86880000Y-96150000D03*
X83800000Y-96550000D03*
X86880000Y-96550000D03*
X83800000Y-96950000D03*
X86880000Y-96950000D03*
X83800000Y-97350000D03*
X86880000Y-97350000D03*
X83800000Y-97750000D03*
X86880000Y-97750000D03*
X83800000Y-98150000D03*
X86880000Y-98150000D03*
X83800000Y-98550000D03*
X86880000Y-98550000D03*
X117720000Y-78950000D03*
X120800000Y-78950000D03*
X117720000Y-79350000D03*
X120800000Y-79350000D03*
X117720000Y-79750000D03*
X120800000Y-79750000D03*
X117720000Y-80150000D03*
X120800000Y-80150000D03*
X117720000Y-80550000D03*
X120800000Y-80550000D03*
X117720000Y-80950000D03*
X120800000Y-80950000D03*
X117720000Y-81350000D03*
X120800000Y-81350000D03*
X117720000Y-81750000D03*
X120800000Y-81750000D03*
X117720000Y-82150000D03*
X120800000Y-82150000D03*
X117720000Y-82550000D03*
X120800000Y-82550000D03*
X117720000Y-82950000D03*
X120800000Y-82950000D03*
X117720000Y-83350000D03*
X120800000Y-83350000D03*
X117720000Y-83750000D03*
X120800000Y-83750000D03*
X117720000Y-84150000D03*
X120800000Y-84150000D03*
X117720000Y-84550000D03*
X120800000Y-84550000D03*
X117720000Y-84950000D03*
X120800000Y-84950000D03*
X117720000Y-85350000D03*
X120800000Y-85350000D03*
X117720000Y-85750000D03*
X120800000Y-85750000D03*
X117720000Y-86150000D03*
X120800000Y-86150000D03*
X117720000Y-86550000D03*
X120800000Y-86550000D03*
X117720000Y-86950000D03*
X120800000Y-86950000D03*
X117720000Y-87350000D03*
X120800000Y-87350000D03*
X117720000Y-87750000D03*
X120800000Y-87750000D03*
X117720000Y-88150000D03*
X120800000Y-88150000D03*
X117720000Y-88550000D03*
X120800000Y-88550000D03*
X117720000Y-88950000D03*
X120800000Y-88950000D03*
X117720000Y-89350000D03*
X120800000Y-89350000D03*
X117720000Y-89750000D03*
X120800000Y-89750000D03*
X117720000Y-90150000D03*
X120800000Y-90150000D03*
X117720000Y-90550000D03*
X120800000Y-90550000D03*
X117720000Y-90950000D03*
X120800000Y-90950000D03*
X117720000Y-91350000D03*
X120800000Y-91350000D03*
X117720000Y-91750000D03*
X120800000Y-91750000D03*
X117720000Y-92150000D03*
X120800000Y-92150000D03*
X117720000Y-92550000D03*
X120800000Y-92550000D03*
X117720000Y-92950000D03*
X120800000Y-92950000D03*
X117720000Y-93350000D03*
X120800000Y-93350000D03*
X117720000Y-93750000D03*
X120800000Y-93750000D03*
X117720000Y-94150000D03*
X120800000Y-94150000D03*
X117720000Y-94550000D03*
X120800000Y-94550000D03*
X117720000Y-94950000D03*
X120800000Y-94950000D03*
X117720000Y-95350000D03*
X120800000Y-95350000D03*
X117720000Y-95750000D03*
X120800000Y-95750000D03*
X117720000Y-96150000D03*
X120800000Y-96150000D03*
X117720000Y-96550000D03*
X120800000Y-96550000D03*
X117720000Y-96950000D03*
X120800000Y-96950000D03*
X117720000Y-97350000D03*
X120800000Y-97350000D03*
X117720000Y-97750000D03*
X120800000Y-97750000D03*
X117720000Y-98150000D03*
X120800000Y-98150000D03*
X117720000Y-98550000D03*
X120800000Y-98550000D03*
%TD*%
D45*
%TO.C,R4*%
X86175000Y-128200000D03*
X84525000Y-128200000D03*
%TD*%
D65*
%TO.C,REF\u002A\u002A*%
X80800000Y-126250000D03*
%TD*%
D32*
%TO.C,C15*%
X82450000Y-114800000D03*
X82450000Y-117750000D03*
%TD*%
D56*
%TO.C,C5*%
X97050000Y-122875000D03*
X97050000Y-119925000D03*
%TD*%
D54*
%TO.C,REF\u002A\u002A*%
X85800000Y-62250000D03*
%TD*%
D29*
%TO.C,R21*%
X78025000Y-116250000D03*
X79675000Y-116250000D03*
%TD*%
D43*
%TO.C,R3*%
X88450000Y-82075000D03*
X88450000Y-80425000D03*
%TD*%
D53*
%TO.C,C30*%
X70575000Y-88100000D03*
X69025000Y-88100000D03*
%TD*%
D27*
%TO.C,C41*%
X103400000Y-122125000D03*
X103400000Y-120575000D03*
%TD*%
D19*
%TO.C,J4*%
X93400000Y-57650000D03*
%TD*%
D27*
%TO.C,C21*%
X84950000Y-46725000D03*
X84950000Y-45175000D03*
%TD*%
%TO.C,C4*%
X88950000Y-122125000D03*
X88950000Y-120575000D03*
%TD*%
D39*
%TO.C,R27*%
X115883363Y-102133363D03*
X114716637Y-100966637D03*
%TD*%
D27*
%TO.C,C10*%
X98941600Y-125104400D03*
X98941600Y-123554400D03*
%TD*%
D66*
%TO.C,C32*%
X107525000Y-104825000D03*
X106428984Y-105921016D03*
%TD*%
D67*
%TO.C,FB1*%
X108684400Y-125171000D03*
X108684400Y-123021000D03*
%TD*%
D68*
%TO.C,U14*%
X77550000Y-79150000D03*
X78200000Y-79150000D03*
X78850000Y-79150000D03*
X78850000Y-77250000D03*
X77550000Y-77250000D03*
%TD*%
D16*
%TO.C,Q2*%
X99260000Y-109935000D03*
X99920000Y-109935000D03*
X100580000Y-109935000D03*
X101240000Y-109935000D03*
D17*
X100250000Y-107942500D03*
%TD*%
D27*
%TO.C,C35*%
X74700000Y-74200000D03*
X74700000Y-72650000D03*
%TD*%
D52*
%TO.C,R36*%
X110818000Y-123321800D03*
X110818000Y-124971800D03*
%TD*%
%TO.C,R14*%
X90600000Y-125595000D03*
X90600000Y-127245000D03*
%TD*%
%TO.C,R34*%
X103225000Y-88150000D03*
X103225000Y-89800000D03*
%TD*%
D55*
%TO.C,C9*%
X84450000Y-123575000D03*
X84450000Y-125125000D03*
%TD*%
%TO.C,C11*%
X92100000Y-125645000D03*
X92100000Y-127195000D03*
%TD*%
D69*
%TO.C,C33*%
X111601992Y-108351992D03*
X112698008Y-109448008D03*
%TD*%
D70*
%TO.C,C19*%
X90570000Y-31955000D03*
X91530000Y-31955000D03*
%TD*%
D71*
%TO.C,D6*%
X80065000Y-107800000D03*
X81035000Y-107800000D03*
%TD*%
D18*
%TO.C,D7*%
X105750000Y-131750000D03*
X107850000Y-131750000D03*
%TD*%
D45*
%TO.C,R12*%
X92025000Y-124100000D03*
X90375000Y-124100000D03*
%TD*%
D39*
%TO.C,R28*%
X116931371Y-105281371D03*
X115764645Y-104114645D03*
%TD*%
D72*
%TO.C,C22*%
X85200000Y-43700000D03*
X85200000Y-41800000D03*
%TD*%
D73*
%TO.C,J16*%
X82950000Y-40000000D03*
X82950000Y-40500000D03*
X82950000Y-41000000D03*
X82950000Y-41500000D03*
X82950000Y-42000000D03*
X82950000Y-42500000D03*
X82950000Y-43000000D03*
X82950000Y-43500000D03*
X82950000Y-44000000D03*
X82950000Y-44500000D03*
X82950000Y-45000000D03*
X82950000Y-45500000D03*
X82950000Y-46000000D03*
X82950000Y-46500000D03*
X82950000Y-47000000D03*
X82950000Y-47500000D03*
X82950000Y-48000000D03*
X82950000Y-48500000D03*
X82950000Y-49000000D03*
X82950000Y-49500000D03*
D74*
X79700000Y-51400000D03*
X79700000Y-38100000D03*
%TD*%
D19*
%TO.C,J1*%
X88600000Y-56650000D03*
%TD*%
%TO.C,T5*%
X72800000Y-117225000D03*
%TD*%
D45*
%TO.C,R24*%
X78165800Y-84167200D03*
X76515800Y-84167200D03*
%TD*%
D75*
%TO.C,D5*%
X118150000Y-130250000D03*
X120950000Y-130250000D03*
%TD*%
D69*
%TO.C,C40*%
X112650000Y-107300000D03*
X113746016Y-108396016D03*
%TD*%
D19*
%TO.C,J9*%
X101400000Y-56650000D03*
%TD*%
%TO.C,T8*%
X85316400Y-53687200D03*
%TD*%
D29*
%TO.C,R31*%
X113125000Y-60200000D03*
X114775000Y-60200000D03*
%TD*%
D69*
%TO.C,C39*%
X113701992Y-106251992D03*
X114798008Y-107348008D03*
%TD*%
D65*
%TO.C,REF\u002A\u002A*%
X72800000Y-46250000D03*
%TD*%
D76*
%TO.C,C2*%
X93950000Y-126550000D03*
X96900000Y-126550000D03*
%TD*%
D45*
%TO.C,R17*%
X103515000Y-125620000D03*
X101865000Y-125620000D03*
%TD*%
D77*
%TO.C,L1*%
X86550000Y-118605000D03*
X86550000Y-115295000D03*
%TD*%
D53*
%TO.C,C7*%
X86125000Y-126600000D03*
X84575000Y-126600000D03*
%TD*%
D78*
%TO.C,U17*%
X79287500Y-27300000D03*
X79287500Y-27950000D03*
X79287500Y-28600000D03*
X79287500Y-29250000D03*
X79287500Y-29900000D03*
X79287500Y-30550000D03*
X79287500Y-31200000D03*
X79287500Y-31850000D03*
X79287500Y-32500000D03*
X79287500Y-33150000D03*
X79287500Y-33800000D03*
X79287500Y-34450000D03*
X79287500Y-35100000D03*
X79287500Y-35750000D03*
X85012500Y-35750000D03*
X85012500Y-35100000D03*
X85012500Y-34450000D03*
X85012500Y-33800000D03*
X85012500Y-33150000D03*
X85012500Y-32500000D03*
X85012500Y-31850000D03*
X85012500Y-31200000D03*
X85012500Y-30550000D03*
X85012500Y-29900000D03*
X85012500Y-29250000D03*
X85012500Y-28600000D03*
X85012500Y-27950000D03*
X85012500Y-27300000D03*
%TD*%
D53*
%TO.C,C27*%
X93699000Y-90364800D03*
X92149000Y-90364800D03*
%TD*%
D19*
%TO.C,T9*%
X85316400Y-56735200D03*
%TD*%
%TO.C,J2*%
X90200000Y-57650000D03*
%TD*%
D45*
%TO.C,R11*%
X120976200Y-132245200D03*
X119326200Y-132245200D03*
%TD*%
D40*
%TO.C,R19*%
X92500000Y-29995000D03*
X92500000Y-31015000D03*
%TD*%
D79*
%TO.C,C29*%
X72050000Y-87850000D03*
X73950000Y-87850000D03*
%TD*%
D19*
%TO.C,T3*%
X68800000Y-117275000D03*
%TD*%
D80*
%TO.C,J13*%
X67400000Y-110990000D03*
X67400000Y-108450000D03*
X67400000Y-105910000D03*
X70570000Y-110990000D03*
X70570000Y-108450000D03*
X70570000Y-105910000D03*
D81*
X73900000Y-104180000D03*
D82*
X77575000Y-107900000D03*
D83*
X65550000Y-109670000D03*
D84*
X78650000Y-110650000D03*
D85*
X71550000Y-103855000D03*
D86*
X66700000Y-103855000D03*
D84*
X78650000Y-106230000D03*
D86*
X66700000Y-115005000D03*
D85*
X71550000Y-115005000D03*
D83*
X65550000Y-107230000D03*
D87*
X75700000Y-104355000D03*
D88*
X76700000Y-115005000D03*
%TD*%
D89*
%TO.C,U2*%
X111384871Y-110070657D03*
X111929343Y-110615129D03*
X111575790Y-110968683D03*
X111031317Y-110424210D03*
D90*
X110677764Y-110777764D03*
X111222236Y-111322236D03*
D89*
X110324210Y-111131317D03*
X110868683Y-111675790D03*
X109970657Y-111484871D03*
X110515129Y-112029343D03*
%TD*%
D54*
%TO.C,REF\u002A\u002A*%
X118800000Y-62250000D03*
%TD*%
D66*
%TO.C,C31*%
X106475000Y-103775000D03*
X105378984Y-104871016D03*
%TD*%
D91*
%TO.C,U3*%
X92825000Y-112750000D03*
X92825000Y-112100000D03*
X92825000Y-111450000D03*
X90925000Y-111450000D03*
X90925000Y-112100000D03*
X90925000Y-112750000D03*
%TD*%
D27*
%TO.C,C3*%
X98950000Y-122125000D03*
X98950000Y-120575000D03*
%TD*%
D53*
%TO.C,C8*%
X100450000Y-126650000D03*
X98900000Y-126650000D03*
%TD*%
D29*
%TO.C,R10*%
X102750000Y-110100000D03*
X104400000Y-110100000D03*
%TD*%
%TO.C,R30*%
X76525000Y-75850000D03*
X78175000Y-75850000D03*
%TD*%
D92*
%TO.C,BT1*%
X71700000Y-67225000D03*
X71700000Y-51475000D03*
D93*
X71700000Y-59350000D03*
%TD*%
D29*
%TO.C,R29*%
X76525000Y-74350000D03*
X78175000Y-74350000D03*
%TD*%
D19*
%TO.C,J6*%
X96600000Y-57650000D03*
%TD*%
D32*
%TO.C,C14*%
X105250000Y-115275000D03*
X105250000Y-118225000D03*
%TD*%
D44*
%TO.C,C26*%
X80325000Y-109050000D03*
X81875000Y-109050000D03*
%TD*%
D39*
%TO.C,R25*%
X115881371Y-106331371D03*
X114714645Y-105164645D03*
%TD*%
D71*
%TO.C,D9*%
X90565000Y-31005000D03*
X91535000Y-31005000D03*
%TD*%
D29*
%TO.C,R1*%
X90775000Y-72550000D03*
X92425000Y-72550000D03*
%TD*%
D94*
%TO.C,R18*%
X93510000Y-31005000D03*
X92490000Y-31005000D03*
%TD*%
D29*
%TO.C,R32*%
X113125000Y-61700000D03*
X114775000Y-61700000D03*
%TD*%
D18*
%TO.C,D2*%
X69750000Y-131750000D03*
X71850000Y-131750000D03*
%TD*%
D55*
%TO.C,C34*%
X74700000Y-66975000D03*
X74700000Y-68525000D03*
%TD*%
D19*
%TO.C,J7*%
X98200000Y-56650000D03*
%TD*%
D29*
%TO.C,R9*%
X94375000Y-110100000D03*
X96025000Y-110100000D03*
%TD*%
D18*
%TO.C,D3*%
X93750000Y-131750000D03*
X95850000Y-131750000D03*
%TD*%
D65*
%TO.C,REF\u002A\u002A*%
X114800000Y-46250000D03*
%TD*%
D43*
%TO.C,R33*%
X86900000Y-31425000D03*
X86900000Y-29775000D03*
%TD*%
D95*
%TO.C,J14*%
X73750000Y-98620000D03*
X73750000Y-97520000D03*
X73750000Y-96420000D03*
X73750000Y-95320000D03*
X73750000Y-94220000D03*
X73750000Y-93120000D03*
X73750000Y-92020000D03*
X73750000Y-90920000D03*
D96*
X80575000Y-91025000D03*
D81*
X79950000Y-92920000D03*
D97*
X74680000Y-89600000D03*
D98*
X66525000Y-102935000D03*
D99*
X80405000Y-101650000D03*
D100*
X66650000Y-89785000D03*
D101*
X80120000Y-102935000D03*
D102*
X73480000Y-102935000D03*
D103*
X80250000Y-89600000D03*
D104*
X76890000Y-89600000D03*
%TD*%
D19*
%TO.C,J3*%
X91800000Y-56650000D03*
%TD*%
D105*
%TO.C,C44*%
X93475000Y-120250000D03*
X90525000Y-120250000D03*
%TD*%
D54*
%TO.C,REF\u002A\u002A*%
X85800000Y-110250000D03*
%TD*%
D68*
%TO.C,U1*%
X78650000Y-120300000D03*
X78000000Y-120300000D03*
X77350000Y-120300000D03*
X77350000Y-122200000D03*
X78650000Y-122200000D03*
%TD*%
D77*
%TO.C,L2*%
X101150000Y-118605000D03*
X101150000Y-115295000D03*
%TD*%
D91*
%TO.C,U4*%
X101225000Y-112775000D03*
X101225000Y-112125000D03*
X101225000Y-111475000D03*
X99325000Y-111475000D03*
X99325000Y-112125000D03*
X99325000Y-112775000D03*
%TD*%
D67*
%TO.C,FB2*%
X94500000Y-124475000D03*
X94500000Y-122325000D03*
%TD*%
D19*
%TO.C,T11*%
X110665600Y-44289200D03*
%TD*%
D55*
%TO.C,C37*%
X108400000Y-55825000D03*
X108400000Y-57375000D03*
%TD*%
%TO.C,C1*%
X97625000Y-110075000D03*
X97625000Y-111625000D03*
%TD*%
D79*
%TO.C,C24*%
X80350000Y-112950000D03*
X82250000Y-112950000D03*
%TD*%
D65*
%TO.C,REF\u002A\u002A*%
X114800000Y-126250000D03*
%TD*%
D35*
%TO.C,U16*%
X115285000Y-55400000D03*
X114515000Y-55400000D03*
X114515000Y-54900000D03*
X115285000Y-54900000D03*
D36*
X115285000Y-54400000D03*
X114515000Y-54400000D03*
D35*
X114515000Y-53900000D03*
X115285000Y-53900000D03*
X114515000Y-53400000D03*
X115285000Y-53400000D03*
%TD*%
D106*
%TO.C,*%
X48000000Y-114700000D03*
%TD*%
%TO.C,*%
X43500000Y-70200000D03*
%TD*%
D65*
%TO.C,REF\u002A\u002A*%
X43500000Y-96700000D03*
%TD*%
%TO.C,REF\u002A\u002A*%
X49500000Y-105700000D03*
%TD*%
%TO.C,REF\u002A\u002A*%
X43500000Y-114700000D03*
%TD*%
%TO.C,REF\u002A\u002A*%
X37500000Y-105700000D03*
%TD*%
D45*
%TO.C,R6*%
X43675000Y-77300000D03*
X42025000Y-77300000D03*
%TD*%
D43*
%TO.C,R3*%
X46950000Y-77225000D03*
X46950000Y-75575000D03*
%TD*%
D45*
%TO.C,R9*%
X43675000Y-78900000D03*
X42025000Y-78900000D03*
%TD*%
D107*
%TO.C,LED3*%
X42000000Y-73950000D03*
X45000000Y-73950000D03*
X45000000Y-75450000D03*
X42000000Y-75450000D03*
%TD*%
D108*
%TO.C,J1*%
X56500000Y-90700000D03*
X54500000Y-94700000D03*
X54500000Y-92700000D03*
X56500000Y-96700000D03*
X54500000Y-90700000D03*
X56500000Y-94700000D03*
X54500000Y-96700000D03*
X56500000Y-92700000D03*
D109*
X52825000Y-96700000D03*
X58175000Y-96700000D03*
X52825000Y-94700000D03*
X58175000Y-94700000D03*
X52825000Y-92700000D03*
X58175000Y-92700000D03*
X52825000Y-90700000D03*
X58175000Y-90700000D03*
%TD*%
D43*
%TO.C,R1*%
X47050000Y-93125000D03*
X47050000Y-91475000D03*
%TD*%
D107*
%TO.C,LED2*%
X42000000Y-81950000D03*
X45000000Y-81950000D03*
X45000000Y-83450000D03*
X42000000Y-83450000D03*
%TD*%
D45*
%TO.C,R5*%
X43675000Y-85200000D03*
X42025000Y-85200000D03*
%TD*%
D43*
%TO.C,R2*%
X46850000Y-85125000D03*
X46850000Y-83475000D03*
%TD*%
D107*
%TO.C,LED1*%
X42000000Y-89950000D03*
X45000000Y-89950000D03*
X45000000Y-91450000D03*
X42000000Y-91450000D03*
%TD*%
D45*
%TO.C,R8*%
X43675000Y-86700000D03*
X42025000Y-86700000D03*
%TD*%
D43*
%TO.C,R4*%
X47950000Y-90075000D03*
X47950000Y-88425000D03*
%TD*%
D45*
%TO.C,R7*%
X43675000Y-88250000D03*
X42025000Y-88250000D03*
%TD*%
D73*
%TO.C,J2*%
X55650000Y-110450000D03*
X55650000Y-109950000D03*
X55650000Y-109450000D03*
X55650000Y-108950000D03*
X55650000Y-108450000D03*
X55650000Y-107950000D03*
X55650000Y-107450000D03*
X55650000Y-106950000D03*
X55650000Y-106450000D03*
X55650000Y-105950000D03*
X55650000Y-105450000D03*
X55650000Y-104950000D03*
X55650000Y-104450000D03*
X55650000Y-103950000D03*
X55650000Y-103450000D03*
X55650000Y-102950000D03*
X55650000Y-102450000D03*
X55650000Y-101950000D03*
X55650000Y-101450000D03*
X55650000Y-100950000D03*
D74*
X58900000Y-112350000D03*
X58900000Y-99050000D03*
%TD*%
D63*
%TO.C,C3*%
X61880000Y-61100000D03*
X60920000Y-61100000D03*
%TD*%
%TO.C,C9*%
X59105000Y-65400000D03*
X58145000Y-65400000D03*
%TD*%
D19*
%TO.C,TP1*%
X51314623Y-64960284D03*
%TD*%
D53*
%TO.C,C4*%
X61635000Y-63460000D03*
X60085000Y-63460000D03*
%TD*%
D63*
%TO.C,C11*%
X54380000Y-65350000D03*
X53420000Y-65350000D03*
%TD*%
D19*
%TO.C,TP3*%
X51350000Y-56075000D03*
%TD*%
D53*
%TO.C,C10*%
X54725000Y-66700000D03*
X53175000Y-66700000D03*
%TD*%
D44*
%TO.C,C12*%
X51425000Y-60768745D03*
X52975000Y-60768745D03*
%TD*%
D63*
%TO.C,C7*%
X61865000Y-65060000D03*
X60905000Y-65060000D03*
%TD*%
D110*
%TO.C,REF\u002A\u002A*%
X57800000Y-54300000D03*
%TD*%
D94*
%TO.C,R2*%
X55910000Y-49700000D03*
X54890000Y-49700000D03*
%TD*%
D111*
%TO.C,J1*%
X48800000Y-57800000D03*
X48800000Y-62800000D03*
X46800000Y-57800000D03*
X46800000Y-62800000D03*
X44800000Y-57800000D03*
X44800000Y-62800000D03*
X42800000Y-57800000D03*
X42800000Y-62800000D03*
%TD*%
D94*
%TO.C,R1*%
X55910000Y-46950000D03*
X54890000Y-46950000D03*
%TD*%
D112*
%TO.C,U1*%
X58350000Y-63150000D03*
X58350000Y-62650000D03*
X58350000Y-62150000D03*
X58350000Y-61650000D03*
X58350000Y-61150000D03*
X58350000Y-60650000D03*
D113*
X57650000Y-59950000D03*
X57150000Y-59950000D03*
X56650000Y-59950000D03*
X56150000Y-59950000D03*
X55650000Y-59950000D03*
X55150000Y-59950000D03*
D112*
X54450000Y-60650000D03*
X54450000Y-61150000D03*
X54450000Y-61650000D03*
X54450000Y-62150000D03*
X54450000Y-62650000D03*
X54450000Y-63150000D03*
D113*
X55150000Y-63850000D03*
X55650000Y-63850000D03*
X56150000Y-63850000D03*
X56650000Y-63850000D03*
X57150000Y-63850000D03*
X57650000Y-63850000D03*
D114*
X56400000Y-61900000D03*
%TD*%
D110*
%TO.C,REF\u002A\u002A*%
X57800000Y-42300000D03*
%TD*%
D63*
%TO.C,C6*%
X61865000Y-66000000D03*
X60905000Y-66000000D03*
%TD*%
%TO.C,C2*%
X61880000Y-60000000D03*
X60920000Y-60000000D03*
%TD*%
D115*
%TO.C,MIC1*%
X59874000Y-47462500D03*
X59052000Y-47462500D03*
D116*
X57137500Y-48300000D03*
D115*
X59052000Y-49137500D03*
X59874000Y-49137500D03*
%TD*%
D45*
%TO.C,R3*%
X53025000Y-59200000D03*
X51375000Y-59200000D03*
%TD*%
D19*
%TO.C,TP2*%
X53375000Y-56050000D03*
%TD*%
D53*
%TO.C,C8*%
X59700000Y-66600000D03*
X58150000Y-66600000D03*
%TD*%
D63*
%TO.C,C5*%
X61880000Y-62225000D03*
X60920000Y-62225000D03*
%TD*%
D117*
%TO.C,C1*%
X61400000Y-48780000D03*
X61400000Y-47820000D03*
%TD*%
M02*
