M48
; DRILL file {KiCad 5.99.0-1.20210520gite8102d8.fc33} date Mon May 24 11:12:17 2021
; FORMAT={-:-/ absolute / metric / decimal}
; #@! TF.CreationDate,2021-05-24T11:12:17+01:00
; #@! TF.GenerationSoftware,Kicad,Pcbnew,5.99.0-1.20210520gite8102d8.fc33
; #@! TF.FileFunction,Plated,1,4,PTH
FMAT,2
METRIC
; #@! TA.AperFunction,Plated,PTH,ViaDrill
T1C0.200
; #@! TA.AperFunction,Plated,PTH,ComponentDrill
T2C0.200
; #@! TA.AperFunction,Plated,PTH,ViaDrill
T3C0.300
; #@! TA.AperFunction,Plated,PTH,ViaDrill
T4C0.400
; #@! TA.AperFunction,Plated,PTH,ViaDrill
T5C0.500
; #@! TA.AperFunction,Plated,PTH,ComponentDrill
T6C0.500
; #@! TA.AperFunction,Plated,PTH,ComponentDrill
T7C0.550
%
G90
G05
T1
X-23.978Y-29.769
X-23.012Y-29.769
X-19.964Y-29.82
X-18.4Y10.95
X-15.8Y-33.05
X-15.4Y3.475
X-13.425Y2.225
X-12.1Y1.2
X-9.75Y-11.65
X-9.2Y4.9
X-8.45Y-10.65
X-8.45Y-11.3
X-8.45Y-12.0
X-5.55Y44.2
X-5.1Y42.25
X-5.1Y41.3
X-3.8Y30.4
X-3.25Y29.95
X-2.997Y32.766
X-2.2Y9.15
X-1.85Y32.75
X-0.75Y30.05
X-0.61Y32.766
X-0.05Y29.8
X0.3Y30.5
X0.4Y50.25
X0.562Y32.75
X0.6Y33.811
X3.6Y49.85
X3.85Y34.1
X4.0Y-9.95
X4.05Y-6.75
X4.2Y30.75
X4.209Y32.8
X4.9Y34.2
X5.45Y32.75
X5.45Y-0.75
X5.99Y6.48
X6.0Y3.05
X6.0Y0.8
X6.05Y2.05
X6.063Y30.465
X6.15Y4.15
X6.6Y29.8
X7.6Y30.75
X23.35Y44.2
T2
X36.325Y-10.075
X36.325Y-11.15
X36.325Y-12.225
X37.4Y-10.075
X37.4Y-11.15
X37.4Y-12.225
X38.475Y-10.075
X38.475Y-11.15
X38.475Y-12.225
T3
X-27.8Y32.4
X-27.8Y29.4
X-27.8Y26.4
X-27.8Y23.4
X-27.8Y20.2
X-27.8Y17.0
X-25.8Y13.8
X-25.8Y10.8
X-25.7Y-45.65
X-25.451Y-19.66
X-25.451Y-22.2
X-25.451Y-24.74
X-25.4Y12.8
X-24.994Y-0.914
X-24.486Y-0.914
X-23.4Y48.2
X-23.2Y-0.4
X-22.25Y-19.66
X-21.65Y-4.65
X-21.6Y-5.75
X-21.5Y-11.25
X-21.48Y-7.97
X-21.45Y-10.2
X-21.45Y-12.35
X-20.75Y-0.75
X-20.2Y10.4
X-20.1Y17.1
X-20.0Y15.1
X-19.4Y49.6
X-19.2Y-42.0
X-18.721Y-1.164
X-18.4Y-32.4
X-18.15Y-3.85
X-17.925Y-1.554
X-17.85Y-37.2
X-17.526Y-29.921
X-17.425Y3.225
X-17.4Y-2.25
X-17.325Y-35.525
X-17.17Y-21.641
X-16.925Y-1.0
X-16.75Y6.3
X-16.725Y8.075
X-16.65Y-29.55
X-16.6Y-30.7
X-16.15Y40.1
X-15.4Y60.0
X-15.4Y-3.9
X-15.25Y-6.0
X-15.0Y7.95
X-15.0Y6.425
X-14.8Y17.45
X-14.75Y-3.875
X-14.7Y50.55
X-14.681Y-7.417
X-14.45Y-23.6
X-14.364Y2.545
X-14.35Y3.4
X-14.326Y-18.339
X-14.326Y-19.101
X-14.326Y-19.914
X-14.326Y-20.676
X-14.25Y9.35
X-14.2Y37.2
X-14.2Y1.45
X-14.173Y-7.417
X-14.1Y46.55
X-14.05Y39.2
X-14.05Y38.4
X-13.9Y33.02
X-13.9Y31.2
X-13.9Y28.8
X-13.9Y26.1
X-13.9Y23.7
X-13.85Y-1.0
X-13.65Y52.15
X-13.625Y21.1
X-13.625Y6.4
X-13.55Y54.65
X-13.55Y9.05
X-13.525Y-45.5
X-13.5Y11.2
X-13.35Y1.4
X-13.3Y55.95
X-13.25Y3.0
X-13.25Y-35.7
X-13.25Y-36.3
X-13.047Y-30.786
X-13.047Y-31.752
X-13.047Y-32.818
X-13.047Y-33.936
X-12.85Y41.3
X-12.7Y-6.0
X-12.65Y-35.7
X-12.65Y-36.3
X-12.615Y38.775
X-12.6Y-25.35
X-12.55Y55.3
X-12.2Y-0.7
X-12.1Y0.4
X-12.0Y-5.2
X-11.95Y-21.55
X-11.95Y-25.35
X-11.923Y-2.21
X-11.84Y-4.39
X-11.725Y-18.15
X-11.7Y-12.85
X-11.5Y2.55
X-11.447Y-20.921
X-11.4Y-3.2
X-11.3Y7.3
X-11.3Y6.1
X-11.3Y4.9
X-11.3Y1.15
X-11.3Y-0.7
X-11.25Y-8.05
X-11.2Y60.4
X-11.2Y49.05
X-11.15Y-19.4
X-10.9Y36.0
X-10.5Y21.1
X-10.4Y18.2
X-10.4Y16.15
X-10.4Y13.6
X-10.4Y11.3
X-10.4Y8.9
X-10.25Y35.35
X-10.15Y30.15
X-10.15Y29.007
X-10.109Y32.715
X-10.109Y31.902
X-10.05Y33.95
X-9.95Y-18.5
X-9.825Y-42.9
X-9.726Y49.05
X-9.724Y3.5
X-9.7Y41.7
X-9.7Y41.0
X-9.7Y40.3
X-9.65Y0.2
X-9.6Y43.7
X-9.6Y-6.7
X-9.55Y-5.55
X-9.55Y-10.2
X-9.45Y2.8
X-9.4Y-0.6
X-9.39Y-30.786
X-9.3Y-2.8
X-9.25Y2.0
X-9.098Y1.292
X-9.05Y-19.55
X-8.948Y0.501
X-8.85Y46.2
X-8.8Y-1.575
X-8.65Y3.914
X-8.5Y-2.25
X-8.45Y-12.75
X-8.45Y-33.81
X-8.45Y-34.45
X-8.374Y-30.786
X-8.35Y18.2
X-8.35Y16.15
X-8.35Y4.65
X-8.3Y6.1
X-8.3Y-4.95
X-8.25Y-14.05
X-7.65Y30.75
X-7.55Y-13.35
X-7.55Y-39.1
X-7.55Y-39.6
X-7.4Y60.4
X-7.25Y52.85
X-7.25Y-30.786
X-7.15Y-36.175
X-7.15Y-36.7
X-7.15Y-37.225
X-7.0Y-39.1
X-7.0Y-39.6
X-6.65Y4.9
X-6.65Y-40.25
X-6.65Y-40.75
X-6.6Y-41.7
X-6.55Y7.3
X-6.5Y52.85
X-6.5Y3.3
X-6.5Y-4.65
X-6.5Y-5.874
X-6.5Y-7.1
X-6.45Y-0.95
X-6.45Y-1.9
X-6.4Y18.2
X-6.2Y-11.9
X-6.189Y-30.786
X-6.15Y-40.25
X-6.15Y-40.75
X-6.1Y1.0
X-6.087Y-2.575
X-5.9Y-9.1
X-5.9Y-10.3
X-5.768Y0.356
X-5.75Y16.3
X-5.75Y-33.81
X-5.75Y-34.45
X-5.45Y40.2
X-5.45Y39.65
X-5.45Y39.1
X-5.45Y38.55
X-5.45Y-41.7
X-5.4Y36.75
X-5.4Y35.7
X-5.283Y34.646
X-5.283Y33.579
X-5.25Y48.65
X-5.173Y-30.786
X-5.075Y-10.7
X-5.0Y-5.35
X-4.95Y49.6
X-4.9Y0.775
X-4.8Y2.65
X-4.7Y-4.45
X-4.675Y-6.475
X-4.6Y33.0
X-4.45Y1.45
X-4.375Y-16.873
X-4.106Y-30.786
X-4.05Y15.0
X-4.05Y13.75
X-4.0Y60.3
X-4.0Y59.0
X-4.0Y57.55
X-4.0Y56.4
X-4.0Y55.25
X-4.0Y54.3
X-4.0Y53.35
X-4.0Y5.8
X-4.0Y2.125
X-3.95Y-0.3
X-3.9Y49.6
X-3.75Y-35.7
X-3.75Y-36.3
X-3.7Y-3.05
X-3.4Y-3.85
X-3.2Y44.75
X-3.15Y-35.7
X-3.15Y-36.3
X-3.09Y-30.786
X-3.026Y-9.4
X-2.95Y20.1
X-2.9Y-5.1
X-2.775Y-15.273
X-2.565Y-4.242
X-2.55Y56.7
X-2.4Y50.7
X-2.225Y7.925
X-2.2Y-3.2
X-2.15Y-2.05
X-2.15Y-33.711
X-2.15Y-34.27
X-2.0Y49.65
X-1.8Y-44.0
X-1.532Y-32.034
X-1.532Y-32.593
X-1.532Y-33.152
X-1.532Y-33.711
X-1.532Y-34.27
X-1.45Y43.25
X-1.45Y41.8
X-1.45Y40.3
X-1.45Y38.85
X-1.35Y-7.45
X-1.25Y-28.4
X-1.219Y22.8
X-1.219Y16.25
X-1.219Y2.819
X-1.219Y-0.181
X-1.1Y-13.95
X-1.0Y-37.85
X-0.55Y-31.8
X-0.25Y50.7
X-0.197Y-1.674
X-0.102Y23.05
X-0.102Y20.6
X-0.102Y14.3
X-0.102Y10.9
X-0.05Y16.7
X-0.05Y-14.0
X-0.01Y-44.23
X0.0Y56.75
X0.0Y54.3
X0.0Y53.35
X0.0Y52.65
X0.0Y6.4
X0.0Y1.3
X0.1Y-4.6
X0.184Y8.814
X0.325Y24.475
X0.35Y44.75
X0.35Y40.3
X0.35Y38.85
X0.4Y41.8
X0.92Y-29.34
X0.92Y-29.87
X1.189Y-43.848
X1.25Y60.35
X1.25Y59.1
X1.25Y57.7
X1.25Y55.4
X1.5Y-29.34
X1.5Y-29.87
X2.05Y-46.8
X2.1Y-39.45
X2.1Y-39.992
X2.1Y-40.5
X2.1Y-41.0
X2.15Y46.25
X2.2Y44.75
X2.2Y43.25
X2.425Y-20.525
X2.55Y60.35
X2.55Y59.1
X2.55Y57.7
X2.55Y56.1
X2.925Y-24.6
X3.025Y-22.85
X3.05Y-9.4
X3.21Y-37.886
X3.21Y-38.486
X3.229Y-32.6
X3.475Y-19.65
X3.81Y-37.886
X3.81Y-38.486
X3.85Y8.9
X3.904Y-43.718
X4.0Y46.25
X4.0Y44.75
X4.05Y43.25
X4.05Y38.9
X4.05Y37.4
X4.05Y24.7
X4.05Y23.05
X4.05Y20.6
X4.05Y17.6
X4.05Y14.3
X4.05Y10.9
X4.225Y-16.125
X4.25Y-7.9
X4.574Y-4.375
X4.65Y-23.3
X4.65Y-23.9
X4.65Y-30.786
X4.675Y-24.65
X5.8Y46.25
X5.8Y37.4
X5.8Y34.15
X5.85Y44.75
X5.85Y43.3
X5.85Y40.3
X5.85Y38.85
X6.03Y-33.82
X6.03Y-34.46
X6.226Y-30.786
X6.5Y-43.723
X6.8Y49.8
X6.85Y5.316
X6.9Y34.15
X7.13Y-40.1
X7.25Y51.75
X7.35Y-30.786
X7.45Y-36.175
X7.45Y-36.7
X7.45Y-37.225
X7.65Y46.25
X7.65Y44.75
X7.65Y43.3
X7.65Y40.35
X7.65Y38.85
X7.65Y37.4
X7.65Y-40.1
X7.75Y34.05
X7.85Y-4.675
X8.0Y51.75
X8.17Y-40.11
X8.35Y-18.65
X8.411Y-30.786
X8.5Y34.095
X8.73Y-33.82
X8.73Y-34.46
X9.2Y33.2
X9.2Y25.7
X9.2Y-26.4
X9.2Y-27.1
X9.4Y-4.525
X9.427Y-30.786
X9.45Y46.3
X9.45Y44.75
X9.45Y43.3
X9.5Y40.35
X9.5Y38.9
X9.5Y37.4
X9.975Y-43.475
X10.35Y-29.0
X10.35Y-37.13
X10.5Y-22.95
X10.65Y60.35
X10.65Y59.2
X10.65Y57.9
X10.65Y56.6
X10.65Y55.15
X10.65Y53.6
X10.85Y-35.7
X10.85Y-36.3
X11.15Y40.4
X11.15Y38.9
X11.2Y46.3
X11.225Y-30.775
X11.25Y44.75
X11.25Y43.25
X11.25Y-32.3
X11.25Y-32.859
X11.37Y-38.54
X11.44Y-44.35
X11.45Y-24.0
X11.45Y-24.65
X11.45Y-35.7
X11.45Y-36.3
X11.8Y49.75
X11.8Y-25.3
X12.286Y-33.558
X12.286Y-34.117
X12.3Y60.35
X12.325Y-30.775
X12.45Y49.75
X12.65Y-18.65
X12.794Y-33.0
X12.794Y-33.558
X12.794Y-34.117
X13.2Y44.2
X13.2Y42.6
X13.207Y41.793
X13.225Y43.412
X13.36Y38.202
X13.4Y33.9
X13.4Y33.25
X13.45Y46.6
X13.45Y45.15
X13.462Y40.081
X13.55Y30.75
X13.55Y30.1
X13.95Y-41.95
X14.09Y-44.14
X14.6Y-41.95
X14.65Y45.85
X14.75Y-14.8
X15.2Y-41.95
X15.57Y-20.5
X15.6Y32.35
X15.65Y-13.95
X15.65Y-23.55
X15.697Y41.148
X15.7Y57.2
X15.8Y53.8
X15.8Y52.1
X15.8Y51.35
X15.8Y37.5
X15.85Y35.5
X15.9Y34.0
X15.9Y33.3
X15.9Y-41.95
X16.0Y38.7
X16.31Y-19.96
X16.35Y-31.4
X16.35Y-31.95
X16.85Y10.45
X16.9Y25.55
X16.9Y24.35
X16.9Y22.7
X16.9Y21.0
X16.9Y19.1
X16.9Y17.15
X16.9Y15.15
X16.9Y13.55
X16.9Y-31.4
X16.9Y-31.95
X16.95Y37.4
X17.0Y35.5
X17.35Y27.5
X17.45Y-44.5
X17.76Y-20.48
X18.0Y35.05
X18.1Y9.15
X18.3Y37.4
X18.35Y-26.32
X18.4Y50.2
X18.45Y27.5
X18.55Y-37.3
X18.8Y35.05
X18.9Y22.7
X18.9Y21.05
X18.9Y19.15
X18.9Y17.2
X18.9Y15.2
X18.9Y13.6
X18.9Y11.75
X19.1Y-44.7
X19.175Y36.725
X19.35Y23.45
X19.4Y7.75
X19.45Y10.8
X19.7Y-24.025
X19.75Y30.65
X19.925Y31.95
X19.998Y-21.098
X20.0Y35.85
X20.5Y6.65
X20.681Y22.932
X20.8Y9.45
X21.6Y-14.05
X21.8Y8.45
X22.0Y-14.5
X22.05Y-45.9
X22.45Y5.5
X22.457Y6.332
X22.5Y7.055
X22.55Y4.7
X22.7Y3.7
X22.7Y2.5
X22.7Y1.3
X22.7Y0.1
X22.7Y-3.5
X22.7Y-4.7
X22.7Y-5.9
X22.7Y-7.1
X22.7Y-8.3
X22.7Y-9.5
X22.7Y-10.7
X22.7Y-11.9
X22.75Y8.15
X25.35Y31.45
X25.4Y47.8
X25.85Y-34.5
X25.85Y-35.05
X26.4Y-34.5
X26.4Y-35.05
X26.4Y-47.2
X26.7Y-16.2
X26.9Y20.6
X27.25Y6.1
X27.25Y4.9
X27.25Y3.7
X27.25Y2.5
X27.25Y1.3
X27.25Y0.1
X27.25Y-1.1
X27.25Y-2.3
X27.25Y-3.5
X27.25Y-4.7
X27.25Y-5.9
X27.25Y-7.1
X27.25Y-8.3
X27.25Y-9.5
X27.25Y-10.7
X27.25Y-11.9
X27.4Y45.9
X27.6Y37.2
X27.6Y16.0
X27.6Y11.0
X27.6Y-20.8
X27.7Y39.3
X27.7Y-35.5
X31.65Y-8.75
X31.8Y-20.75
X31.9Y-27.8
X31.95Y-13.8
X32.0Y-6.2
X33.6Y24.25
X33.65Y-8.0
X34.0Y-11.8
X34.575Y32.3
X34.65Y-14.2
X35.35Y-8.7
X35.375Y33.3
X35.5Y34.5
X36.664Y-6.075
X37.253Y-6.616
X37.8Y-7.2
X38.425Y-7.775
X38.9Y-22.25
X38.95Y-27.1
X39.4Y33.8
X39.45Y-24.25
X39.45Y-25.35
X39.55Y-13.3
X39.65Y37.8
X39.7Y35.15
X40.05Y35.95
X40.1Y-14.75
X40.15Y-15.7
X40.4Y-11.1
X41.283Y-8.217
X41.65Y-13.1
X43.674Y-13.294
X43.85Y-10.8
X44.875Y21.276
X45.1Y18.95
X45.35Y12.65
X46.7Y17.65
X46.7Y15.95
X48.2Y-12.55
X48.35Y13.0
X48.4Y14.25
X49.158Y-12.508
X49.9Y17.45
X49.9Y9.4
X49.9Y1.65
X49.95Y19.0
X50.0Y-12.55
X50.7Y-13.0
X51.3Y-13.0
T4
X32.9Y-21.8
X33.8Y28.95
X33.8Y28.15
X36.1Y36.775
X37.8Y26.85
X39.8Y-8.9
X40.475Y37.025
X41.075Y17.075
X41.35Y-9.15
T5
X-22.55Y-9.1
X-21.9Y-46.8
X-21.65Y-9.1
X-17.7Y15.5
X-17.675Y36.2
X-9.9Y-46.8
X13.6Y-22.4
X14.1Y-46.8
X23.798Y-19.698
T6
G00X26.575Y35.7
M15
G01X27.225Y35.7
M16
G05
G00X26.575Y28.7
M15
G01X27.225Y28.7
M16
G05
T7
G00X24.2Y34.55
M15
G01X24.2Y34.85
M16
G05
G00X24.2Y29.55
M15
G01X24.2Y29.85
M16
G05
T0
M30
