%TF.GenerationSoftware,KiCad,Pcbnew,5.99.0-1.20210520gite8102d8.fc33*%
%TF.CreationDate,2021-05-24T11:11:45+01:00*%
%TF.ProjectId,bugg-panel-r3,62756767-2d70-4616-9e65-6c2d72332e6b,rev?*%
%TF.SameCoordinates,Original*%
%TF.FileFunction,Soldermask,Top*%
%TF.FilePolarity,Negative*%
%FSLAX46Y46*%
G04 Gerber Fmt 4.6, Leading zero omitted, Abs format (unit mm)*
G04 Created by KiCad (PCBNEW 5.99.0-1.20210520gite8102d8.fc33) date 2021-05-24 11:11:45*
%MOMM*%
%LPD*%
G01*
G04 APERTURE LIST*
G04 Aperture macros list*
%AMRoundRect*
0 Rectangle with rounded corners*
0 $1 Rounding radius*
0 $2 $3 $4 $5 $6 $7 $8 $9 X,Y pos of 4 corners*
0 Add a 4 corners polygon primitive as box body*
4,1,4,$2,$3,$4,$5,$6,$7,$8,$9,$2,$3,0*
0 Add four circle primitives for the rounded corners*
1,1,$1+$1,$2,$3*
1,1,$1+$1,$4,$5*
1,1,$1+$1,$6,$7*
1,1,$1+$1,$8,$9*
0 Add four rect primitives between the rounded corners*
20,1,$1+$1,$2,$3,$4,$5,0*
20,1,$1+$1,$4,$5,$6,$7,0*
20,1,$1+$1,$6,$7,$8,$9,0*
20,1,$1+$1,$8,$9,$2,$3,0*%
%AMRotRect*
0 Rectangle, with rotation*
0 The origin of the aperture is its center*
0 $1 length*
0 $2 width*
0 $3 Rotation angle, in degrees counterclockwise*
0 Add horizontal line*
21,1,$1,$2,0,0,$3*%
%AMFreePoly0*
4,1,21,1.372500,0.787500,0.862500,0.787500,0.862500,0.532500,1.372500,0.532500,1.372500,0.127500,0.862500,0.127500,0.862500,-0.127500,1.372500,-0.127500,1.372500,-0.532500,0.862500,-0.532500,0.862500,-0.787500,1.372500,-0.787500,1.372500,-1.195000,0.612500,-1.195000,0.612500,-1.117500,-0.862500,-1.117500,-0.862500,1.117500,0.612500,1.117500,0.612500,1.195000,1.372500,1.195000,
1.372500,0.787500,1.372500,0.787500,$1*%
%AMFreePoly1*
4,1,59,0.185535,1.453533,0.356177,1.392770,0.509116,1.295712,0.636751,1.167183,0.732739,1.013570,0.792309,0.842508,0.812500,0.662500,0.812183,0.639814,0.786974,0.460439,0.722651,0.291108,0.622411,0.140235,0.491237,0.015319,0.335647,-0.077430,0.163376,-0.133405,0.009760,-0.147385,0.000000,-0.150000,-0.004810,-0.148711,-0.017016,-0.149822,-0.196562,-0.125865,-0.366338,-0.062726,
-0.517907,0.036458,-0.643735,0.166757,-0.737569,0.321695,-0.794745,0.493572,-0.811923,0.668761,-0.512462,0.668761,-0.493621,0.524679,-0.435098,0.391675,-0.341598,0.280444,-0.220637,0.199925,-0.081939,0.156593,0.063346,0.153930,0.203538,0.192151,0.327369,0.268183,0.424882,0.375914,0.488239,0.506683,0.512347,0.649979,0.512500,0.662500,0.491900,0.806342,0.431757,0.938620,
0.336905,1.048701,0.214969,1.127736,0.075752,1.169371,-0.069554,1.170258,-0.209269,1.130328,-0.332161,1.052788,-0.428351,0.943874,-0.490106,0.812340,-0.512462,0.668761,-0.811923,0.668761,-0.812421,0.673844,-0.789718,0.853553,-0.727766,1.023766,-0.629642,1.176024,-0.500225,1.302759,-0.345946,1.397672,-0.174472,1.456046,0.005672,1.474980,0.185535,1.453533,0.185535,1.453533,
$1*%
%AMFreePoly2*
4,1,112,-2.563245,3.679731,-2.180727,3.619146,-1.806637,3.518909,-1.445074,3.380118,-1.100000,3.204294,-0.775195,2.993363,-0.474217,2.749636,-0.200364,2.475783,0.043363,2.174805,0.254294,1.850000,0.430118,1.504926,0.568909,1.143363,0.669146,0.769273,0.729731,0.386755,0.750000,0.000000,0.729731,-0.386755,0.669146,-0.769273,0.568909,-1.143363,0.430118,-1.504926,0.254294,-1.850000,
0.043363,-2.174805,-0.200364,-2.475783,-0.474217,-2.749636,-0.775195,-2.993363,-1.100000,-3.204294,-1.445074,-3.380118,-1.806637,-3.518909,-2.180727,-3.619146,-2.563245,-3.679731,-2.950000,-3.700000,-3.336755,-3.679731,-3.719273,-3.619146,-4.093363,-3.518909,-4.454926,-3.380118,-4.800000,-3.204294,-5.124805,-2.993363,-5.425783,-2.749636,-5.699636,-2.475783,-5.943363,-2.174805,-6.154294,-1.850000,
-6.330118,-1.504926,-6.468909,-1.143363,-6.569146,-0.769273,-6.629731,-0.386755,-6.645172,-0.092126,-5.148070,-0.092126,-5.116577,-0.382026,-5.047019,-0.665214,-4.940620,-0.936714,-4.799247,-1.191758,-4.625384,-1.425864,-4.422087,-1.634919,-4.192927,-1.815250,-3.941931,-1.963689,-3.673507,-2.077628,-3.392371,-2.155066,-3.103464,-2.194641,-2.811861,-2.195659,-2.522684,-2.158101,-2.241015,-2.082628,
-1.971803,-1.970566,-1.719776,-1.823883,-1.489362,-1.645156,-1.284611,-1.437525,-1.109119,-1.204639,-0.965968,-0.950589,-0.857676,-0.679837,-0.786143,-0.397142,-0.752626,-0.107469,-0.750000,0.000000,-0.769326,0.290964,-0.826964,0.576816,-0.921901,0.852534,-1.052470,1.113274,-1.216376,1.354455,-1.410741,1.571840,-1.632148,1.761609,-1.876709,1.920429,-2.140126,2.045508,-2.417772,2.134651,
-2.704768,2.186289,-2.996073,2.199518,-3.286569,2.174102,-3.571151,2.110491,-3.844821,2.009800,-4.102769,1.873799,-4.340464,1.704878,-4.553731,1.506004,-4.738822,1.280671,-4.892485,1.032837,-5.012020,0.766859,-5.095329,0.487407,-5.140946,0.199392,-5.148070,-0.092126,-6.645172,-0.092126,-6.650000,0.000000,-6.629731,0.386755,-6.569146,0.769273,-6.468909,1.143363,-6.330118,1.504926,
-6.154294,1.850000,-5.943363,2.174805,-5.699636,2.475783,-5.425783,2.749636,-5.124805,2.993363,-4.800000,3.204294,-4.454926,3.380118,-4.093363,3.518909,-3.719273,3.619146,-3.336755,3.679731,-2.950000,3.700000,-2.563245,3.679731,-2.563245,3.679731,$1*%
%AMFreePoly3*
4,1,103,-2.196018,2.981970,-1.854730,2.937039,-1.520868,2.853179,-1.198857,2.731501,-0.892966,2.573619,-0.607249,2.381624,-0.345492,2.158063,-0.111165,1.905898,0.092625,1.628471,0.263178,1.329459,0.398233,1.012826,0.496001,0.682769,0.555185,0.343662,0.575000,0.000000,0.569100,-0.187744,0.527745,-0.529483,0.447385,-0.864205,0.329086,-1.187472,0.174416,-1.495000,-0.014576,-1.782712,
-0.235384,-2.046796,-0.485082,-2.283750,-0.760359,-2.490435,-1.057568,-2.664110,-1.372770,-2.802473,-1.701785,-2.903691,-2.040254,-2.966423,-2.383689,-2.989836,-2.727540,-2.973620,-3.067248,-2.917991,-3.398311,-2.823685,-3.716341,-2.691953,-4.017122,-2.524540,-4.296668,-2.323666,-4.551273,-2.091993,-4.777563,-1.832592,-4.972539,-1.548901,-5.133616,-1.244680,-5.258659,-0.923961,-5.346011,-0.590995,
-5.394514,-0.250197,-5.398880,-0.083468,-4.253106,-0.083468,-4.221804,-0.347936,-4.152653,-0.605115,-4.047100,-0.849617,-3.907357,-1.076322,-3.736352,-1.280480,-3.537667,-1.457813,-3.315464,-1.604607,-3.074397,-1.717788,-2.819517,-1.794984,-2.556163,-1.834577,-2.289852,-1.835739,-2.026162,-1.798445,-1.770618,-1.723477,-1.528573,-1.612404,-1.305097,-1.467554,-1.104872,-1.291962,-0.932092,-1.089304,
-0.790376,-0.863828,-0.682694,-0.620255,-0.611301,-0.363690,-0.577693,-0.099505,-0.575000,0.000000,-0.594273,0.265615,-0.651686,0.525667,-0.746039,0.774706,-0.875354,1.007516,-1.036921,1.219221,-1.227358,1.405385,-1.442673,1.562108,-1.678358,1.686107,-1.929474,1.774786,-2.190760,1.826285,-2.456745,1.839526,-2.721854,1.814233,-2.980536,1.750934,-3.227371,1.650955,-3.457187,1.516392,
-3.665172,1.350063,-3.846967,1.155452,-3.998765,0.936636,-4.117386,0.698199,-4.200344,0.445136,-4.245902,0.182748,-4.253106,-0.083468,-5.398880,-0.083468,-5.403525,0.093918,-5.372924,0.436788,-5.303118,0.773869,-5.195032,1.100692,-5.050097,1.412927,-4.870236,1.706434,-4.657832,1.977322,-4.415701,2.222003,-4.147051,2.437232,-3.855443,2.620157,-3.544744,2.768353,-3.219070,2.879856,
-2.882739,2.953188,-2.540208,2.987377,-2.196018,2.981970,-2.196018,2.981970,$1*%
%AMFreePoly4*
4,1,25,-1.500000,1.420000,-1.360000,1.280000,-1.205000,1.155000,-1.035000,1.045000,-0.860000,0.950000,-0.675000,0.875000,-0.480000,0.820000,-0.280000,0.780000,-0.085000,0.765000,0.085000,0.765000,0.280000,0.780000,0.480000,0.820000,0.675000,0.875000,0.860000,0.950000,1.035000,1.045000,1.205000,1.155000,1.360000,1.280000,1.500000,1.420000,1.645000,1.595000,3.555000,1.595000,
3.555000,-0.755000,-3.555000,-0.755000,-3.555000,1.595000,-1.645000,1.595000,-1.500000,1.420000,-1.500000,1.420000,$1*%
G04 Aperture macros list end*
%ADD10C,0.150000*%
%ADD11C,0.200000*%
%ADD12R,1.350000X0.400000*%
%ADD13O,0.950000X1.250000*%
%ADD14R,1.550000X1.200000*%
%ADD15R,1.550000X1.500000*%
%ADD16O,1.550000X0.890000*%
%ADD17R,0.405000X0.990000*%
%ADD18FreePoly0,90.000000*%
%ADD19R,1.200000X1.200000*%
%ADD20RoundRect,0.200000X-0.275000X0.200000X-0.275000X-0.200000X0.275000X-0.200000X0.275000X0.200000X0*%
%ADD21R,0.700000X0.450000*%
%ADD22C,1.000000*%
%ADD23RoundRect,0.200000X0.275000X-0.200000X0.275000X0.200000X-0.275000X0.200000X-0.275000X-0.200000X0*%
%ADD24RoundRect,0.250000X-0.250000X-1.200000X0.250000X-1.200000X0.250000X1.200000X-0.250000X1.200000X0*%
%ADD25RoundRect,0.250000X-0.650000X-1.550000X0.650000X-1.550000X0.650000X1.550000X-0.650000X1.550000X0*%
%ADD26RoundRect,0.050000X-0.287500X-0.075000X0.287500X-0.075000X0.287500X0.075000X-0.287500X0.075000X0*%
%ADD27RoundRect,0.050000X0.075000X-0.287500X0.075000X0.287500X-0.075000X0.287500X-0.075000X-0.287500X0*%
%ADD28RoundRect,0.050000X-0.275000X-0.075000X0.275000X-0.075000X0.275000X0.075000X-0.275000X0.075000X0*%
%ADD29RoundRect,0.050050X0.124950X0.274950X-0.124950X0.274950X-0.124950X-0.274950X0.124950X-0.274950X0*%
%ADD30RoundRect,0.049950X-0.175050X-0.675050X0.175050X-0.675050X0.175050X0.675050X-0.175050X0.675050X0*%
%ADD31RoundRect,0.225000X0.250000X-0.225000X0.250000X0.225000X-0.250000X0.225000X-0.250000X-0.225000X0*%
%ADD32RoundRect,0.250000X-0.475000X0.250000X-0.475000X-0.250000X0.475000X-0.250000X0.475000X0.250000X0*%
%ADD33RoundRect,0.200000X-0.200000X-0.275000X0.200000X-0.275000X0.200000X0.275000X-0.200000X0.275000X0*%
%ADD34R,0.900000X1.200000*%
%ADD35RoundRect,0.150000X0.150000X-0.825000X0.150000X0.825000X-0.150000X0.825000X-0.150000X-0.825000X0*%
%ADD36RoundRect,0.250000X-0.650000X0.325000X-0.650000X-0.325000X0.650000X-0.325000X0.650000X0.325000X0*%
%ADD37R,1.500000X1.100000*%
%ADD38RoundRect,0.225000X-0.225000X-0.250000X0.225000X-0.250000X0.225000X0.250000X-0.225000X0.250000X0*%
%ADD39R,0.450000X0.700000*%
%ADD40R,0.550000X0.300000*%
%ADD41R,0.550000X0.400000*%
%ADD42R,0.300000X0.550000*%
%ADD43R,0.400000X0.550000*%
%ADD44C,0.850000*%
%ADD45R,2.350000X1.000000*%
%ADD46RoundRect,0.200000X0.335876X0.053033X0.053033X0.335876X-0.335876X-0.053033X-0.053033X-0.335876X0*%
%ADD47RoundRect,0.135000X-0.185000X0.135000X-0.185000X-0.135000X0.185000X-0.135000X0.185000X0.135000X0*%
%ADD48R,1.050000X2.200000*%
%ADD49R,1.000000X1.050000*%
%ADD50C,2.000000*%
%ADD51R,0.522000X0.725000*%
%ADD52FreePoly1,90.000000*%
%ADD53RoundRect,0.200000X0.200000X0.275000X-0.200000X0.275000X-0.200000X-0.275000X0.200000X-0.275000X0*%
%ADD54C,4.400000*%
%ADD55FreePoly2,90.000000*%
%ADD56R,0.500000X1.000000*%
%ADD57R,1.000000X0.500000*%
%ADD58R,1.000000X1.000000*%
%ADD59R,0.900000X1.000000*%
%ADD60C,0.800000*%
%ADD61R,0.300000X1.400000*%
%ADD62R,1.000000X3.500000*%
%ADD63RoundRect,0.140000X-0.140000X-0.170000X0.140000X-0.170000X0.140000X0.170000X-0.140000X0.170000X0*%
%ADD64RoundRect,0.225000X0.225000X0.250000X-0.225000X0.250000X-0.225000X-0.250000X0.225000X-0.250000X0*%
%ADD65C,3.700000*%
%ADD66FreePoly3,0.000000*%
%ADD67RoundRect,0.225000X-0.250000X0.225000X-0.250000X-0.225000X0.250000X-0.225000X0.250000X0.225000X0*%
%ADD68RoundRect,0.075000X-0.350000X-0.075000X0.350000X-0.075000X0.350000X0.075000X-0.350000X0.075000X0*%
%ADD69RoundRect,0.075000X-0.075000X-0.350000X0.075000X-0.350000X0.075000X0.350000X-0.075000X0.350000X0*%
%ADD70R,2.650000X2.650000*%
%ADD71RoundRect,0.250000X0.650000X-0.325000X0.650000X0.325000X-0.650000X0.325000X-0.650000X-0.325000X0*%
%ADD72RoundRect,0.062500X-0.203293X-0.291682X0.291682X0.203293X0.203293X0.291682X-0.291682X-0.203293X0*%
%ADD73RoundRect,0.062500X0.203293X-0.291682X0.291682X-0.203293X-0.203293X0.291682X-0.291682X0.203293X0*%
%ADD74RotRect,2.600000X2.600000X45.000000*%
%ADD75C,1.730000*%
%ADD76FreePoly4,180.000000*%
%ADD77FreePoly4,0.000000*%
%ADD78RoundRect,0.140000X-0.170000X0.140000X-0.170000X-0.140000X0.170000X-0.140000X0.170000X0.140000X0*%
%ADD79RoundRect,0.140000X0.140000X0.170000X-0.140000X0.170000X-0.140000X-0.170000X0.140000X-0.170000X0*%
%ADD80R,0.700000X0.200000*%
%ADD81C,5.500000*%
%ADD82RoundRect,0.225000X-0.017678X0.335876X-0.335876X0.017678X0.017678X-0.335876X0.335876X-0.017678X0*%
%ADD83RoundRect,0.250000X-0.375000X-0.850000X0.375000X-0.850000X0.375000X0.850000X-0.375000X0.850000X0*%
%ADD84R,1.300000X0.300000*%
%ADD85R,2.200000X1.800000*%
%ADD86R,0.400000X0.650000*%
%ADD87RoundRect,0.225000X-0.335876X-0.017678X-0.017678X-0.335876X0.335876X0.017678X0.017678X0.335876X0*%
%ADD88RoundRect,0.147500X-0.147500X-0.172500X0.147500X-0.172500X0.147500X0.172500X-0.147500X0.172500X0*%
%ADD89RoundRect,0.250000X0.475000X-0.250000X0.475000X0.250000X-0.475000X0.250000X-0.475000X-0.250000X0*%
%ADD90R,1.100000X1.100000*%
%ADD91R,1.000000X0.400000*%
%ADD92RoundRect,0.250000X-0.325000X-0.650000X0.325000X-0.650000X0.325000X0.650000X-0.325000X0.650000X0*%
%ADD93R,4.700000X1.200000*%
%ADD94RoundRect,0.250000X-0.250000X-0.475000X0.250000X-0.475000X0.250000X0.475000X-0.250000X0.475000X0*%
%ADD95R,0.700000X0.900000*%
%ADD96R,0.700000X0.700000*%
%ADD97R,0.650000X1.200000*%
%ADD98R,0.500000X1.400000*%
%ADD99R,0.600000X0.300000*%
%ADD100R,2.900000X0.450000*%
%ADD101R,0.700000X0.750000*%
%ADD102R,1.900000X0.450000*%
%ADD103R,2.400000X0.450000*%
%ADD104RotRect,0.300000X0.550000X225.000000*%
%ADD105RotRect,0.400000X0.550000X225.000000*%
%ADD106R,0.650000X0.400000*%
%ADD107R,3.200000X3.200000*%
%ADD108C,8.000000*%
%ADD109RoundRect,0.135000X-0.135000X-0.185000X0.135000X-0.185000X0.135000X0.185000X-0.135000X0.185000X0*%
%ADD110RoundRect,0.135000X0.135000X0.185000X-0.135000X0.185000X-0.135000X-0.185000X0.135000X-0.185000X0*%
%ADD111R,0.700000X0.640000*%
%ADD112R,0.550000X1.550000*%
%ADD113R,0.820000X0.520000*%
%ADD114R,1.850000X0.570000*%
%ADD115R,0.450000X1.300000*%
%ADD116R,1.450000X0.570000*%
%ADD117R,1.150000X0.520000*%
%ADD118R,1.960000X0.570000*%
%ADD119R,1.650000X0.520000*%
%ADD120R,1.700000X1.010000*%
%ADD121RoundRect,0.250000X0.325000X0.650000X-0.325000X0.650000X-0.325000X-0.650000X0.325000X-0.650000X0*%
%ADD122RoundRect,0.250000X0.850000X-0.375000X0.850000X0.375000X-0.850000X0.375000X-0.850000X-0.375000X0*%
G04 APERTURE END LIST*
D10*
X40411904Y-28692857D02*
X39611904Y-28692857D01*
X39916666Y-28692857D02*
X39878571Y-28616666D01*
X39878571Y-28464285D01*
X39916666Y-28388095D01*
X39954761Y-28350000D01*
X40030952Y-28311904D01*
X40259523Y-28311904D01*
X40335714Y-28350000D01*
X40373809Y-28388095D01*
X40411904Y-28464285D01*
X40411904Y-28616666D01*
X40373809Y-28692857D01*
X39878571Y-27626190D02*
X40411904Y-27626190D01*
X39878571Y-27969047D02*
X40297619Y-27969047D01*
X40373809Y-27930952D01*
X40411904Y-27854761D01*
X40411904Y-27740476D01*
X40373809Y-27664285D01*
X40335714Y-27626190D01*
X39878571Y-26902380D02*
X40526190Y-26902380D01*
X40602380Y-26940476D01*
X40640476Y-26978571D01*
X40678571Y-27054761D01*
X40678571Y-27169047D01*
X40640476Y-27245238D01*
X40373809Y-26902380D02*
X40411904Y-26978571D01*
X40411904Y-27130952D01*
X40373809Y-27207142D01*
X40335714Y-27245238D01*
X40259523Y-27283333D01*
X40030952Y-27283333D01*
X39954761Y-27245238D01*
X39916666Y-27207142D01*
X39878571Y-27130952D01*
X39878571Y-26978571D01*
X39916666Y-26902380D01*
X39878571Y-26178571D02*
X40526190Y-26178571D01*
X40602380Y-26216666D01*
X40640476Y-26254761D01*
X40678571Y-26330952D01*
X40678571Y-26445238D01*
X40640476Y-26521428D01*
X40373809Y-26178571D02*
X40411904Y-26254761D01*
X40411904Y-26407142D01*
X40373809Y-26483333D01*
X40335714Y-26521428D01*
X40259523Y-26559523D01*
X40030952Y-26559523D01*
X39954761Y-26521428D01*
X39916666Y-26483333D01*
X39878571Y-26407142D01*
X39878571Y-26254761D01*
X39916666Y-26178571D01*
X40107142Y-25797619D02*
X40107142Y-25188095D01*
X40411904Y-24807142D02*
X39878571Y-24807142D01*
X39954761Y-24807142D02*
X39916666Y-24769047D01*
X39878571Y-24692857D01*
X39878571Y-24578571D01*
X39916666Y-24502380D01*
X39992857Y-24464285D01*
X40411904Y-24464285D01*
X39992857Y-24464285D02*
X39916666Y-24426190D01*
X39878571Y-24350000D01*
X39878571Y-24235714D01*
X39916666Y-24159523D01*
X39992857Y-24121428D01*
X40411904Y-24121428D01*
X40411904Y-23740476D02*
X39878571Y-23740476D01*
X39611904Y-23740476D02*
X39650000Y-23778571D01*
X39688095Y-23740476D01*
X39650000Y-23702380D01*
X39611904Y-23740476D01*
X39688095Y-23740476D01*
X40373809Y-23016666D02*
X40411904Y-23092857D01*
X40411904Y-23245238D01*
X40373809Y-23321428D01*
X40335714Y-23359523D01*
X40259523Y-23397619D01*
X40030952Y-23397619D01*
X39954761Y-23359523D01*
X39916666Y-23321428D01*
X39878571Y-23245238D01*
X39878571Y-23092857D01*
X39916666Y-23016666D01*
X40107142Y-22673809D02*
X40107142Y-22064285D01*
X40411904Y-21683333D02*
X39878571Y-21683333D01*
X40030952Y-21683333D02*
X39954761Y-21645238D01*
X39916666Y-21607142D01*
X39878571Y-21530952D01*
X39878571Y-21454761D01*
X39611904Y-21264285D02*
X39611904Y-20769047D01*
X39916666Y-21035714D01*
X39916666Y-20921428D01*
X39954761Y-20845238D01*
X39992857Y-20807142D01*
X40069047Y-20769047D01*
X40259523Y-20769047D01*
X40335714Y-20807142D01*
X40373809Y-20845238D01*
X40411904Y-20921428D01*
X40411904Y-21150000D01*
X40373809Y-21226190D01*
X40335714Y-21264285D01*
D11*
X32715714Y44173142D02*
X32715714Y45373142D01*
X32715714Y44916000D02*
X32830000Y44973142D01*
X33058571Y44973142D01*
X33172857Y44916000D01*
X33230000Y44858857D01*
X33287142Y44744571D01*
X33287142Y44401714D01*
X33230000Y44287428D01*
X33172857Y44230285D01*
X33058571Y44173142D01*
X32830000Y44173142D01*
X32715714Y44230285D01*
X34315714Y44973142D02*
X34315714Y44173142D01*
X33801428Y44973142D02*
X33801428Y44344571D01*
X33858571Y44230285D01*
X33972857Y44173142D01*
X34144285Y44173142D01*
X34258571Y44230285D01*
X34315714Y44287428D01*
X35401428Y44973142D02*
X35401428Y44001714D01*
X35344285Y43887428D01*
X35287142Y43830285D01*
X35172857Y43773142D01*
X35001428Y43773142D01*
X34887142Y43830285D01*
X35401428Y44230285D02*
X35287142Y44173142D01*
X35058571Y44173142D01*
X34944285Y44230285D01*
X34887142Y44287428D01*
X34830000Y44401714D01*
X34830000Y44744571D01*
X34887142Y44858857D01*
X34944285Y44916000D01*
X35058571Y44973142D01*
X35287142Y44973142D01*
X35401428Y44916000D01*
X36487142Y44973142D02*
X36487142Y44001714D01*
X36430000Y43887428D01*
X36372857Y43830285D01*
X36258571Y43773142D01*
X36087142Y43773142D01*
X35972857Y43830285D01*
X36487142Y44230285D02*
X36372857Y44173142D01*
X36144285Y44173142D01*
X36030000Y44230285D01*
X35972857Y44287428D01*
X35915714Y44401714D01*
X35915714Y44744571D01*
X35972857Y44858857D01*
X36030000Y44916000D01*
X36144285Y44973142D01*
X36372857Y44973142D01*
X36487142Y44916000D01*
X37058571Y44630285D02*
X37972857Y44630285D01*
X38715714Y44173142D02*
X38601428Y44230285D01*
X38544285Y44344571D01*
X38544285Y45373142D01*
X39630000Y44230285D02*
X39515714Y44173142D01*
X39287142Y44173142D01*
X39172857Y44230285D01*
X39115714Y44344571D01*
X39115714Y44801714D01*
X39172857Y44916000D01*
X39287142Y44973142D01*
X39515714Y44973142D01*
X39630000Y44916000D01*
X39687142Y44801714D01*
X39687142Y44687428D01*
X39115714Y44573142D01*
X40715714Y44173142D02*
X40715714Y45373142D01*
X40715714Y44230285D02*
X40601428Y44173142D01*
X40372857Y44173142D01*
X40258571Y44230285D01*
X40201428Y44287428D01*
X40144285Y44401714D01*
X40144285Y44744571D01*
X40201428Y44858857D01*
X40258571Y44916000D01*
X40372857Y44973142D01*
X40601428Y44973142D01*
X40715714Y44916000D01*
X41287142Y44630285D02*
X42201428Y44630285D01*
X42772857Y44173142D02*
X42772857Y44973142D01*
X42772857Y44744571D02*
X42830000Y44858857D01*
X42887142Y44916000D01*
X43001428Y44973142D01*
X43115714Y44973142D01*
X43401428Y45373142D02*
X44144285Y45373142D01*
X43744285Y44916000D01*
X43915714Y44916000D01*
X44030000Y44858857D01*
X44087142Y44801714D01*
X44144285Y44687428D01*
X44144285Y44401714D01*
X44087142Y44287428D01*
X44030000Y44230285D01*
X43915714Y44173142D01*
X43572857Y44173142D01*
X43458571Y44230285D01*
X43401428Y44287428D01*
X32715714Y42241142D02*
X32715714Y43441142D01*
X33115714Y42584000D01*
X33515714Y43441142D01*
X33515714Y42241142D01*
X34258571Y42241142D02*
X34144285Y42298285D01*
X34087142Y42355428D01*
X34030000Y42469714D01*
X34030000Y42812571D01*
X34087142Y42926857D01*
X34144285Y42984000D01*
X34258571Y43041142D01*
X34430000Y43041142D01*
X34544285Y42984000D01*
X34601428Y42926857D01*
X34658571Y42812571D01*
X34658571Y42469714D01*
X34601428Y42355428D01*
X34544285Y42298285D01*
X34430000Y42241142D01*
X34258571Y42241142D01*
X35172857Y43041142D02*
X35172857Y42241142D01*
X35172857Y42926857D02*
X35230000Y42984000D01*
X35344285Y43041142D01*
X35515714Y43041142D01*
X35630000Y42984000D01*
X35687142Y42869714D01*
X35687142Y42241142D01*
X36772857Y42241142D02*
X36772857Y42869714D01*
X36715714Y42984000D01*
X36601428Y43041142D01*
X36372857Y43041142D01*
X36258571Y42984000D01*
X36772857Y42298285D02*
X36658571Y42241142D01*
X36372857Y42241142D01*
X36258571Y42298285D01*
X36201428Y42412571D01*
X36201428Y42526857D01*
X36258571Y42641142D01*
X36372857Y42698285D01*
X36658571Y42698285D01*
X36772857Y42755428D01*
X37858571Y42241142D02*
X37858571Y43441142D01*
X37858571Y42298285D02*
X37744285Y42241142D01*
X37515714Y42241142D01*
X37401428Y42298285D01*
X37344285Y42355428D01*
X37287142Y42469714D01*
X37287142Y42812571D01*
X37344285Y42926857D01*
X37401428Y42984000D01*
X37515714Y43041142D01*
X37744285Y43041142D01*
X37858571Y42984000D01*
X39287142Y43326857D02*
X39344285Y43384000D01*
X39458571Y43441142D01*
X39744285Y43441142D01*
X39858571Y43384000D01*
X39915714Y43326857D01*
X39972857Y43212571D01*
X39972857Y43098285D01*
X39915714Y42926857D01*
X39230000Y42241142D01*
X39972857Y42241142D01*
X40715714Y43441142D02*
X40830000Y43441142D01*
X40944285Y43384000D01*
X41001428Y43326857D01*
X41058571Y43212571D01*
X41115714Y42984000D01*
X41115714Y42698285D01*
X41058571Y42469714D01*
X41001428Y42355428D01*
X40944285Y42298285D01*
X40830000Y42241142D01*
X40715714Y42241142D01*
X40601428Y42298285D01*
X40544285Y42355428D01*
X40487142Y42469714D01*
X40430000Y42698285D01*
X40430000Y42984000D01*
X40487142Y43212571D01*
X40544285Y43326857D01*
X40601428Y43384000D01*
X40715714Y43441142D01*
X41572857Y43326857D02*
X41630000Y43384000D01*
X41744285Y43441142D01*
X42030000Y43441142D01*
X42144285Y43384000D01*
X42201428Y43326857D01*
X42258571Y43212571D01*
X42258571Y43098285D01*
X42201428Y42926857D01*
X41515714Y42241142D01*
X42258571Y42241142D01*
X43401428Y42241142D02*
X42715714Y42241142D01*
X43058571Y42241142D02*
X43058571Y43441142D01*
X42944285Y43269714D01*
X42830000Y43155428D01*
X42715714Y43098285D01*
X-25776857Y47334285D02*
X-24576857Y47334285D01*
X-25034000Y47334285D02*
X-24976857Y47220000D01*
X-24976857Y46991428D01*
X-25034000Y46877142D01*
X-25091142Y46820000D01*
X-25205428Y46762857D01*
X-25548285Y46762857D01*
X-25662571Y46820000D01*
X-25719714Y46877142D01*
X-25776857Y46991428D01*
X-25776857Y47220000D01*
X-25719714Y47334285D01*
X-24976857Y45734285D02*
X-25776857Y45734285D01*
X-24976857Y46248571D02*
X-25605428Y46248571D01*
X-25719714Y46191428D01*
X-25776857Y46077142D01*
X-25776857Y45905714D01*
X-25719714Y45791428D01*
X-25662571Y45734285D01*
X-24976857Y44648571D02*
X-25948285Y44648571D01*
X-26062571Y44705714D01*
X-26119714Y44762857D01*
X-26176857Y44877142D01*
X-26176857Y45048571D01*
X-26119714Y45162857D01*
X-25719714Y44648571D02*
X-25776857Y44762857D01*
X-25776857Y44991428D01*
X-25719714Y45105714D01*
X-25662571Y45162857D01*
X-25548285Y45220000D01*
X-25205428Y45220000D01*
X-25091142Y45162857D01*
X-25034000Y45105714D01*
X-24976857Y44991428D01*
X-24976857Y44762857D01*
X-25034000Y44648571D01*
X-24976857Y43562857D02*
X-25948285Y43562857D01*
X-26062571Y43620000D01*
X-26119714Y43677142D01*
X-26176857Y43791428D01*
X-26176857Y43962857D01*
X-26119714Y44077142D01*
X-25719714Y43562857D02*
X-25776857Y43677142D01*
X-25776857Y43905714D01*
X-25719714Y44020000D01*
X-25662571Y44077142D01*
X-25548285Y44134285D01*
X-25205428Y44134285D01*
X-25091142Y44077142D01*
X-25034000Y44020000D01*
X-24976857Y43905714D01*
X-24976857Y43677142D01*
X-25034000Y43562857D01*
X-25319714Y42991428D02*
X-25319714Y42077142D01*
X-25776857Y41505714D02*
X-24976857Y41505714D01*
X-25091142Y41505714D02*
X-25034000Y41448571D01*
X-24976857Y41334285D01*
X-24976857Y41162857D01*
X-25034000Y41048571D01*
X-25148285Y40991428D01*
X-25776857Y40991428D01*
X-25148285Y40991428D02*
X-25034000Y40934285D01*
X-24976857Y40820000D01*
X-24976857Y40648571D01*
X-25034000Y40534285D01*
X-25148285Y40477142D01*
X-25776857Y40477142D01*
X-25776857Y39391428D02*
X-25148285Y39391428D01*
X-25034000Y39448571D01*
X-24976857Y39562857D01*
X-24976857Y39791428D01*
X-25034000Y39905714D01*
X-25719714Y39391428D02*
X-25776857Y39505714D01*
X-25776857Y39791428D01*
X-25719714Y39905714D01*
X-25605428Y39962857D01*
X-25491142Y39962857D01*
X-25376857Y39905714D01*
X-25319714Y39791428D01*
X-25319714Y39505714D01*
X-25262571Y39391428D01*
X-25776857Y38820000D02*
X-24976857Y38820000D01*
X-24576857Y38820000D02*
X-24634000Y38877142D01*
X-24691142Y38820000D01*
X-24634000Y38762857D01*
X-24576857Y38820000D01*
X-24691142Y38820000D01*
X-24976857Y38248571D02*
X-25776857Y38248571D01*
X-25091142Y38248571D02*
X-25034000Y38191428D01*
X-24976857Y38077142D01*
X-24976857Y37905714D01*
X-25034000Y37791428D01*
X-25148285Y37734285D01*
X-25776857Y37734285D01*
X-25319714Y37162857D02*
X-25319714Y36248571D01*
X-25776857Y35677142D02*
X-24976857Y35677142D01*
X-25205428Y35677142D02*
X-25091142Y35620000D01*
X-25034000Y35562857D01*
X-24976857Y35448571D01*
X-24976857Y35334285D01*
X-24576857Y35048571D02*
X-24576857Y34305714D01*
X-25034000Y34705714D01*
X-25034000Y34534285D01*
X-25091142Y34420000D01*
X-25148285Y34362857D01*
X-25262571Y34305714D01*
X-25548285Y34305714D01*
X-25662571Y34362857D01*
X-25719714Y34420000D01*
X-25776857Y34534285D01*
X-25776857Y34877142D01*
X-25719714Y34991428D01*
X-25662571Y35048571D01*
X-27708857Y47334285D02*
X-26508857Y47334285D01*
X-27366000Y46934285D01*
X-26508857Y46534285D01*
X-27708857Y46534285D01*
X-27708857Y45791428D02*
X-27651714Y45905714D01*
X-27594571Y45962857D01*
X-27480285Y46020000D01*
X-27137428Y46020000D01*
X-27023142Y45962857D01*
X-26966000Y45905714D01*
X-26908857Y45791428D01*
X-26908857Y45620000D01*
X-26966000Y45505714D01*
X-27023142Y45448571D01*
X-27137428Y45391428D01*
X-27480285Y45391428D01*
X-27594571Y45448571D01*
X-27651714Y45505714D01*
X-27708857Y45620000D01*
X-27708857Y45791428D01*
X-26908857Y44877142D02*
X-27708857Y44877142D01*
X-27023142Y44877142D02*
X-26966000Y44820000D01*
X-26908857Y44705714D01*
X-26908857Y44534285D01*
X-26966000Y44420000D01*
X-27080285Y44362857D01*
X-27708857Y44362857D01*
X-27708857Y43277142D02*
X-27080285Y43277142D01*
X-26966000Y43334285D01*
X-26908857Y43448571D01*
X-26908857Y43677142D01*
X-26966000Y43791428D01*
X-27651714Y43277142D02*
X-27708857Y43391428D01*
X-27708857Y43677142D01*
X-27651714Y43791428D01*
X-27537428Y43848571D01*
X-27423142Y43848571D01*
X-27308857Y43791428D01*
X-27251714Y43677142D01*
X-27251714Y43391428D01*
X-27194571Y43277142D01*
X-27708857Y42191428D02*
X-26508857Y42191428D01*
X-27651714Y42191428D02*
X-27708857Y42305714D01*
X-27708857Y42534285D01*
X-27651714Y42648571D01*
X-27594571Y42705714D01*
X-27480285Y42762857D01*
X-27137428Y42762857D01*
X-27023142Y42705714D01*
X-26966000Y42648571D01*
X-26908857Y42534285D01*
X-26908857Y42305714D01*
X-26966000Y42191428D01*
X-26623142Y40762857D02*
X-26566000Y40705714D01*
X-26508857Y40591428D01*
X-26508857Y40305714D01*
X-26566000Y40191428D01*
X-26623142Y40134285D01*
X-26737428Y40077142D01*
X-26851714Y40077142D01*
X-27023142Y40134285D01*
X-27708857Y40820000D01*
X-27708857Y40077142D01*
X-26508857Y39334285D02*
X-26508857Y39220000D01*
X-26566000Y39105714D01*
X-26623142Y39048571D01*
X-26737428Y38991428D01*
X-26966000Y38934285D01*
X-27251714Y38934285D01*
X-27480285Y38991428D01*
X-27594571Y39048571D01*
X-27651714Y39105714D01*
X-27708857Y39220000D01*
X-27708857Y39334285D01*
X-27651714Y39448571D01*
X-27594571Y39505714D01*
X-27480285Y39562857D01*
X-27251714Y39620000D01*
X-26966000Y39620000D01*
X-26737428Y39562857D01*
X-26623142Y39505714D01*
X-26566000Y39448571D01*
X-26508857Y39334285D01*
X-26623142Y38477142D02*
X-26566000Y38420000D01*
X-26508857Y38305714D01*
X-26508857Y38020000D01*
X-26566000Y37905714D01*
X-26623142Y37848571D01*
X-26737428Y37791428D01*
X-26851714Y37791428D01*
X-27023142Y37848571D01*
X-27708857Y38534285D01*
X-27708857Y37791428D01*
X-27708857Y36648571D02*
X-27708857Y37334285D01*
X-27708857Y36991428D02*
X-26508857Y36991428D01*
X-26680285Y37105714D01*
X-26794571Y37220000D01*
X-26851714Y37334285D01*
D12*
%TO.C,J15*%
X24200000Y30900000D03*
X24200000Y31550000D03*
X24200000Y32200000D03*
X24200000Y32850000D03*
X24200000Y33500000D03*
D13*
X24200000Y34700000D03*
D14*
X26900000Y35100000D03*
D15*
X26900000Y31200000D03*
D14*
X26900000Y29300000D03*
D13*
X24200000Y29700000D03*
D15*
X26900000Y33200000D03*
D16*
X26900000Y35700000D03*
X26900000Y28700000D03*
%TD*%
D17*
%TO.C,Q3*%
X25115600Y-42792500D03*
X25775600Y-42792500D03*
X26435600Y-42792500D03*
X27095600Y-42792500D03*
D18*
X26105600Y-40800000D03*
%TD*%
D19*
%TO.C,D1*%
X-12050000Y-45500000D03*
X-9950000Y-45500000D03*
%TD*%
D20*
%TO.C,R202*%
X46650000Y12675000D03*
X46650000Y11025000D03*
%TD*%
D21*
%TO.C,Q11*%
X3000000Y3650000D03*
X3000000Y4950000D03*
X1000000Y4300000D03*
%TD*%
D22*
%TO.C,T10*%
X16865600Y38760400D03*
%TD*%
D17*
%TO.C,Q1*%
X-2915000Y-23685000D03*
X-2255000Y-23685000D03*
X-1595000Y-23685000D03*
X-935000Y-23685000D03*
D18*
X-1925000Y-21692500D03*
%TD*%
D23*
%TO.C,R44*%
X7840000Y-3545000D03*
X7840000Y-1895000D03*
%TD*%
D24*
%TO.C,J10*%
X14900000Y-34800000D03*
X16900000Y-34800000D03*
X18900000Y-34800000D03*
X20900000Y-34800000D03*
X22900000Y-34800000D03*
D25*
X12550000Y-30150000D03*
X25250000Y-30150000D03*
%TD*%
D22*
%TO.C,T7*%
X-13825000Y5100000D03*
%TD*%
D26*
%TO.C,U5*%
X-8012500Y-35550000D03*
D27*
X-7800000Y-35337500D03*
D28*
X-8025000Y-36200000D03*
X-8025000Y-36700000D03*
X-8025000Y-37200000D03*
D27*
X-7800000Y-38062500D03*
D26*
X-8012500Y-37850000D03*
D29*
X-7150000Y-38075000D03*
D26*
X-6287500Y-37850000D03*
D27*
X-6500000Y-38062500D03*
D28*
X-6275000Y-37200000D03*
X-6275000Y-36700000D03*
X-6275000Y-36200000D03*
D27*
X-6500000Y-35337500D03*
D26*
X-6287500Y-35550000D03*
D29*
X-7150000Y-35325000D03*
D30*
X-7150000Y-36700000D03*
%TD*%
D31*
%TO.C,C36*%
X-14200000Y10375000D03*
X-14200000Y11925000D03*
%TD*%
D32*
%TO.C,C23*%
X-8600000Y38050000D03*
X-8600000Y36150000D03*
%TD*%
D22*
%TO.C,T4*%
X-23000000Y-31000000D03*
%TD*%
D33*
%TO.C,R7*%
X575000Y-25350000D03*
X2225000Y-25350000D03*
%TD*%
D34*
%TO.C,D4*%
X27700000Y-37950000D03*
X24400000Y-37950000D03*
%TD*%
D33*
%TO.C,R8*%
X8950000Y-25350000D03*
X10600000Y-25350000D03*
%TD*%
D21*
%TO.C,Q9*%
X3000000Y6650000D03*
X3000000Y7950000D03*
X1000000Y7300000D03*
%TD*%
D22*
%TO.C,T15*%
X-24000000Y11000000D03*
%TD*%
D23*
%TO.C,R43*%
X4450000Y6475000D03*
X4450000Y8125000D03*
%TD*%
D35*
%TO.C,U13*%
X-17055000Y14125000D03*
X-15785000Y14125000D03*
X-14515000Y14125000D03*
X-13245000Y14125000D03*
X-13245000Y19075000D03*
X-14515000Y19075000D03*
X-15785000Y19075000D03*
X-17055000Y19075000D03*
%TD*%
D36*
%TO.C,C43*%
X12920000Y-40325000D03*
X12920000Y-43275000D03*
%TD*%
D20*
%TO.C,R201*%
X46450000Y20675000D03*
X46450000Y19025000D03*
%TD*%
D31*
%TO.C,C42*%
X-9350000Y-35875000D03*
X-9350000Y-34325000D03*
%TD*%
D37*
%TO.C,LED203*%
X51500000Y1500000D03*
X48500000Y1500000D03*
X48500000Y3000000D03*
X51500000Y3000000D03*
%TD*%
D36*
%TO.C,C13*%
X-3150000Y-29025000D03*
X-3150000Y-31975000D03*
%TD*%
D38*
%TO.C,C104*%
X32165000Y-9590000D03*
X33715000Y-9590000D03*
%TD*%
D39*
%TO.C,Q4*%
X21500000Y29550000D03*
X20200000Y29550000D03*
X20850000Y27550000D03*
%TD*%
D38*
%TO.C,C108*%
X34100000Y-6450000D03*
X35650000Y-6450000D03*
%TD*%
D40*
%TO.C,U8*%
X-12569000Y-20507200D03*
X-13339000Y-20507200D03*
X-13339000Y-20007200D03*
X-12569000Y-20007200D03*
D41*
X-13339000Y-19507200D03*
X-12569000Y-19507200D03*
D40*
X-12569000Y-19007200D03*
X-13339000Y-19007200D03*
X-13339000Y-18507200D03*
X-12569000Y-18507200D03*
%TD*%
D42*
%TO.C,U11*%
X-17900000Y435000D03*
X-17900000Y-335000D03*
X-17400000Y-335000D03*
X-17400000Y435000D03*
D43*
X-16900000Y-335000D03*
X-16900000Y435000D03*
D42*
X-16400000Y-335000D03*
X-16400000Y435000D03*
X-15900000Y-335000D03*
X-15900000Y435000D03*
%TD*%
D44*
%TO.C,J201*%
X37000000Y22250000D03*
X37000000Y20250000D03*
X39000000Y22250000D03*
X39000000Y20250000D03*
X39000000Y24250000D03*
X37000000Y24250000D03*
X37000000Y18250000D03*
X39000000Y18250000D03*
D45*
X40675000Y24250000D03*
X35325000Y24250000D03*
X40675000Y22250000D03*
X35325000Y22250000D03*
X40675000Y20250000D03*
X35325000Y20250000D03*
X40675000Y18250000D03*
X35325000Y18250000D03*
%TD*%
D46*
%TO.C,R26*%
X24181371Y-17981371D03*
X23014645Y-16814645D03*
%TD*%
D47*
%TO.C,R20*%
X-1300000Y54355000D03*
X-1300000Y53335000D03*
%TD*%
D22*
%TO.C,T1*%
X-16325000Y5100000D03*
%TD*%
D33*
%TO.C,R40*%
X1175000Y-2350000D03*
X2825000Y-2350000D03*
%TD*%
D48*
%TO.C,J12*%
X-2775000Y58995000D03*
X175000Y58995000D03*
D49*
X-1300000Y57495000D03*
%TD*%
D20*
%TO.C,R204*%
X45550000Y17625000D03*
X45550000Y15975000D03*
%TD*%
D23*
%TO.C,R35*%
X1300000Y-34525000D03*
X1300000Y-32875000D03*
%TD*%
D50*
%TO.C,FID2*%
X47000000Y-2250000D03*
%TD*%
D22*
%TO.C,TP101*%
X42485377Y-8089716D03*
%TD*%
D20*
%TO.C,R38*%
X-450000Y-3775000D03*
X-450000Y-5425000D03*
%TD*%
D33*
%TO.C,R22*%
X-15775000Y-31500000D03*
X-14125000Y-31500000D03*
%TD*%
D38*
%TO.C,C28*%
X-13725000Y-24300000D03*
X-12175000Y-24300000D03*
%TD*%
D51*
%TO.C,MIC101*%
X33926000Y-25587500D03*
X34748000Y-25587500D03*
D52*
X36662500Y-24750000D03*
D51*
X34748000Y-23912500D03*
X33926000Y-23912500D03*
%TD*%
D22*
%TO.C,T2*%
X-21500000Y11000000D03*
%TD*%
D53*
%TO.C,R15*%
X-4625000Y-39400000D03*
X-6275000Y-39400000D03*
%TD*%
%TO.C,R23*%
X-9225000Y-17200000D03*
X-10875000Y-17200000D03*
%TD*%
D22*
%TO.C,J5*%
X1200000Y29600000D03*
%TD*%
D54*
%TO.C,H101*%
X36000000Y-30750000D03*
D55*
X36000000Y-27800000D03*
%TD*%
D33*
%TO.C,R209*%
X49825000Y6450000D03*
X51475000Y6450000D03*
%TD*%
D19*
%TO.C,D3*%
X-50000Y-45500000D03*
X2050000Y-45500000D03*
%TD*%
D56*
%TO.C,U7*%
X-2800000Y35020000D03*
X-2000000Y35020000D03*
X-1200000Y35020000D03*
X-400000Y35020000D03*
X400000Y35020000D03*
X1200000Y35020000D03*
X2000000Y35020000D03*
X2800000Y35020000D03*
X3600000Y35020000D03*
X4400000Y35020000D03*
X5200000Y35020000D03*
X6000000Y35020000D03*
X6800000Y35020000D03*
X7600000Y35020000D03*
X8400000Y35020000D03*
X9200000Y35020000D03*
X10000000Y35020000D03*
X10800000Y35020000D03*
D57*
X12180000Y36200000D03*
X12180000Y37000000D03*
X12180000Y37800000D03*
X12180000Y38600000D03*
X12180000Y39400000D03*
X12180000Y40200000D03*
X12180000Y41000000D03*
X12180000Y41800000D03*
X12180000Y42600000D03*
X12180000Y43400000D03*
X12180000Y44200000D03*
X12180000Y45000000D03*
X12180000Y45800000D03*
X12180000Y46600000D03*
X12180000Y47400000D03*
D56*
X10800000Y48580000D03*
X10000000Y48580000D03*
X9200000Y48580000D03*
X8400000Y48580000D03*
X7600000Y48580000D03*
X6800000Y48580000D03*
X6000000Y48580000D03*
X5200000Y48580000D03*
X4400000Y48580000D03*
X3600000Y48580000D03*
X2800000Y48580000D03*
X2000000Y48580000D03*
X1200000Y48580000D03*
X400000Y48580000D03*
X-400000Y48580000D03*
X-1200000Y48580000D03*
X-2000000Y48580000D03*
X-2800000Y48580000D03*
D57*
X-4180000Y47400000D03*
X-4180000Y46600000D03*
X-4180000Y45800000D03*
X-4180000Y45000000D03*
X-4180000Y44200000D03*
X-4180000Y43400000D03*
X-4180000Y42600000D03*
X-4180000Y41800000D03*
X-4180000Y41000000D03*
X-4180000Y40200000D03*
X-4180000Y39400000D03*
X-4180000Y38600000D03*
X-4180000Y37800000D03*
X-4180000Y37000000D03*
X-4180000Y36200000D03*
D58*
X-4180000Y35020000D03*
X12180000Y35020000D03*
X12180000Y48580000D03*
X-4180000Y48580000D03*
D56*
X-5600000Y31850000D03*
X-4800000Y31850000D03*
X-4000000Y31850000D03*
X-3200000Y31850000D03*
X-2400000Y31850000D03*
X-1600000Y31850000D03*
X-800000Y31850000D03*
X0Y31850000D03*
X800000Y31850000D03*
X1600000Y31850000D03*
X2400000Y31850000D03*
X3200000Y31850000D03*
X4000000Y31850000D03*
X4800000Y31850000D03*
X5600000Y31850000D03*
X6400000Y31850000D03*
X7200000Y31850000D03*
X8000000Y31850000D03*
X8800000Y31850000D03*
X9600000Y31850000D03*
X10400000Y31850000D03*
X11200000Y31850000D03*
X12000000Y31850000D03*
X12800000Y31850000D03*
X13600000Y31850000D03*
D57*
X14650000Y33000000D03*
X14650000Y33800000D03*
X14650000Y34600000D03*
X14650000Y35400000D03*
X14650000Y36200000D03*
X14650000Y37000000D03*
X14650000Y37800000D03*
X14650000Y38600000D03*
X14650000Y39400000D03*
X14650000Y40200000D03*
X14650000Y41000000D03*
X14650000Y41800000D03*
X14650000Y42600000D03*
X14650000Y43400000D03*
X14650000Y44200000D03*
X14650000Y45000000D03*
X14650000Y46600000D03*
X14650000Y47400000D03*
X14650000Y48200000D03*
X14650000Y49000000D03*
X14650000Y49800000D03*
X14650000Y50600000D03*
D56*
X13600000Y51750000D03*
X12800000Y51750000D03*
X12000000Y51750000D03*
X11200000Y51750000D03*
X10400000Y51750000D03*
X9600000Y51750000D03*
X8800000Y51750000D03*
X6400000Y51750000D03*
X5600000Y51750000D03*
X4800000Y51750000D03*
X4000000Y51750000D03*
X3200000Y51750000D03*
X2400000Y51750000D03*
X1600000Y51750000D03*
X800000Y51750000D03*
X0Y51750000D03*
X-2400000Y51750000D03*
X-3200000Y51750000D03*
X-4000000Y51750000D03*
X-4800000Y51750000D03*
X-5600000Y51750000D03*
D57*
X-6650000Y50600000D03*
X-6650000Y49800000D03*
X-6650000Y49000000D03*
X-6650000Y48200000D03*
X-6650000Y47400000D03*
X-6650000Y46600000D03*
X-6650000Y45800000D03*
X-6650000Y45000000D03*
X-6650000Y44200000D03*
X-6650000Y43400000D03*
X-6650000Y42600000D03*
X-6650000Y41800000D03*
X-6650000Y41000000D03*
X-6650000Y40200000D03*
X-6650000Y39400000D03*
X-6650000Y38600000D03*
X-6650000Y37800000D03*
X-6650000Y37000000D03*
X-6650000Y36200000D03*
X-6650000Y35400000D03*
X-6650000Y34600000D03*
X-6650000Y33800000D03*
X-6650000Y33000000D03*
D59*
X-6700000Y31850000D03*
X14700000Y31850000D03*
X14700000Y51750000D03*
X-6700000Y51750000D03*
D58*
X-2370000Y36655000D03*
X-2370000Y38125000D03*
X-2370000Y39595000D03*
X-2370000Y41065000D03*
X-2370000Y42535000D03*
X-2370000Y44005000D03*
X-2370000Y45475000D03*
X-2370000Y46945000D03*
X-550000Y46945000D03*
X1270000Y46945000D03*
X3090000Y46945000D03*
X4910000Y46945000D03*
X6730000Y46945000D03*
X8550000Y46945000D03*
X10370000Y46945000D03*
X10370000Y45475000D03*
X10370000Y44005000D03*
X10370000Y42535000D03*
X10370000Y41065000D03*
X10370000Y39595000D03*
X10370000Y38125000D03*
X10370000Y36655000D03*
X8550000Y36655000D03*
X6730000Y36655000D03*
X4910000Y36655000D03*
X3090000Y36655000D03*
X1270000Y36655000D03*
X-550000Y36655000D03*
X-550000Y38125000D03*
X-550000Y39595000D03*
X-550000Y41065000D03*
X-550000Y42535000D03*
X-550000Y44005000D03*
X-550000Y45475000D03*
X1270000Y45475000D03*
X3090000Y45475000D03*
X4910000Y45475000D03*
X6730000Y45475000D03*
X8550000Y45475000D03*
X8550000Y44005000D03*
X8550000Y42535000D03*
X8550000Y41065000D03*
X8550000Y39595000D03*
X8550000Y38125000D03*
X6730000Y38125000D03*
X4910000Y38125000D03*
X3090000Y38125000D03*
X1270000Y38125000D03*
X1270000Y39595000D03*
X1270000Y41065000D03*
X1270000Y42535000D03*
X1270000Y44005000D03*
X3090000Y44005000D03*
X4910000Y44005000D03*
X6730000Y44005000D03*
X6730000Y42535000D03*
X6730000Y41065000D03*
X6730000Y39595000D03*
X4910000Y39595000D03*
X3090000Y39595000D03*
X3090000Y41065000D03*
X3090000Y42535000D03*
X4910000Y42535000D03*
X4910000Y41065000D03*
D60*
X-2400000Y33320000D03*
X-1200000Y33320000D03*
X0Y33320000D03*
X1200000Y33320000D03*
X2400000Y33320000D03*
X3600000Y33320000D03*
X4800000Y33320000D03*
X6000000Y33320000D03*
X7200000Y33320000D03*
%TD*%
D61*
%TO.C,U15*%
X16650000Y29100000D03*
X17150000Y29100000D03*
X17650000Y29100000D03*
X18150000Y29100000D03*
X18650000Y29100000D03*
X18650000Y33500000D03*
X18150000Y33500000D03*
X17650000Y33500000D03*
X17150000Y33500000D03*
X16650000Y33500000D03*
%TD*%
D53*
%TO.C,R16*%
X10695000Y-39340000D03*
X9045000Y-39340000D03*
%TD*%
D22*
%TO.C,J8*%
X6000000Y28600000D03*
%TD*%
D36*
%TO.C,C45*%
X15250000Y-40325000D03*
X15250000Y-43275000D03*
%TD*%
D22*
%TO.C,TP102*%
X40425000Y-17000000D03*
%TD*%
%TO.C,T6*%
X-19025000Y-31025000D03*
%TD*%
D42*
%TO.C,U10*%
X-14850000Y-335000D03*
X-14850000Y435000D03*
X-14350000Y-335000D03*
X-14350000Y435000D03*
D43*
X-13850000Y-335000D03*
X-13850000Y435000D03*
D42*
X-13350000Y-335000D03*
X-13350000Y435000D03*
X-12850000Y-335000D03*
X-12850000Y435000D03*
%TD*%
D62*
%TO.C,J101*%
X45000000Y-15250000D03*
X45000000Y-10250000D03*
X47000000Y-15250000D03*
X47000000Y-10250000D03*
X49000000Y-15250000D03*
X49000000Y-10250000D03*
X51000000Y-15250000D03*
X51000000Y-10250000D03*
%TD*%
D36*
%TO.C,C16*%
X3240000Y-28425000D03*
X3240000Y-31375000D03*
%TD*%
D63*
%TO.C,C105*%
X31920000Y-10825000D03*
X32880000Y-10825000D03*
%TD*%
%TO.C,C103*%
X31920000Y-11950000D03*
X32880000Y-11950000D03*
%TD*%
D64*
%TO.C,C18*%
X11825000Y-26850000D03*
X10275000Y-26850000D03*
%TD*%
D20*
%TO.C,R33*%
X-450000Y-9975000D03*
X-450000Y-11625000D03*
%TD*%
D65*
%TO.C,SP3*%
X24500000Y-24000000D03*
D66*
X26915000Y-24000000D03*
%TD*%
D23*
%TO.C,R45*%
X-500000Y475000D03*
X-500000Y2125000D03*
%TD*%
D63*
%TO.C,C102*%
X31920000Y-13050000D03*
X32880000Y-13050000D03*
%TD*%
D50*
%TO.C,FID2*%
X-25000000Y-43000000D03*
%TD*%
D67*
%TO.C,C17*%
X-1250000Y-29425000D03*
X-1250000Y-30975000D03*
%TD*%
D26*
%TO.C,U6*%
X6587500Y-35550000D03*
D27*
X6800000Y-35337500D03*
D28*
X6575000Y-36200000D03*
X6575000Y-36700000D03*
X6575000Y-37200000D03*
D26*
X6587500Y-37850000D03*
D27*
X6800000Y-38062500D03*
D29*
X7450000Y-38075000D03*
D26*
X8312500Y-37850000D03*
D27*
X8100000Y-38062500D03*
D28*
X8325000Y-37200000D03*
X8325000Y-36700000D03*
X8325000Y-36200000D03*
D27*
X8100000Y-35337500D03*
D26*
X8312500Y-35550000D03*
D29*
X7450000Y-35325000D03*
D30*
X7450000Y-36700000D03*
%TD*%
D68*
%TO.C,U101*%
X35450000Y-9900000D03*
X35450000Y-10400000D03*
X35450000Y-10900000D03*
X35450000Y-11400000D03*
X35450000Y-11900000D03*
X35450000Y-12400000D03*
D69*
X36150000Y-13100000D03*
X36650000Y-13100000D03*
X37150000Y-13100000D03*
X37650000Y-13100000D03*
X38150000Y-13100000D03*
X38650000Y-13100000D03*
D68*
X39350000Y-12400000D03*
X39350000Y-11900000D03*
X39350000Y-11400000D03*
X39350000Y-10900000D03*
X39350000Y-10400000D03*
X39350000Y-9900000D03*
D69*
X38650000Y-9200000D03*
X38150000Y-9200000D03*
X37650000Y-9200000D03*
X37150000Y-9200000D03*
X36650000Y-9200000D03*
X36150000Y-9200000D03*
D70*
X37400000Y-11150000D03*
%TD*%
D31*
%TO.C,C38*%
X-16300000Y50675000D03*
X-16300000Y52225000D03*
%TD*%
D71*
%TO.C,C6*%
X-11350000Y-36125000D03*
X-11350000Y-33175000D03*
%TD*%
D22*
%TO.C,TP103*%
X42450000Y-16975000D03*
%TD*%
D53*
%TO.C,R13*%
X11175000Y-37510000D03*
X9525000Y-37510000D03*
%TD*%
D23*
%TO.C,R37*%
X-450000Y-8525000D03*
X-450000Y-6875000D03*
%TD*%
D72*
%TO.C,U12*%
X14996097Y-17286136D03*
X15349651Y-17639689D03*
X15703204Y-17993243D03*
X16056757Y-18346796D03*
X16410311Y-18700349D03*
X16763864Y-19053903D03*
D73*
X17736136Y-19053903D03*
X18089689Y-18700349D03*
X18443243Y-18346796D03*
X18796796Y-17993243D03*
X19150349Y-17639689D03*
X19503903Y-17286136D03*
D72*
X19503903Y-16313864D03*
X19150349Y-15960311D03*
X18796796Y-15606757D03*
X18443243Y-15253204D03*
X18089689Y-14899651D03*
X17736136Y-14546097D03*
D73*
X16763864Y-14546097D03*
X16410311Y-14899651D03*
X16056757Y-15253204D03*
X15703204Y-15606757D03*
X15349651Y-15960311D03*
X14996097Y-16313864D03*
D74*
X17250000Y-16800000D03*
%TD*%
D75*
%TO.C,J11*%
X6550000Y56900000D03*
D76*
X6550000Y59700000D03*
D77*
X6550000Y54100000D03*
%TD*%
D78*
%TO.C,C101*%
X32400000Y-24270000D03*
X32400000Y-25230000D03*
%TD*%
D79*
%TO.C,C20*%
X-2270000Y53345000D03*
X-3230000Y53345000D03*
%TD*%
D64*
%TO.C,C12*%
X10645000Y-40850000D03*
X9095000Y-40850000D03*
%TD*%
D33*
%TO.C,R2*%
X-3025000Y15200000D03*
X-1375000Y15200000D03*
%TD*%
D20*
%TO.C,R5*%
X-17050000Y-38425000D03*
X-17050000Y-40075000D03*
%TD*%
D50*
%TO.C,FID3*%
X25000000Y11000000D03*
%TD*%
D21*
%TO.C,Q10*%
X3000000Y650000D03*
X3000000Y1950000D03*
X1000000Y1300000D03*
%TD*%
D80*
%TO.C,Module1*%
X-10500000Y7300000D03*
X-7420000Y7300000D03*
X-10500000Y6900000D03*
X-7420000Y6900000D03*
X-10500000Y6500000D03*
X-7420000Y6500000D03*
X-10500000Y6100000D03*
X-7420000Y6100000D03*
X-10500000Y5700000D03*
X-7420000Y5700000D03*
X-10500000Y5300000D03*
X-7420000Y5300000D03*
X-10500000Y4900000D03*
X-7420000Y4900000D03*
X-10500000Y4500000D03*
X-7420000Y4500000D03*
X-10500000Y4100000D03*
X-7420000Y4100000D03*
X-10500000Y3700000D03*
X-7420000Y3700000D03*
X-10500000Y3300000D03*
X-7420000Y3300000D03*
X-10500000Y2900000D03*
X-7420000Y2900000D03*
X-10500000Y2500000D03*
X-7420000Y2500000D03*
X-10500000Y2100000D03*
X-7420000Y2100000D03*
X-10500000Y1700000D03*
X-7420000Y1700000D03*
X-10500000Y1300000D03*
X-7420000Y1300000D03*
X-10500000Y900000D03*
X-7420000Y900000D03*
X-10500000Y500000D03*
X-7420000Y500000D03*
X-10500000Y100000D03*
X-7420000Y100000D03*
X-10500000Y-300000D03*
X-7420000Y-300000D03*
X-10500000Y-700000D03*
X-7420000Y-700000D03*
X-10500000Y-1100000D03*
X-7420000Y-1100000D03*
X-10500000Y-1500000D03*
X-7420000Y-1500000D03*
X-10500000Y-1900000D03*
X-7420000Y-1900000D03*
X-10500000Y-2300000D03*
X-7420000Y-2300000D03*
X-10500000Y-2700000D03*
X-7420000Y-2700000D03*
X-10500000Y-3100000D03*
X-7420000Y-3100000D03*
X-10500000Y-3500000D03*
X-7420000Y-3500000D03*
X-10500000Y-3900000D03*
X-7420000Y-3900000D03*
X-10500000Y-4300000D03*
X-7420000Y-4300000D03*
X-10500000Y-4700000D03*
X-7420000Y-4700000D03*
X-10500000Y-5100000D03*
X-7420000Y-5100000D03*
X-10500000Y-5500000D03*
X-7420000Y-5500000D03*
X-10500000Y-5900000D03*
X-7420000Y-5900000D03*
X-10500000Y-6300000D03*
X-7420000Y-6300000D03*
X-10500000Y-6700000D03*
X-7420000Y-6700000D03*
X-10500000Y-7100000D03*
X-7420000Y-7100000D03*
X-10500000Y-7500000D03*
X-7420000Y-7500000D03*
X-10500000Y-7900000D03*
X-7420000Y-7900000D03*
X-10500000Y-8300000D03*
X-7420000Y-8300000D03*
X-10500000Y-8700000D03*
X-7420000Y-8700000D03*
X-10500000Y-9100000D03*
X-7420000Y-9100000D03*
X-10500000Y-9500000D03*
X-7420000Y-9500000D03*
X-10500000Y-9900000D03*
X-7420000Y-9900000D03*
X-10500000Y-10300000D03*
X-7420000Y-10300000D03*
X-10500000Y-10700000D03*
X-7420000Y-10700000D03*
X-10500000Y-11100000D03*
X-7420000Y-11100000D03*
X-10500000Y-11500000D03*
X-7420000Y-11500000D03*
X-10500000Y-11900000D03*
X-7420000Y-11900000D03*
X-10500000Y-12300000D03*
X-7420000Y-12300000D03*
X23420000Y7300000D03*
X26500000Y7300000D03*
X23420000Y6900000D03*
X26500000Y6900000D03*
X23420000Y6500000D03*
X26500000Y6500000D03*
X23420000Y6100000D03*
X26500000Y6100000D03*
X23420000Y5700000D03*
X26500000Y5700000D03*
X23420000Y5300000D03*
X26500000Y5300000D03*
X23420000Y4900000D03*
X26500000Y4900000D03*
X23420000Y4500000D03*
X26500000Y4500000D03*
X23420000Y4100000D03*
X26500000Y4100000D03*
X23420000Y3700000D03*
X26500000Y3700000D03*
X23420000Y3300000D03*
X26500000Y3300000D03*
X23420000Y2900000D03*
X26500000Y2900000D03*
X23420000Y2500000D03*
X26500000Y2500000D03*
X23420000Y2100000D03*
X26500000Y2100000D03*
X23420000Y1700000D03*
X26500000Y1700000D03*
X23420000Y1300000D03*
X26500000Y1300000D03*
X23420000Y900000D03*
X26500000Y900000D03*
X23420000Y500000D03*
X26500000Y500000D03*
X23420000Y100000D03*
X26500000Y100000D03*
X23420000Y-300000D03*
X26500000Y-300000D03*
X23420000Y-700000D03*
X26500000Y-700000D03*
X23420000Y-1100000D03*
X26500000Y-1100000D03*
X23420000Y-1500000D03*
X26500000Y-1500000D03*
X23420000Y-1900000D03*
X26500000Y-1900000D03*
X23420000Y-2300000D03*
X26500000Y-2300000D03*
X23420000Y-2700000D03*
X26500000Y-2700000D03*
X23420000Y-3100000D03*
X26500000Y-3100000D03*
X23420000Y-3500000D03*
X26500000Y-3500000D03*
X23420000Y-3900000D03*
X26500000Y-3900000D03*
X23420000Y-4300000D03*
X26500000Y-4300000D03*
X23420000Y-4700000D03*
X26500000Y-4700000D03*
X23420000Y-5100000D03*
X26500000Y-5100000D03*
X23420000Y-5500000D03*
X26500000Y-5500000D03*
X23420000Y-5900000D03*
X26500000Y-5900000D03*
X23420000Y-6300000D03*
X26500000Y-6300000D03*
X23420000Y-6700000D03*
X26500000Y-6700000D03*
X23420000Y-7100000D03*
X26500000Y-7100000D03*
X23420000Y-7500000D03*
X26500000Y-7500000D03*
X23420000Y-7900000D03*
X26500000Y-7900000D03*
X23420000Y-8300000D03*
X26500000Y-8300000D03*
X23420000Y-8700000D03*
X26500000Y-8700000D03*
X23420000Y-9100000D03*
X26500000Y-9100000D03*
X23420000Y-9500000D03*
X26500000Y-9500000D03*
X23420000Y-9900000D03*
X26500000Y-9900000D03*
X23420000Y-10300000D03*
X26500000Y-10300000D03*
X23420000Y-10700000D03*
X26500000Y-10700000D03*
X23420000Y-11100000D03*
X26500000Y-11100000D03*
X23420000Y-11500000D03*
X26500000Y-11500000D03*
X23420000Y-11900000D03*
X26500000Y-11900000D03*
X23420000Y-12300000D03*
X26500000Y-12300000D03*
%TD*%
D53*
%TO.C,R4*%
X-7625000Y-41950000D03*
X-9275000Y-41950000D03*
%TD*%
D22*
%TO.C,T13*%
X-600000Y-42600000D03*
%TD*%
D81*
%TO.C,H4*%
X-13000000Y-40000000D03*
%TD*%
D53*
%TO.C,R6*%
X6975000Y-19100000D03*
X5325000Y-19100000D03*
%TD*%
D36*
%TO.C,C15*%
X-11350000Y-28550000D03*
X-11350000Y-31500000D03*
%TD*%
D71*
%TO.C,C5*%
X3250000Y-36625000D03*
X3250000Y-33675000D03*
%TD*%
D54*
%TO.C,H102*%
X36000000Y-18750000D03*
D55*
X36000000Y-15800000D03*
%TD*%
D65*
%TO.C,SP1*%
X-8500000Y24000000D03*
D66*
X-6085000Y24000000D03*
%TD*%
D33*
%TO.C,R21*%
X-15775000Y-30000000D03*
X-14125000Y-30000000D03*
%TD*%
D23*
%TO.C,R3*%
X-5850000Y4175000D03*
X-5850000Y5825000D03*
%TD*%
D64*
%TO.C,C30*%
X-23225000Y-1850000D03*
X-24775000Y-1850000D03*
%TD*%
D31*
%TO.C,C41*%
X9600000Y-35875000D03*
X9600000Y-34325000D03*
%TD*%
D22*
%TO.C,J4*%
X-400000Y28600000D03*
%TD*%
D31*
%TO.C,C21*%
X-8850000Y39525000D03*
X-8850000Y41075000D03*
%TD*%
%TO.C,C4*%
X-4850000Y-35875000D03*
X-4850000Y-34325000D03*
%TD*%
D46*
%TO.C,R27*%
X22083363Y-15883363D03*
X20916637Y-14716637D03*
%TD*%
D23*
%TO.C,R41*%
X4450000Y475000D03*
X4450000Y2125000D03*
%TD*%
D31*
%TO.C,C10*%
X5141600Y-38854400D03*
X5141600Y-37304400D03*
%TD*%
D82*
%TO.C,C32*%
X13725000Y-18575000D03*
X12628984Y-19671016D03*
%TD*%
D21*
%TO.C,Q8*%
X-950000Y18350000D03*
X-950000Y19650000D03*
X-2950000Y19000000D03*
%TD*%
D22*
%TO.C,T12*%
X-4150000Y-42600000D03*
%TD*%
D83*
%TO.C,FB1*%
X12715000Y-38130000D03*
X14865000Y-38130000D03*
%TD*%
D64*
%TO.C,C112*%
X42375000Y-12281255D03*
X40825000Y-12281255D03*
%TD*%
D84*
%TO.C,J202*%
X37850000Y38000000D03*
X37850000Y37500000D03*
X37850000Y37000000D03*
X37850000Y36500000D03*
X37850000Y36000000D03*
X37850000Y35500000D03*
X37850000Y35000000D03*
X37850000Y34500000D03*
X37850000Y34000000D03*
X37850000Y33500000D03*
X37850000Y33000000D03*
X37850000Y32500000D03*
X37850000Y32000000D03*
X37850000Y31500000D03*
X37850000Y31000000D03*
X37850000Y30500000D03*
X37850000Y30000000D03*
X37850000Y29500000D03*
X37850000Y29000000D03*
X37850000Y28500000D03*
D85*
X34600000Y26600000D03*
X34600000Y39900000D03*
%TD*%
D86*
%TO.C,U14*%
X-16250000Y7100000D03*
X-15600000Y7100000D03*
X-14950000Y7100000D03*
X-14950000Y9000000D03*
X-16250000Y9000000D03*
%TD*%
D17*
%TO.C,Q2*%
X5460000Y-23685000D03*
X6120000Y-23685000D03*
X6780000Y-23685000D03*
X7440000Y-23685000D03*
D18*
X6450000Y-21692500D03*
%TD*%
D31*
%TO.C,C35*%
X-19100000Y12050000D03*
X-19100000Y13600000D03*
%TD*%
D50*
%TO.C,FID1*%
X55000000Y42250000D03*
%TD*%
D63*
%TO.C,C107*%
X31935000Y-7990000D03*
X32895000Y-7990000D03*
%TD*%
D20*
%TO.C,R36*%
X17150000Y-37475000D03*
X17150000Y-39125000D03*
%TD*%
%TO.C,R14*%
X-3200000Y-39345000D03*
X-3200000Y-40995000D03*
%TD*%
%TO.C,R34*%
X9425000Y-1900000D03*
X9425000Y-3550000D03*
%TD*%
D67*
%TO.C,C9*%
X-9350000Y-37325000D03*
X-9350000Y-38875000D03*
%TD*%
%TO.C,C11*%
X-1700000Y-39395000D03*
X-1700000Y-40945000D03*
%TD*%
D87*
%TO.C,C33*%
X17801992Y-22101992D03*
X18898008Y-23198008D03*
%TD*%
D63*
%TO.C,C19*%
X-3230000Y54295000D03*
X-2270000Y54295000D03*
%TD*%
D37*
%TO.C,LED202*%
X51500000Y9500000D03*
X48500000Y9500000D03*
X48500000Y11000000D03*
X51500000Y11000000D03*
%TD*%
D88*
%TO.C,D6*%
X-13735000Y-21550000D03*
X-12765000Y-21550000D03*
%TD*%
D22*
%TO.C,T16*%
X-21500000Y14000000D03*
%TD*%
D19*
%TO.C,D7*%
X11950000Y-45500000D03*
X14050000Y-45500000D03*
%TD*%
D53*
%TO.C,R12*%
X-1775000Y-37850000D03*
X-3425000Y-37850000D03*
%TD*%
D46*
%TO.C,R28*%
X23131371Y-19031371D03*
X21964645Y-17864645D03*
%TD*%
D89*
%TO.C,C22*%
X-8600000Y42550000D03*
X-8600000Y44450000D03*
%TD*%
D33*
%TO.C,R39*%
X1175000Y-800000D03*
X2825000Y-800000D03*
%TD*%
D50*
%TO.C,FID1*%
X14000000Y59000000D03*
%TD*%
D84*
%TO.C,J16*%
X-10850000Y46250000D03*
X-10850000Y45750000D03*
X-10850000Y45250000D03*
X-10850000Y44750000D03*
X-10850000Y44250000D03*
X-10850000Y43750000D03*
X-10850000Y43250000D03*
X-10850000Y42750000D03*
X-10850000Y42250000D03*
X-10850000Y41750000D03*
X-10850000Y41250000D03*
X-10850000Y40750000D03*
X-10850000Y40250000D03*
X-10850000Y39750000D03*
X-10850000Y39250000D03*
X-10850000Y38750000D03*
X-10850000Y38250000D03*
X-10850000Y37750000D03*
X-10850000Y37250000D03*
X-10850000Y36750000D03*
D85*
X-14100000Y34850000D03*
X-14100000Y48150000D03*
%TD*%
D22*
%TO.C,J1*%
X-5200000Y29600000D03*
%TD*%
%TO.C,T5*%
X-21000000Y-30975000D03*
%TD*%
D53*
%TO.C,R24*%
X-15634200Y2082800D03*
X-17284200Y2082800D03*
%TD*%
D90*
%TO.C,D5*%
X24530000Y-44730000D03*
X27330000Y-44730000D03*
%TD*%
D87*
%TO.C,C40*%
X18850000Y-21050000D03*
X19946016Y-22146016D03*
%TD*%
D22*
%TO.C,J9*%
X7600000Y29600000D03*
%TD*%
D23*
%TO.C,R42*%
X4450000Y3475000D03*
X4450000Y5125000D03*
%TD*%
D22*
%TO.C,T8*%
X-8483600Y32562800D03*
%TD*%
D91*
%TO.C,U9*%
X-14700000Y57225000D03*
X-14700000Y56575000D03*
X-14700000Y55925000D03*
X-14700000Y55275000D03*
X-14700000Y54625000D03*
X-14700000Y53975000D03*
X-14700000Y53325000D03*
X-14700000Y52675000D03*
X-14700000Y52025000D03*
X-14700000Y51375000D03*
X-8900000Y51375000D03*
X-8900000Y52025000D03*
X-8900000Y52675000D03*
X-8900000Y53325000D03*
X-8900000Y53975000D03*
X-8900000Y54625000D03*
X-8900000Y55275000D03*
X-8900000Y55925000D03*
X-8900000Y56575000D03*
X-8900000Y57225000D03*
%TD*%
D33*
%TO.C,R31*%
X19325000Y26050000D03*
X20975000Y26050000D03*
%TD*%
D87*
%TO.C,C39*%
X19901992Y-20001992D03*
X20998008Y-21098008D03*
%TD*%
D81*
%TO.C,H1*%
X-21000000Y40000000D03*
%TD*%
D92*
%TO.C,C2*%
X150000Y-40300000D03*
X3100000Y-40300000D03*
%TD*%
D23*
%TO.C,R17*%
X7650000Y-40925000D03*
X7650000Y-39275000D03*
%TD*%
D63*
%TO.C,C106*%
X31935000Y-7050000D03*
X32895000Y-7050000D03*
%TD*%
D93*
%TO.C,L1*%
X-7250000Y-32355000D03*
X-7250000Y-29045000D03*
%TD*%
D38*
%TO.C,C110*%
X39075000Y-6350000D03*
X40625000Y-6350000D03*
%TD*%
D20*
%TO.C,R203*%
X46550000Y4775000D03*
X46550000Y3125000D03*
%TD*%
D64*
%TO.C,C7*%
X-7675000Y-40350000D03*
X-9225000Y-40350000D03*
%TD*%
D22*
%TO.C,T9*%
X-8483600Y29514800D03*
%TD*%
%TO.C,J2*%
X-3600000Y28600000D03*
%TD*%
D33*
%TO.C,R208*%
X49825000Y14250000D03*
X51475000Y14250000D03*
%TD*%
D53*
%TO.C,R11*%
X22925000Y-45150000D03*
X21275000Y-45150000D03*
%TD*%
D47*
%TO.C,R19*%
X-1300000Y56255000D03*
X-1300000Y55235000D03*
%TD*%
D23*
%TO.C,R46*%
X-500000Y3475000D03*
X-500000Y5125000D03*
%TD*%
D94*
%TO.C,C29*%
X-21750000Y-1600000D03*
X-19850000Y-1600000D03*
%TD*%
D22*
%TO.C,T3*%
X-25000000Y-31025000D03*
%TD*%
D95*
%TO.C,J13*%
X-26400000Y-24740000D03*
X-26400000Y-22200000D03*
X-26400000Y-19660000D03*
X-23230000Y-24740000D03*
X-23230000Y-22200000D03*
X-23230000Y-19660000D03*
D96*
X-19900000Y-17930000D03*
D97*
X-16225000Y-21650000D03*
D98*
X-15150000Y-19980000D03*
D99*
X-28250000Y-20980000D03*
D98*
X-15150000Y-24400000D03*
D100*
X-27100000Y-28755000D03*
D101*
X-18100000Y-18105000D03*
D102*
X-22250000Y-28755000D03*
X-22250000Y-17605000D03*
D99*
X-28250000Y-23420000D03*
D103*
X-17100000Y-28755000D03*
D100*
X-27100000Y-17605000D03*
%TD*%
D104*
%TO.C,U2*%
X17584871Y-23820657D03*
X18129343Y-24365129D03*
X17775790Y-24718683D03*
X17231317Y-24174210D03*
D105*
X17422236Y-25072236D03*
X16877764Y-24527764D03*
D104*
X17068683Y-25425790D03*
X16524210Y-24881317D03*
X16715129Y-25779343D03*
X16170657Y-25234871D03*
%TD*%
D65*
%TO.C,SP2*%
X24500000Y24000000D03*
D66*
X26915000Y24000000D03*
%TD*%
D82*
%TO.C,C31*%
X12675000Y-17525000D03*
X11578984Y-18621016D03*
%TD*%
D106*
%TO.C,U3*%
X-975000Y-26500000D03*
X-975000Y-25850000D03*
X-975000Y-25200000D03*
X-2875000Y-25200000D03*
X-2875000Y-25850000D03*
X-2875000Y-26500000D03*
%TD*%
D31*
%TO.C,C3*%
X5150000Y-35875000D03*
X5150000Y-34325000D03*
%TD*%
D22*
%TO.C,FID1*%
X33000000Y-14750000D03*
%TD*%
D38*
%TO.C,C8*%
X4635000Y-40330000D03*
X6185000Y-40330000D03*
%TD*%
D33*
%TO.C,R10*%
X8950000Y-23850000D03*
X10600000Y-23850000D03*
%TD*%
%TO.C,R30*%
X-17275000Y10400000D03*
X-15625000Y10400000D03*
%TD*%
D63*
%TO.C,C111*%
X39420000Y-7700000D03*
X40380000Y-7700000D03*
%TD*%
D107*
%TO.C,BT1*%
X-22100000Y34775000D03*
X-22100000Y19025000D03*
D108*
X-22100000Y26900000D03*
%TD*%
D22*
%TO.C,FID2*%
X40000000Y-34750000D03*
%TD*%
D33*
%TO.C,R103*%
X40775000Y-13850000D03*
X42425000Y-13850000D03*
%TD*%
%TO.C,R29*%
X-17275000Y11900000D03*
X-15625000Y11900000D03*
%TD*%
D22*
%TO.C,J6*%
X2800000Y28600000D03*
%TD*%
%TO.C,T14*%
X-24000000Y14000000D03*
%TD*%
D33*
%TO.C,R207*%
X49825000Y15800000D03*
X51475000Y15800000D03*
%TD*%
D36*
%TO.C,C14*%
X850000Y-28425000D03*
X850000Y-31375000D03*
%TD*%
D21*
%TO.C,Q7*%
X1000000Y-3950000D03*
X1000000Y-5250000D03*
X3000000Y-4600000D03*
%TD*%
D38*
%TO.C,C26*%
X-13725000Y-22800000D03*
X-12175000Y-22800000D03*
%TD*%
D109*
%TO.C,R101*%
X37890000Y-26100000D03*
X38910000Y-26100000D03*
%TD*%
D46*
%TO.C,R25*%
X22081371Y-20081371D03*
X20914645Y-18914645D03*
%TD*%
D88*
%TO.C,D9*%
X-3235000Y55245000D03*
X-2265000Y55245000D03*
%TD*%
D109*
%TO.C,R102*%
X37890000Y-23350000D03*
X38910000Y-23350000D03*
%TD*%
D33*
%TO.C,R1*%
X-3025000Y13700000D03*
X-1375000Y13700000D03*
%TD*%
D110*
%TO.C,R18*%
X-290000Y55245000D03*
X-1310000Y55245000D03*
%TD*%
D33*
%TO.C,R32*%
X19325000Y24550000D03*
X20975000Y24550000D03*
%TD*%
D21*
%TO.C,Q6*%
X1000000Y-7050000D03*
X1000000Y-8350000D03*
X3000000Y-7700000D03*
%TD*%
D37*
%TO.C,LED201*%
X51500000Y17500000D03*
X48500000Y17500000D03*
X48500000Y19000000D03*
X51500000Y19000000D03*
%TD*%
D19*
%TO.C,D2*%
X-24050000Y-45500000D03*
X-21950000Y-45500000D03*
%TD*%
D67*
%TO.C,C34*%
X-19100000Y19275000D03*
X-19100000Y17725000D03*
%TD*%
D21*
%TO.C,Q5*%
X1000000Y-10150000D03*
X1000000Y-11450000D03*
X3000000Y-10800000D03*
%TD*%
D33*
%TO.C,R206*%
X49825000Y4850000D03*
X51475000Y4850000D03*
%TD*%
D22*
%TO.C,J7*%
X4400000Y29600000D03*
%TD*%
D33*
%TO.C,R9*%
X575000Y-23850000D03*
X2225000Y-23850000D03*
%TD*%
%TO.C,R205*%
X49825000Y12750000D03*
X51475000Y12750000D03*
%TD*%
D81*
%TO.C,H2*%
X21000000Y40000000D03*
%TD*%
D63*
%TO.C,C109*%
X34695000Y-7650000D03*
X35655000Y-7650000D03*
%TD*%
D111*
%TO.C,J14*%
X-20050000Y-12370000D03*
X-20050000Y-11270000D03*
X-20050000Y-10170000D03*
X-20050000Y-9070000D03*
X-20050000Y-7970000D03*
X-20050000Y-6870000D03*
X-20050000Y-5770000D03*
X-20050000Y-4670000D03*
D112*
X-13225000Y-4775000D03*
D96*
X-13850000Y-6670000D03*
D113*
X-16910000Y-3350000D03*
D114*
X-13550000Y-3350000D03*
D115*
X-13395000Y-15400000D03*
D116*
X-27275000Y-16685000D03*
D117*
X-19120000Y-3350000D03*
D118*
X-13680000Y-16685000D03*
D119*
X-20320000Y-16685000D03*
D120*
X-27150000Y-3535000D03*
%TD*%
D22*
%TO.C,J3*%
X-2000000Y29600000D03*
%TD*%
D121*
%TO.C,C44*%
X-325000Y-34000000D03*
X-3275000Y-34000000D03*
%TD*%
D65*
%TO.C,SP4*%
X-8500000Y-24000000D03*
D66*
X-6085000Y-24000000D03*
%TD*%
D86*
%TO.C,U1*%
X-15150000Y-34050000D03*
X-15800000Y-34050000D03*
X-16450000Y-34050000D03*
X-16450000Y-35950000D03*
X-15150000Y-35950000D03*
%TD*%
D93*
%TO.C,L2*%
X7350000Y-32355000D03*
X7350000Y-29045000D03*
%TD*%
D106*
%TO.C,U4*%
X7425000Y-26525000D03*
X7425000Y-25875000D03*
X7425000Y-25225000D03*
X5525000Y-25225000D03*
X5525000Y-25875000D03*
X5525000Y-26525000D03*
%TD*%
D122*
%TO.C,FB2*%
X700000Y-38225000D03*
X700000Y-36075000D03*
%TD*%
D22*
%TO.C,T11*%
X16865600Y41960800D03*
%TD*%
D67*
%TO.C,C37*%
X14600000Y29875000D03*
X14600000Y28325000D03*
%TD*%
%TO.C,C1*%
X3825000Y-23825000D03*
X3825000Y-25375000D03*
%TD*%
D94*
%TO.C,C24*%
X-13600000Y-26700000D03*
X-11700000Y-26700000D03*
%TD*%
D81*
%TO.C,H3*%
X21000000Y-40000000D03*
%TD*%
D40*
%TO.C,U16*%
X20715000Y30850000D03*
X21485000Y30850000D03*
X21485000Y31350000D03*
X20715000Y31350000D03*
D41*
X20715000Y31850000D03*
X21485000Y31850000D03*
D40*
X21485000Y32350000D03*
X20715000Y32350000D03*
X20715000Y32850000D03*
X21485000Y32850000D03*
%TD*%
D81*
%TO.C,H204*%
X50000000Y24250000D03*
%TD*%
%TO.C,H203*%
X50000000Y42250000D03*
%TD*%
D50*
%TO.C,H205*%
X45500000Y42250000D03*
%TD*%
D81*
%TO.C,H201*%
X44000000Y33250000D03*
%TD*%
%TO.C,H202*%
X56000000Y33250000D03*
%TD*%
D50*
%TO.C,H206*%
X50000000Y-2250000D03*
%TD*%
M02*
