%TF.GenerationSoftware,KiCad,Pcbnew,5.99.0-1.20210520gite8102d8.fc33*%
%TF.CreationDate,2021-05-23T22:47:13+01:00*%
%TF.ProjectId,bugg-panel-r3,62756767-2d70-4616-9e65-6c2d72332e6b,rev?*%
%TF.SameCoordinates,Original*%
%TF.FileFunction,Other,User*%
%FSLAX46Y46*%
G04 Gerber Fmt 4.6, Leading zero omitted, Abs format (unit mm)*
G04 Created by KiCad (PCBNEW 5.99.0-1.20210520gite8102d8.fc33) date 2021-05-23 22:47:13*
%MOMM*%
%LPD*%
G01*
G04 APERTURE LIST*
%ADD10C,0.300000*%
%TA.AperFunction,Profile*%
%ADD11C,0.160000*%
%TD*%
%TA.AperFunction,Profile*%
%ADD12C,0.100000*%
%TD*%
%ADD13C,0.150000*%
G04 APERTURE END LIST*
D10*
X-39095238Y-30928571D02*
X-41095238Y-30928571D01*
X-39095238Y-29785714D01*
X-41095238Y-29785714D01*
X-39095238Y-28547619D02*
X-39190476Y-28738095D01*
X-39285714Y-28833333D01*
X-39476190Y-28928571D01*
X-40047619Y-28928571D01*
X-40238095Y-28833333D01*
X-40333333Y-28738095D01*
X-40428571Y-28547619D01*
X-40428571Y-28261904D01*
X-40333333Y-28071428D01*
X-40238095Y-27976190D01*
X-40047619Y-27880952D01*
X-39476190Y-27880952D01*
X-39285714Y-27976190D01*
X-39190476Y-28071428D01*
X-39095238Y-28261904D01*
X-39095238Y-28547619D01*
X-39095238Y-25500000D02*
X-40428571Y-25500000D01*
X-40238095Y-25500000D02*
X-40333333Y-25404761D01*
X-40428571Y-25214285D01*
X-40428571Y-24928571D01*
X-40333333Y-24738095D01*
X-40142857Y-24642857D01*
X-39095238Y-24642857D01*
X-40142857Y-24642857D02*
X-40333333Y-24547619D01*
X-40428571Y-24357142D01*
X-40428571Y-24071428D01*
X-40333333Y-23880952D01*
X-40142857Y-23785714D01*
X-39095238Y-23785714D01*
X-39095238Y-22547619D02*
X-39190476Y-22738095D01*
X-39285714Y-22833333D01*
X-39476190Y-22928571D01*
X-40047619Y-22928571D01*
X-40238095Y-22833333D01*
X-40333333Y-22738095D01*
X-40428571Y-22547619D01*
X-40428571Y-22261904D01*
X-40333333Y-22071428D01*
X-40238095Y-21976190D01*
X-40047619Y-21880952D01*
X-39476190Y-21880952D01*
X-39285714Y-21976190D01*
X-39190476Y-22071428D01*
X-39095238Y-22261904D01*
X-39095238Y-22547619D01*
X-40428571Y-20166666D02*
X-39095238Y-20166666D01*
X-40428571Y-21023809D02*
X-39380952Y-21023809D01*
X-39190476Y-20928571D01*
X-39095238Y-20738095D01*
X-39095238Y-20452380D01*
X-39190476Y-20261904D01*
X-39285714Y-20166666D01*
X-39190476Y-19309523D02*
X-39095238Y-19119047D01*
X-39095238Y-18738095D01*
X-39190476Y-18547619D01*
X-39380952Y-18452380D01*
X-39476190Y-18452380D01*
X-39666666Y-18547619D01*
X-39761904Y-18738095D01*
X-39761904Y-19023809D01*
X-39857142Y-19214285D01*
X-40047619Y-19309523D01*
X-40142857Y-19309523D01*
X-40333333Y-19214285D01*
X-40428571Y-19023809D01*
X-40428571Y-18738095D01*
X-40333333Y-18547619D01*
X-39190476Y-16833333D02*
X-39095238Y-17023809D01*
X-39095238Y-17404761D01*
X-39190476Y-17595238D01*
X-39380952Y-17690476D01*
X-40142857Y-17690476D01*
X-40333333Y-17595238D01*
X-40428571Y-17404761D01*
X-40428571Y-17023809D01*
X-40333333Y-16833333D01*
X-40142857Y-16738095D01*
X-39952380Y-16738095D01*
X-39761904Y-17690476D01*
X-39095238Y-14357142D02*
X-41095238Y-14357142D01*
X-40333333Y-14357142D02*
X-40428571Y-14166666D01*
X-40428571Y-13785714D01*
X-40333333Y-13595238D01*
X-40238095Y-13500000D01*
X-40047619Y-13404761D01*
X-39476190Y-13404761D01*
X-39285714Y-13500000D01*
X-39190476Y-13595238D01*
X-39095238Y-13785714D01*
X-39095238Y-14166666D01*
X-39190476Y-14357142D01*
X-39095238Y-12547619D02*
X-40428571Y-12547619D01*
X-41095238Y-12547619D02*
X-41000000Y-12642857D01*
X-40904761Y-12547619D01*
X-41000000Y-12452380D01*
X-41095238Y-12547619D01*
X-40904761Y-12547619D01*
X-40428571Y-11880952D02*
X-40428571Y-11119047D01*
X-41095238Y-11595238D02*
X-39380952Y-11595238D01*
X-39190476Y-11500000D01*
X-39095238Y-11309523D01*
X-39095238Y-11119047D01*
X-39190476Y-9690476D02*
X-39095238Y-9880952D01*
X-39095238Y-10261904D01*
X-39190476Y-10452380D01*
X-39380952Y-10547619D01*
X-40142857Y-10547619D01*
X-40333333Y-10452380D01*
X-40428571Y-10261904D01*
X-40428571Y-9880952D01*
X-40333333Y-9690476D01*
X-40142857Y-9595238D01*
X-39952380Y-9595238D01*
X-39761904Y-10547619D01*
X-39190476Y-8833333D02*
X-39095238Y-8642857D01*
X-39095238Y-8261904D01*
X-39190476Y-8071428D01*
X-39380952Y-7976190D01*
X-39476190Y-7976190D01*
X-39666666Y-8071428D01*
X-39761904Y-8261904D01*
X-39761904Y-8547619D01*
X-39857142Y-8738095D01*
X-40047619Y-8833333D01*
X-40142857Y-8833333D01*
X-40333333Y-8738095D01*
X-40428571Y-8547619D01*
X-40428571Y-8261904D01*
X-40333333Y-8071428D01*
X-39095238Y-5595238D02*
X-41095238Y-5595238D01*
X-39095238Y-4738095D02*
X-40142857Y-4738095D01*
X-40333333Y-4833333D01*
X-40428571Y-5023809D01*
X-40428571Y-5309523D01*
X-40333333Y-5500000D01*
X-40238095Y-5595238D01*
X-39190476Y-3023809D02*
X-39095238Y-3214285D01*
X-39095238Y-3595238D01*
X-39190476Y-3785714D01*
X-39380952Y-3880952D01*
X-40142857Y-3880952D01*
X-40333333Y-3785714D01*
X-40428571Y-3595238D01*
X-40428571Y-3214285D01*
X-40333333Y-3023809D01*
X-40142857Y-2928571D01*
X-39952380Y-2928571D01*
X-39761904Y-3880952D01*
X-39095238Y-2071428D02*
X-40428571Y-2071428D01*
X-40047619Y-2071428D02*
X-40238095Y-1976190D01*
X-40333333Y-1880952D01*
X-40428571Y-1690476D01*
X-40428571Y-1500000D01*
X-39190476Y-71428D02*
X-39095238Y-261904D01*
X-39095238Y-642857D01*
X-39190476Y-833333D01*
X-39380952Y-928571D01*
X-40142857Y-928571D01*
X-40333333Y-833333D01*
X-40428571Y-642857D01*
X-40428571Y-261904D01*
X-40333333Y-71428D01*
X-40142857Y23809D01*
X-39952380Y23809D01*
X-39761904Y-928571D01*
D11*
X-28000000Y16000000D02*
G75*
G02*
X-26500000Y14500000I0J-1500000D01*
G01*
D12*
X52000000Y-18250000D02*
X42000000Y-18250000D01*
X41450000Y-5250000D02*
X43950000Y-7750000D01*
D13*
X-37500000Y500000D02*
X-37500000Y-32000000D01*
D11*
X-19448000Y9380000D02*
X-26500000Y9750000D01*
X45843848Y-4323576D02*
G75*
G03*
X46663000Y-4750000I819152J573576D01*
G01*
D12*
X52999997Y-8749997D02*
G75*
G03*
X52000000Y-7750000I-999997J0D01*
G01*
D11*
X-26500000Y-32250000D02*
X-26500000Y-30250000D01*
D12*
X31000000Y-29100000D02*
X31000000Y-19400000D01*
D11*
X55819971Y46323150D02*
G75*
G03*
X55000000Y46750000I-819971J-574150D01*
G01*
X-26500000Y-46500000D02*
X-26500000Y-41750000D01*
X-28800000Y-29250000D02*
X-28800000Y-2750000D01*
D12*
X28500000Y45300000D02*
X28500000Y47500000D01*
D11*
X-28800000Y-2750000D02*
X-27500000Y-2750000D01*
X31181000Y16617000D02*
X45844000Y-4324000D01*
D12*
X31000000Y-14000000D02*
X31000000Y-6250000D01*
D11*
X27000000Y49000000D02*
G75*
G02*
X28500000Y47500000I0J-1500000D01*
G01*
X24000000Y49000000D02*
G75*
G02*
X16500000Y56500000I0J7500000D01*
G01*
X28500000Y-46500000D02*
G75*
G02*
X27000000Y-48000000I-1500000J0D01*
G01*
D12*
X28500000Y22800000D02*
X28500000Y39900000D01*
D11*
X-16500000Y59500000D02*
G75*
G02*
X-15000000Y61000000I1500000J0D01*
G01*
D12*
X32000000Y-5250000D02*
X41450000Y-5250000D01*
D11*
X15000000Y61000000D02*
X-15000000Y61000000D01*
D12*
X41000000Y-19250000D02*
X41000000Y-34750000D01*
D11*
X-28500000Y47500000D02*
X-28500000Y16000000D01*
D12*
X28500000Y-34500000D02*
X28500000Y-46500000D01*
D13*
X-37500000Y-32000000D02*
X-33500000Y-32000000D01*
D11*
X46663000Y-4750000D02*
X53500000Y-4750000D01*
X55500000Y28250000D02*
X59000000Y28250000D01*
X31000000Y17400000D02*
X31000000Y17191000D01*
X-16500000Y56500000D02*
G75*
G02*
X-24000000Y49000000I-7500000J0D01*
G01*
X24000000Y49000000D02*
X27000000Y49000000D01*
D12*
X31000003Y-34750003D02*
G75*
G03*
X32000000Y-35750000I999997J0D01*
G01*
D11*
X-26500000Y-1750000D02*
G75*
G02*
X-27500000Y-2750000I-1000000J0D01*
G01*
D12*
X28500000Y-29100000D02*
X28500000Y-19400000D01*
D13*
X-33500000Y500000D02*
X-37500000Y500000D01*
D11*
X-18500000Y1618000D02*
X-18500000Y8382000D01*
X-18500000Y-40382000D02*
X-18500000Y-33618000D01*
X27000000Y-48000000D02*
X-25000000Y-48000000D01*
X-26500000Y-1750000D02*
X-26500000Y250000D01*
D12*
X40000003Y-35749997D02*
G75*
G03*
X41000000Y-34750000I0J999997D01*
G01*
D11*
X-26500000Y250000D02*
X-19448000Y620000D01*
D12*
X31000000Y45300000D02*
X31000000Y45750000D01*
D11*
X-19447664Y9380630D02*
G75*
G02*
X-18500000Y8382000I-52336J-998630D01*
G01*
X30999882Y17190566D02*
G75*
G03*
X31181000Y16617000I1000118J434D01*
G01*
X-26500000Y9750000D02*
X-26500000Y14500000D01*
X54500000Y-3750000D02*
X54500000Y27250000D01*
X-18500646Y-40382303D02*
G75*
G02*
X-19448000Y-41380000I-999354J303D01*
G01*
D12*
X31000000Y22800000D02*
X31000000Y39900000D01*
D11*
X-27500000Y-29250000D02*
G75*
G02*
X-26500000Y-30250000I0J-1000000D01*
G01*
X55500000Y28250000D02*
G75*
G03*
X54500000Y27250000I0J-1000000D01*
G01*
X-28500000Y47500000D02*
G75*
G02*
X-27000000Y49000000I1500000J0D01*
G01*
X-19447664Y-32619370D02*
G75*
G02*
X-18500000Y-33618000I-52336J-998630D01*
G01*
X-19448000Y-32620000D02*
X-26500000Y-32250000D01*
D12*
X43950000Y-7750000D02*
X52000000Y-7750000D01*
X31999997Y-5250003D02*
G75*
G03*
X31000000Y-6250000I0J-999997D01*
G01*
D11*
X-26500000Y-41750000D02*
X-19448000Y-41380000D01*
X16500000Y56500000D02*
X16500000Y59500000D01*
X53500000Y-4750000D02*
G75*
G03*
X54500000Y-3750000I0J1000000D01*
G01*
X-16500000Y56500000D02*
X-16500000Y59500000D01*
X59819000Y40612000D02*
X55820000Y46323000D01*
X32000685Y46750000D02*
G75*
G03*
X31000000Y45750000I-1685J-999000D01*
G01*
X58999747Y28250000D02*
G75*
G03*
X60000000Y29250000I-747J1001000D01*
G01*
X-28000000Y16000000D02*
X-28500000Y16000000D01*
X59999938Y40037861D02*
G75*
G03*
X59819000Y40612000I-1000938J139D01*
G01*
D12*
X52000003Y-18249997D02*
G75*
G03*
X53000000Y-17250000I0J999997D01*
G01*
X53000000Y-8750000D02*
X53000000Y-17250000D01*
D11*
X-18500646Y1617697D02*
G75*
G02*
X-19448000Y620000I-999354J303D01*
G01*
X-25000000Y-48000000D02*
G75*
G02*
X-26500000Y-46500000I0J1500000D01*
G01*
D12*
X41999997Y-18250003D02*
G75*
G03*
X41000000Y-19250000I0J-999997D01*
G01*
D11*
X-24000000Y49000000D02*
X-27000000Y49000000D01*
D12*
X40000000Y-35750000D02*
X32000000Y-35750000D01*
D11*
X55000000Y46750000D02*
X32000000Y46750000D01*
D12*
X31000000Y-34750000D02*
X31000000Y-34500000D01*
D11*
X15000000Y61000000D02*
G75*
G02*
X16500000Y59500000I0J-1500000D01*
G01*
X-27500000Y-29250000D02*
X-28800000Y-29250000D01*
D12*
X28500000Y-14000000D02*
X28500000Y17400000D01*
D11*
X60000000Y29250000D02*
X60000000Y40038000D01*
D12*
%TO.C,REF\u002A\u002A*%
X29800000Y-18200000D02*
X29700000Y-18200000D01*
X29700000Y-15200000D02*
X29800000Y-15200000D01*
X29800002Y-18199998D02*
G75*
G02*
X31000000Y-19400000I-2J-1200000D01*
G01*
X29800002Y-15199998D02*
G75*
G03*
X31000000Y-14000000I0J1199998D01*
G01*
X29699998Y-15200002D02*
G75*
G02*
X28500000Y-14000000I2J1200000D01*
G01*
X29699998Y-18200002D02*
G75*
G03*
X28500000Y-19400000I0J-1199998D01*
G01*
X29700000Y-30300000D02*
X29800000Y-30300000D01*
X29800000Y-33300000D02*
X29700000Y-33300000D01*
X29699998Y-33300002D02*
G75*
G03*
X28500000Y-34500000I0J-1199998D01*
G01*
X29800002Y-30299998D02*
G75*
G03*
X31000000Y-29100000I0J1199998D01*
G01*
X29699998Y-30300002D02*
G75*
G02*
X28500000Y-29100000I2J1200000D01*
G01*
X29800002Y-33299998D02*
G75*
G02*
X31000000Y-34500000I-2J-1200000D01*
G01*
X29800000Y41100000D02*
X29700000Y41100000D01*
X29700000Y44100000D02*
X29800000Y44100000D01*
X29800002Y44100002D02*
G75*
G03*
X31000000Y45300000I0J1199998D01*
G01*
X29800002Y41100002D02*
G75*
G02*
X31000000Y39900000I-2J-1200000D01*
G01*
X29699998Y41099998D02*
G75*
G03*
X28500000Y39900000I0J-1199998D01*
G01*
X29699998Y44099998D02*
G75*
G02*
X28500000Y45300000I2J1200000D01*
G01*
X29800000Y18600000D02*
X29700000Y18600000D01*
X29700000Y21600000D02*
X29800000Y21600000D01*
X29699998Y21599998D02*
G75*
G02*
X28500000Y22800000I2J1200000D01*
G01*
X29699998Y18599998D02*
G75*
G03*
X28500000Y17400000I0J-1199998D01*
G01*
X29800002Y21600002D02*
G75*
G03*
X31000000Y22800000I0J1199998D01*
G01*
X29800002Y18600002D02*
G75*
G02*
X31000000Y17400000I-2J-1200000D01*
G01*
%TD*%
M02*
