%TF.GenerationSoftware,KiCad,Pcbnew,5.99.0-1.20210520gite8102d8.fc33*%
%TF.CreationDate,2021-05-24T11:11:45+01:00*%
%TF.ProjectId,bugg-panel-r3,62756767-2d70-4616-9e65-6c2d72332e6b,rev?*%
%TF.SameCoordinates,Original*%
%TF.FileFunction,Legend,Top*%
%TF.FilePolarity,Positive*%
%FSLAX46Y46*%
G04 Gerber Fmt 4.6, Leading zero omitted, Abs format (unit mm)*
G04 Created by KiCad (PCBNEW 5.99.0-1.20210520gite8102d8.fc33) date 2021-05-24 11:11:45*
%MOMM*%
%LPD*%
G01*
G04 APERTURE LIST*
%ADD10C,0.200000*%
%ADD11C,0.150000*%
%ADD12C,0.120000*%
%ADD13C,0.010000*%
%ADD14C,0.100000*%
%ADD15C,0.127000*%
%ADD16C,0.508000*%
G04 APERTURE END LIST*
D10*
X-250000Y-27000000D02*
G75*
G03*
X-250000Y-27000000I-100000J0D01*
G01*
X17250000Y-23150000D02*
G75*
G03*
X17250000Y-23150000I-100000J0D01*
G01*
X-18100000Y900000D02*
G75*
G03*
X-18100000Y900000I-100000J0D01*
G01*
X-15000000Y900000D02*
G75*
G03*
X-15000000Y900000I-100000J0D01*
G01*
X-11700000Y-20900000D02*
G75*
G03*
X-11700000Y-20900000I-100000J0D01*
G01*
X22450000Y30450000D02*
G75*
G03*
X22450000Y30450000I-100000J0D01*
G01*
X8100000Y-27000000D02*
G75*
G03*
X8100000Y-27000000I-100000J0D01*
G01*
D11*
X45361904Y-17271428D02*
X45361904Y-17728571D01*
X45361904Y-17500000D02*
X44561904Y-17500000D01*
X44676190Y-17576190D01*
X44752380Y-17652380D01*
X44790476Y-17728571D01*
X39878571Y38788095D02*
X39421428Y38788095D01*
X39650000Y38788095D02*
X39650000Y39588095D01*
X39573809Y39473809D01*
X39497619Y39397619D01*
X39421428Y39359523D01*
X48561904Y-17259523D02*
X48561904Y-17640476D01*
X48942857Y-17678571D01*
X48904761Y-17640476D01*
X48866666Y-17564285D01*
X48866666Y-17373809D01*
X48904761Y-17297619D01*
X48942857Y-17259523D01*
X49019047Y-17221428D01*
X49209523Y-17221428D01*
X49285714Y-17259523D01*
X49323809Y-17297619D01*
X49361904Y-17373809D01*
X49361904Y-17564285D01*
X49323809Y-17640476D01*
X49285714Y-17678571D01*
D10*
X15491904Y-44842857D02*
X15491904Y-45814285D01*
X15544285Y-45928571D01*
X15596666Y-45985714D01*
X15701428Y-46042857D01*
X15910952Y-46042857D01*
X16015714Y-45985714D01*
X16068095Y-45928571D01*
X16120476Y-45814285D01*
X16120476Y-44842857D01*
X16591904Y-45985714D02*
X16696666Y-46042857D01*
X16906190Y-46042857D01*
X17010952Y-45985714D01*
X17063333Y-45871428D01*
X17063333Y-45814285D01*
X17010952Y-45700000D01*
X16906190Y-45642857D01*
X16749047Y-45642857D01*
X16644285Y-45585714D01*
X16591904Y-45471428D01*
X16591904Y-45414285D01*
X16644285Y-45300000D01*
X16749047Y-45242857D01*
X16906190Y-45242857D01*
X17010952Y-45300000D01*
X17953809Y-45985714D02*
X17849047Y-46042857D01*
X17639523Y-46042857D01*
X17534761Y-45985714D01*
X17482380Y-45871428D01*
X17482380Y-45414285D01*
X17534761Y-45300000D01*
X17639523Y-45242857D01*
X17849047Y-45242857D01*
X17953809Y-45300000D01*
X18006190Y-45414285D01*
X18006190Y-45528571D01*
X17482380Y-45642857D01*
X18477619Y-46042857D02*
X18477619Y-45242857D01*
X18477619Y-45471428D02*
X18530000Y-45357142D01*
X18582380Y-45300000D01*
X18687142Y-45242857D01*
X18791904Y-45242857D01*
X-8560476Y-45700000D02*
X-8036666Y-45700000D01*
X-8665238Y-46042857D02*
X-8298571Y-44842857D01*
X-7931904Y-46042857D01*
X-7093809Y-45985714D02*
X-7198571Y-46042857D01*
X-7408095Y-46042857D01*
X-7512857Y-45985714D01*
X-7565238Y-45928571D01*
X-7617619Y-45814285D01*
X-7617619Y-45471428D01*
X-7565238Y-45357142D01*
X-7512857Y-45300000D01*
X-7408095Y-45242857D01*
X-7198571Y-45242857D01*
X-7093809Y-45300000D01*
X-6779523Y-45242857D02*
X-6360476Y-45242857D01*
X-6622380Y-44842857D02*
X-6622380Y-45871428D01*
X-6570000Y-45985714D01*
X-6465238Y-46042857D01*
X-6360476Y-46042857D01*
X-5993809Y-46042857D02*
X-5993809Y-45242857D01*
X-5993809Y-44842857D02*
X-6046190Y-44900000D01*
X-5993809Y-44957142D01*
X-5941428Y-44900000D01*
X-5993809Y-44842857D01*
X-5993809Y-44957142D01*
X-5574761Y-45242857D02*
X-5312857Y-46042857D01*
X-5050952Y-45242857D01*
X-4631904Y-46042857D02*
X-4631904Y-45242857D01*
X-4631904Y-44842857D02*
X-4684285Y-44900000D01*
X-4631904Y-44957142D01*
X-4579523Y-44900000D01*
X-4631904Y-44842857D01*
X-4631904Y-44957142D01*
X-4265238Y-45242857D02*
X-3846190Y-45242857D01*
X-4108095Y-44842857D02*
X-4108095Y-45871428D01*
X-4055714Y-45985714D01*
X-3950952Y-46042857D01*
X-3846190Y-46042857D01*
X-3584285Y-45242857D02*
X-3322380Y-46042857D01*
X-3060476Y-45242857D02*
X-3322380Y-46042857D01*
X-3427142Y-46328571D01*
X-3479523Y-46385714D01*
X-3584285Y-46442857D01*
D11*
X42840476Y20588095D02*
X42459523Y20588095D01*
X42421428Y20207142D01*
X42459523Y20245238D01*
X42535714Y20283333D01*
X42726190Y20283333D01*
X42802380Y20245238D01*
X42840476Y20207142D01*
X42878571Y20130952D01*
X42878571Y19940476D01*
X42840476Y19864285D01*
X42802380Y19826190D01*
X42726190Y19788095D01*
X42535714Y19788095D01*
X42459523Y19826190D01*
X42421428Y19864285D01*
X42878571Y23788095D02*
X42421428Y23788095D01*
X42650000Y23788095D02*
X42650000Y24588095D01*
X42573809Y24473809D01*
X42497619Y24397619D01*
X42421428Y24359523D01*
X46561904Y-17766666D02*
X46561904Y-17271428D01*
X46866666Y-17538095D01*
X46866666Y-17423809D01*
X46904761Y-17347619D01*
X46942857Y-17309523D01*
X47019047Y-17271428D01*
X47209523Y-17271428D01*
X47285714Y-17309523D01*
X47323809Y-17347619D01*
X47361904Y-17423809D01*
X47361904Y-17652380D01*
X47323809Y-17728571D01*
X47285714Y-17766666D01*
X7353333Y28530495D02*
X7353333Y27959066D01*
X7315238Y27844780D01*
X7239047Y27768590D01*
X7124761Y27730495D01*
X7048571Y27730495D01*
X7772380Y27730495D02*
X7924761Y27730495D01*
X8000952Y27768590D01*
X8039047Y27806685D01*
X8115238Y27920971D01*
X8153333Y28073352D01*
X8153333Y28378114D01*
X8115238Y28454304D01*
X8077142Y28492400D01*
X8000952Y28530495D01*
X7848571Y28530495D01*
X7772380Y28492400D01*
X7734285Y28454304D01*
X7696190Y28378114D01*
X7696190Y28187638D01*
X7734285Y28111447D01*
X7772380Y28073352D01*
X7848571Y28035257D01*
X8000952Y28035257D01*
X8077142Y28073352D01*
X8115238Y28111447D01*
X8153333Y28187638D01*
X41109523Y-15838095D02*
X40652380Y-15838095D01*
X40880952Y-15038095D02*
X40880952Y-15838095D01*
X40385714Y-15038095D02*
X40385714Y-15838095D01*
X40080952Y-15838095D01*
X40004761Y-15800000D01*
X39966666Y-15761904D01*
X39928571Y-15685714D01*
X39928571Y-15571428D01*
X39966666Y-15495238D01*
X40004761Y-15457142D01*
X40080952Y-15419047D01*
X40385714Y-15419047D01*
X39661904Y-15838095D02*
X39166666Y-15838095D01*
X39433333Y-15533333D01*
X39319047Y-15533333D01*
X39242857Y-15495238D01*
X39204761Y-15457142D01*
X39166666Y-15380952D01*
X39166666Y-15190476D01*
X39204761Y-15114285D01*
X39242857Y-15076190D01*
X39319047Y-15038095D01*
X39547619Y-15038095D01*
X39623809Y-15076190D01*
X39661904Y-15114285D01*
X42383333Y18588095D02*
X42916666Y18588095D01*
X42573809Y17788095D01*
X50561904Y-17716666D02*
X50561904Y-17183333D01*
X51361904Y-17526190D01*
X42161904Y-11059523D02*
X42161904Y-10602380D01*
X42961904Y-10830952D02*
X42161904Y-10830952D01*
X42961904Y-10335714D02*
X42161904Y-10335714D01*
X42161904Y-10030952D01*
X42200000Y-9954761D01*
X42238095Y-9916666D01*
X42314285Y-9878571D01*
X42428571Y-9878571D01*
X42504761Y-9916666D01*
X42542857Y-9954761D01*
X42580952Y-10030952D01*
X42580952Y-10335714D01*
X42961904Y-9116666D02*
X42961904Y-9573809D01*
X42961904Y-9345238D02*
X42161904Y-9345238D01*
X42276190Y-9421428D01*
X42352380Y-9497619D01*
X42390476Y-9573809D01*
X-5499066Y28530495D02*
X-5499066Y27959066D01*
X-5537161Y27844780D01*
X-5613352Y27768590D01*
X-5727638Y27730495D01*
X-5803828Y27730495D01*
X-4699066Y27730495D02*
X-5156209Y27730495D01*
X-4927638Y27730495D02*
X-4927638Y28530495D01*
X-5003828Y28416209D01*
X-5080019Y28340019D01*
X-5156209Y28301923D01*
X43459523Y-15838095D02*
X43002380Y-15838095D01*
X43230952Y-15038095D02*
X43230952Y-15838095D01*
X42735714Y-15038095D02*
X42735714Y-15838095D01*
X42430952Y-15838095D01*
X42354761Y-15800000D01*
X42316666Y-15761904D01*
X42278571Y-15685714D01*
X42278571Y-15571428D01*
X42316666Y-15495238D01*
X42354761Y-15457142D01*
X42430952Y-15419047D01*
X42735714Y-15419047D01*
X42011904Y-15838095D02*
X41516666Y-15838095D01*
X41783333Y-15533333D01*
X41669047Y-15533333D01*
X41592857Y-15495238D01*
X41554761Y-15457142D01*
X41516666Y-15380952D01*
X41516666Y-15190476D01*
X41554761Y-15114285D01*
X41592857Y-15076190D01*
X41669047Y-15038095D01*
X41897619Y-15038095D01*
X41973809Y-15076190D01*
X42011904Y-15114285D01*
X42383333Y22588095D02*
X42878571Y22588095D01*
X42611904Y22283333D01*
X42726190Y22283333D01*
X42802380Y22245238D01*
X42840476Y22207142D01*
X42878571Y22130952D01*
X42878571Y21940476D01*
X42840476Y21864285D01*
X42802380Y21826190D01*
X42726190Y21788095D01*
X42497619Y21788095D01*
X42421428Y21826190D01*
X42383333Y21864285D01*
D10*
X3334761Y-44842857D02*
X3963333Y-44842857D01*
X3649047Y-46042857D02*
X3649047Y-44842857D01*
X4330000Y-46042857D02*
X4330000Y-45242857D01*
X4330000Y-45471428D02*
X4382380Y-45357142D01*
X4434761Y-45300000D01*
X4539523Y-45242857D01*
X4644285Y-45242857D01*
X5482380Y-46042857D02*
X5482380Y-45414285D01*
X5430000Y-45300000D01*
X5325238Y-45242857D01*
X5115714Y-45242857D01*
X5010952Y-45300000D01*
X5482380Y-45985714D02*
X5377619Y-46042857D01*
X5115714Y-46042857D01*
X5010952Y-45985714D01*
X4958571Y-45871428D01*
X4958571Y-45757142D01*
X5010952Y-45642857D01*
X5115714Y-45585714D01*
X5377619Y-45585714D01*
X5482380Y-45528571D01*
X6006190Y-45242857D02*
X6006190Y-46042857D01*
X6006190Y-45357142D02*
X6058571Y-45300000D01*
X6163333Y-45242857D01*
X6320476Y-45242857D01*
X6425238Y-45300000D01*
X6477619Y-45414285D01*
X6477619Y-46042857D01*
X6949047Y-45985714D02*
X7053809Y-46042857D01*
X7263333Y-46042857D01*
X7368095Y-45985714D01*
X7420476Y-45871428D01*
X7420476Y-45814285D01*
X7368095Y-45700000D01*
X7263333Y-45642857D01*
X7106190Y-45642857D01*
X7001428Y-45585714D01*
X6949047Y-45471428D01*
X6949047Y-45414285D01*
X7001428Y-45300000D01*
X7106190Y-45242857D01*
X7263333Y-45242857D01*
X7368095Y-45300000D01*
X7891904Y-46042857D02*
X7891904Y-45242857D01*
X7891904Y-45357142D02*
X7944285Y-45300000D01*
X8049047Y-45242857D01*
X8206190Y-45242857D01*
X8310952Y-45300000D01*
X8363333Y-45414285D01*
X8363333Y-46042857D01*
X8363333Y-45414285D02*
X8415714Y-45300000D01*
X8520476Y-45242857D01*
X8677619Y-45242857D01*
X8782380Y-45300000D01*
X8834761Y-45414285D01*
X8834761Y-46042857D01*
X9358571Y-46042857D02*
X9358571Y-45242857D01*
X9358571Y-44842857D02*
X9306190Y-44900000D01*
X9358571Y-44957142D01*
X9410952Y-44900000D01*
X9358571Y-44842857D01*
X9358571Y-44957142D01*
X9725238Y-45242857D02*
X10144285Y-45242857D01*
X9882380Y-44842857D02*
X9882380Y-45871428D01*
X9934761Y-45985714D01*
X10039523Y-46042857D01*
X10144285Y-46042857D01*
X-20508095Y-46042857D02*
X-20508095Y-44842857D01*
X-20089047Y-44842857D01*
X-19984285Y-44900000D01*
X-19931904Y-44957142D01*
X-19879523Y-45071428D01*
X-19879523Y-45242857D01*
X-19931904Y-45357142D01*
X-19984285Y-45414285D01*
X-20089047Y-45471428D01*
X-20508095Y-45471428D01*
X-19250952Y-46042857D02*
X-19355714Y-45985714D01*
X-19408095Y-45928571D01*
X-19460476Y-45814285D01*
X-19460476Y-45471428D01*
X-19408095Y-45357142D01*
X-19355714Y-45300000D01*
X-19250952Y-45242857D01*
X-19093809Y-45242857D01*
X-18989047Y-45300000D01*
X-18936666Y-45357142D01*
X-18884285Y-45471428D01*
X-18884285Y-45814285D01*
X-18936666Y-45928571D01*
X-18989047Y-45985714D01*
X-19093809Y-46042857D01*
X-19250952Y-46042857D01*
X-18517619Y-45242857D02*
X-18308095Y-46042857D01*
X-18098571Y-45471428D01*
X-17889047Y-46042857D01*
X-17679523Y-45242857D01*
X-16841428Y-45985714D02*
X-16946190Y-46042857D01*
X-17155714Y-46042857D01*
X-17260476Y-45985714D01*
X-17312857Y-45871428D01*
X-17312857Y-45414285D01*
X-17260476Y-45300000D01*
X-17155714Y-45242857D01*
X-16946190Y-45242857D01*
X-16841428Y-45300000D01*
X-16789047Y-45414285D01*
X-16789047Y-45528571D01*
X-17312857Y-45642857D01*
X-16317619Y-46042857D02*
X-16317619Y-45242857D01*
X-16317619Y-45471428D02*
X-16265238Y-45357142D01*
X-16212857Y-45300000D01*
X-16108095Y-45242857D01*
X-16003333Y-45242857D01*
D11*
%TO.C,T10*%
X15875123Y40646495D02*
X16332266Y40646495D01*
X16103695Y39846495D02*
X16103695Y40646495D01*
X17017980Y39846495D02*
X16560838Y39846495D01*
X16789409Y39846495D02*
X16789409Y40646495D01*
X16713219Y40532209D01*
X16637028Y40456019D01*
X16560838Y40417923D01*
X17513219Y40646495D02*
X17589409Y40646495D01*
X17665600Y40608400D01*
X17703695Y40570304D01*
X17741790Y40494114D01*
X17779885Y40341733D01*
X17779885Y40151257D01*
X17741790Y39998876D01*
X17703695Y39922685D01*
X17665600Y39884590D01*
X17589409Y39846495D01*
X17513219Y39846495D01*
X17437028Y39884590D01*
X17398933Y39922685D01*
X17360838Y39998876D01*
X17322742Y40151257D01*
X17322742Y40341733D01*
X17360838Y40494114D01*
X17398933Y40570304D01*
X17437028Y40608400D01*
X17513219Y40646495D01*
%TO.C,J10*%
X18090476Y-26152380D02*
X18090476Y-26866666D01*
X18042857Y-27009523D01*
X17947619Y-27104761D01*
X17804761Y-27152380D01*
X17709523Y-27152380D01*
X19090476Y-27152380D02*
X18519047Y-27152380D01*
X18804761Y-27152380D02*
X18804761Y-26152380D01*
X18709523Y-26295238D01*
X18614285Y-26390476D01*
X18519047Y-26438095D01*
X19709523Y-26152380D02*
X19804761Y-26152380D01*
X19900000Y-26200000D01*
X19947619Y-26247619D01*
X19995238Y-26342857D01*
X20042857Y-26533333D01*
X20042857Y-26771428D01*
X19995238Y-26961904D01*
X19947619Y-27057142D01*
X19900000Y-27104761D01*
X19804761Y-27152380D01*
X19709523Y-27152380D01*
X19614285Y-27104761D01*
X19566666Y-27057142D01*
X19519047Y-26961904D01*
X19471428Y-26771428D01*
X19471428Y-26533333D01*
X19519047Y-26342857D01*
X19566666Y-26247619D01*
X19614285Y-26200000D01*
X19709523Y-26152380D01*
%TO.C,T7*%
X-14365523Y3943295D02*
X-13908380Y3943295D01*
X-14136952Y3143295D02*
X-14136952Y3943295D01*
X-13717904Y3943295D02*
X-13184571Y3943295D01*
X-13527428Y3143295D01*
%TO.C,T4*%
X-23609523Y-29356504D02*
X-23152380Y-29356504D01*
X-23380952Y-30156504D02*
X-23380952Y-29356504D01*
X-22542857Y-29623171D02*
X-22542857Y-30156504D01*
X-22733333Y-29318409D02*
X-22923809Y-29889838D01*
X-22428571Y-29889838D01*
%TO.C,T15*%
X-24990476Y12886095D02*
X-24533333Y12886095D01*
X-24761904Y12086095D02*
X-24761904Y12886095D01*
X-23847619Y12086095D02*
X-24304761Y12086095D01*
X-24076190Y12086095D02*
X-24076190Y12886095D01*
X-24152380Y12771809D01*
X-24228571Y12695619D01*
X-24304761Y12657523D01*
X-23123809Y12886095D02*
X-23504761Y12886095D01*
X-23542857Y12505142D01*
X-23504761Y12543238D01*
X-23428571Y12581333D01*
X-23238095Y12581333D01*
X-23161904Y12543238D01*
X-23123809Y12505142D01*
X-23085714Y12428952D01*
X-23085714Y12238476D01*
X-23123809Y12162285D01*
X-23161904Y12124190D01*
X-23238095Y12086095D01*
X-23428571Y12086095D01*
X-23504761Y12124190D01*
X-23542857Y12162285D01*
%TO.C,LED203*%
X53602380Y378571D02*
X53602380Y-97619D01*
X52602380Y-97619D01*
X53078571Y711904D02*
X53078571Y1045238D01*
X53602380Y1188095D02*
X53602380Y711904D01*
X52602380Y711904D01*
X52602380Y1188095D01*
X53602380Y1616666D02*
X52602380Y1616666D01*
X52602380Y1854761D01*
X52650000Y1997619D01*
X52745238Y2092857D01*
X52840476Y2140476D01*
X53030952Y2188095D01*
X53173809Y2188095D01*
X53364285Y2140476D01*
X53459523Y2092857D01*
X53554761Y1997619D01*
X53602380Y1854761D01*
X53602380Y1616666D01*
X52697619Y2569047D02*
X52650000Y2616666D01*
X52602380Y2711904D01*
X52602380Y2950000D01*
X52650000Y3045238D01*
X52697619Y3092857D01*
X52792857Y3140476D01*
X52888095Y3140476D01*
X53030952Y3092857D01*
X53602380Y2521428D01*
X53602380Y3140476D01*
X52602380Y3759523D02*
X52602380Y3854761D01*
X52650000Y3950000D01*
X52697619Y3997619D01*
X52792857Y4045238D01*
X52983333Y4092857D01*
X53221428Y4092857D01*
X53411904Y4045238D01*
X53507142Y3997619D01*
X53554761Y3950000D01*
X53602380Y3854761D01*
X53602380Y3759523D01*
X53554761Y3664285D01*
X53507142Y3616666D01*
X53411904Y3569047D01*
X53221428Y3521428D01*
X52983333Y3521428D01*
X52792857Y3569047D01*
X52697619Y3616666D01*
X52650000Y3664285D01*
X52602380Y3759523D01*
X52602380Y4426190D02*
X52602380Y5045238D01*
X52983333Y4711904D01*
X52983333Y4854761D01*
X53030952Y4950000D01*
X53078571Y4997619D01*
X53173809Y5045238D01*
X53411904Y5045238D01*
X53507142Y4997619D01*
X53554761Y4950000D01*
X53602380Y4854761D01*
X53602380Y4569047D01*
X53554761Y4473809D01*
X53507142Y4426190D01*
%TO.C,T1*%
X-16865523Y3943295D02*
X-16408380Y3943295D01*
X-16636952Y3143295D02*
X-16636952Y3943295D01*
X-15722666Y3143295D02*
X-16179809Y3143295D01*
X-15951238Y3143295D02*
X-15951238Y3943295D01*
X-16027428Y3829009D01*
X-16103619Y3752819D01*
X-16179809Y3714723D01*
%TO.C,T2*%
X-22109523Y12886095D02*
X-21652380Y12886095D01*
X-21880952Y12086095D02*
X-21880952Y12886095D01*
X-21423809Y12809904D02*
X-21385714Y12848000D01*
X-21309523Y12886095D01*
X-21119047Y12886095D01*
X-21042857Y12848000D01*
X-21004761Y12809904D01*
X-20966666Y12733714D01*
X-20966666Y12657523D01*
X-21004761Y12543238D01*
X-21461904Y12086095D01*
X-20966666Y12086095D01*
%TO.C,T6*%
X-19634523Y-29381504D02*
X-19177380Y-29381504D01*
X-19405952Y-30181504D02*
X-19405952Y-29381504D01*
X-18567857Y-29381504D02*
X-18720238Y-29381504D01*
X-18796428Y-29419600D01*
X-18834523Y-29457695D01*
X-18910714Y-29571980D01*
X-18948809Y-29724361D01*
X-18948809Y-30029123D01*
X-18910714Y-30105314D01*
X-18872619Y-30143409D01*
X-18796428Y-30181504D01*
X-18644047Y-30181504D01*
X-18567857Y-30143409D01*
X-18529761Y-30105314D01*
X-18491666Y-30029123D01*
X-18491666Y-29838647D01*
X-18529761Y-29762457D01*
X-18567857Y-29724361D01*
X-18644047Y-29686266D01*
X-18796428Y-29686266D01*
X-18872619Y-29724361D01*
X-18910714Y-29762457D01*
X-18948809Y-29838647D01*
%TO.C,Module1*%
X10332380Y-21777142D02*
X9332380Y-21777142D01*
X10046666Y-21443809D01*
X9332380Y-21110476D01*
X10332380Y-21110476D01*
X10332380Y-20491428D02*
X10284761Y-20586666D01*
X10237142Y-20634285D01*
X10141904Y-20681904D01*
X9856190Y-20681904D01*
X9760952Y-20634285D01*
X9713333Y-20586666D01*
X9665714Y-20491428D01*
X9665714Y-20348571D01*
X9713333Y-20253333D01*
X9760952Y-20205714D01*
X9856190Y-20158095D01*
X10141904Y-20158095D01*
X10237142Y-20205714D01*
X10284761Y-20253333D01*
X10332380Y-20348571D01*
X10332380Y-20491428D01*
X10332380Y-19300952D02*
X9332380Y-19300952D01*
X10284761Y-19300952D02*
X10332380Y-19396190D01*
X10332380Y-19586666D01*
X10284761Y-19681904D01*
X10237142Y-19729523D01*
X10141904Y-19777142D01*
X9856190Y-19777142D01*
X9760952Y-19729523D01*
X9713333Y-19681904D01*
X9665714Y-19586666D01*
X9665714Y-19396190D01*
X9713333Y-19300952D01*
X9665714Y-18396190D02*
X10332380Y-18396190D01*
X9665714Y-18824761D02*
X10189523Y-18824761D01*
X10284761Y-18777142D01*
X10332380Y-18681904D01*
X10332380Y-18539047D01*
X10284761Y-18443809D01*
X10237142Y-18396190D01*
X10332380Y-17777142D02*
X10284761Y-17872380D01*
X10189523Y-17920000D01*
X9332380Y-17920000D01*
X10284761Y-17015238D02*
X10332380Y-17110476D01*
X10332380Y-17300952D01*
X10284761Y-17396190D01*
X10189523Y-17443809D01*
X9808571Y-17443809D01*
X9713333Y-17396190D01*
X9665714Y-17300952D01*
X9665714Y-17110476D01*
X9713333Y-17015238D01*
X9808571Y-16967619D01*
X9903809Y-16967619D01*
X9999047Y-17443809D01*
X10332380Y-16015238D02*
X10332380Y-16586666D01*
X10332380Y-16300952D02*
X9332380Y-16300952D01*
X9475238Y-16396190D01*
X9570476Y-16491428D01*
X9618095Y-16586666D01*
%TO.C,T13*%
X-3390476Y-42161904D02*
X-2933333Y-42161904D01*
X-3161904Y-42961904D02*
X-3161904Y-42161904D01*
X-2247619Y-42961904D02*
X-2704761Y-42961904D01*
X-2476190Y-42961904D02*
X-2476190Y-42161904D01*
X-2552380Y-42276190D01*
X-2628571Y-42352380D01*
X-2704761Y-42390476D01*
X-1980952Y-42161904D02*
X-1485714Y-42161904D01*
X-1752380Y-42466666D01*
X-1638095Y-42466666D01*
X-1561904Y-42504761D01*
X-1523809Y-42542857D01*
X-1485714Y-42619047D01*
X-1485714Y-42809523D01*
X-1523809Y-42885714D01*
X-1561904Y-42923809D01*
X-1638095Y-42961904D01*
X-1866666Y-42961904D01*
X-1942857Y-42923809D01*
X-1980952Y-42885714D01*
%TO.C,T12*%
X-6940476Y-42161904D02*
X-6483333Y-42161904D01*
X-6711904Y-42961904D02*
X-6711904Y-42161904D01*
X-5797619Y-42961904D02*
X-6254761Y-42961904D01*
X-6026190Y-42961904D02*
X-6026190Y-42161904D01*
X-6102380Y-42276190D01*
X-6178571Y-42352380D01*
X-6254761Y-42390476D01*
X-5492857Y-42238095D02*
X-5454761Y-42200000D01*
X-5378571Y-42161904D01*
X-5188095Y-42161904D01*
X-5111904Y-42200000D01*
X-5073809Y-42238095D01*
X-5035714Y-42314285D01*
X-5035714Y-42390476D01*
X-5073809Y-42504761D01*
X-5530952Y-42961904D01*
X-5035714Y-42961904D01*
%TO.C,LED202*%
X53602380Y8078571D02*
X53602380Y7602380D01*
X52602380Y7602380D01*
X53078571Y8411904D02*
X53078571Y8745238D01*
X53602380Y8888095D02*
X53602380Y8411904D01*
X52602380Y8411904D01*
X52602380Y8888095D01*
X53602380Y9316666D02*
X52602380Y9316666D01*
X52602380Y9554761D01*
X52650000Y9697619D01*
X52745238Y9792857D01*
X52840476Y9840476D01*
X53030952Y9888095D01*
X53173809Y9888095D01*
X53364285Y9840476D01*
X53459523Y9792857D01*
X53554761Y9697619D01*
X53602380Y9554761D01*
X53602380Y9316666D01*
X52697619Y10269047D02*
X52650000Y10316666D01*
X52602380Y10411904D01*
X52602380Y10650000D01*
X52650000Y10745238D01*
X52697619Y10792857D01*
X52792857Y10840476D01*
X52888095Y10840476D01*
X53030952Y10792857D01*
X53602380Y10221428D01*
X53602380Y10840476D01*
X52602380Y11459523D02*
X52602380Y11554761D01*
X52650000Y11650000D01*
X52697619Y11697619D01*
X52792857Y11745238D01*
X52983333Y11792857D01*
X53221428Y11792857D01*
X53411904Y11745238D01*
X53507142Y11697619D01*
X53554761Y11650000D01*
X53602380Y11554761D01*
X53602380Y11459523D01*
X53554761Y11364285D01*
X53507142Y11316666D01*
X53411904Y11269047D01*
X53221428Y11221428D01*
X52983333Y11221428D01*
X52792857Y11269047D01*
X52697619Y11316666D01*
X52650000Y11364285D01*
X52602380Y11459523D01*
X52697619Y12173809D02*
X52650000Y12221428D01*
X52602380Y12316666D01*
X52602380Y12554761D01*
X52650000Y12650000D01*
X52697619Y12697619D01*
X52792857Y12745238D01*
X52888095Y12745238D01*
X53030952Y12697619D01*
X53602380Y12126190D01*
X53602380Y12745238D01*
%TO.C,T16*%
X-22490476Y15886095D02*
X-22033333Y15886095D01*
X-22261904Y15086095D02*
X-22261904Y15886095D01*
X-21347619Y15086095D02*
X-21804761Y15086095D01*
X-21576190Y15086095D02*
X-21576190Y15886095D01*
X-21652380Y15771809D01*
X-21728571Y15695619D01*
X-21804761Y15657523D01*
X-20661904Y15886095D02*
X-20814285Y15886095D01*
X-20890476Y15848000D01*
X-20928571Y15809904D01*
X-21004761Y15695619D01*
X-21042857Y15543238D01*
X-21042857Y15238476D01*
X-21004761Y15162285D01*
X-20966666Y15124190D01*
X-20890476Y15086095D01*
X-20738095Y15086095D01*
X-20661904Y15124190D01*
X-20623809Y15162285D01*
X-20585714Y15238476D01*
X-20585714Y15428952D01*
X-20623809Y15505142D01*
X-20661904Y15543238D01*
X-20738095Y15581333D01*
X-20890476Y15581333D01*
X-20966666Y15543238D01*
X-21004761Y15505142D01*
X-21042857Y15428952D01*
%TO.C,T5*%
X-21609523Y-29331504D02*
X-21152380Y-29331504D01*
X-21380952Y-30131504D02*
X-21380952Y-29331504D01*
X-20504761Y-29331504D02*
X-20885714Y-29331504D01*
X-20923809Y-29712457D01*
X-20885714Y-29674361D01*
X-20809523Y-29636266D01*
X-20619047Y-29636266D01*
X-20542857Y-29674361D01*
X-20504761Y-29712457D01*
X-20466666Y-29788647D01*
X-20466666Y-29979123D01*
X-20504761Y-30055314D01*
X-20542857Y-30093409D01*
X-20619047Y-30131504D01*
X-20809523Y-30131504D01*
X-20885714Y-30093409D01*
X-20923809Y-30055314D01*
%TO.C,T8*%
X-9093123Y34448895D02*
X-8635980Y34448895D01*
X-8864552Y33648895D02*
X-8864552Y34448895D01*
X-8255028Y34106038D02*
X-8331219Y34144133D01*
X-8369314Y34182228D01*
X-8407409Y34258419D01*
X-8407409Y34296514D01*
X-8369314Y34372704D01*
X-8331219Y34410800D01*
X-8255028Y34448895D01*
X-8102647Y34448895D01*
X-8026457Y34410800D01*
X-7988361Y34372704D01*
X-7950266Y34296514D01*
X-7950266Y34258419D01*
X-7988361Y34182228D01*
X-8026457Y34144133D01*
X-8102647Y34106038D01*
X-8255028Y34106038D01*
X-8331219Y34067942D01*
X-8369314Y34029847D01*
X-8407409Y33953657D01*
X-8407409Y33801276D01*
X-8369314Y33725085D01*
X-8331219Y33686990D01*
X-8255028Y33648895D01*
X-8102647Y33648895D01*
X-8026457Y33686990D01*
X-7988361Y33725085D01*
X-7950266Y33801276D01*
X-7950266Y33953657D01*
X-7988361Y34029847D01*
X-8026457Y34067942D01*
X-8102647Y34106038D01*
%TO.C,T9*%
X-9093123Y31400895D02*
X-8635980Y31400895D01*
X-8864552Y30600895D02*
X-8864552Y31400895D01*
X-8331219Y30600895D02*
X-8178838Y30600895D01*
X-8102647Y30638990D01*
X-8064552Y30677085D01*
X-7988361Y30791371D01*
X-7950266Y30943752D01*
X-7950266Y31248514D01*
X-7988361Y31324704D01*
X-8026457Y31362800D01*
X-8102647Y31400895D01*
X-8255028Y31400895D01*
X-8331219Y31362800D01*
X-8369314Y31324704D01*
X-8407409Y31248514D01*
X-8407409Y31058038D01*
X-8369314Y30981847D01*
X-8331219Y30943752D01*
X-8255028Y30905657D01*
X-8102647Y30905657D01*
X-8026457Y30943752D01*
X-7988361Y30981847D01*
X-7950266Y31058038D01*
%TO.C,T3*%
X-25609523Y-29381504D02*
X-25152380Y-29381504D01*
X-25380952Y-30181504D02*
X-25380952Y-29381504D01*
X-24961904Y-29381504D02*
X-24466666Y-29381504D01*
X-24733333Y-29686266D01*
X-24619047Y-29686266D01*
X-24542857Y-29724361D01*
X-24504761Y-29762457D01*
X-24466666Y-29838647D01*
X-24466666Y-30029123D01*
X-24504761Y-30105314D01*
X-24542857Y-30143409D01*
X-24619047Y-30181504D01*
X-24847619Y-30181504D01*
X-24923809Y-30143409D01*
X-24961904Y-30105314D01*
%TO.C,T14*%
X-24990476Y15886095D02*
X-24533333Y15886095D01*
X-24761904Y15086095D02*
X-24761904Y15886095D01*
X-23847619Y15086095D02*
X-24304761Y15086095D01*
X-24076190Y15086095D02*
X-24076190Y15886095D01*
X-24152380Y15771809D01*
X-24228571Y15695619D01*
X-24304761Y15657523D01*
X-23161904Y15619428D02*
X-23161904Y15086095D01*
X-23352380Y15924190D02*
X-23542857Y15352761D01*
X-23047619Y15352761D01*
%TO.C,LED201*%
X53602380Y16078571D02*
X53602380Y15602380D01*
X52602380Y15602380D01*
X53078571Y16411904D02*
X53078571Y16745238D01*
X53602380Y16888095D02*
X53602380Y16411904D01*
X52602380Y16411904D01*
X52602380Y16888095D01*
X53602380Y17316666D02*
X52602380Y17316666D01*
X52602380Y17554761D01*
X52650000Y17697619D01*
X52745238Y17792857D01*
X52840476Y17840476D01*
X53030952Y17888095D01*
X53173809Y17888095D01*
X53364285Y17840476D01*
X53459523Y17792857D01*
X53554761Y17697619D01*
X53602380Y17554761D01*
X53602380Y17316666D01*
X52697619Y18269047D02*
X52650000Y18316666D01*
X52602380Y18411904D01*
X52602380Y18650000D01*
X52650000Y18745238D01*
X52697619Y18792857D01*
X52792857Y18840476D01*
X52888095Y18840476D01*
X53030952Y18792857D01*
X53602380Y18221428D01*
X53602380Y18840476D01*
X52602380Y19459523D02*
X52602380Y19554761D01*
X52650000Y19650000D01*
X52697619Y19697619D01*
X52792857Y19745238D01*
X52983333Y19792857D01*
X53221428Y19792857D01*
X53411904Y19745238D01*
X53507142Y19697619D01*
X53554761Y19650000D01*
X53602380Y19554761D01*
X53602380Y19459523D01*
X53554761Y19364285D01*
X53507142Y19316666D01*
X53411904Y19269047D01*
X53221428Y19221428D01*
X52983333Y19221428D01*
X52792857Y19269047D01*
X52697619Y19316666D01*
X52650000Y19364285D01*
X52602380Y19459523D01*
X53602380Y20745238D02*
X53602380Y20173809D01*
X53602380Y20459523D02*
X52602380Y20459523D01*
X52745238Y20364285D01*
X52840476Y20269047D01*
X52888095Y20173809D01*
%TO.C,T11*%
X15875123Y43846895D02*
X16332266Y43846895D01*
X16103695Y43046895D02*
X16103695Y43846895D01*
X17017980Y43046895D02*
X16560838Y43046895D01*
X16789409Y43046895D02*
X16789409Y43846895D01*
X16713219Y43732609D01*
X16637028Y43656419D01*
X16560838Y43618323D01*
X17779885Y43046895D02*
X17322742Y43046895D01*
X17551314Y43046895D02*
X17551314Y43846895D01*
X17475123Y43732609D01*
X17398933Y43656419D01*
X17322742Y43618323D01*
D12*
%TO.C,J15*%
X23940000Y35960000D02*
X23940000Y35540000D01*
X25920000Y35960000D02*
X23940000Y35960000D01*
X28290000Y28440000D02*
X27890000Y28440000D01*
X23260000Y30890000D02*
X23260000Y30440000D01*
X23940000Y28440000D02*
X23940000Y28860000D01*
X25920000Y28440000D02*
X23940000Y28440000D01*
X27890000Y35960000D02*
X28290000Y35960000D01*
X23710000Y30440000D02*
X23260000Y30440000D01*
%TO.C,Q3*%
X24470600Y-39722500D02*
X24805600Y-39722500D01*
X27405600Y-42992500D02*
X27740600Y-42992500D01*
X24470600Y-43227500D02*
X24470600Y-39722500D01*
X27405600Y-39722500D02*
X27740600Y-39722500D01*
X27740600Y-42992500D02*
X27740600Y-39722500D01*
%TO.C,D1*%
X-12900000Y-46460000D02*
X-11257500Y-46460000D01*
X-12900000Y-44540000D02*
X-12900000Y-46460000D01*
X-11257500Y-44540000D02*
X-12900000Y-44540000D01*
D13*
%TO.C,REF\u002A\u002A*%
X28500000Y-31600000D02*
X28500000Y-1600000D01*
D12*
%TO.C,R202*%
X47172500Y12087258D02*
X47172500Y11612742D01*
X46127500Y12087258D02*
X46127500Y11612742D01*
%TO.C,Q11*%
X1270000Y4800000D02*
X1270000Y5460000D01*
X1270000Y3140000D02*
X1270000Y3800000D01*
X2680000Y5460000D02*
X1270000Y5460000D01*
X1270000Y3140000D02*
X3300000Y3140000D01*
%TO.C,T10*%
X17565600Y38760400D02*
G75*
G03*
X17565600Y38760400I-700000J0D01*
G01*
%TO.C,Q1*%
X-625000Y-23885000D02*
X-290000Y-23885000D01*
X-3560000Y-20615000D02*
X-3225000Y-20615000D01*
X-3560000Y-24120000D02*
X-3560000Y-20615000D01*
X-625000Y-20615000D02*
X-290000Y-20615000D01*
X-290000Y-23885000D02*
X-290000Y-20615000D01*
%TO.C,R44*%
X8362500Y-2957258D02*
X8362500Y-2482742D01*
X7317500Y-2957258D02*
X7317500Y-2482742D01*
%TO.C,J10*%
X26010000Y-32210000D02*
X26010000Y-34860000D01*
X11900000Y-27790000D02*
X25900000Y-27790000D01*
X11790000Y-34860000D02*
X14140000Y-34860000D01*
X11790000Y-32210000D02*
X11790000Y-34860000D01*
X26010000Y-34860000D02*
X23660000Y-34860000D01*
X14140000Y-34860000D02*
X14140000Y-36250000D01*
%TO.C,T7*%
X-13125000Y5100000D02*
G75*
G03*
X-13125000Y5100000I-700000J0D01*
G01*
D11*
%TO.C,U5*%
X-8250000Y-35100000D02*
X-8050000Y-34900000D01*
X-6050000Y-35100000D02*
X-6300000Y-35100000D01*
X-6050000Y-38300000D02*
X-6050000Y-38050000D01*
X-8000000Y-35100000D02*
X-8250000Y-35100000D01*
X-8250000Y-38050000D02*
X-8250000Y-38300000D01*
X-6050000Y-35350000D02*
X-6050000Y-35100000D01*
X-6300000Y-38300000D02*
X-6050000Y-38300000D01*
X-8250000Y-38300000D02*
X-8000000Y-38300000D01*
X-8250000Y-35100000D02*
X-8250000Y-35350000D01*
X-8250000Y-35100000D02*
X-8450000Y-35300000D01*
D12*
%TO.C,C36*%
X-13690000Y11009420D02*
X-13690000Y11290580D01*
X-14710000Y11009420D02*
X-14710000Y11290580D01*
%TO.C,C23*%
X-7865000Y37361252D02*
X-7865000Y36838748D01*
X-9335000Y37361252D02*
X-9335000Y36838748D01*
%TO.C,T4*%
X-22300000Y-31000000D02*
G75*
G03*
X-22300000Y-31000000I-700000J0D01*
G01*
%TO.C,R7*%
X1162742Y-24827500D02*
X1637258Y-24827500D01*
X1162742Y-25872500D02*
X1637258Y-25872500D01*
%TO.C,D4*%
X28300000Y-38950000D02*
X24400000Y-38950000D01*
X28300000Y-36950000D02*
X24400000Y-36950000D01*
X28300000Y-38950000D02*
X28300000Y-36950000D01*
%TO.C,R8*%
X9537742Y-25872500D02*
X10012258Y-25872500D01*
X9537742Y-24827500D02*
X10012258Y-24827500D01*
%TO.C,Q9*%
X2680000Y8460000D02*
X1270000Y8460000D01*
X1270000Y6140000D02*
X1270000Y6800000D01*
X1270000Y6140000D02*
X3300000Y6140000D01*
X1270000Y7800000D02*
X1270000Y8460000D01*
%TO.C,T15*%
X-23300000Y11000000D02*
G75*
G03*
X-23300000Y11000000I-700000J0D01*
G01*
%TO.C,R43*%
X3927500Y7062742D02*
X3927500Y7537258D01*
X4972500Y7062742D02*
X4972500Y7537258D01*
%TO.C,U13*%
X-17710000Y16600000D02*
X-17710000Y13150000D01*
X-12590000Y16600000D02*
X-12590000Y18550000D01*
X-17710000Y16600000D02*
X-17710000Y18550000D01*
X-12590000Y16600000D02*
X-12590000Y14650000D01*
%TO.C,C43*%
X12010000Y-41088748D02*
X12010000Y-42511252D01*
X13830000Y-41088748D02*
X13830000Y-42511252D01*
D13*
%TO.C,REF\u002A\u002A*%
X28500000Y-46700000D02*
X28500000Y-16700000D01*
D12*
%TO.C,R201*%
X45927500Y20087258D02*
X45927500Y19612742D01*
X46972500Y20087258D02*
X46972500Y19612742D01*
%TO.C,C42*%
X-8840000Y-35240580D02*
X-8840000Y-34959420D01*
X-9860000Y-35240580D02*
X-9860000Y-34959420D01*
%TO.C,LED203*%
X52500000Y1550000D02*
X52500000Y750000D01*
X51950000Y3750000D02*
X48050000Y3750000D01*
X52500044Y750000D02*
X48050000Y750000D01*
%TO.C,C13*%
X-2240000Y-29788748D02*
X-2240000Y-31211252D01*
X-4060000Y-29788748D02*
X-4060000Y-31211252D01*
%TO.C,C104*%
X32799420Y-10100000D02*
X33080580Y-10100000D01*
X32799420Y-9080000D02*
X33080580Y-9080000D01*
%TO.C,Q4*%
X20350000Y27820000D02*
X19690000Y27820000D01*
X22010000Y27820000D02*
X22010000Y29850000D01*
X22010000Y27820000D02*
X21350000Y27820000D01*
X19690000Y29230000D02*
X19690000Y27820000D01*
%TO.C,C108*%
X34734420Y-6960000D02*
X35015580Y-6960000D01*
X34734420Y-5940000D02*
X35015580Y-5940000D01*
%TO.C,U8*%
X-13454000Y-20907200D02*
X-12154000Y-20907200D01*
X-13454000Y-18107200D02*
X-12454000Y-18107200D01*
%TO.C,U11*%
X-15500000Y550000D02*
X-15500000Y-450000D01*
X-18300000Y550000D02*
X-18300000Y-750000D01*
%TO.C,J201*%
X35940000Y17490000D02*
X35940000Y17190000D01*
X35940000Y25310000D02*
X35940000Y25010000D01*
X40060000Y25010000D02*
X42440000Y25010000D01*
X35940000Y21490000D02*
X35940000Y21010000D01*
X40060000Y19490000D02*
X40060000Y19010000D01*
X35940000Y17190000D02*
X40060000Y17190000D01*
X40060000Y23490000D02*
X40060000Y23010000D01*
X35940000Y25310000D02*
X40060000Y25310000D01*
X40060000Y17490000D02*
X40060000Y17190000D01*
X35940000Y23490000D02*
X35940000Y23010000D01*
X40060000Y21490000D02*
X40060000Y21010000D01*
X35940000Y19490000D02*
X35940000Y19010000D01*
X40060000Y25310000D02*
X40060000Y25010000D01*
%TO.C,R26*%
X24135238Y-17196311D02*
X23799705Y-16860778D01*
X23396311Y-17935238D02*
X23060778Y-17599705D01*
%TO.C,R20*%
X-1680000Y53998641D02*
X-1680000Y53691359D01*
X-920000Y53998641D02*
X-920000Y53691359D01*
%TO.C,T1*%
X-15625000Y5100000D02*
G75*
G03*
X-15625000Y5100000I-700000J0D01*
G01*
%TO.C,R40*%
X1762742Y-2872500D02*
X2237258Y-2872500D01*
X1762742Y-1827500D02*
X2237258Y-1827500D01*
D14*
%TO.C,J12*%
X300000Y60645000D02*
X-200000Y60645000D01*
X-2900000Y57345000D02*
X-2400000Y57345000D01*
X-2900000Y60645000D02*
X-2400000Y60645000D01*
X-2900000Y57345000D02*
X-2900000Y57845000D01*
X300000Y57345000D02*
X300000Y57845000D01*
X-2900000Y60645000D02*
X-2900000Y60145000D01*
X300000Y57345000D02*
X-200000Y57345000D01*
X300000Y60645000D02*
X300000Y60145000D01*
D12*
%TO.C,R204*%
X46072500Y17037258D02*
X46072500Y16562742D01*
X45027500Y17037258D02*
X45027500Y16562742D01*
%TO.C,R35*%
X777500Y-33937258D02*
X777500Y-33462742D01*
X1822500Y-33937258D02*
X1822500Y-33462742D01*
%TO.C,TP101*%
X43185377Y-8089716D02*
G75*
G03*
X43185377Y-8089716I-700000J0D01*
G01*
%TO.C,R38*%
X72500Y-4362742D02*
X72500Y-4837258D01*
X-972500Y-4362742D02*
X-972500Y-4837258D01*
%TO.C,R22*%
X-15187258Y-30977500D02*
X-14712742Y-30977500D01*
X-15187258Y-32022500D02*
X-14712742Y-32022500D01*
%TO.C,C28*%
X-13090580Y-23790000D02*
X-12809420Y-23790000D01*
X-13090580Y-24810000D02*
X-12809420Y-24810000D01*
%TO.C,MIC101*%
X33370000Y-23310000D02*
X33370000Y-23810000D01*
X37090000Y-25690000D02*
X37090000Y-26190000D01*
X36590000Y-23310000D02*
X37090000Y-23310000D01*
X36590000Y-26190000D02*
X37090000Y-26190000D01*
X33370000Y-25690000D02*
X33370000Y-26190000D01*
X33370000Y-23310000D02*
X33870000Y-23310000D01*
X37090000Y-23310000D02*
X37090000Y-23810000D01*
%TO.C,T2*%
X-20800000Y11000000D02*
G75*
G03*
X-20800000Y11000000I-700000J0D01*
G01*
%TO.C,R15*%
X-5212742Y-39922500D02*
X-5687258Y-39922500D01*
X-5212742Y-38877500D02*
X-5687258Y-38877500D01*
%TO.C,R23*%
X-9812742Y-17722500D02*
X-10287258Y-17722500D01*
X-9812742Y-16677500D02*
X-10287258Y-16677500D01*
%TO.C,J5*%
X1900000Y29600000D02*
G75*
G03*
X1900000Y29600000I-700000J0D01*
G01*
%TO.C,R209*%
X50412742Y5927500D02*
X50887258Y5927500D01*
X50412742Y6972500D02*
X50887258Y6972500D01*
%TO.C,D3*%
X-900000Y-46460000D02*
X742500Y-46460000D01*
X-900000Y-44540000D02*
X-900000Y-46460000D01*
X742500Y-44540000D02*
X-900000Y-44540000D01*
D15*
%TO.C,U7*%
X15500000Y52800000D02*
X-7500000Y52800000D01*
X-7500000Y30800000D02*
X15500000Y30800000D01*
X-7500000Y52800000D02*
X-7500000Y30800000D01*
X15500000Y30800000D02*
X15500000Y52800000D01*
D16*
X-3926000Y33520000D02*
G75*
G03*
X-3926000Y33520000I-254000J0D01*
G01*
D11*
%TO.C,U15*%
X19325000Y29625000D02*
X19325000Y32975000D01*
X19325000Y29625000D02*
X19025000Y29625000D01*
X15975000Y29625000D02*
X15975000Y32975000D01*
X19325000Y32975000D02*
X19025000Y32975000D01*
X15975000Y32975000D02*
X16275000Y32975000D01*
X16200000Y29625000D02*
X16200000Y28400000D01*
X15975000Y29625000D02*
X16200000Y29625000D01*
D12*
%TO.C,R16*%
X10107258Y-38817500D02*
X9632742Y-38817500D01*
X10107258Y-39862500D02*
X9632742Y-39862500D01*
%TO.C,J8*%
X6700000Y28600000D02*
G75*
G03*
X6700000Y28600000I-700000J0D01*
G01*
%TO.C,C45*%
X14340000Y-41088748D02*
X14340000Y-42511252D01*
X16160000Y-41088748D02*
X16160000Y-42511252D01*
%TO.C,TP102*%
X41125000Y-17000000D02*
G75*
G03*
X41125000Y-17000000I-700000J0D01*
G01*
%TO.C,T6*%
X-18325000Y-31025000D02*
G75*
G03*
X-18325000Y-31025000I-700000J0D01*
G01*
%TO.C,U10*%
X-12450000Y550000D02*
X-12450000Y-450000D01*
X-15250000Y550000D02*
X-15250000Y-750000D01*
%TO.C,J101*%
X44240000Y-16065000D02*
X44240000Y-14810000D01*
X52060000Y-14810000D02*
X52060000Y-10690000D01*
X51760000Y-10690000D02*
X52060000Y-10690000D01*
X45760000Y-14810000D02*
X46240000Y-14810000D01*
X43940000Y-10690000D02*
X44240000Y-10690000D01*
X43940000Y-14810000D02*
X44240000Y-14810000D01*
X49760000Y-14810000D02*
X50240000Y-14810000D01*
X45760000Y-10690000D02*
X46240000Y-10690000D01*
X43940000Y-14810000D02*
X43940000Y-10690000D01*
X47760000Y-14810000D02*
X48240000Y-14810000D01*
X49760000Y-10690000D02*
X50240000Y-10690000D01*
X51760000Y-14810000D02*
X52060000Y-14810000D01*
X47760000Y-10690000D02*
X48240000Y-10690000D01*
%TO.C,C16*%
X2330000Y-29188748D02*
X2330000Y-30611252D01*
X4150000Y-29188748D02*
X4150000Y-30611252D01*
%TO.C,C105*%
X32292164Y-11185000D02*
X32507836Y-11185000D01*
X32292164Y-10465000D02*
X32507836Y-10465000D01*
%TO.C,C103*%
X32292164Y-12310000D02*
X32507836Y-12310000D01*
X32292164Y-11590000D02*
X32507836Y-11590000D01*
%TO.C,C18*%
X11190580Y-27360000D02*
X10909420Y-27360000D01*
X11190580Y-26340000D02*
X10909420Y-26340000D01*
%TO.C,R33*%
X72500Y-10562742D02*
X72500Y-11037258D01*
X-972500Y-10562742D02*
X-972500Y-11037258D01*
%TO.C,R45*%
X-1022500Y1062742D02*
X-1022500Y1537258D01*
X22500Y1062742D02*
X22500Y1537258D01*
%TO.C,C102*%
X32292164Y-12690000D02*
X32507836Y-12690000D01*
X32292164Y-13410000D02*
X32507836Y-13410000D01*
%TO.C,C17*%
X-740000Y-30059420D02*
X-740000Y-30340580D01*
X-1760000Y-30059420D02*
X-1760000Y-30340580D01*
D11*
%TO.C,U6*%
X6350000Y-38300000D02*
X6600000Y-38300000D01*
X8550000Y-38300000D02*
X8550000Y-38050000D01*
X6350000Y-35100000D02*
X6150000Y-35300000D01*
X6350000Y-35100000D02*
X6350000Y-35350000D01*
X8550000Y-35350000D02*
X8550000Y-35100000D01*
X8300000Y-38300000D02*
X8550000Y-38300000D01*
X6350000Y-35100000D02*
X6550000Y-34900000D01*
X6600000Y-35100000D02*
X6350000Y-35100000D01*
X6350000Y-38050000D02*
X6350000Y-38300000D01*
X8550000Y-35100000D02*
X8300000Y-35100000D01*
D12*
%TO.C,U101*%
X35290000Y-13260000D02*
X35290000Y-12810000D01*
X35740000Y-13260000D02*
X35290000Y-13260000D01*
X39060000Y-9040000D02*
X39510000Y-9040000D01*
X39510000Y-13260000D02*
X39510000Y-12810000D01*
X39510000Y-9040000D02*
X39510000Y-9490000D01*
X35740000Y-9040000D02*
X35290000Y-9040000D01*
X39060000Y-13260000D02*
X39510000Y-13260000D01*
%TO.C,C38*%
X-15790000Y51309420D02*
X-15790000Y51590580D01*
X-16810000Y51309420D02*
X-16810000Y51590580D01*
%TO.C,C6*%
X-10440000Y-35361252D02*
X-10440000Y-33938748D01*
X-12260000Y-35361252D02*
X-12260000Y-33938748D01*
%TO.C,TP103*%
X43150000Y-16975000D02*
G75*
G03*
X43150000Y-16975000I-700000J0D01*
G01*
%TO.C,R13*%
X10587258Y-36987500D02*
X10112742Y-36987500D01*
X10587258Y-38032500D02*
X10112742Y-38032500D01*
%TO.C,R37*%
X-972500Y-7937258D02*
X-972500Y-7462742D01*
X72500Y-7937258D02*
X72500Y-7462742D01*
%TO.C,U12*%
X14601885Y-16464124D02*
X14266009Y-16800000D01*
X16914124Y-14151885D02*
X17250000Y-13816009D01*
X17250000Y-19783991D02*
X16914124Y-19448115D01*
X17250000Y-13816009D02*
X17585876Y-14151885D01*
X20233991Y-16800000D02*
X19898115Y-16464124D01*
X19898115Y-17135876D02*
X20233991Y-16800000D01*
X17585876Y-19448115D02*
X17250000Y-19783991D01*
%TO.C,J11*%
X9905000Y55960000D02*
X9905000Y57840000D01*
X3195000Y55960000D02*
X3195000Y57840000D01*
%TO.C,C101*%
X32760000Y-24642164D02*
X32760000Y-24857836D01*
X32040000Y-24642164D02*
X32040000Y-24857836D01*
%TO.C,C20*%
X-2642164Y53705000D02*
X-2857836Y53705000D01*
X-2642164Y52985000D02*
X-2857836Y52985000D01*
%TO.C,C12*%
X10010580Y-41360000D02*
X9729420Y-41360000D01*
X10010580Y-40340000D02*
X9729420Y-40340000D01*
%TO.C,R2*%
X-2437258Y15722500D02*
X-1962742Y15722500D01*
X-2437258Y14677500D02*
X-1962742Y14677500D01*
%TO.C,R5*%
X-17572500Y-39012742D02*
X-17572500Y-39487258D01*
X-16527500Y-39012742D02*
X-16527500Y-39487258D01*
%TO.C,Q10*%
X1270000Y1800000D02*
X1270000Y2460000D01*
X1270000Y140000D02*
X1270000Y800000D01*
X2680000Y2460000D02*
X1270000Y2460000D01*
X1270000Y140000D02*
X3300000Y140000D01*
%TO.C,Module1*%
X23070000Y8900000D02*
X23070000Y7900000D01*
X-12000000Y24000000D02*
X-12000000Y-24000000D01*
X-10850000Y-13900000D02*
X-10850000Y-12900000D01*
X-7070000Y-13900000D02*
X-7070000Y-12900000D01*
X28000000Y-24000000D02*
X28000000Y24000000D01*
X-8500000Y-27500000D02*
X24500000Y-27500000D01*
X23070000Y-13900000D02*
X23070000Y-12900000D01*
X-10850000Y8900000D02*
X-7070000Y8900000D01*
X-10850000Y-13900000D02*
X-7070000Y-13900000D01*
X24500000Y27500000D02*
X-8500000Y27500000D01*
X26850000Y8900000D02*
X26850000Y7900000D01*
X23070000Y-13900000D02*
X26850000Y-13900000D01*
X23070000Y8900000D02*
X26850000Y8900000D01*
X26850000Y-13900000D02*
X26850000Y-12900000D01*
X-12000000Y24000000D02*
G75*
G02*
X-8500000Y27500000I3500000J0D01*
G01*
X-8500000Y-27500000D02*
G75*
G02*
X-12000000Y-24000000I0J3500000D01*
G01*
X24500000Y27500000D02*
G75*
G02*
X28000000Y24000000I0J-3500000D01*
G01*
X28000000Y-24000000D02*
G75*
G02*
X24500000Y-27500000I-3500000J0D01*
G01*
%TO.C,R4*%
X-8212742Y-41427500D02*
X-8687258Y-41427500D01*
X-8212742Y-42472500D02*
X-8687258Y-42472500D01*
%TO.C,T13*%
X100000Y-42600000D02*
G75*
G03*
X100000Y-42600000I-700000J0D01*
G01*
%TO.C,R6*%
X6387258Y-18577500D02*
X5912742Y-18577500D01*
X6387258Y-19622500D02*
X5912742Y-19622500D01*
%TO.C,C15*%
X-12260000Y-29313748D02*
X-12260000Y-30736252D01*
X-10440000Y-29313748D02*
X-10440000Y-30736252D01*
%TO.C,C5*%
X2340000Y-35861252D02*
X2340000Y-34438748D01*
X4160000Y-35861252D02*
X4160000Y-34438748D01*
%TO.C,R21*%
X-15187258Y-30522500D02*
X-14712742Y-30522500D01*
X-15187258Y-29477500D02*
X-14712742Y-29477500D01*
%TO.C,R3*%
X-5327500Y4762742D02*
X-5327500Y5237258D01*
X-6372500Y4762742D02*
X-6372500Y5237258D01*
%TO.C,C30*%
X-23859420Y-1340000D02*
X-24140580Y-1340000D01*
X-23859420Y-2360000D02*
X-24140580Y-2360000D01*
%TO.C,C41*%
X10110000Y-35240580D02*
X10110000Y-34959420D01*
X9090000Y-35240580D02*
X9090000Y-34959420D01*
%TO.C,J4*%
X300000Y28600000D02*
G75*
G03*
X300000Y28600000I-700000J0D01*
G01*
%TO.C,C21*%
X-9360000Y40159420D02*
X-9360000Y40440580D01*
X-8340000Y40159420D02*
X-8340000Y40440580D01*
%TO.C,C4*%
X-4340000Y-35240580D02*
X-4340000Y-34959420D01*
X-5360000Y-35240580D02*
X-5360000Y-34959420D01*
D13*
%TO.C,REF\u002A\u002A*%
X28500000Y27700000D02*
X28500000Y57700000D01*
D12*
%TO.C,R27*%
X22037230Y-15098303D02*
X21701697Y-14762770D01*
X21298303Y-15837230D02*
X20962770Y-15501697D01*
%TO.C,R41*%
X3927500Y1062742D02*
X3927500Y1537258D01*
X4972500Y1062742D02*
X4972500Y1537258D01*
%TO.C,C10*%
X5651600Y-38219980D02*
X5651600Y-37938820D01*
X4631600Y-38219980D02*
X4631600Y-37938820D01*
%TO.C,C32*%
X12915773Y-18662978D02*
X12716962Y-18861789D01*
X13637022Y-19384227D02*
X13438211Y-19583038D01*
%TO.C,Q8*%
X-2680000Y17840000D02*
X-650000Y17840000D01*
X-1270000Y20160000D02*
X-2680000Y20160000D01*
X-2680000Y17840000D02*
X-2680000Y18500000D01*
X-2680000Y19500000D02*
X-2680000Y20160000D01*
%TO.C,T12*%
X-3450000Y-42600000D02*
G75*
G03*
X-3450000Y-42600000I-700000J0D01*
G01*
%TO.C,FB1*%
X13528748Y-39240000D02*
X14051252Y-39240000D01*
X13528748Y-37020000D02*
X14051252Y-37020000D01*
%TO.C,C112*%
X41740580Y-12791255D02*
X41459420Y-12791255D01*
X41740580Y-11771255D02*
X41459420Y-11771255D01*
%TO.C,J202*%
X37300000Y38410000D02*
X38500000Y38410000D01*
X33240000Y39900000D02*
X31500000Y39900000D01*
X37300000Y26600000D02*
X35960000Y26600000D01*
X37300000Y39900000D02*
X35960000Y39900000D01*
X37300000Y28090000D02*
X37300000Y26600000D01*
X37300000Y38410000D02*
X37300000Y39900000D01*
X31500000Y26600000D02*
X33240000Y26600000D01*
X31500000Y39900000D02*
X31500000Y26600000D01*
%TO.C,U14*%
X-14440000Y7350000D02*
X-14440000Y8750000D01*
X-16760000Y8750000D02*
X-16760000Y6850000D01*
%TO.C,Q2*%
X7750000Y-23885000D02*
X8085000Y-23885000D01*
X7750000Y-20615000D02*
X8085000Y-20615000D01*
X4815000Y-20615000D02*
X5150000Y-20615000D01*
X4815000Y-24120000D02*
X4815000Y-20615000D01*
X8085000Y-23885000D02*
X8085000Y-20615000D01*
%TO.C,C35*%
X-18590000Y12684420D02*
X-18590000Y12965580D01*
X-19610000Y12684420D02*
X-19610000Y12965580D01*
%TO.C,C107*%
X32307164Y-8350000D02*
X32522836Y-8350000D01*
X32307164Y-7630000D02*
X32522836Y-7630000D01*
%TO.C,R36*%
X17672500Y-38062742D02*
X17672500Y-38537258D01*
X16627500Y-38062742D02*
X16627500Y-38537258D01*
%TO.C,R14*%
X-2677500Y-39932742D02*
X-2677500Y-40407258D01*
X-3722500Y-39932742D02*
X-3722500Y-40407258D01*
%TO.C,R34*%
X9947500Y-2487742D02*
X9947500Y-2962258D01*
X8902500Y-2487742D02*
X8902500Y-2962258D01*
%TO.C,C9*%
X-9860000Y-37959420D02*
X-9860000Y-38240580D01*
X-8840000Y-37959420D02*
X-8840000Y-38240580D01*
%TO.C,C11*%
X-1190000Y-40029420D02*
X-1190000Y-40310580D01*
X-2210000Y-40029420D02*
X-2210000Y-40310580D01*
%TO.C,C33*%
X17889970Y-22911219D02*
X18088781Y-23110030D01*
X18611219Y-22189970D02*
X18810030Y-22388781D01*
%TO.C,C19*%
X-2857836Y53935000D02*
X-2642164Y53935000D01*
X-2857836Y54655000D02*
X-2642164Y54655000D01*
%TO.C,LED202*%
X51950000Y11750000D02*
X48050000Y11750000D01*
X52500000Y9550000D02*
X52500000Y8750000D01*
X52500044Y8750000D02*
X48050000Y8750000D01*
D14*
%TO.C,D6*%
X-14290000Y-21550000D02*
G75*
G03*
X-14290000Y-21550000I-50000J0D01*
G01*
D12*
%TO.C,T16*%
X-20800000Y14000000D02*
G75*
G03*
X-20800000Y14000000I-700000J0D01*
G01*
%TO.C,D7*%
X11100000Y-46460000D02*
X12742500Y-46460000D01*
X11100000Y-44540000D02*
X11100000Y-46460000D01*
X12742500Y-44540000D02*
X11100000Y-44540000D01*
%TO.C,R12*%
X-2362742Y-38372500D02*
X-2837258Y-38372500D01*
X-2362742Y-37327500D02*
X-2837258Y-37327500D01*
%TO.C,R28*%
X23085238Y-18246311D02*
X22749705Y-17910778D01*
X22346311Y-18985238D02*
X22010778Y-18649705D01*
%TO.C,C22*%
X-9335000Y43238748D02*
X-9335000Y43761252D01*
X-7865000Y43238748D02*
X-7865000Y43761252D01*
%TO.C,R39*%
X1762742Y-277500D02*
X2237258Y-277500D01*
X1762742Y-1322500D02*
X2237258Y-1322500D01*
%TO.C,J16*%
X-11400000Y36340000D02*
X-11400000Y34850000D01*
X-15460000Y48150000D02*
X-17200000Y48150000D01*
X-11400000Y46660000D02*
X-11400000Y48150000D01*
X-11400000Y48150000D02*
X-12740000Y48150000D01*
X-17200000Y48150000D02*
X-17200000Y34850000D01*
X-11400000Y46660000D02*
X-10200000Y46660000D01*
X-11400000Y34850000D02*
X-12740000Y34850000D01*
X-17200000Y34850000D02*
X-15460000Y34850000D01*
%TO.C,J1*%
X-4500000Y29600000D02*
G75*
G03*
X-4500000Y29600000I-700000J0D01*
G01*
%TO.C,T5*%
X-20300000Y-30975000D02*
G75*
G03*
X-20300000Y-30975000I-700000J0D01*
G01*
%TO.C,R24*%
X-16221942Y1560300D02*
X-16696458Y1560300D01*
X-16221942Y2605300D02*
X-16696458Y2605300D01*
%TO.C,D5*%
X23730000Y-43730000D02*
X23730000Y-45730000D01*
X23730000Y-45730000D02*
X27580000Y-45730000D01*
X23730000Y-43730000D02*
X27580000Y-43730000D01*
%TO.C,C40*%
X19659227Y-21137978D02*
X19858038Y-21336789D01*
X18937978Y-21859227D02*
X19136789Y-22058038D01*
%TO.C,J9*%
X8300000Y29600000D02*
G75*
G03*
X8300000Y29600000I-700000J0D01*
G01*
%TO.C,R42*%
X4972500Y4062742D02*
X4972500Y4537258D01*
X3927500Y4062742D02*
X3927500Y4537258D01*
%TO.C,T8*%
X-7783600Y32562800D02*
G75*
G03*
X-7783600Y32562800I-700000J0D01*
G01*
D11*
%TO.C,U9*%
X-15200000Y57750000D02*
X-9475000Y57750000D01*
X-9475000Y50925000D02*
X-9475000Y50950000D01*
X-9475000Y57750000D02*
X-9475000Y57650000D01*
X-14125000Y50925000D02*
X-14125000Y50950000D01*
X-14125000Y50925000D02*
X-9475000Y50925000D01*
D12*
%TO.C,R31*%
X19912742Y25527500D02*
X20387258Y25527500D01*
X19912742Y26572500D02*
X20387258Y26572500D01*
%TO.C,C39*%
X19989970Y-20811219D02*
X20188781Y-21010030D01*
X20711219Y-20089970D02*
X20910030Y-20288781D01*
%TO.C,C2*%
X913748Y-41210000D02*
X2336252Y-41210000D01*
X913748Y-39390000D02*
X2336252Y-39390000D01*
%TO.C,R17*%
X8172500Y-40337258D02*
X8172500Y-39862742D01*
X7127500Y-40337258D02*
X7127500Y-39862742D01*
%TO.C,C106*%
X32307164Y-6690000D02*
X32522836Y-6690000D01*
X32307164Y-7410000D02*
X32522836Y-7410000D01*
%TO.C,L1*%
X-10044000Y-33494000D02*
X-10044000Y-27906000D01*
X-4456000Y-27906000D02*
X-4456000Y-33494000D01*
%TO.C,C110*%
X39709420Y-6860000D02*
X39990580Y-6860000D01*
X39709420Y-5840000D02*
X39990580Y-5840000D01*
%TO.C,R203*%
X47072500Y4187258D02*
X47072500Y3712742D01*
X46027500Y4187258D02*
X46027500Y3712742D01*
%TO.C,C7*%
X-8309420Y-40860000D02*
X-8590580Y-40860000D01*
X-8309420Y-39840000D02*
X-8590580Y-39840000D01*
%TO.C,T9*%
X-7783600Y29514800D02*
G75*
G03*
X-7783600Y29514800I-700000J0D01*
G01*
%TO.C,J2*%
X-2900000Y28600000D02*
G75*
G03*
X-2900000Y28600000I-700000J0D01*
G01*
%TO.C,R208*%
X50412742Y13727500D02*
X50887258Y13727500D01*
X50412742Y14772500D02*
X50887258Y14772500D01*
%TO.C,R11*%
X22337258Y-44627500D02*
X21862742Y-44627500D01*
X22337258Y-45672500D02*
X21862742Y-45672500D01*
%TO.C,R19*%
X-920000Y55898641D02*
X-920000Y55591359D01*
X-1680000Y55898641D02*
X-1680000Y55591359D01*
%TO.C,R46*%
X-1022500Y4062742D02*
X-1022500Y4537258D01*
X22500Y4062742D02*
X22500Y4537258D01*
%TO.C,C29*%
X-21061252Y-2335000D02*
X-20538748Y-2335000D01*
X-21061252Y-865000D02*
X-20538748Y-865000D01*
%TO.C,T3*%
X-24300000Y-31025000D02*
G75*
G03*
X-24300000Y-31025000I-700000J0D01*
G01*
%TO.C,J13*%
X-14478500Y-26200500D02*
X-14478500Y-28994500D01*
X-14925000Y-25248000D02*
X-14925000Y-26200500D01*
X-14925000Y-17374000D02*
X-14925000Y-19152000D01*
X-14478500Y-26200500D02*
X-14923000Y-26200500D01*
X-21125000Y-17374000D02*
X-14925000Y-17374000D01*
X-14478500Y-28994500D02*
X-15748500Y-28994500D01*
X-29210500Y-17380000D02*
X-28702500Y-17380000D01*
X-25464000Y-17374000D02*
X-23368500Y-17374000D01*
X-23368500Y-28994500D02*
X-25464000Y-28994500D01*
X-28702500Y-28994500D02*
X-29210500Y-28994500D01*
X-18479000Y-28994500D02*
X-21125000Y-28994500D01*
X-29210500Y-17380000D02*
X-29210500Y-28994500D01*
X-14923000Y-20803000D02*
X-14925000Y-23597000D01*
%TO.C,U2*%
X16513604Y-26143503D02*
X15806497Y-25436396D01*
X18493503Y-24163604D02*
X17574264Y-23244365D01*
%TO.C,C31*%
X12587022Y-18334227D02*
X12388211Y-18533038D01*
X11865773Y-17612978D02*
X11666962Y-17811789D01*
%TO.C,U3*%
X-1225000Y-24690000D02*
X-2625000Y-24690000D01*
X-2625000Y-27010000D02*
X-725000Y-27010000D01*
%TO.C,C3*%
X4640000Y-35240580D02*
X4640000Y-34959420D01*
X5660000Y-35240580D02*
X5660000Y-34959420D01*
%TO.C,C8*%
X5269420Y-40840000D02*
X5550580Y-40840000D01*
X5269420Y-39820000D02*
X5550580Y-39820000D01*
%TO.C,R10*%
X9537742Y-24372500D02*
X10012258Y-24372500D01*
X9537742Y-23327500D02*
X10012258Y-23327500D01*
%TO.C,R30*%
X-16687258Y9877500D02*
X-16212742Y9877500D01*
X-16687258Y10922500D02*
X-16212742Y10922500D01*
%TO.C,C111*%
X39792164Y-8060000D02*
X40007836Y-8060000D01*
X39792164Y-7340000D02*
X40007836Y-7340000D01*
%TO.C,R103*%
X41362742Y-14372500D02*
X41837258Y-14372500D01*
X41362742Y-13327500D02*
X41837258Y-13327500D01*
%TO.C,R29*%
X-16687258Y12422500D02*
X-16212742Y12422500D01*
X-16687258Y11377500D02*
X-16212742Y11377500D01*
%TO.C,J6*%
X3500000Y28600000D02*
G75*
G03*
X3500000Y28600000I-700000J0D01*
G01*
%TO.C,T14*%
X-23300000Y14000000D02*
G75*
G03*
X-23300000Y14000000I-700000J0D01*
G01*
%TO.C,R207*%
X50412742Y16322500D02*
X50887258Y16322500D01*
X50412742Y15277500D02*
X50887258Y15277500D01*
%TO.C,C14*%
X1760000Y-29188748D02*
X1760000Y-30611252D01*
X-60000Y-29188748D02*
X-60000Y-30611252D01*
%TO.C,Q7*%
X1320000Y-5760000D02*
X2730000Y-5760000D01*
X2730000Y-5100000D02*
X2730000Y-5760000D01*
X2730000Y-3440000D02*
X2730000Y-4100000D01*
X2730000Y-3440000D02*
X700000Y-3440000D01*
%TO.C,C26*%
X-13090580Y-23310000D02*
X-12809420Y-23310000D01*
X-13090580Y-22290000D02*
X-12809420Y-22290000D01*
%TO.C,R101*%
X38246359Y-25720000D02*
X38553641Y-25720000D01*
X38246359Y-26480000D02*
X38553641Y-26480000D01*
%TO.C,R25*%
X21296311Y-20035238D02*
X20960778Y-19699705D01*
X22035238Y-19296311D02*
X21699705Y-18960778D01*
D14*
%TO.C,D9*%
X-3790000Y55245000D02*
G75*
G03*
X-3790000Y55245000I-50000J0D01*
G01*
D12*
%TO.C,R102*%
X38246359Y-22970000D02*
X38553641Y-22970000D01*
X38246359Y-23730000D02*
X38553641Y-23730000D01*
%TO.C,R1*%
X-2437258Y13177500D02*
X-1962742Y13177500D01*
X-2437258Y14222500D02*
X-1962742Y14222500D01*
%TO.C,R18*%
X-646359Y54865000D02*
X-953641Y54865000D01*
X-646359Y55625000D02*
X-953641Y55625000D01*
%TO.C,R32*%
X19912742Y25072500D02*
X20387258Y25072500D01*
X19912742Y24027500D02*
X20387258Y24027500D01*
%TO.C,Q6*%
X2730000Y-6540000D02*
X700000Y-6540000D01*
X2730000Y-8200000D02*
X2730000Y-8860000D01*
X2730000Y-6540000D02*
X2730000Y-7200000D01*
X1320000Y-8860000D02*
X2730000Y-8860000D01*
%TO.C,LED201*%
X52500000Y17550000D02*
X52500000Y16750000D01*
X51950000Y19750000D02*
X48050000Y19750000D01*
X52500044Y16750000D02*
X48050000Y16750000D01*
D13*
%TO.C,REF\u002A\u002A*%
X28500000Y5200000D02*
X28500000Y35200000D01*
D12*
%TO.C,D2*%
X-23257500Y-44540000D02*
X-24900000Y-44540000D01*
X-24900000Y-46460000D02*
X-23257500Y-46460000D01*
X-24900000Y-44540000D02*
X-24900000Y-46460000D01*
%TO.C,C34*%
X-19610000Y18640580D02*
X-19610000Y18359420D01*
X-18590000Y18640580D02*
X-18590000Y18359420D01*
%TO.C,Q5*%
X2730000Y-9640000D02*
X700000Y-9640000D01*
X1320000Y-11960000D02*
X2730000Y-11960000D01*
X2730000Y-11300000D02*
X2730000Y-11960000D01*
X2730000Y-9640000D02*
X2730000Y-10300000D01*
%TO.C,R206*%
X50412742Y4327500D02*
X50887258Y4327500D01*
X50412742Y5372500D02*
X50887258Y5372500D01*
%TO.C,J7*%
X5100000Y29600000D02*
G75*
G03*
X5100000Y29600000I-700000J0D01*
G01*
%TO.C,R9*%
X1162742Y-23327500D02*
X1637258Y-23327500D01*
X1162742Y-24372500D02*
X1637258Y-24372500D01*
%TO.C,R205*%
X50412742Y12227500D02*
X50887258Y12227500D01*
X50412742Y13272500D02*
X50887258Y13272500D01*
%TO.C,C109*%
X35067164Y-8010000D02*
X35282836Y-8010000D01*
X35067164Y-7290000D02*
X35282836Y-7290000D01*
%TO.C,J3*%
X-1300000Y29600000D02*
G75*
G03*
X-1300000Y29600000I-700000J0D01*
G01*
%TO.C,C44*%
X-1088748Y-34910000D02*
X-2511252Y-34910000D01*
X-1088748Y-33090000D02*
X-2511252Y-33090000D01*
%TO.C,U1*%
X-16960000Y-34300000D02*
X-16960000Y-35700000D01*
X-14640000Y-35700000D02*
X-14640000Y-33800000D01*
%TO.C,L2*%
X10144000Y-27906000D02*
X10144000Y-33494000D01*
X4556000Y-33494000D02*
X4556000Y-27906000D01*
%TO.C,U4*%
X7175000Y-24715000D02*
X5775000Y-24715000D01*
X5775000Y-27035000D02*
X7675000Y-27035000D01*
%TO.C,FB2*%
X-410000Y-37411252D02*
X-410000Y-36888748D01*
X1810000Y-37411252D02*
X1810000Y-36888748D01*
%TO.C,T11*%
X17565600Y41960800D02*
G75*
G03*
X17565600Y41960800I-700000J0D01*
G01*
%TO.C,C37*%
X14090000Y29240580D02*
X14090000Y28959420D01*
X15110000Y29240580D02*
X15110000Y28959420D01*
%TO.C,C1*%
X4335000Y-24459420D02*
X4335000Y-24740580D01*
X3315000Y-24459420D02*
X3315000Y-24740580D01*
%TO.C,C24*%
X-12911252Y-27435000D02*
X-12388748Y-27435000D01*
X-12911252Y-25965000D02*
X-12388748Y-25965000D01*
%TO.C,U16*%
X20600000Y33250000D02*
X21600000Y33250000D01*
X20600000Y30450000D02*
X21900000Y30450000D01*
%TD*%
M02*
